%TF.GenerationSoftware,KiCad,Pcbnew,5.1.6-c6e7f7d~87~ubuntu20.04.1*%
%TF.CreationDate,2020-11-09T11:07:28+00:00*%
%TF.ProjectId,FrequencyCounter,46726571-7565-46e6-9379-436f756e7465,rev?*%
%TF.SameCoordinates,Original*%
%TF.FileFunction,Soldermask,Bot*%
%TF.FilePolarity,Negative*%
%FSLAX46Y46*%
G04 Gerber Fmt 4.6, Leading zero omitted, Abs format (unit mm)*
G04 Created by KiCad (PCBNEW 5.1.6-c6e7f7d~87~ubuntu20.04.1) date 2020-11-09 11:07:28*
%MOMM*%
%LPD*%
G01*
G04 APERTURE LIST*
%ADD10R,2.100000X3.900000*%
%ADD11R,2.100000X1.600000*%
%ADD12R,1.600000X2.100000*%
%ADD13R,3.900000X2.100000*%
%ADD14R,1.700000X1.700000*%
%ADD15C,1.700000*%
%ADD16R,1.000000X1.300000*%
%ADD17R,1.300000X1.000000*%
%ADD18R,5.180000X1.600000*%
%ADD19C,1.800000*%
%ADD20R,2.600000X2.100000*%
%ADD21R,2.600000X0.600000*%
%ADD22C,1.000000*%
%ADD23R,1.100000X1.100000*%
%ADD24O,1.100000X1.100000*%
%ADD25R,1.800000X1.800000*%
%ADD26O,1.800000X1.800000*%
%ADD27R,2.100000X2.005000*%
%ADD28O,2.100000X2.005000*%
%ADD29R,1.573200X0.658800*%
%ADD30O,3.700000X1.900000*%
%ADD31R,2.500000X3.600000*%
G04 APERTURE END LIST*
D10*
%TO.C,U28*%
X88250000Y-25850000D03*
D11*
X81950000Y-25850000D03*
X81950000Y-23550000D03*
X81950000Y-28150000D03*
%TD*%
%TO.C,U20*%
G36*
G01*
X102010000Y-109835000D02*
X102010000Y-109635000D01*
G75*
G02*
X102110000Y-109535000I100000J0D01*
G01*
X103560000Y-109535000D01*
G75*
G02*
X103660000Y-109635000I0J-100000D01*
G01*
X103660000Y-109835000D01*
G75*
G02*
X103560000Y-109935000I-100000J0D01*
G01*
X102110000Y-109935000D01*
G75*
G02*
X102010000Y-109835000I0J100000D01*
G01*
G37*
G36*
G01*
X102010000Y-109335000D02*
X102010000Y-109135000D01*
G75*
G02*
X102110000Y-109035000I100000J0D01*
G01*
X103560000Y-109035000D01*
G75*
G02*
X103660000Y-109135000I0J-100000D01*
G01*
X103660000Y-109335000D01*
G75*
G02*
X103560000Y-109435000I-100000J0D01*
G01*
X102110000Y-109435000D01*
G75*
G02*
X102010000Y-109335000I0J100000D01*
G01*
G37*
G36*
G01*
X102010000Y-108835000D02*
X102010000Y-108635000D01*
G75*
G02*
X102110000Y-108535000I100000J0D01*
G01*
X103560000Y-108535000D01*
G75*
G02*
X103660000Y-108635000I0J-100000D01*
G01*
X103660000Y-108835000D01*
G75*
G02*
X103560000Y-108935000I-100000J0D01*
G01*
X102110000Y-108935000D01*
G75*
G02*
X102010000Y-108835000I0J100000D01*
G01*
G37*
G36*
G01*
X102010000Y-108335000D02*
X102010000Y-108135000D01*
G75*
G02*
X102110000Y-108035000I100000J0D01*
G01*
X103560000Y-108035000D01*
G75*
G02*
X103660000Y-108135000I0J-100000D01*
G01*
X103660000Y-108335000D01*
G75*
G02*
X103560000Y-108435000I-100000J0D01*
G01*
X102110000Y-108435000D01*
G75*
G02*
X102010000Y-108335000I0J100000D01*
G01*
G37*
G36*
G01*
X102010000Y-107835000D02*
X102010000Y-107635000D01*
G75*
G02*
X102110000Y-107535000I100000J0D01*
G01*
X103560000Y-107535000D01*
G75*
G02*
X103660000Y-107635000I0J-100000D01*
G01*
X103660000Y-107835000D01*
G75*
G02*
X103560000Y-107935000I-100000J0D01*
G01*
X102110000Y-107935000D01*
G75*
G02*
X102010000Y-107835000I0J100000D01*
G01*
G37*
G36*
G01*
X102010000Y-107335000D02*
X102010000Y-107135000D01*
G75*
G02*
X102110000Y-107035000I100000J0D01*
G01*
X103560000Y-107035000D01*
G75*
G02*
X103660000Y-107135000I0J-100000D01*
G01*
X103660000Y-107335000D01*
G75*
G02*
X103560000Y-107435000I-100000J0D01*
G01*
X102110000Y-107435000D01*
G75*
G02*
X102010000Y-107335000I0J100000D01*
G01*
G37*
G36*
G01*
X102010000Y-106835000D02*
X102010000Y-106635000D01*
G75*
G02*
X102110000Y-106535000I100000J0D01*
G01*
X103560000Y-106535000D01*
G75*
G02*
X103660000Y-106635000I0J-100000D01*
G01*
X103660000Y-106835000D01*
G75*
G02*
X103560000Y-106935000I-100000J0D01*
G01*
X102110000Y-106935000D01*
G75*
G02*
X102010000Y-106835000I0J100000D01*
G01*
G37*
G36*
G01*
X102010000Y-106335000D02*
X102010000Y-106135000D01*
G75*
G02*
X102110000Y-106035000I100000J0D01*
G01*
X103560000Y-106035000D01*
G75*
G02*
X103660000Y-106135000I0J-100000D01*
G01*
X103660000Y-106335000D01*
G75*
G02*
X103560000Y-106435000I-100000J0D01*
G01*
X102110000Y-106435000D01*
G75*
G02*
X102010000Y-106335000I0J100000D01*
G01*
G37*
G36*
G01*
X102010000Y-105835000D02*
X102010000Y-105635000D01*
G75*
G02*
X102110000Y-105535000I100000J0D01*
G01*
X103560000Y-105535000D01*
G75*
G02*
X103660000Y-105635000I0J-100000D01*
G01*
X103660000Y-105835000D01*
G75*
G02*
X103560000Y-105935000I-100000J0D01*
G01*
X102110000Y-105935000D01*
G75*
G02*
X102010000Y-105835000I0J100000D01*
G01*
G37*
G36*
G01*
X102010000Y-105335000D02*
X102010000Y-105135000D01*
G75*
G02*
X102110000Y-105035000I100000J0D01*
G01*
X103560000Y-105035000D01*
G75*
G02*
X103660000Y-105135000I0J-100000D01*
G01*
X103660000Y-105335000D01*
G75*
G02*
X103560000Y-105435000I-100000J0D01*
G01*
X102110000Y-105435000D01*
G75*
G02*
X102010000Y-105335000I0J100000D01*
G01*
G37*
G36*
G01*
X102010000Y-104835000D02*
X102010000Y-104635000D01*
G75*
G02*
X102110000Y-104535000I100000J0D01*
G01*
X103560000Y-104535000D01*
G75*
G02*
X103660000Y-104635000I0J-100000D01*
G01*
X103660000Y-104835000D01*
G75*
G02*
X103560000Y-104935000I-100000J0D01*
G01*
X102110000Y-104935000D01*
G75*
G02*
X102010000Y-104835000I0J100000D01*
G01*
G37*
G36*
G01*
X102010000Y-104335000D02*
X102010000Y-104135000D01*
G75*
G02*
X102110000Y-104035000I100000J0D01*
G01*
X103560000Y-104035000D01*
G75*
G02*
X103660000Y-104135000I0J-100000D01*
G01*
X103660000Y-104335000D01*
G75*
G02*
X103560000Y-104435000I-100000J0D01*
G01*
X102110000Y-104435000D01*
G75*
G02*
X102010000Y-104335000I0J100000D01*
G01*
G37*
G36*
G01*
X102010000Y-103835000D02*
X102010000Y-103635000D01*
G75*
G02*
X102110000Y-103535000I100000J0D01*
G01*
X103560000Y-103535000D01*
G75*
G02*
X103660000Y-103635000I0J-100000D01*
G01*
X103660000Y-103835000D01*
G75*
G02*
X103560000Y-103935000I-100000J0D01*
G01*
X102110000Y-103935000D01*
G75*
G02*
X102010000Y-103835000I0J100000D01*
G01*
G37*
G36*
G01*
X102010000Y-103335000D02*
X102010000Y-103135000D01*
G75*
G02*
X102110000Y-103035000I100000J0D01*
G01*
X103560000Y-103035000D01*
G75*
G02*
X103660000Y-103135000I0J-100000D01*
G01*
X103660000Y-103335000D01*
G75*
G02*
X103560000Y-103435000I-100000J0D01*
G01*
X102110000Y-103435000D01*
G75*
G02*
X102010000Y-103335000I0J100000D01*
G01*
G37*
G36*
G01*
X102010000Y-102835000D02*
X102010000Y-102635000D01*
G75*
G02*
X102110000Y-102535000I100000J0D01*
G01*
X103560000Y-102535000D01*
G75*
G02*
X103660000Y-102635000I0J-100000D01*
G01*
X103660000Y-102835000D01*
G75*
G02*
X103560000Y-102935000I-100000J0D01*
G01*
X102110000Y-102935000D01*
G75*
G02*
X102010000Y-102835000I0J100000D01*
G01*
G37*
G36*
G01*
X102010000Y-102335000D02*
X102010000Y-102135000D01*
G75*
G02*
X102110000Y-102035000I100000J0D01*
G01*
X103560000Y-102035000D01*
G75*
G02*
X103660000Y-102135000I0J-100000D01*
G01*
X103660000Y-102335000D01*
G75*
G02*
X103560000Y-102435000I-100000J0D01*
G01*
X102110000Y-102435000D01*
G75*
G02*
X102010000Y-102335000I0J100000D01*
G01*
G37*
G36*
G01*
X104560000Y-101035000D02*
X104560000Y-99585000D01*
G75*
G02*
X104660000Y-99485000I100000J0D01*
G01*
X104860000Y-99485000D01*
G75*
G02*
X104960000Y-99585000I0J-100000D01*
G01*
X104960000Y-101035000D01*
G75*
G02*
X104860000Y-101135000I-100000J0D01*
G01*
X104660000Y-101135000D01*
G75*
G02*
X104560000Y-101035000I0J100000D01*
G01*
G37*
G36*
G01*
X105060000Y-101035000D02*
X105060000Y-99585000D01*
G75*
G02*
X105160000Y-99485000I100000J0D01*
G01*
X105360000Y-99485000D01*
G75*
G02*
X105460000Y-99585000I0J-100000D01*
G01*
X105460000Y-101035000D01*
G75*
G02*
X105360000Y-101135000I-100000J0D01*
G01*
X105160000Y-101135000D01*
G75*
G02*
X105060000Y-101035000I0J100000D01*
G01*
G37*
G36*
G01*
X105560000Y-101035000D02*
X105560000Y-99585000D01*
G75*
G02*
X105660000Y-99485000I100000J0D01*
G01*
X105860000Y-99485000D01*
G75*
G02*
X105960000Y-99585000I0J-100000D01*
G01*
X105960000Y-101035000D01*
G75*
G02*
X105860000Y-101135000I-100000J0D01*
G01*
X105660000Y-101135000D01*
G75*
G02*
X105560000Y-101035000I0J100000D01*
G01*
G37*
G36*
G01*
X106060000Y-101035000D02*
X106060000Y-99585000D01*
G75*
G02*
X106160000Y-99485000I100000J0D01*
G01*
X106360000Y-99485000D01*
G75*
G02*
X106460000Y-99585000I0J-100000D01*
G01*
X106460000Y-101035000D01*
G75*
G02*
X106360000Y-101135000I-100000J0D01*
G01*
X106160000Y-101135000D01*
G75*
G02*
X106060000Y-101035000I0J100000D01*
G01*
G37*
G36*
G01*
X106560000Y-101035000D02*
X106560000Y-99585000D01*
G75*
G02*
X106660000Y-99485000I100000J0D01*
G01*
X106860000Y-99485000D01*
G75*
G02*
X106960000Y-99585000I0J-100000D01*
G01*
X106960000Y-101035000D01*
G75*
G02*
X106860000Y-101135000I-100000J0D01*
G01*
X106660000Y-101135000D01*
G75*
G02*
X106560000Y-101035000I0J100000D01*
G01*
G37*
G36*
G01*
X107060000Y-101035000D02*
X107060000Y-99585000D01*
G75*
G02*
X107160000Y-99485000I100000J0D01*
G01*
X107360000Y-99485000D01*
G75*
G02*
X107460000Y-99585000I0J-100000D01*
G01*
X107460000Y-101035000D01*
G75*
G02*
X107360000Y-101135000I-100000J0D01*
G01*
X107160000Y-101135000D01*
G75*
G02*
X107060000Y-101035000I0J100000D01*
G01*
G37*
G36*
G01*
X107560000Y-101035000D02*
X107560000Y-99585000D01*
G75*
G02*
X107660000Y-99485000I100000J0D01*
G01*
X107860000Y-99485000D01*
G75*
G02*
X107960000Y-99585000I0J-100000D01*
G01*
X107960000Y-101035000D01*
G75*
G02*
X107860000Y-101135000I-100000J0D01*
G01*
X107660000Y-101135000D01*
G75*
G02*
X107560000Y-101035000I0J100000D01*
G01*
G37*
G36*
G01*
X108060000Y-101035000D02*
X108060000Y-99585000D01*
G75*
G02*
X108160000Y-99485000I100000J0D01*
G01*
X108360000Y-99485000D01*
G75*
G02*
X108460000Y-99585000I0J-100000D01*
G01*
X108460000Y-101035000D01*
G75*
G02*
X108360000Y-101135000I-100000J0D01*
G01*
X108160000Y-101135000D01*
G75*
G02*
X108060000Y-101035000I0J100000D01*
G01*
G37*
G36*
G01*
X108560000Y-101035000D02*
X108560000Y-99585000D01*
G75*
G02*
X108660000Y-99485000I100000J0D01*
G01*
X108860000Y-99485000D01*
G75*
G02*
X108960000Y-99585000I0J-100000D01*
G01*
X108960000Y-101035000D01*
G75*
G02*
X108860000Y-101135000I-100000J0D01*
G01*
X108660000Y-101135000D01*
G75*
G02*
X108560000Y-101035000I0J100000D01*
G01*
G37*
G36*
G01*
X109060000Y-101035000D02*
X109060000Y-99585000D01*
G75*
G02*
X109160000Y-99485000I100000J0D01*
G01*
X109360000Y-99485000D01*
G75*
G02*
X109460000Y-99585000I0J-100000D01*
G01*
X109460000Y-101035000D01*
G75*
G02*
X109360000Y-101135000I-100000J0D01*
G01*
X109160000Y-101135000D01*
G75*
G02*
X109060000Y-101035000I0J100000D01*
G01*
G37*
G36*
G01*
X109560000Y-101035000D02*
X109560000Y-99585000D01*
G75*
G02*
X109660000Y-99485000I100000J0D01*
G01*
X109860000Y-99485000D01*
G75*
G02*
X109960000Y-99585000I0J-100000D01*
G01*
X109960000Y-101035000D01*
G75*
G02*
X109860000Y-101135000I-100000J0D01*
G01*
X109660000Y-101135000D01*
G75*
G02*
X109560000Y-101035000I0J100000D01*
G01*
G37*
G36*
G01*
X110060000Y-101035000D02*
X110060000Y-99585000D01*
G75*
G02*
X110160000Y-99485000I100000J0D01*
G01*
X110360000Y-99485000D01*
G75*
G02*
X110460000Y-99585000I0J-100000D01*
G01*
X110460000Y-101035000D01*
G75*
G02*
X110360000Y-101135000I-100000J0D01*
G01*
X110160000Y-101135000D01*
G75*
G02*
X110060000Y-101035000I0J100000D01*
G01*
G37*
G36*
G01*
X110560000Y-101035000D02*
X110560000Y-99585000D01*
G75*
G02*
X110660000Y-99485000I100000J0D01*
G01*
X110860000Y-99485000D01*
G75*
G02*
X110960000Y-99585000I0J-100000D01*
G01*
X110960000Y-101035000D01*
G75*
G02*
X110860000Y-101135000I-100000J0D01*
G01*
X110660000Y-101135000D01*
G75*
G02*
X110560000Y-101035000I0J100000D01*
G01*
G37*
G36*
G01*
X111060000Y-101035000D02*
X111060000Y-99585000D01*
G75*
G02*
X111160000Y-99485000I100000J0D01*
G01*
X111360000Y-99485000D01*
G75*
G02*
X111460000Y-99585000I0J-100000D01*
G01*
X111460000Y-101035000D01*
G75*
G02*
X111360000Y-101135000I-100000J0D01*
G01*
X111160000Y-101135000D01*
G75*
G02*
X111060000Y-101035000I0J100000D01*
G01*
G37*
G36*
G01*
X111560000Y-101035000D02*
X111560000Y-99585000D01*
G75*
G02*
X111660000Y-99485000I100000J0D01*
G01*
X111860000Y-99485000D01*
G75*
G02*
X111960000Y-99585000I0J-100000D01*
G01*
X111960000Y-101035000D01*
G75*
G02*
X111860000Y-101135000I-100000J0D01*
G01*
X111660000Y-101135000D01*
G75*
G02*
X111560000Y-101035000I0J100000D01*
G01*
G37*
G36*
G01*
X112060000Y-101035000D02*
X112060000Y-99585000D01*
G75*
G02*
X112160000Y-99485000I100000J0D01*
G01*
X112360000Y-99485000D01*
G75*
G02*
X112460000Y-99585000I0J-100000D01*
G01*
X112460000Y-101035000D01*
G75*
G02*
X112360000Y-101135000I-100000J0D01*
G01*
X112160000Y-101135000D01*
G75*
G02*
X112060000Y-101035000I0J100000D01*
G01*
G37*
G36*
G01*
X113360000Y-102335000D02*
X113360000Y-102135000D01*
G75*
G02*
X113460000Y-102035000I100000J0D01*
G01*
X114910000Y-102035000D01*
G75*
G02*
X115010000Y-102135000I0J-100000D01*
G01*
X115010000Y-102335000D01*
G75*
G02*
X114910000Y-102435000I-100000J0D01*
G01*
X113460000Y-102435000D01*
G75*
G02*
X113360000Y-102335000I0J100000D01*
G01*
G37*
G36*
G01*
X113360000Y-102835000D02*
X113360000Y-102635000D01*
G75*
G02*
X113460000Y-102535000I100000J0D01*
G01*
X114910000Y-102535000D01*
G75*
G02*
X115010000Y-102635000I0J-100000D01*
G01*
X115010000Y-102835000D01*
G75*
G02*
X114910000Y-102935000I-100000J0D01*
G01*
X113460000Y-102935000D01*
G75*
G02*
X113360000Y-102835000I0J100000D01*
G01*
G37*
G36*
G01*
X113360000Y-103335000D02*
X113360000Y-103135000D01*
G75*
G02*
X113460000Y-103035000I100000J0D01*
G01*
X114910000Y-103035000D01*
G75*
G02*
X115010000Y-103135000I0J-100000D01*
G01*
X115010000Y-103335000D01*
G75*
G02*
X114910000Y-103435000I-100000J0D01*
G01*
X113460000Y-103435000D01*
G75*
G02*
X113360000Y-103335000I0J100000D01*
G01*
G37*
G36*
G01*
X113360000Y-103835000D02*
X113360000Y-103635000D01*
G75*
G02*
X113460000Y-103535000I100000J0D01*
G01*
X114910000Y-103535000D01*
G75*
G02*
X115010000Y-103635000I0J-100000D01*
G01*
X115010000Y-103835000D01*
G75*
G02*
X114910000Y-103935000I-100000J0D01*
G01*
X113460000Y-103935000D01*
G75*
G02*
X113360000Y-103835000I0J100000D01*
G01*
G37*
G36*
G01*
X113360000Y-104335000D02*
X113360000Y-104135000D01*
G75*
G02*
X113460000Y-104035000I100000J0D01*
G01*
X114910000Y-104035000D01*
G75*
G02*
X115010000Y-104135000I0J-100000D01*
G01*
X115010000Y-104335000D01*
G75*
G02*
X114910000Y-104435000I-100000J0D01*
G01*
X113460000Y-104435000D01*
G75*
G02*
X113360000Y-104335000I0J100000D01*
G01*
G37*
G36*
G01*
X113360000Y-104835000D02*
X113360000Y-104635000D01*
G75*
G02*
X113460000Y-104535000I100000J0D01*
G01*
X114910000Y-104535000D01*
G75*
G02*
X115010000Y-104635000I0J-100000D01*
G01*
X115010000Y-104835000D01*
G75*
G02*
X114910000Y-104935000I-100000J0D01*
G01*
X113460000Y-104935000D01*
G75*
G02*
X113360000Y-104835000I0J100000D01*
G01*
G37*
G36*
G01*
X113360000Y-105335000D02*
X113360000Y-105135000D01*
G75*
G02*
X113460000Y-105035000I100000J0D01*
G01*
X114910000Y-105035000D01*
G75*
G02*
X115010000Y-105135000I0J-100000D01*
G01*
X115010000Y-105335000D01*
G75*
G02*
X114910000Y-105435000I-100000J0D01*
G01*
X113460000Y-105435000D01*
G75*
G02*
X113360000Y-105335000I0J100000D01*
G01*
G37*
G36*
G01*
X113360000Y-105835000D02*
X113360000Y-105635000D01*
G75*
G02*
X113460000Y-105535000I100000J0D01*
G01*
X114910000Y-105535000D01*
G75*
G02*
X115010000Y-105635000I0J-100000D01*
G01*
X115010000Y-105835000D01*
G75*
G02*
X114910000Y-105935000I-100000J0D01*
G01*
X113460000Y-105935000D01*
G75*
G02*
X113360000Y-105835000I0J100000D01*
G01*
G37*
G36*
G01*
X113360000Y-106335000D02*
X113360000Y-106135000D01*
G75*
G02*
X113460000Y-106035000I100000J0D01*
G01*
X114910000Y-106035000D01*
G75*
G02*
X115010000Y-106135000I0J-100000D01*
G01*
X115010000Y-106335000D01*
G75*
G02*
X114910000Y-106435000I-100000J0D01*
G01*
X113460000Y-106435000D01*
G75*
G02*
X113360000Y-106335000I0J100000D01*
G01*
G37*
G36*
G01*
X113360000Y-106835000D02*
X113360000Y-106635000D01*
G75*
G02*
X113460000Y-106535000I100000J0D01*
G01*
X114910000Y-106535000D01*
G75*
G02*
X115010000Y-106635000I0J-100000D01*
G01*
X115010000Y-106835000D01*
G75*
G02*
X114910000Y-106935000I-100000J0D01*
G01*
X113460000Y-106935000D01*
G75*
G02*
X113360000Y-106835000I0J100000D01*
G01*
G37*
G36*
G01*
X113360000Y-107335000D02*
X113360000Y-107135000D01*
G75*
G02*
X113460000Y-107035000I100000J0D01*
G01*
X114910000Y-107035000D01*
G75*
G02*
X115010000Y-107135000I0J-100000D01*
G01*
X115010000Y-107335000D01*
G75*
G02*
X114910000Y-107435000I-100000J0D01*
G01*
X113460000Y-107435000D01*
G75*
G02*
X113360000Y-107335000I0J100000D01*
G01*
G37*
G36*
G01*
X113360000Y-107835000D02*
X113360000Y-107635000D01*
G75*
G02*
X113460000Y-107535000I100000J0D01*
G01*
X114910000Y-107535000D01*
G75*
G02*
X115010000Y-107635000I0J-100000D01*
G01*
X115010000Y-107835000D01*
G75*
G02*
X114910000Y-107935000I-100000J0D01*
G01*
X113460000Y-107935000D01*
G75*
G02*
X113360000Y-107835000I0J100000D01*
G01*
G37*
G36*
G01*
X113360000Y-108335000D02*
X113360000Y-108135000D01*
G75*
G02*
X113460000Y-108035000I100000J0D01*
G01*
X114910000Y-108035000D01*
G75*
G02*
X115010000Y-108135000I0J-100000D01*
G01*
X115010000Y-108335000D01*
G75*
G02*
X114910000Y-108435000I-100000J0D01*
G01*
X113460000Y-108435000D01*
G75*
G02*
X113360000Y-108335000I0J100000D01*
G01*
G37*
G36*
G01*
X113360000Y-108835000D02*
X113360000Y-108635000D01*
G75*
G02*
X113460000Y-108535000I100000J0D01*
G01*
X114910000Y-108535000D01*
G75*
G02*
X115010000Y-108635000I0J-100000D01*
G01*
X115010000Y-108835000D01*
G75*
G02*
X114910000Y-108935000I-100000J0D01*
G01*
X113460000Y-108935000D01*
G75*
G02*
X113360000Y-108835000I0J100000D01*
G01*
G37*
G36*
G01*
X113360000Y-109335000D02*
X113360000Y-109135000D01*
G75*
G02*
X113460000Y-109035000I100000J0D01*
G01*
X114910000Y-109035000D01*
G75*
G02*
X115010000Y-109135000I0J-100000D01*
G01*
X115010000Y-109335000D01*
G75*
G02*
X114910000Y-109435000I-100000J0D01*
G01*
X113460000Y-109435000D01*
G75*
G02*
X113360000Y-109335000I0J100000D01*
G01*
G37*
G36*
G01*
X113360000Y-109835000D02*
X113360000Y-109635000D01*
G75*
G02*
X113460000Y-109535000I100000J0D01*
G01*
X114910000Y-109535000D01*
G75*
G02*
X115010000Y-109635000I0J-100000D01*
G01*
X115010000Y-109835000D01*
G75*
G02*
X114910000Y-109935000I-100000J0D01*
G01*
X113460000Y-109935000D01*
G75*
G02*
X113360000Y-109835000I0J100000D01*
G01*
G37*
G36*
G01*
X112060000Y-112385000D02*
X112060000Y-110935000D01*
G75*
G02*
X112160000Y-110835000I100000J0D01*
G01*
X112360000Y-110835000D01*
G75*
G02*
X112460000Y-110935000I0J-100000D01*
G01*
X112460000Y-112385000D01*
G75*
G02*
X112360000Y-112485000I-100000J0D01*
G01*
X112160000Y-112485000D01*
G75*
G02*
X112060000Y-112385000I0J100000D01*
G01*
G37*
G36*
G01*
X111560000Y-112385000D02*
X111560000Y-110935000D01*
G75*
G02*
X111660000Y-110835000I100000J0D01*
G01*
X111860000Y-110835000D01*
G75*
G02*
X111960000Y-110935000I0J-100000D01*
G01*
X111960000Y-112385000D01*
G75*
G02*
X111860000Y-112485000I-100000J0D01*
G01*
X111660000Y-112485000D01*
G75*
G02*
X111560000Y-112385000I0J100000D01*
G01*
G37*
G36*
G01*
X111060000Y-112385000D02*
X111060000Y-110935000D01*
G75*
G02*
X111160000Y-110835000I100000J0D01*
G01*
X111360000Y-110835000D01*
G75*
G02*
X111460000Y-110935000I0J-100000D01*
G01*
X111460000Y-112385000D01*
G75*
G02*
X111360000Y-112485000I-100000J0D01*
G01*
X111160000Y-112485000D01*
G75*
G02*
X111060000Y-112385000I0J100000D01*
G01*
G37*
G36*
G01*
X110560000Y-112385000D02*
X110560000Y-110935000D01*
G75*
G02*
X110660000Y-110835000I100000J0D01*
G01*
X110860000Y-110835000D01*
G75*
G02*
X110960000Y-110935000I0J-100000D01*
G01*
X110960000Y-112385000D01*
G75*
G02*
X110860000Y-112485000I-100000J0D01*
G01*
X110660000Y-112485000D01*
G75*
G02*
X110560000Y-112385000I0J100000D01*
G01*
G37*
G36*
G01*
X110060000Y-112385000D02*
X110060000Y-110935000D01*
G75*
G02*
X110160000Y-110835000I100000J0D01*
G01*
X110360000Y-110835000D01*
G75*
G02*
X110460000Y-110935000I0J-100000D01*
G01*
X110460000Y-112385000D01*
G75*
G02*
X110360000Y-112485000I-100000J0D01*
G01*
X110160000Y-112485000D01*
G75*
G02*
X110060000Y-112385000I0J100000D01*
G01*
G37*
G36*
G01*
X109560000Y-112385000D02*
X109560000Y-110935000D01*
G75*
G02*
X109660000Y-110835000I100000J0D01*
G01*
X109860000Y-110835000D01*
G75*
G02*
X109960000Y-110935000I0J-100000D01*
G01*
X109960000Y-112385000D01*
G75*
G02*
X109860000Y-112485000I-100000J0D01*
G01*
X109660000Y-112485000D01*
G75*
G02*
X109560000Y-112385000I0J100000D01*
G01*
G37*
G36*
G01*
X109060000Y-112385000D02*
X109060000Y-110935000D01*
G75*
G02*
X109160000Y-110835000I100000J0D01*
G01*
X109360000Y-110835000D01*
G75*
G02*
X109460000Y-110935000I0J-100000D01*
G01*
X109460000Y-112385000D01*
G75*
G02*
X109360000Y-112485000I-100000J0D01*
G01*
X109160000Y-112485000D01*
G75*
G02*
X109060000Y-112385000I0J100000D01*
G01*
G37*
G36*
G01*
X108560000Y-112385000D02*
X108560000Y-110935000D01*
G75*
G02*
X108660000Y-110835000I100000J0D01*
G01*
X108860000Y-110835000D01*
G75*
G02*
X108960000Y-110935000I0J-100000D01*
G01*
X108960000Y-112385000D01*
G75*
G02*
X108860000Y-112485000I-100000J0D01*
G01*
X108660000Y-112485000D01*
G75*
G02*
X108560000Y-112385000I0J100000D01*
G01*
G37*
G36*
G01*
X108060000Y-112385000D02*
X108060000Y-110935000D01*
G75*
G02*
X108160000Y-110835000I100000J0D01*
G01*
X108360000Y-110835000D01*
G75*
G02*
X108460000Y-110935000I0J-100000D01*
G01*
X108460000Y-112385000D01*
G75*
G02*
X108360000Y-112485000I-100000J0D01*
G01*
X108160000Y-112485000D01*
G75*
G02*
X108060000Y-112385000I0J100000D01*
G01*
G37*
G36*
G01*
X107560000Y-112385000D02*
X107560000Y-110935000D01*
G75*
G02*
X107660000Y-110835000I100000J0D01*
G01*
X107860000Y-110835000D01*
G75*
G02*
X107960000Y-110935000I0J-100000D01*
G01*
X107960000Y-112385000D01*
G75*
G02*
X107860000Y-112485000I-100000J0D01*
G01*
X107660000Y-112485000D01*
G75*
G02*
X107560000Y-112385000I0J100000D01*
G01*
G37*
G36*
G01*
X107060000Y-112385000D02*
X107060000Y-110935000D01*
G75*
G02*
X107160000Y-110835000I100000J0D01*
G01*
X107360000Y-110835000D01*
G75*
G02*
X107460000Y-110935000I0J-100000D01*
G01*
X107460000Y-112385000D01*
G75*
G02*
X107360000Y-112485000I-100000J0D01*
G01*
X107160000Y-112485000D01*
G75*
G02*
X107060000Y-112385000I0J100000D01*
G01*
G37*
G36*
G01*
X106560000Y-112385000D02*
X106560000Y-110935000D01*
G75*
G02*
X106660000Y-110835000I100000J0D01*
G01*
X106860000Y-110835000D01*
G75*
G02*
X106960000Y-110935000I0J-100000D01*
G01*
X106960000Y-112385000D01*
G75*
G02*
X106860000Y-112485000I-100000J0D01*
G01*
X106660000Y-112485000D01*
G75*
G02*
X106560000Y-112385000I0J100000D01*
G01*
G37*
G36*
G01*
X106060000Y-112385000D02*
X106060000Y-110935000D01*
G75*
G02*
X106160000Y-110835000I100000J0D01*
G01*
X106360000Y-110835000D01*
G75*
G02*
X106460000Y-110935000I0J-100000D01*
G01*
X106460000Y-112385000D01*
G75*
G02*
X106360000Y-112485000I-100000J0D01*
G01*
X106160000Y-112485000D01*
G75*
G02*
X106060000Y-112385000I0J100000D01*
G01*
G37*
G36*
G01*
X105560000Y-112385000D02*
X105560000Y-110935000D01*
G75*
G02*
X105660000Y-110835000I100000J0D01*
G01*
X105860000Y-110835000D01*
G75*
G02*
X105960000Y-110935000I0J-100000D01*
G01*
X105960000Y-112385000D01*
G75*
G02*
X105860000Y-112485000I-100000J0D01*
G01*
X105660000Y-112485000D01*
G75*
G02*
X105560000Y-112385000I0J100000D01*
G01*
G37*
G36*
G01*
X105060000Y-112385000D02*
X105060000Y-110935000D01*
G75*
G02*
X105160000Y-110835000I100000J0D01*
G01*
X105360000Y-110835000D01*
G75*
G02*
X105460000Y-110935000I0J-100000D01*
G01*
X105460000Y-112385000D01*
G75*
G02*
X105360000Y-112485000I-100000J0D01*
G01*
X105160000Y-112485000D01*
G75*
G02*
X105060000Y-112385000I0J100000D01*
G01*
G37*
G36*
G01*
X104560000Y-112385000D02*
X104560000Y-110935000D01*
G75*
G02*
X104660000Y-110835000I100000J0D01*
G01*
X104860000Y-110835000D01*
G75*
G02*
X104960000Y-110935000I0J-100000D01*
G01*
X104960000Y-112385000D01*
G75*
G02*
X104860000Y-112485000I-100000J0D01*
G01*
X104660000Y-112485000D01*
G75*
G02*
X104560000Y-112385000I0J100000D01*
G01*
G37*
%TD*%
%TO.C,C80*%
G36*
G01*
X47342544Y-27212500D02*
X48657456Y-27212500D01*
G75*
G02*
X48925000Y-27480044I0J-267544D01*
G01*
X48925000Y-28469956D01*
G75*
G02*
X48657456Y-28737500I-267544J0D01*
G01*
X47342544Y-28737500D01*
G75*
G02*
X47075000Y-28469956I0J267544D01*
G01*
X47075000Y-27480044D01*
G75*
G02*
X47342544Y-27212500I267544J0D01*
G01*
G37*
G36*
G01*
X47342544Y-24237500D02*
X48657456Y-24237500D01*
G75*
G02*
X48925000Y-24505044I0J-267544D01*
G01*
X48925000Y-25494956D01*
G75*
G02*
X48657456Y-25762500I-267544J0D01*
G01*
X47342544Y-25762500D01*
G75*
G02*
X47075000Y-25494956I0J267544D01*
G01*
X47075000Y-24505044D01*
G75*
G02*
X47342544Y-24237500I267544J0D01*
G01*
G37*
%TD*%
D12*
%TO.C,U21*%
X130500000Y-99450000D03*
X125900000Y-99450000D03*
X128200000Y-99450000D03*
D13*
X128200000Y-93150000D03*
%TD*%
%TO.C,C58*%
G36*
G01*
X105387500Y-74600000D02*
X105912500Y-74600000D01*
G75*
G02*
X106175000Y-74862500I0J-262500D01*
G01*
X106175000Y-75487500D01*
G75*
G02*
X105912500Y-75750000I-262500J0D01*
G01*
X105387500Y-75750000D01*
G75*
G02*
X105125000Y-75487500I0J262500D01*
G01*
X105125000Y-74862500D01*
G75*
G02*
X105387500Y-74600000I262500J0D01*
G01*
G37*
G36*
G01*
X105387500Y-72850000D02*
X105912500Y-72850000D01*
G75*
G02*
X106175000Y-73112500I0J-262500D01*
G01*
X106175000Y-73737500D01*
G75*
G02*
X105912500Y-74000000I-262500J0D01*
G01*
X105387500Y-74000000D01*
G75*
G02*
X105125000Y-73737500I0J262500D01*
G01*
X105125000Y-73112500D01*
G75*
G02*
X105387500Y-72850000I262500J0D01*
G01*
G37*
%TD*%
%TO.C,C57*%
G36*
G01*
X102512500Y-52675000D02*
X101987500Y-52675000D01*
G75*
G02*
X101725000Y-52412500I0J262500D01*
G01*
X101725000Y-51787500D01*
G75*
G02*
X101987500Y-51525000I262500J0D01*
G01*
X102512500Y-51525000D01*
G75*
G02*
X102775000Y-51787500I0J-262500D01*
G01*
X102775000Y-52412500D01*
G75*
G02*
X102512500Y-52675000I-262500J0D01*
G01*
G37*
G36*
G01*
X102512500Y-54425000D02*
X101987500Y-54425000D01*
G75*
G02*
X101725000Y-54162500I0J262500D01*
G01*
X101725000Y-53537500D01*
G75*
G02*
X101987500Y-53275000I262500J0D01*
G01*
X102512500Y-53275000D01*
G75*
G02*
X102775000Y-53537500I0J-262500D01*
G01*
X102775000Y-54162500D01*
G75*
G02*
X102512500Y-54425000I-262500J0D01*
G01*
G37*
%TD*%
%TO.C,C56*%
G36*
G01*
X95050000Y-65287500D02*
X95050000Y-65812500D01*
G75*
G02*
X94787500Y-66075000I-262500J0D01*
G01*
X94162500Y-66075000D01*
G75*
G02*
X93900000Y-65812500I0J262500D01*
G01*
X93900000Y-65287500D01*
G75*
G02*
X94162500Y-65025000I262500J0D01*
G01*
X94787500Y-65025000D01*
G75*
G02*
X95050000Y-65287500I0J-262500D01*
G01*
G37*
G36*
G01*
X96800000Y-65287500D02*
X96800000Y-65812500D01*
G75*
G02*
X96537500Y-66075000I-262500J0D01*
G01*
X95912500Y-66075000D01*
G75*
G02*
X95650000Y-65812500I0J262500D01*
G01*
X95650000Y-65287500D01*
G75*
G02*
X95912500Y-65025000I262500J0D01*
G01*
X96537500Y-65025000D01*
G75*
G02*
X96800000Y-65287500I0J-262500D01*
G01*
G37*
%TD*%
%TO.C,C55*%
G36*
G01*
X101537500Y-74600000D02*
X102062500Y-74600000D01*
G75*
G02*
X102325000Y-74862500I0J-262500D01*
G01*
X102325000Y-75487500D01*
G75*
G02*
X102062500Y-75750000I-262500J0D01*
G01*
X101537500Y-75750000D01*
G75*
G02*
X101275000Y-75487500I0J262500D01*
G01*
X101275000Y-74862500D01*
G75*
G02*
X101537500Y-74600000I262500J0D01*
G01*
G37*
G36*
G01*
X101537500Y-72850000D02*
X102062500Y-72850000D01*
G75*
G02*
X102325000Y-73112500I0J-262500D01*
G01*
X102325000Y-73737500D01*
G75*
G02*
X102062500Y-74000000I-262500J0D01*
G01*
X101537500Y-74000000D01*
G75*
G02*
X101275000Y-73737500I0J262500D01*
G01*
X101275000Y-73112500D01*
G75*
G02*
X101537500Y-72850000I262500J0D01*
G01*
G37*
%TD*%
%TO.C,C54*%
G36*
G01*
X109387500Y-74575000D02*
X109912500Y-74575000D01*
G75*
G02*
X110175000Y-74837500I0J-262500D01*
G01*
X110175000Y-75462500D01*
G75*
G02*
X109912500Y-75725000I-262500J0D01*
G01*
X109387500Y-75725000D01*
G75*
G02*
X109125000Y-75462500I0J262500D01*
G01*
X109125000Y-74837500D01*
G75*
G02*
X109387500Y-74575000I262500J0D01*
G01*
G37*
G36*
G01*
X109387500Y-72825000D02*
X109912500Y-72825000D01*
G75*
G02*
X110175000Y-73087500I0J-262500D01*
G01*
X110175000Y-73712500D01*
G75*
G02*
X109912500Y-73975000I-262500J0D01*
G01*
X109387500Y-73975000D01*
G75*
G02*
X109125000Y-73712500I0J262500D01*
G01*
X109125000Y-73087500D01*
G75*
G02*
X109387500Y-72825000I262500J0D01*
G01*
G37*
%TD*%
%TO.C,C53*%
G36*
G01*
X109462500Y-52700000D02*
X108937500Y-52700000D01*
G75*
G02*
X108675000Y-52437500I0J262500D01*
G01*
X108675000Y-51812500D01*
G75*
G02*
X108937500Y-51550000I262500J0D01*
G01*
X109462500Y-51550000D01*
G75*
G02*
X109725000Y-51812500I0J-262500D01*
G01*
X109725000Y-52437500D01*
G75*
G02*
X109462500Y-52700000I-262500J0D01*
G01*
G37*
G36*
G01*
X109462500Y-54450000D02*
X108937500Y-54450000D01*
G75*
G02*
X108675000Y-54187500I0J262500D01*
G01*
X108675000Y-53562500D01*
G75*
G02*
X108937500Y-53300000I262500J0D01*
G01*
X109462500Y-53300000D01*
G75*
G02*
X109725000Y-53562500I0J-262500D01*
G01*
X109725000Y-54187500D01*
G75*
G02*
X109462500Y-54450000I-262500J0D01*
G01*
G37*
%TD*%
%TO.C,C52*%
G36*
G01*
X117175000Y-63912500D02*
X117175000Y-63387500D01*
G75*
G02*
X117437500Y-63125000I262500J0D01*
G01*
X118062500Y-63125000D01*
G75*
G02*
X118325000Y-63387500I0J-262500D01*
G01*
X118325000Y-63912500D01*
G75*
G02*
X118062500Y-64175000I-262500J0D01*
G01*
X117437500Y-64175000D01*
G75*
G02*
X117175000Y-63912500I0J262500D01*
G01*
G37*
G36*
G01*
X115425000Y-63912500D02*
X115425000Y-63387500D01*
G75*
G02*
X115687500Y-63125000I262500J0D01*
G01*
X116312500Y-63125000D01*
G75*
G02*
X116575000Y-63387500I0J-262500D01*
G01*
X116575000Y-63912500D01*
G75*
G02*
X116312500Y-64175000I-262500J0D01*
G01*
X115687500Y-64175000D01*
G75*
G02*
X115425000Y-63912500I0J262500D01*
G01*
G37*
%TD*%
%TO.C,C51*%
G36*
G01*
X94995000Y-63447500D02*
X94995000Y-63972500D01*
G75*
G02*
X94732500Y-64235000I-262500J0D01*
G01*
X94107500Y-64235000D01*
G75*
G02*
X93845000Y-63972500I0J262500D01*
G01*
X93845000Y-63447500D01*
G75*
G02*
X94107500Y-63185000I262500J0D01*
G01*
X94732500Y-63185000D01*
G75*
G02*
X94995000Y-63447500I0J-262500D01*
G01*
G37*
G36*
G01*
X96745000Y-63447500D02*
X96745000Y-63972500D01*
G75*
G02*
X96482500Y-64235000I-262500J0D01*
G01*
X95857500Y-64235000D01*
G75*
G02*
X95595000Y-63972500I0J262500D01*
G01*
X95595000Y-63447500D01*
G75*
G02*
X95857500Y-63185000I262500J0D01*
G01*
X96482500Y-63185000D01*
G75*
G02*
X96745000Y-63447500I0J-262500D01*
G01*
G37*
%TD*%
%TO.C,C50*%
G36*
G01*
X117125000Y-62012500D02*
X117125000Y-61487500D01*
G75*
G02*
X117387500Y-61225000I262500J0D01*
G01*
X118012500Y-61225000D01*
G75*
G02*
X118275000Y-61487500I0J-262500D01*
G01*
X118275000Y-62012500D01*
G75*
G02*
X118012500Y-62275000I-262500J0D01*
G01*
X117387500Y-62275000D01*
G75*
G02*
X117125000Y-62012500I0J262500D01*
G01*
G37*
G36*
G01*
X115375000Y-62012500D02*
X115375000Y-61487500D01*
G75*
G02*
X115637500Y-61225000I262500J0D01*
G01*
X116262500Y-61225000D01*
G75*
G02*
X116525000Y-61487500I0J-262500D01*
G01*
X116525000Y-62012500D01*
G75*
G02*
X116262500Y-62275000I-262500J0D01*
G01*
X115637500Y-62275000D01*
G75*
G02*
X115375000Y-62012500I0J262500D01*
G01*
G37*
%TD*%
%TO.C,C34*%
G36*
G01*
X75800000Y-38937500D02*
X75800000Y-39462500D01*
G75*
G02*
X75537500Y-39725000I-262500J0D01*
G01*
X74912500Y-39725000D01*
G75*
G02*
X74650000Y-39462500I0J262500D01*
G01*
X74650000Y-38937500D01*
G75*
G02*
X74912500Y-38675000I262500J0D01*
G01*
X75537500Y-38675000D01*
G75*
G02*
X75800000Y-38937500I0J-262500D01*
G01*
G37*
G36*
G01*
X77550000Y-38937500D02*
X77550000Y-39462500D01*
G75*
G02*
X77287500Y-39725000I-262500J0D01*
G01*
X76662500Y-39725000D01*
G75*
G02*
X76400000Y-39462500I0J262500D01*
G01*
X76400000Y-38937500D01*
G75*
G02*
X76662500Y-38675000I262500J0D01*
G01*
X77287500Y-38675000D01*
G75*
G02*
X77550000Y-38937500I0J-262500D01*
G01*
G37*
%TD*%
%TO.C,C12*%
G36*
G01*
X79962500Y-34900000D02*
X79437500Y-34900000D01*
G75*
G02*
X79175000Y-34637500I0J262500D01*
G01*
X79175000Y-34012500D01*
G75*
G02*
X79437500Y-33750000I262500J0D01*
G01*
X79962500Y-33750000D01*
G75*
G02*
X80225000Y-34012500I0J-262500D01*
G01*
X80225000Y-34637500D01*
G75*
G02*
X79962500Y-34900000I-262500J0D01*
G01*
G37*
G36*
G01*
X79962500Y-36650000D02*
X79437500Y-36650000D01*
G75*
G02*
X79175000Y-36387500I0J262500D01*
G01*
X79175000Y-35762500D01*
G75*
G02*
X79437500Y-35500000I262500J0D01*
G01*
X79962500Y-35500000D01*
G75*
G02*
X80225000Y-35762500I0J-262500D01*
G01*
X80225000Y-36387500D01*
G75*
G02*
X79962500Y-36650000I-262500J0D01*
G01*
G37*
%TD*%
D14*
%TO.C,C1*%
X51322000Y-87352000D03*
D15*
X51322000Y-89352000D03*
%TD*%
%TO.C,C3*%
X51222000Y-83252000D03*
D14*
X51222000Y-81252000D03*
%TD*%
%TO.C,C6*%
G36*
G01*
X48537500Y-39200000D02*
X49062500Y-39200000D01*
G75*
G02*
X49325000Y-39462500I0J-262500D01*
G01*
X49325000Y-40087500D01*
G75*
G02*
X49062500Y-40350000I-262500J0D01*
G01*
X48537500Y-40350000D01*
G75*
G02*
X48275000Y-40087500I0J262500D01*
G01*
X48275000Y-39462500D01*
G75*
G02*
X48537500Y-39200000I262500J0D01*
G01*
G37*
G36*
G01*
X48537500Y-37450000D02*
X49062500Y-37450000D01*
G75*
G02*
X49325000Y-37712500I0J-262500D01*
G01*
X49325000Y-38337500D01*
G75*
G02*
X49062500Y-38600000I-262500J0D01*
G01*
X48537500Y-38600000D01*
G75*
G02*
X48275000Y-38337500I0J262500D01*
G01*
X48275000Y-37712500D01*
G75*
G02*
X48537500Y-37450000I262500J0D01*
G01*
G37*
%TD*%
%TO.C,C7*%
G36*
G01*
X45721738Y-37375000D02*
X46678262Y-37375000D01*
G75*
G02*
X46950000Y-37646738I0J-271738D01*
G01*
X46950000Y-38353262D01*
G75*
G02*
X46678262Y-38625000I-271738J0D01*
G01*
X45721738Y-38625000D01*
G75*
G02*
X45450000Y-38353262I0J271738D01*
G01*
X45450000Y-37646738D01*
G75*
G02*
X45721738Y-37375000I271738J0D01*
G01*
G37*
G36*
G01*
X45721738Y-39425000D02*
X46678262Y-39425000D01*
G75*
G02*
X46950000Y-39696738I0J-271738D01*
G01*
X46950000Y-40403262D01*
G75*
G02*
X46678262Y-40675000I-271738J0D01*
G01*
X45721738Y-40675000D01*
G75*
G02*
X45450000Y-40403262I0J271738D01*
G01*
X45450000Y-39696738D01*
G75*
G02*
X45721738Y-39425000I271738J0D01*
G01*
G37*
%TD*%
%TO.C,C9*%
G36*
G01*
X52260000Y-41802500D02*
X52260000Y-42197500D01*
G75*
G02*
X52087500Y-42370000I-172500J0D01*
G01*
X51742500Y-42370000D01*
G75*
G02*
X51570000Y-42197500I0J172500D01*
G01*
X51570000Y-41802500D01*
G75*
G02*
X51742500Y-41630000I172500J0D01*
G01*
X52087500Y-41630000D01*
G75*
G02*
X52260000Y-41802500I0J-172500D01*
G01*
G37*
G36*
G01*
X53230000Y-41802500D02*
X53230000Y-42197500D01*
G75*
G02*
X53057500Y-42370000I-172500J0D01*
G01*
X52712500Y-42370000D01*
G75*
G02*
X52540000Y-42197500I0J172500D01*
G01*
X52540000Y-41802500D01*
G75*
G02*
X52712500Y-41630000I172500J0D01*
G01*
X53057500Y-41630000D01*
G75*
G02*
X53230000Y-41802500I0J-172500D01*
G01*
G37*
%TD*%
%TO.C,C13*%
G36*
G01*
X78362500Y-36650000D02*
X77837500Y-36650000D01*
G75*
G02*
X77575000Y-36387500I0J262500D01*
G01*
X77575000Y-35762500D01*
G75*
G02*
X77837500Y-35500000I262500J0D01*
G01*
X78362500Y-35500000D01*
G75*
G02*
X78625000Y-35762500I0J-262500D01*
G01*
X78625000Y-36387500D01*
G75*
G02*
X78362500Y-36650000I-262500J0D01*
G01*
G37*
G36*
G01*
X78362500Y-34900000D02*
X77837500Y-34900000D01*
G75*
G02*
X77575000Y-34637500I0J262500D01*
G01*
X77575000Y-34012500D01*
G75*
G02*
X77837500Y-33750000I262500J0D01*
G01*
X78362500Y-33750000D01*
G75*
G02*
X78625000Y-34012500I0J-262500D01*
G01*
X78625000Y-34637500D01*
G75*
G02*
X78362500Y-34900000I-262500J0D01*
G01*
G37*
%TD*%
%TO.C,C15*%
G36*
G01*
X86800000Y-31121738D02*
X86800000Y-32078262D01*
G75*
G02*
X86528262Y-32350000I-271738J0D01*
G01*
X85821738Y-32350000D01*
G75*
G02*
X85550000Y-32078262I0J271738D01*
G01*
X85550000Y-31121738D01*
G75*
G02*
X85821738Y-30850000I271738J0D01*
G01*
X86528262Y-30850000D01*
G75*
G02*
X86800000Y-31121738I0J-271738D01*
G01*
G37*
G36*
G01*
X88850000Y-31121738D02*
X88850000Y-32078262D01*
G75*
G02*
X88578262Y-32350000I-271738J0D01*
G01*
X87871738Y-32350000D01*
G75*
G02*
X87600000Y-32078262I0J271738D01*
G01*
X87600000Y-31121738D01*
G75*
G02*
X87871738Y-30850000I271738J0D01*
G01*
X88578262Y-30850000D01*
G75*
G02*
X88850000Y-31121738I0J-271738D01*
G01*
G37*
%TD*%
%TO.C,C16*%
G36*
G01*
X97275000Y-44978262D02*
X97275000Y-44021738D01*
G75*
G02*
X97546738Y-43750000I271738J0D01*
G01*
X98253262Y-43750000D01*
G75*
G02*
X98525000Y-44021738I0J-271738D01*
G01*
X98525000Y-44978262D01*
G75*
G02*
X98253262Y-45250000I-271738J0D01*
G01*
X97546738Y-45250000D01*
G75*
G02*
X97275000Y-44978262I0J271738D01*
G01*
G37*
G36*
G01*
X95225000Y-44978262D02*
X95225000Y-44021738D01*
G75*
G02*
X95496738Y-43750000I271738J0D01*
G01*
X96203262Y-43750000D01*
G75*
G02*
X96475000Y-44021738I0J-271738D01*
G01*
X96475000Y-44978262D01*
G75*
G02*
X96203262Y-45250000I-271738J0D01*
G01*
X95496738Y-45250000D01*
G75*
G02*
X95225000Y-44978262I0J271738D01*
G01*
G37*
%TD*%
%TO.C,C19*%
G36*
G01*
X81562500Y-34900000D02*
X81037500Y-34900000D01*
G75*
G02*
X80775000Y-34637500I0J262500D01*
G01*
X80775000Y-34012500D01*
G75*
G02*
X81037500Y-33750000I262500J0D01*
G01*
X81562500Y-33750000D01*
G75*
G02*
X81825000Y-34012500I0J-262500D01*
G01*
X81825000Y-34637500D01*
G75*
G02*
X81562500Y-34900000I-262500J0D01*
G01*
G37*
G36*
G01*
X81562500Y-36650000D02*
X81037500Y-36650000D01*
G75*
G02*
X80775000Y-36387500I0J262500D01*
G01*
X80775000Y-35762500D01*
G75*
G02*
X81037500Y-35500000I262500J0D01*
G01*
X81562500Y-35500000D01*
G75*
G02*
X81825000Y-35762500I0J-262500D01*
G01*
X81825000Y-36387500D01*
G75*
G02*
X81562500Y-36650000I-262500J0D01*
G01*
G37*
%TD*%
%TO.C,C21*%
G36*
G01*
X87600000Y-36278262D02*
X87600000Y-35321738D01*
G75*
G02*
X87871738Y-35050000I271738J0D01*
G01*
X88578262Y-35050000D01*
G75*
G02*
X88850000Y-35321738I0J-271738D01*
G01*
X88850000Y-36278262D01*
G75*
G02*
X88578262Y-36550000I-271738J0D01*
G01*
X87871738Y-36550000D01*
G75*
G02*
X87600000Y-36278262I0J271738D01*
G01*
G37*
G36*
G01*
X85550000Y-36278262D02*
X85550000Y-35321738D01*
G75*
G02*
X85821738Y-35050000I271738J0D01*
G01*
X86528262Y-35050000D01*
G75*
G02*
X86800000Y-35321738I0J-271738D01*
G01*
X86800000Y-36278262D01*
G75*
G02*
X86528262Y-36550000I-271738J0D01*
G01*
X85821738Y-36550000D01*
G75*
G02*
X85550000Y-36278262I0J271738D01*
G01*
G37*
%TD*%
%TO.C,C22*%
G36*
G01*
X98550000Y-39821738D02*
X98550000Y-40778262D01*
G75*
G02*
X98278262Y-41050000I-271738J0D01*
G01*
X97571738Y-41050000D01*
G75*
G02*
X97300000Y-40778262I0J271738D01*
G01*
X97300000Y-39821738D01*
G75*
G02*
X97571738Y-39550000I271738J0D01*
G01*
X98278262Y-39550000D01*
G75*
G02*
X98550000Y-39821738I0J-271738D01*
G01*
G37*
G36*
G01*
X96500000Y-39821738D02*
X96500000Y-40778262D01*
G75*
G02*
X96228262Y-41050000I-271738J0D01*
G01*
X95521738Y-41050000D01*
G75*
G02*
X95250000Y-40778262I0J271738D01*
G01*
X95250000Y-39821738D01*
G75*
G02*
X95521738Y-39550000I271738J0D01*
G01*
X96228262Y-39550000D01*
G75*
G02*
X96500000Y-39821738I0J-271738D01*
G01*
G37*
%TD*%
%TO.C,C23*%
G36*
G01*
X85350000Y-38757456D02*
X85350000Y-37442544D01*
G75*
G02*
X85617544Y-37175000I267544J0D01*
G01*
X86607456Y-37175000D01*
G75*
G02*
X86875000Y-37442544I0J-267544D01*
G01*
X86875000Y-38757456D01*
G75*
G02*
X86607456Y-39025000I-267544J0D01*
G01*
X85617544Y-39025000D01*
G75*
G02*
X85350000Y-38757456I0J267544D01*
G01*
G37*
G36*
G01*
X88325000Y-38757456D02*
X88325000Y-37442544D01*
G75*
G02*
X88592544Y-37175000I267544J0D01*
G01*
X89582456Y-37175000D01*
G75*
G02*
X89850000Y-37442544I0J-267544D01*
G01*
X89850000Y-38757456D01*
G75*
G02*
X89582456Y-39025000I-267544J0D01*
G01*
X88592544Y-39025000D01*
G75*
G02*
X88325000Y-38757456I0J267544D01*
G01*
G37*
%TD*%
%TO.C,C24*%
G36*
G01*
X98750000Y-37342544D02*
X98750000Y-38657456D01*
G75*
G02*
X98482456Y-38925000I-267544J0D01*
G01*
X97492544Y-38925000D01*
G75*
G02*
X97225000Y-38657456I0J267544D01*
G01*
X97225000Y-37342544D01*
G75*
G02*
X97492544Y-37075000I267544J0D01*
G01*
X98482456Y-37075000D01*
G75*
G02*
X98750000Y-37342544I0J-267544D01*
G01*
G37*
G36*
G01*
X95775000Y-37342544D02*
X95775000Y-38657456D01*
G75*
G02*
X95507456Y-38925000I-267544J0D01*
G01*
X94517544Y-38925000D01*
G75*
G02*
X94250000Y-38657456I0J267544D01*
G01*
X94250000Y-37342544D01*
G75*
G02*
X94517544Y-37075000I267544J0D01*
G01*
X95507456Y-37075000D01*
G75*
G02*
X95775000Y-37342544I0J-267544D01*
G01*
G37*
%TD*%
%TO.C,C29*%
G36*
G01*
X90575000Y-47442544D02*
X90575000Y-48757456D01*
G75*
G02*
X90307456Y-49025000I-267544J0D01*
G01*
X89317544Y-49025000D01*
G75*
G02*
X89050000Y-48757456I0J267544D01*
G01*
X89050000Y-47442544D01*
G75*
G02*
X89317544Y-47175000I267544J0D01*
G01*
X90307456Y-47175000D01*
G75*
G02*
X90575000Y-47442544I0J-267544D01*
G01*
G37*
G36*
G01*
X93550000Y-47442544D02*
X93550000Y-48757456D01*
G75*
G02*
X93282456Y-49025000I-267544J0D01*
G01*
X92292544Y-49025000D01*
G75*
G02*
X92025000Y-48757456I0J267544D01*
G01*
X92025000Y-47442544D01*
G75*
G02*
X92292544Y-47175000I267544J0D01*
G01*
X93282456Y-47175000D01*
G75*
G02*
X93550000Y-47442544I0J-267544D01*
G01*
G37*
%TD*%
%TO.C,C30*%
G36*
G01*
X93525000Y-28657456D02*
X93525000Y-27342544D01*
G75*
G02*
X93792544Y-27075000I267544J0D01*
G01*
X94782456Y-27075000D01*
G75*
G02*
X95050000Y-27342544I0J-267544D01*
G01*
X95050000Y-28657456D01*
G75*
G02*
X94782456Y-28925000I-267544J0D01*
G01*
X93792544Y-28925000D01*
G75*
G02*
X93525000Y-28657456I0J267544D01*
G01*
G37*
G36*
G01*
X90550000Y-28657456D02*
X90550000Y-27342544D01*
G75*
G02*
X90817544Y-27075000I267544J0D01*
G01*
X91807456Y-27075000D01*
G75*
G02*
X92075000Y-27342544I0J-267544D01*
G01*
X92075000Y-28657456D01*
G75*
G02*
X91807456Y-28925000I-267544J0D01*
G01*
X90817544Y-28925000D01*
G75*
G02*
X90550000Y-28657456I0J267544D01*
G01*
G37*
%TD*%
%TO.C,C32*%
G36*
G01*
X90700000Y-49921738D02*
X90700000Y-50878262D01*
G75*
G02*
X90428262Y-51150000I-271738J0D01*
G01*
X89721738Y-51150000D01*
G75*
G02*
X89450000Y-50878262I0J271738D01*
G01*
X89450000Y-49921738D01*
G75*
G02*
X89721738Y-49650000I271738J0D01*
G01*
X90428262Y-49650000D01*
G75*
G02*
X90700000Y-49921738I0J-271738D01*
G01*
G37*
G36*
G01*
X92750000Y-49921738D02*
X92750000Y-50878262D01*
G75*
G02*
X92478262Y-51150000I-271738J0D01*
G01*
X91771738Y-51150000D01*
G75*
G02*
X91500000Y-50878262I0J271738D01*
G01*
X91500000Y-49921738D01*
G75*
G02*
X91771738Y-49650000I271738J0D01*
G01*
X92478262Y-49650000D01*
G75*
G02*
X92750000Y-49921738I0J-271738D01*
G01*
G37*
%TD*%
%TO.C,C33*%
G36*
G01*
X91350000Y-26178262D02*
X91350000Y-25221738D01*
G75*
G02*
X91621738Y-24950000I271738J0D01*
G01*
X92328262Y-24950000D01*
G75*
G02*
X92600000Y-25221738I0J-271738D01*
G01*
X92600000Y-26178262D01*
G75*
G02*
X92328262Y-26450000I-271738J0D01*
G01*
X91621738Y-26450000D01*
G75*
G02*
X91350000Y-26178262I0J271738D01*
G01*
G37*
G36*
G01*
X93400000Y-26178262D02*
X93400000Y-25221738D01*
G75*
G02*
X93671738Y-24950000I271738J0D01*
G01*
X94378262Y-24950000D01*
G75*
G02*
X94650000Y-25221738I0J-271738D01*
G01*
X94650000Y-26178262D01*
G75*
G02*
X94378262Y-26450000I-271738J0D01*
G01*
X93671738Y-26450000D01*
G75*
G02*
X93400000Y-26178262I0J271738D01*
G01*
G37*
%TD*%
%TO.C,C63*%
G36*
G01*
X62036544Y-114338000D02*
X63351456Y-114338000D01*
G75*
G02*
X63619000Y-114605544I0J-267544D01*
G01*
X63619000Y-115595456D01*
G75*
G02*
X63351456Y-115863000I-267544J0D01*
G01*
X62036544Y-115863000D01*
G75*
G02*
X61769000Y-115595456I0J267544D01*
G01*
X61769000Y-114605544D01*
G75*
G02*
X62036544Y-114338000I267544J0D01*
G01*
G37*
G36*
G01*
X62036544Y-117313000D02*
X63351456Y-117313000D01*
G75*
G02*
X63619000Y-117580544I0J-267544D01*
G01*
X63619000Y-118570456D01*
G75*
G02*
X63351456Y-118838000I-267544J0D01*
G01*
X62036544Y-118838000D01*
G75*
G02*
X61769000Y-118570456I0J267544D01*
G01*
X61769000Y-117580544D01*
G75*
G02*
X62036544Y-117313000I267544J0D01*
G01*
G37*
%TD*%
%TO.C,C64*%
G36*
G01*
X59915738Y-117588000D02*
X60872262Y-117588000D01*
G75*
G02*
X61144000Y-117859738I0J-271738D01*
G01*
X61144000Y-118566262D01*
G75*
G02*
X60872262Y-118838000I-271738J0D01*
G01*
X59915738Y-118838000D01*
G75*
G02*
X59644000Y-118566262I0J271738D01*
G01*
X59644000Y-117859738D01*
G75*
G02*
X59915738Y-117588000I271738J0D01*
G01*
G37*
G36*
G01*
X59915738Y-115538000D02*
X60872262Y-115538000D01*
G75*
G02*
X61144000Y-115809738I0J-271738D01*
G01*
X61144000Y-116516262D01*
G75*
G02*
X60872262Y-116788000I-271738J0D01*
G01*
X59915738Y-116788000D01*
G75*
G02*
X59644000Y-116516262I0J271738D01*
G01*
X59644000Y-115809738D01*
G75*
G02*
X59915738Y-115538000I271738J0D01*
G01*
G37*
%TD*%
%TO.C,C65*%
G36*
G01*
X49551456Y-105475500D02*
X48236544Y-105475500D01*
G75*
G02*
X47969000Y-105207956I0J267544D01*
G01*
X47969000Y-104218044D01*
G75*
G02*
X48236544Y-103950500I267544J0D01*
G01*
X49551456Y-103950500D01*
G75*
G02*
X49819000Y-104218044I0J-267544D01*
G01*
X49819000Y-105207956D01*
G75*
G02*
X49551456Y-105475500I-267544J0D01*
G01*
G37*
G36*
G01*
X49551456Y-108450500D02*
X48236544Y-108450500D01*
G75*
G02*
X47969000Y-108182956I0J267544D01*
G01*
X47969000Y-107193044D01*
G75*
G02*
X48236544Y-106925500I267544J0D01*
G01*
X49551456Y-106925500D01*
G75*
G02*
X49819000Y-107193044I0J-267544D01*
G01*
X49819000Y-108182956D01*
G75*
G02*
X49551456Y-108450500I-267544J0D01*
G01*
G37*
%TD*%
%TO.C,C66*%
G36*
G01*
X67515738Y-100438000D02*
X68472262Y-100438000D01*
G75*
G02*
X68744000Y-100709738I0J-271738D01*
G01*
X68744000Y-101416262D01*
G75*
G02*
X68472262Y-101688000I-271738J0D01*
G01*
X67515738Y-101688000D01*
G75*
G02*
X67244000Y-101416262I0J271738D01*
G01*
X67244000Y-100709738D01*
G75*
G02*
X67515738Y-100438000I271738J0D01*
G01*
G37*
G36*
G01*
X67515738Y-102488000D02*
X68472262Y-102488000D01*
G75*
G02*
X68744000Y-102759738I0J-271738D01*
G01*
X68744000Y-103466262D01*
G75*
G02*
X68472262Y-103738000I-271738J0D01*
G01*
X67515738Y-103738000D01*
G75*
G02*
X67244000Y-103466262I0J271738D01*
G01*
X67244000Y-102759738D01*
G75*
G02*
X67515738Y-102488000I271738J0D01*
G01*
G37*
%TD*%
%TO.C,C67*%
G36*
G01*
X70736544Y-99825500D02*
X72051456Y-99825500D01*
G75*
G02*
X72319000Y-100093044I0J-267544D01*
G01*
X72319000Y-101082956D01*
G75*
G02*
X72051456Y-101350500I-267544J0D01*
G01*
X70736544Y-101350500D01*
G75*
G02*
X70469000Y-101082956I0J267544D01*
G01*
X70469000Y-100093044D01*
G75*
G02*
X70736544Y-99825500I267544J0D01*
G01*
G37*
G36*
G01*
X70736544Y-102800500D02*
X72051456Y-102800500D01*
G75*
G02*
X72319000Y-103068044I0J-267544D01*
G01*
X72319000Y-104057956D01*
G75*
G02*
X72051456Y-104325500I-267544J0D01*
G01*
X70736544Y-104325500D01*
G75*
G02*
X70469000Y-104057956I0J267544D01*
G01*
X70469000Y-103068044D01*
G75*
G02*
X70736544Y-102800500I267544J0D01*
G01*
G37*
%TD*%
%TO.C,C68*%
G36*
G01*
X50715738Y-101588000D02*
X51672262Y-101588000D01*
G75*
G02*
X51944000Y-101859738I0J-271738D01*
G01*
X51944000Y-102566262D01*
G75*
G02*
X51672262Y-102838000I-271738J0D01*
G01*
X50715738Y-102838000D01*
G75*
G02*
X50444000Y-102566262I0J271738D01*
G01*
X50444000Y-101859738D01*
G75*
G02*
X50715738Y-101588000I271738J0D01*
G01*
G37*
G36*
G01*
X50715738Y-99538000D02*
X51672262Y-99538000D01*
G75*
G02*
X51944000Y-99809738I0J-271738D01*
G01*
X51944000Y-100516262D01*
G75*
G02*
X51672262Y-100788000I-271738J0D01*
G01*
X50715738Y-100788000D01*
G75*
G02*
X50444000Y-100516262I0J271738D01*
G01*
X50444000Y-99809738D01*
G75*
G02*
X50715738Y-99538000I271738J0D01*
G01*
G37*
%TD*%
%TO.C,C71*%
G36*
G01*
X48236544Y-101813000D02*
X49551456Y-101813000D01*
G75*
G02*
X49819000Y-102080544I0J-267544D01*
G01*
X49819000Y-103070456D01*
G75*
G02*
X49551456Y-103338000I-267544J0D01*
G01*
X48236544Y-103338000D01*
G75*
G02*
X47969000Y-103070456I0J267544D01*
G01*
X47969000Y-102080544D01*
G75*
G02*
X48236544Y-101813000I267544J0D01*
G01*
G37*
G36*
G01*
X48236544Y-98838000D02*
X49551456Y-98838000D01*
G75*
G02*
X49819000Y-99105544I0J-267544D01*
G01*
X49819000Y-100095456D01*
G75*
G02*
X49551456Y-100363000I-267544J0D01*
G01*
X48236544Y-100363000D01*
G75*
G02*
X47969000Y-100095456I0J267544D01*
G01*
X47969000Y-99105544D01*
G75*
G02*
X48236544Y-98838000I267544J0D01*
G01*
G37*
%TD*%
%TO.C,C72*%
G36*
G01*
X52815738Y-99538000D02*
X53772262Y-99538000D01*
G75*
G02*
X54044000Y-99809738I0J-271738D01*
G01*
X54044000Y-100516262D01*
G75*
G02*
X53772262Y-100788000I-271738J0D01*
G01*
X52815738Y-100788000D01*
G75*
G02*
X52544000Y-100516262I0J271738D01*
G01*
X52544000Y-99809738D01*
G75*
G02*
X52815738Y-99538000I271738J0D01*
G01*
G37*
G36*
G01*
X52815738Y-101588000D02*
X53772262Y-101588000D01*
G75*
G02*
X54044000Y-101859738I0J-271738D01*
G01*
X54044000Y-102566262D01*
G75*
G02*
X53772262Y-102838000I-271738J0D01*
G01*
X52815738Y-102838000D01*
G75*
G02*
X52544000Y-102566262I0J271738D01*
G01*
X52544000Y-101859738D01*
G75*
G02*
X52815738Y-101588000I271738J0D01*
G01*
G37*
%TD*%
%TO.C,C75*%
G36*
G01*
X56851456Y-102838000D02*
X55536544Y-102838000D01*
G75*
G02*
X55269000Y-102570456I0J267544D01*
G01*
X55269000Y-101580544D01*
G75*
G02*
X55536544Y-101313000I267544J0D01*
G01*
X56851456Y-101313000D01*
G75*
G02*
X57119000Y-101580544I0J-267544D01*
G01*
X57119000Y-102570456D01*
G75*
G02*
X56851456Y-102838000I-267544J0D01*
G01*
G37*
G36*
G01*
X56851456Y-99863000D02*
X55536544Y-99863000D01*
G75*
G02*
X55269000Y-99595456I0J267544D01*
G01*
X55269000Y-98605544D01*
G75*
G02*
X55536544Y-98338000I267544J0D01*
G01*
X56851456Y-98338000D01*
G75*
G02*
X57119000Y-98605544I0J-267544D01*
G01*
X57119000Y-99595456D01*
G75*
G02*
X56851456Y-99863000I-267544J0D01*
G01*
G37*
%TD*%
%TO.C,C76*%
G36*
G01*
X59072262Y-100488000D02*
X58115738Y-100488000D01*
G75*
G02*
X57844000Y-100216262I0J271738D01*
G01*
X57844000Y-99509738D01*
G75*
G02*
X58115738Y-99238000I271738J0D01*
G01*
X59072262Y-99238000D01*
G75*
G02*
X59344000Y-99509738I0J-271738D01*
G01*
X59344000Y-100216262D01*
G75*
G02*
X59072262Y-100488000I-271738J0D01*
G01*
G37*
G36*
G01*
X59072262Y-102538000D02*
X58115738Y-102538000D01*
G75*
G02*
X57844000Y-102266262I0J271738D01*
G01*
X57844000Y-101559738D01*
G75*
G02*
X58115738Y-101288000I271738J0D01*
G01*
X59072262Y-101288000D01*
G75*
G02*
X59344000Y-101559738I0J-271738D01*
G01*
X59344000Y-102266262D01*
G75*
G02*
X59072262Y-102538000I-271738J0D01*
G01*
G37*
%TD*%
%TO.C,C77*%
G36*
G01*
X45350000Y-22271738D02*
X45350000Y-23228262D01*
G75*
G02*
X45078262Y-23500000I-271738J0D01*
G01*
X44371738Y-23500000D01*
G75*
G02*
X44100000Y-23228262I0J271738D01*
G01*
X44100000Y-22271738D01*
G75*
G02*
X44371738Y-22000000I271738J0D01*
G01*
X45078262Y-22000000D01*
G75*
G02*
X45350000Y-22271738I0J-271738D01*
G01*
G37*
G36*
G01*
X47400000Y-22271738D02*
X47400000Y-23228262D01*
G75*
G02*
X47128262Y-23500000I-271738J0D01*
G01*
X46421738Y-23500000D01*
G75*
G02*
X46150000Y-23228262I0J271738D01*
G01*
X46150000Y-22271738D01*
G75*
G02*
X46421738Y-22000000I271738J0D01*
G01*
X47128262Y-22000000D01*
G75*
G02*
X47400000Y-22271738I0J-271738D01*
G01*
G37*
%TD*%
%TO.C,C78*%
G36*
G01*
X45321738Y-24275000D02*
X46278262Y-24275000D01*
G75*
G02*
X46550000Y-24546738I0J-271738D01*
G01*
X46550000Y-25253262D01*
G75*
G02*
X46278262Y-25525000I-271738J0D01*
G01*
X45321738Y-25525000D01*
G75*
G02*
X45050000Y-25253262I0J271738D01*
G01*
X45050000Y-24546738D01*
G75*
G02*
X45321738Y-24275000I271738J0D01*
G01*
G37*
G36*
G01*
X45321738Y-26325000D02*
X46278262Y-26325000D01*
G75*
G02*
X46550000Y-26596738I0J-271738D01*
G01*
X46550000Y-27303262D01*
G75*
G02*
X46278262Y-27575000I-271738J0D01*
G01*
X45321738Y-27575000D01*
G75*
G02*
X45050000Y-27303262I0J271738D01*
G01*
X45050000Y-26596738D01*
G75*
G02*
X45321738Y-26325000I271738J0D01*
G01*
G37*
%TD*%
%TO.C,C96*%
G36*
G01*
X102337500Y-114750000D02*
X102862500Y-114750000D01*
G75*
G02*
X103125000Y-115012500I0J-262500D01*
G01*
X103125000Y-115637500D01*
G75*
G02*
X102862500Y-115900000I-262500J0D01*
G01*
X102337500Y-115900000D01*
G75*
G02*
X102075000Y-115637500I0J262500D01*
G01*
X102075000Y-115012500D01*
G75*
G02*
X102337500Y-114750000I262500J0D01*
G01*
G37*
G36*
G01*
X102337500Y-116500000D02*
X102862500Y-116500000D01*
G75*
G02*
X103125000Y-116762500I0J-262500D01*
G01*
X103125000Y-117387500D01*
G75*
G02*
X102862500Y-117650000I-262500J0D01*
G01*
X102337500Y-117650000D01*
G75*
G02*
X102075000Y-117387500I0J262500D01*
G01*
X102075000Y-116762500D01*
G75*
G02*
X102337500Y-116500000I262500J0D01*
G01*
G37*
%TD*%
%TO.C,C97*%
G36*
G01*
X97062500Y-106500000D02*
X96537500Y-106500000D01*
G75*
G02*
X96275000Y-106237500I0J262500D01*
G01*
X96275000Y-105612500D01*
G75*
G02*
X96537500Y-105350000I262500J0D01*
G01*
X97062500Y-105350000D01*
G75*
G02*
X97325000Y-105612500I0J-262500D01*
G01*
X97325000Y-106237500D01*
G75*
G02*
X97062500Y-106500000I-262500J0D01*
G01*
G37*
G36*
G01*
X97062500Y-108250000D02*
X96537500Y-108250000D01*
G75*
G02*
X96275000Y-107987500I0J262500D01*
G01*
X96275000Y-107362500D01*
G75*
G02*
X96537500Y-107100000I262500J0D01*
G01*
X97062500Y-107100000D01*
G75*
G02*
X97325000Y-107362500I0J-262500D01*
G01*
X97325000Y-107987500D01*
G75*
G02*
X97062500Y-108250000I-262500J0D01*
G01*
G37*
%TD*%
%TO.C,C98*%
G36*
G01*
X100200000Y-106278262D02*
X100200000Y-105321738D01*
G75*
G02*
X100471738Y-105050000I271738J0D01*
G01*
X101178262Y-105050000D01*
G75*
G02*
X101450000Y-105321738I0J-271738D01*
G01*
X101450000Y-106278262D01*
G75*
G02*
X101178262Y-106550000I-271738J0D01*
G01*
X100471738Y-106550000D01*
G75*
G02*
X100200000Y-106278262I0J271738D01*
G01*
G37*
G36*
G01*
X98150000Y-106278262D02*
X98150000Y-105321738D01*
G75*
G02*
X98421738Y-105050000I271738J0D01*
G01*
X99128262Y-105050000D01*
G75*
G02*
X99400000Y-105321738I0J-271738D01*
G01*
X99400000Y-106278262D01*
G75*
G02*
X99128262Y-106550000I-271738J0D01*
G01*
X98421738Y-106550000D01*
G75*
G02*
X98150000Y-106278262I0J271738D01*
G01*
G37*
%TD*%
%TO.C,C99*%
G36*
G01*
X104721738Y-115200000D02*
X105678262Y-115200000D01*
G75*
G02*
X105950000Y-115471738I0J-271738D01*
G01*
X105950000Y-116178262D01*
G75*
G02*
X105678262Y-116450000I-271738J0D01*
G01*
X104721738Y-116450000D01*
G75*
G02*
X104450000Y-116178262I0J271738D01*
G01*
X104450000Y-115471738D01*
G75*
G02*
X104721738Y-115200000I271738J0D01*
G01*
G37*
G36*
G01*
X104721738Y-113150000D02*
X105678262Y-113150000D01*
G75*
G02*
X105950000Y-113421738I0J-271738D01*
G01*
X105950000Y-114128262D01*
G75*
G02*
X105678262Y-114400000I-271738J0D01*
G01*
X104721738Y-114400000D01*
G75*
G02*
X104450000Y-114128262I0J271738D01*
G01*
X104450000Y-113421738D01*
G75*
G02*
X104721738Y-113150000I271738J0D01*
G01*
G37*
%TD*%
%TO.C,C100*%
G36*
G01*
X106828262Y-96975000D02*
X105871738Y-96975000D01*
G75*
G02*
X105600000Y-96703262I0J271738D01*
G01*
X105600000Y-95996738D01*
G75*
G02*
X105871738Y-95725000I271738J0D01*
G01*
X106828262Y-95725000D01*
G75*
G02*
X107100000Y-95996738I0J-271738D01*
G01*
X107100000Y-96703262D01*
G75*
G02*
X106828262Y-96975000I-271738J0D01*
G01*
G37*
G36*
G01*
X106828262Y-99025000D02*
X105871738Y-99025000D01*
G75*
G02*
X105600000Y-98753262I0J271738D01*
G01*
X105600000Y-98046738D01*
G75*
G02*
X105871738Y-97775000I271738J0D01*
G01*
X106828262Y-97775000D01*
G75*
G02*
X107100000Y-98046738I0J-271738D01*
G01*
X107100000Y-98753262D01*
G75*
G02*
X106828262Y-99025000I-271738J0D01*
G01*
G37*
%TD*%
%TO.C,C101*%
G36*
G01*
X123750000Y-98842544D02*
X123750000Y-100157456D01*
G75*
G02*
X123482456Y-100425000I-267544J0D01*
G01*
X122492544Y-100425000D01*
G75*
G02*
X122225000Y-100157456I0J267544D01*
G01*
X122225000Y-98842544D01*
G75*
G02*
X122492544Y-98575000I267544J0D01*
G01*
X123482456Y-98575000D01*
G75*
G02*
X123750000Y-98842544I0J-267544D01*
G01*
G37*
G36*
G01*
X120775000Y-98842544D02*
X120775000Y-100157456D01*
G75*
G02*
X120507456Y-100425000I-267544J0D01*
G01*
X119517544Y-100425000D01*
G75*
G02*
X119250000Y-100157456I0J267544D01*
G01*
X119250000Y-98842544D01*
G75*
G02*
X119517544Y-98575000I267544J0D01*
G01*
X120507456Y-98575000D01*
G75*
G02*
X120775000Y-98842544I0J-267544D01*
G01*
G37*
%TD*%
%TO.C,C102*%
G36*
G01*
X101450000Y-103321738D02*
X101450000Y-104278262D01*
G75*
G02*
X101178262Y-104550000I-271738J0D01*
G01*
X100471738Y-104550000D01*
G75*
G02*
X100200000Y-104278262I0J271738D01*
G01*
X100200000Y-103321738D01*
G75*
G02*
X100471738Y-103050000I271738J0D01*
G01*
X101178262Y-103050000D01*
G75*
G02*
X101450000Y-103321738I0J-271738D01*
G01*
G37*
G36*
G01*
X99400000Y-103321738D02*
X99400000Y-104278262D01*
G75*
G02*
X99128262Y-104550000I-271738J0D01*
G01*
X98421738Y-104550000D01*
G75*
G02*
X98150000Y-104278262I0J271738D01*
G01*
X98150000Y-103321738D01*
G75*
G02*
X98421738Y-103050000I271738J0D01*
G01*
X99128262Y-103050000D01*
G75*
G02*
X99400000Y-103321738I0J-271738D01*
G01*
G37*
%TD*%
%TO.C,C103*%
G36*
G01*
X123725000Y-96321738D02*
X123725000Y-97278262D01*
G75*
G02*
X123453262Y-97550000I-271738J0D01*
G01*
X122746738Y-97550000D01*
G75*
G02*
X122475000Y-97278262I0J271738D01*
G01*
X122475000Y-96321738D01*
G75*
G02*
X122746738Y-96050000I271738J0D01*
G01*
X123453262Y-96050000D01*
G75*
G02*
X123725000Y-96321738I0J-271738D01*
G01*
G37*
G36*
G01*
X121675000Y-96321738D02*
X121675000Y-97278262D01*
G75*
G02*
X121403262Y-97550000I-271738J0D01*
G01*
X120696738Y-97550000D01*
G75*
G02*
X120425000Y-97278262I0J271738D01*
G01*
X120425000Y-96321738D01*
G75*
G02*
X120696738Y-96050000I271738J0D01*
G01*
X121403262Y-96050000D01*
G75*
G02*
X121675000Y-96321738I0J-271738D01*
G01*
G37*
%TD*%
%TO.C,C104*%
G36*
G01*
X112778262Y-96900000D02*
X111821738Y-96900000D01*
G75*
G02*
X111550000Y-96628262I0J271738D01*
G01*
X111550000Y-95921738D01*
G75*
G02*
X111821738Y-95650000I271738J0D01*
G01*
X112778262Y-95650000D01*
G75*
G02*
X113050000Y-95921738I0J-271738D01*
G01*
X113050000Y-96628262D01*
G75*
G02*
X112778262Y-96900000I-271738J0D01*
G01*
G37*
G36*
G01*
X112778262Y-98950000D02*
X111821738Y-98950000D01*
G75*
G02*
X111550000Y-98678262I0J271738D01*
G01*
X111550000Y-97971738D01*
G75*
G02*
X111821738Y-97700000I271738J0D01*
G01*
X112778262Y-97700000D01*
G75*
G02*
X113050000Y-97971738I0J-271738D01*
G01*
X113050000Y-98678262D01*
G75*
G02*
X112778262Y-98950000I-271738J0D01*
G01*
G37*
%TD*%
%TO.C,C106*%
G36*
G01*
X123162500Y-92442544D02*
X123162500Y-93757456D01*
G75*
G02*
X122894956Y-94025000I-267544J0D01*
G01*
X121905044Y-94025000D01*
G75*
G02*
X121637500Y-93757456I0J267544D01*
G01*
X121637500Y-92442544D01*
G75*
G02*
X121905044Y-92175000I267544J0D01*
G01*
X122894956Y-92175000D01*
G75*
G02*
X123162500Y-92442544I0J-267544D01*
G01*
G37*
G36*
G01*
X120187500Y-92442544D02*
X120187500Y-93757456D01*
G75*
G02*
X119919956Y-94025000I-267544J0D01*
G01*
X118930044Y-94025000D01*
G75*
G02*
X118662500Y-93757456I0J267544D01*
G01*
X118662500Y-92442544D01*
G75*
G02*
X118930044Y-92175000I267544J0D01*
G01*
X119919956Y-92175000D01*
G75*
G02*
X120187500Y-92442544I0J-267544D01*
G01*
G37*
%TD*%
%TO.C,C108*%
G36*
G01*
X123150000Y-89821738D02*
X123150000Y-90778262D01*
G75*
G02*
X122878262Y-91050000I-271738J0D01*
G01*
X122171738Y-91050000D01*
G75*
G02*
X121900000Y-90778262I0J271738D01*
G01*
X121900000Y-89821738D01*
G75*
G02*
X122171738Y-89550000I271738J0D01*
G01*
X122878262Y-89550000D01*
G75*
G02*
X123150000Y-89821738I0J-271738D01*
G01*
G37*
G36*
G01*
X121100000Y-89821738D02*
X121100000Y-90778262D01*
G75*
G02*
X120828262Y-91050000I-271738J0D01*
G01*
X120121738Y-91050000D01*
G75*
G02*
X119850000Y-90778262I0J271738D01*
G01*
X119850000Y-89821738D01*
G75*
G02*
X120121738Y-89550000I271738J0D01*
G01*
X120828262Y-89550000D01*
G75*
G02*
X121100000Y-89821738I0J-271738D01*
G01*
G37*
%TD*%
%TO.C,C110*%
G36*
G01*
X80146738Y-75725000D02*
X81103262Y-75725000D01*
G75*
G02*
X81375000Y-75996738I0J-271738D01*
G01*
X81375000Y-76703262D01*
G75*
G02*
X81103262Y-76975000I-271738J0D01*
G01*
X80146738Y-76975000D01*
G75*
G02*
X79875000Y-76703262I0J271738D01*
G01*
X79875000Y-75996738D01*
G75*
G02*
X80146738Y-75725000I271738J0D01*
G01*
G37*
G36*
G01*
X80146738Y-77775000D02*
X81103262Y-77775000D01*
G75*
G02*
X81375000Y-78046738I0J-271738D01*
G01*
X81375000Y-78753262D01*
G75*
G02*
X81103262Y-79025000I-271738J0D01*
G01*
X80146738Y-79025000D01*
G75*
G02*
X79875000Y-78753262I0J271738D01*
G01*
X79875000Y-78046738D01*
G75*
G02*
X80146738Y-77775000I271738J0D01*
G01*
G37*
%TD*%
%TO.C,C111*%
G36*
G01*
X88532456Y-77187500D02*
X87217544Y-77187500D01*
G75*
G02*
X86950000Y-76919956I0J267544D01*
G01*
X86950000Y-75930044D01*
G75*
G02*
X87217544Y-75662500I267544J0D01*
G01*
X88532456Y-75662500D01*
G75*
G02*
X88800000Y-75930044I0J-267544D01*
G01*
X88800000Y-76919956D01*
G75*
G02*
X88532456Y-77187500I-267544J0D01*
G01*
G37*
G36*
G01*
X88532456Y-80162500D02*
X87217544Y-80162500D01*
G75*
G02*
X86950000Y-79894956I0J267544D01*
G01*
X86950000Y-78905044D01*
G75*
G02*
X87217544Y-78637500I267544J0D01*
G01*
X88532456Y-78637500D01*
G75*
G02*
X88800000Y-78905044I0J-267544D01*
G01*
X88800000Y-79894956D01*
G75*
G02*
X88532456Y-80162500I-267544J0D01*
G01*
G37*
%TD*%
%TO.C,C112*%
G36*
G01*
X93800000Y-69871738D02*
X93800000Y-70828262D01*
G75*
G02*
X93528262Y-71100000I-271738J0D01*
G01*
X92821738Y-71100000D01*
G75*
G02*
X92550000Y-70828262I0J271738D01*
G01*
X92550000Y-69871738D01*
G75*
G02*
X92821738Y-69600000I271738J0D01*
G01*
X93528262Y-69600000D01*
G75*
G02*
X93800000Y-69871738I0J-271738D01*
G01*
G37*
G36*
G01*
X91750000Y-69871738D02*
X91750000Y-70828262D01*
G75*
G02*
X91478262Y-71100000I-271738J0D01*
G01*
X90771738Y-71100000D01*
G75*
G02*
X90500000Y-70828262I0J271738D01*
G01*
X90500000Y-69871738D01*
G75*
G02*
X90771738Y-69600000I271738J0D01*
G01*
X91478262Y-69600000D01*
G75*
G02*
X91750000Y-69871738I0J-271738D01*
G01*
G37*
%TD*%
%TO.C,C113*%
G36*
G01*
X83471738Y-82350000D02*
X84428262Y-82350000D01*
G75*
G02*
X84700000Y-82621738I0J-271738D01*
G01*
X84700000Y-83328262D01*
G75*
G02*
X84428262Y-83600000I-271738J0D01*
G01*
X83471738Y-83600000D01*
G75*
G02*
X83200000Y-83328262I0J271738D01*
G01*
X83200000Y-82621738D01*
G75*
G02*
X83471738Y-82350000I271738J0D01*
G01*
G37*
G36*
G01*
X83471738Y-84400000D02*
X84428262Y-84400000D01*
G75*
G02*
X84700000Y-84671738I0J-271738D01*
G01*
X84700000Y-85378262D01*
G75*
G02*
X84428262Y-85650000I-271738J0D01*
G01*
X83471738Y-85650000D01*
G75*
G02*
X83200000Y-85378262I0J271738D01*
G01*
X83200000Y-84671738D01*
G75*
G02*
X83471738Y-84400000I271738J0D01*
G01*
G37*
%TD*%
%TO.C,C118*%
G36*
G01*
X58721738Y-24850000D02*
X59678262Y-24850000D01*
G75*
G02*
X59950000Y-25121738I0J-271738D01*
G01*
X59950000Y-25828262D01*
G75*
G02*
X59678262Y-26100000I-271738J0D01*
G01*
X58721738Y-26100000D01*
G75*
G02*
X58450000Y-25828262I0J271738D01*
G01*
X58450000Y-25121738D01*
G75*
G02*
X58721738Y-24850000I271738J0D01*
G01*
G37*
G36*
G01*
X58721738Y-26900000D02*
X59678262Y-26900000D01*
G75*
G02*
X59950000Y-27171738I0J-271738D01*
G01*
X59950000Y-27878262D01*
G75*
G02*
X59678262Y-28150000I-271738J0D01*
G01*
X58721738Y-28150000D01*
G75*
G02*
X58450000Y-27878262I0J271738D01*
G01*
X58450000Y-27171738D01*
G75*
G02*
X58721738Y-26900000I271738J0D01*
G01*
G37*
%TD*%
%TO.C,C119*%
G36*
G01*
X66778262Y-28150000D02*
X65821738Y-28150000D01*
G75*
G02*
X65550000Y-27878262I0J271738D01*
G01*
X65550000Y-27171738D01*
G75*
G02*
X65821738Y-26900000I271738J0D01*
G01*
X66778262Y-26900000D01*
G75*
G02*
X67050000Y-27171738I0J-271738D01*
G01*
X67050000Y-27878262D01*
G75*
G02*
X66778262Y-28150000I-271738J0D01*
G01*
G37*
G36*
G01*
X66778262Y-26100000D02*
X65821738Y-26100000D01*
G75*
G02*
X65550000Y-25828262I0J271738D01*
G01*
X65550000Y-25121738D01*
G75*
G02*
X65821738Y-24850000I271738J0D01*
G01*
X66778262Y-24850000D01*
G75*
G02*
X67050000Y-25121738I0J-271738D01*
G01*
X67050000Y-25828262D01*
G75*
G02*
X66778262Y-26100000I-271738J0D01*
G01*
G37*
%TD*%
%TO.C,C120*%
G36*
G01*
X64457456Y-28450000D02*
X63142544Y-28450000D01*
G75*
G02*
X62875000Y-28182456I0J267544D01*
G01*
X62875000Y-27192544D01*
G75*
G02*
X63142544Y-26925000I267544J0D01*
G01*
X64457456Y-26925000D01*
G75*
G02*
X64725000Y-27192544I0J-267544D01*
G01*
X64725000Y-28182456D01*
G75*
G02*
X64457456Y-28450000I-267544J0D01*
G01*
G37*
G36*
G01*
X64457456Y-25475000D02*
X63142544Y-25475000D01*
G75*
G02*
X62875000Y-25207456I0J267544D01*
G01*
X62875000Y-24217544D01*
G75*
G02*
X63142544Y-23950000I267544J0D01*
G01*
X64457456Y-23950000D01*
G75*
G02*
X64725000Y-24217544I0J-267544D01*
G01*
X64725000Y-25207456D01*
G75*
G02*
X64457456Y-25475000I-267544J0D01*
G01*
G37*
%TD*%
%TO.C,C121*%
G36*
G01*
X72125000Y-25557456D02*
X72125000Y-24242544D01*
G75*
G02*
X72392544Y-23975000I267544J0D01*
G01*
X73382456Y-23975000D01*
G75*
G02*
X73650000Y-24242544I0J-267544D01*
G01*
X73650000Y-25557456D01*
G75*
G02*
X73382456Y-25825000I-267544J0D01*
G01*
X72392544Y-25825000D01*
G75*
G02*
X72125000Y-25557456I0J267544D01*
G01*
G37*
G36*
G01*
X69150000Y-25557456D02*
X69150000Y-24242544D01*
G75*
G02*
X69417544Y-23975000I267544J0D01*
G01*
X70407456Y-23975000D01*
G75*
G02*
X70675000Y-24242544I0J-267544D01*
G01*
X70675000Y-25557456D01*
G75*
G02*
X70407456Y-25825000I-267544J0D01*
G01*
X69417544Y-25825000D01*
G75*
G02*
X69150000Y-25557456I0J267544D01*
G01*
G37*
%TD*%
%TO.C,C126*%
G36*
G01*
X72000000Y-23078262D02*
X72000000Y-22121738D01*
G75*
G02*
X72271738Y-21850000I271738J0D01*
G01*
X72978262Y-21850000D01*
G75*
G02*
X73250000Y-22121738I0J-271738D01*
G01*
X73250000Y-23078262D01*
G75*
G02*
X72978262Y-23350000I-271738J0D01*
G01*
X72271738Y-23350000D01*
G75*
G02*
X72000000Y-23078262I0J271738D01*
G01*
G37*
G36*
G01*
X69950000Y-23078262D02*
X69950000Y-22121738D01*
G75*
G02*
X70221738Y-21850000I271738J0D01*
G01*
X70928262Y-21850000D01*
G75*
G02*
X71200000Y-22121738I0J-271738D01*
G01*
X71200000Y-23078262D01*
G75*
G02*
X70928262Y-23350000I-271738J0D01*
G01*
X70221738Y-23350000D01*
G75*
G02*
X69950000Y-23078262I0J271738D01*
G01*
G37*
%TD*%
%TO.C,D6*%
G36*
G01*
X91750000Y-60028262D02*
X91750000Y-59071738D01*
G75*
G02*
X92021738Y-58800000I271738J0D01*
G01*
X92728262Y-58800000D01*
G75*
G02*
X93000000Y-59071738I0J-271738D01*
G01*
X93000000Y-60028262D01*
G75*
G02*
X92728262Y-60300000I-271738J0D01*
G01*
X92021738Y-60300000D01*
G75*
G02*
X91750000Y-60028262I0J271738D01*
G01*
G37*
G36*
G01*
X89700000Y-60028262D02*
X89700000Y-59071738D01*
G75*
G02*
X89971738Y-58800000I271738J0D01*
G01*
X90678262Y-58800000D01*
G75*
G02*
X90950000Y-59071738I0J-271738D01*
G01*
X90950000Y-60028262D01*
G75*
G02*
X90678262Y-60300000I-271738J0D01*
G01*
X89971738Y-60300000D01*
G75*
G02*
X89700000Y-60028262I0J271738D01*
G01*
G37*
%TD*%
%TO.C,D7*%
G36*
G01*
X91750000Y-62128262D02*
X91750000Y-61171738D01*
G75*
G02*
X92021738Y-60900000I271738J0D01*
G01*
X92728262Y-60900000D01*
G75*
G02*
X93000000Y-61171738I0J-271738D01*
G01*
X93000000Y-62128262D01*
G75*
G02*
X92728262Y-62400000I-271738J0D01*
G01*
X92021738Y-62400000D01*
G75*
G02*
X91750000Y-62128262I0J271738D01*
G01*
G37*
G36*
G01*
X89700000Y-62128262D02*
X89700000Y-61171738D01*
G75*
G02*
X89971738Y-60900000I271738J0D01*
G01*
X90678262Y-60900000D01*
G75*
G02*
X90950000Y-61171738I0J-271738D01*
G01*
X90950000Y-62128262D01*
G75*
G02*
X90678262Y-62400000I-271738J0D01*
G01*
X89971738Y-62400000D01*
G75*
G02*
X89700000Y-62128262I0J271738D01*
G01*
G37*
%TD*%
D16*
%TO.C,D13*%
X93125000Y-85100000D03*
X96425000Y-85100000D03*
%TD*%
%TO.C,D14*%
X96425000Y-74150000D03*
X93125000Y-74150000D03*
%TD*%
D17*
%TO.C,D15*%
X93125000Y-77550000D03*
X93125000Y-80850000D03*
%TD*%
%TO.C,FB1*%
G36*
G01*
X42000000Y-70278262D02*
X42000000Y-69321738D01*
G75*
G02*
X42271738Y-69050000I271738J0D01*
G01*
X42978262Y-69050000D01*
G75*
G02*
X43250000Y-69321738I0J-271738D01*
G01*
X43250000Y-70278262D01*
G75*
G02*
X42978262Y-70550000I-271738J0D01*
G01*
X42271738Y-70550000D01*
G75*
G02*
X42000000Y-70278262I0J271738D01*
G01*
G37*
G36*
G01*
X39950000Y-70278262D02*
X39950000Y-69321738D01*
G75*
G02*
X40221738Y-69050000I271738J0D01*
G01*
X40928262Y-69050000D01*
G75*
G02*
X41200000Y-69321738I0J-271738D01*
G01*
X41200000Y-70278262D01*
G75*
G02*
X40928262Y-70550000I-271738J0D01*
G01*
X40221738Y-70550000D01*
G75*
G02*
X39950000Y-70278262I0J271738D01*
G01*
G37*
%TD*%
%TO.C,FB3*%
G36*
G01*
X86800000Y-33221738D02*
X86800000Y-34178262D01*
G75*
G02*
X86528262Y-34450000I-271738J0D01*
G01*
X85821738Y-34450000D01*
G75*
G02*
X85550000Y-34178262I0J271738D01*
G01*
X85550000Y-33221738D01*
G75*
G02*
X85821738Y-32950000I271738J0D01*
G01*
X86528262Y-32950000D01*
G75*
G02*
X86800000Y-33221738I0J-271738D01*
G01*
G37*
G36*
G01*
X88850000Y-33221738D02*
X88850000Y-34178262D01*
G75*
G02*
X88578262Y-34450000I-271738J0D01*
G01*
X87871738Y-34450000D01*
G75*
G02*
X87600000Y-34178262I0J271738D01*
G01*
X87600000Y-33221738D01*
G75*
G02*
X87871738Y-32950000I271738J0D01*
G01*
X88578262Y-32950000D01*
G75*
G02*
X88850000Y-33221738I0J-271738D01*
G01*
G37*
%TD*%
%TO.C,FB4*%
G36*
G01*
X97275000Y-42878262D02*
X97275000Y-41921738D01*
G75*
G02*
X97546738Y-41650000I271738J0D01*
G01*
X98253262Y-41650000D01*
G75*
G02*
X98525000Y-41921738I0J-271738D01*
G01*
X98525000Y-42878262D01*
G75*
G02*
X98253262Y-43150000I-271738J0D01*
G01*
X97546738Y-43150000D01*
G75*
G02*
X97275000Y-42878262I0J271738D01*
G01*
G37*
G36*
G01*
X95225000Y-42878262D02*
X95225000Y-41921738D01*
G75*
G02*
X95496738Y-41650000I271738J0D01*
G01*
X96203262Y-41650000D01*
G75*
G02*
X96475000Y-41921738I0J-271738D01*
G01*
X96475000Y-42878262D01*
G75*
G02*
X96203262Y-43150000I-271738J0D01*
G01*
X95496738Y-43150000D01*
G75*
G02*
X95225000Y-42878262I0J271738D01*
G01*
G37*
%TD*%
%TO.C,FB6*%
G36*
G01*
X48100000Y-23228262D02*
X48100000Y-22271738D01*
G75*
G02*
X48371738Y-22000000I271738J0D01*
G01*
X49078262Y-22000000D01*
G75*
G02*
X49350000Y-22271738I0J-271738D01*
G01*
X49350000Y-23228262D01*
G75*
G02*
X49078262Y-23500000I-271738J0D01*
G01*
X48371738Y-23500000D01*
G75*
G02*
X48100000Y-23228262I0J271738D01*
G01*
G37*
G36*
G01*
X50150000Y-23228262D02*
X50150000Y-22271738D01*
G75*
G02*
X50421738Y-22000000I271738J0D01*
G01*
X51128262Y-22000000D01*
G75*
G02*
X51400000Y-22271738I0J-271738D01*
G01*
X51400000Y-23228262D01*
G75*
G02*
X51128262Y-23500000I-271738J0D01*
G01*
X50421738Y-23500000D01*
G75*
G02*
X50150000Y-23228262I0J271738D01*
G01*
G37*
%TD*%
%TO.C,FB7*%
G36*
G01*
X60821738Y-24825000D02*
X61778262Y-24825000D01*
G75*
G02*
X62050000Y-25096738I0J-271738D01*
G01*
X62050000Y-25803262D01*
G75*
G02*
X61778262Y-26075000I-271738J0D01*
G01*
X60821738Y-26075000D01*
G75*
G02*
X60550000Y-25803262I0J271738D01*
G01*
X60550000Y-25096738D01*
G75*
G02*
X60821738Y-24825000I271738J0D01*
G01*
G37*
G36*
G01*
X60821738Y-26875000D02*
X61778262Y-26875000D01*
G75*
G02*
X62050000Y-27146738I0J-271738D01*
G01*
X62050000Y-27853262D01*
G75*
G02*
X61778262Y-28125000I-271738J0D01*
G01*
X60821738Y-28125000D01*
G75*
G02*
X60550000Y-27853262I0J271738D01*
G01*
X60550000Y-27146738D01*
G75*
G02*
X60821738Y-26875000I271738J0D01*
G01*
G37*
%TD*%
D18*
%TO.C,J2*%
X39480000Y-64010000D03*
X39480000Y-55510000D03*
%TD*%
%TO.C,J3*%
X39350000Y-30750000D03*
X39350000Y-39250000D03*
%TD*%
%TO.C,J4*%
G36*
G01*
X128500000Y-59385294D02*
X128500000Y-58114706D01*
G75*
G02*
X128764706Y-57850000I264706J0D01*
G01*
X130035294Y-57850000D01*
G75*
G02*
X130300000Y-58114706I0J-264706D01*
G01*
X130300000Y-59385294D01*
G75*
G02*
X130035294Y-59650000I-264706J0D01*
G01*
X128764706Y-59650000D01*
G75*
G02*
X128500000Y-59385294I0J264706D01*
G01*
G37*
D19*
X129400000Y-61290000D03*
X129400000Y-63830000D03*
X129400000Y-66370000D03*
X129400000Y-68910000D03*
X131940000Y-58750000D03*
X131940000Y-61290000D03*
X131940000Y-63830000D03*
X131940000Y-66370000D03*
X131940000Y-68910000D03*
%TD*%
D20*
%TO.C,J5*%
X133400000Y-103000000D03*
X133400000Y-111800000D03*
X127900000Y-103000000D03*
X127900000Y-111800000D03*
D21*
X127900000Y-105800000D03*
X127900000Y-106600000D03*
X127900000Y-107400000D03*
X127900000Y-108200000D03*
X127900000Y-109000000D03*
D22*
X130500000Y-105200000D03*
X130500000Y-109600000D03*
%TD*%
D23*
%TO.C,J6*%
X115300000Y-115000000D03*
D24*
X114030000Y-115000000D03*
X112760000Y-115000000D03*
X111490000Y-115000000D03*
%TD*%
D23*
%TO.C,JP1*%
X107000000Y-118600000D03*
D24*
X105730000Y-118600000D03*
%TD*%
%TO.C,R6*%
G36*
G01*
X82778262Y-46750000D02*
X81821738Y-46750000D01*
G75*
G02*
X81550000Y-46478262I0J271738D01*
G01*
X81550000Y-45771738D01*
G75*
G02*
X81821738Y-45500000I271738J0D01*
G01*
X82778262Y-45500000D01*
G75*
G02*
X83050000Y-45771738I0J-271738D01*
G01*
X83050000Y-46478262D01*
G75*
G02*
X82778262Y-46750000I-271738J0D01*
G01*
G37*
G36*
G01*
X82778262Y-44700000D02*
X81821738Y-44700000D01*
G75*
G02*
X81550000Y-44428262I0J271738D01*
G01*
X81550000Y-43721738D01*
G75*
G02*
X81821738Y-43450000I271738J0D01*
G01*
X82778262Y-43450000D01*
G75*
G02*
X83050000Y-43721738I0J-271738D01*
G01*
X83050000Y-44428262D01*
G75*
G02*
X82778262Y-44700000I-271738J0D01*
G01*
G37*
%TD*%
%TO.C,R10*%
G36*
G01*
X79821738Y-44275000D02*
X80778262Y-44275000D01*
G75*
G02*
X81050000Y-44546738I0J-271738D01*
G01*
X81050000Y-45253262D01*
G75*
G02*
X80778262Y-45525000I-271738J0D01*
G01*
X79821738Y-45525000D01*
G75*
G02*
X79550000Y-45253262I0J271738D01*
G01*
X79550000Y-44546738D01*
G75*
G02*
X79821738Y-44275000I271738J0D01*
G01*
G37*
G36*
G01*
X79821738Y-46325000D02*
X80778262Y-46325000D01*
G75*
G02*
X81050000Y-46596738I0J-271738D01*
G01*
X81050000Y-47303262D01*
G75*
G02*
X80778262Y-47575000I-271738J0D01*
G01*
X79821738Y-47575000D01*
G75*
G02*
X79550000Y-47303262I0J271738D01*
G01*
X79550000Y-46596738D01*
G75*
G02*
X79821738Y-46325000I271738J0D01*
G01*
G37*
%TD*%
%TO.C,R14*%
G36*
G01*
X77921738Y-45850000D02*
X78878262Y-45850000D01*
G75*
G02*
X79150000Y-46121738I0J-271738D01*
G01*
X79150000Y-46828262D01*
G75*
G02*
X78878262Y-47100000I-271738J0D01*
G01*
X77921738Y-47100000D01*
G75*
G02*
X77650000Y-46828262I0J271738D01*
G01*
X77650000Y-46121738D01*
G75*
G02*
X77921738Y-45850000I271738J0D01*
G01*
G37*
G36*
G01*
X77921738Y-43800000D02*
X78878262Y-43800000D01*
G75*
G02*
X79150000Y-44071738I0J-271738D01*
G01*
X79150000Y-44778262D01*
G75*
G02*
X78878262Y-45050000I-271738J0D01*
G01*
X77921738Y-45050000D01*
G75*
G02*
X77650000Y-44778262I0J271738D01*
G01*
X77650000Y-44071738D01*
G75*
G02*
X77921738Y-43800000I271738J0D01*
G01*
G37*
%TD*%
%TO.C,R18*%
G36*
G01*
X65321738Y-43900000D02*
X66278262Y-43900000D01*
G75*
G02*
X66550000Y-44171738I0J-271738D01*
G01*
X66550000Y-44878262D01*
G75*
G02*
X66278262Y-45150000I-271738J0D01*
G01*
X65321738Y-45150000D01*
G75*
G02*
X65050000Y-44878262I0J271738D01*
G01*
X65050000Y-44171738D01*
G75*
G02*
X65321738Y-43900000I271738J0D01*
G01*
G37*
G36*
G01*
X65321738Y-41850000D02*
X66278262Y-41850000D01*
G75*
G02*
X66550000Y-42121738I0J-271738D01*
G01*
X66550000Y-42828262D01*
G75*
G02*
X66278262Y-43100000I-271738J0D01*
G01*
X65321738Y-43100000D01*
G75*
G02*
X65050000Y-42828262I0J271738D01*
G01*
X65050000Y-42121738D01*
G75*
G02*
X65321738Y-41850000I271738J0D01*
G01*
G37*
%TD*%
%TO.C,R20*%
G36*
G01*
X104228262Y-74100000D02*
X103271738Y-74100000D01*
G75*
G02*
X103000000Y-73828262I0J271738D01*
G01*
X103000000Y-73121738D01*
G75*
G02*
X103271738Y-72850000I271738J0D01*
G01*
X104228262Y-72850000D01*
G75*
G02*
X104500000Y-73121738I0J-271738D01*
G01*
X104500000Y-73828262D01*
G75*
G02*
X104228262Y-74100000I-271738J0D01*
G01*
G37*
G36*
G01*
X104228262Y-76150000D02*
X103271738Y-76150000D01*
G75*
G02*
X103000000Y-75878262I0J271738D01*
G01*
X103000000Y-75171738D01*
G75*
G02*
X103271738Y-74900000I271738J0D01*
G01*
X104228262Y-74900000D01*
G75*
G02*
X104500000Y-75171738I0J-271738D01*
G01*
X104500000Y-75878262D01*
G75*
G02*
X104228262Y-76150000I-271738J0D01*
G01*
G37*
%TD*%
%TO.C,R21*%
G36*
G01*
X121950000Y-61278262D02*
X121950000Y-60321738D01*
G75*
G02*
X122221738Y-60050000I271738J0D01*
G01*
X122928262Y-60050000D01*
G75*
G02*
X123200000Y-60321738I0J-271738D01*
G01*
X123200000Y-61278262D01*
G75*
G02*
X122928262Y-61550000I-271738J0D01*
G01*
X122221738Y-61550000D01*
G75*
G02*
X121950000Y-61278262I0J271738D01*
G01*
G37*
G36*
G01*
X119900000Y-61278262D02*
X119900000Y-60321738D01*
G75*
G02*
X120171738Y-60050000I271738J0D01*
G01*
X120878262Y-60050000D01*
G75*
G02*
X121150000Y-60321738I0J-271738D01*
G01*
X121150000Y-61278262D01*
G75*
G02*
X120878262Y-61550000I-271738J0D01*
G01*
X120171738Y-61550000D01*
G75*
G02*
X119900000Y-61278262I0J271738D01*
G01*
G37*
%TD*%
%TO.C,R22*%
G36*
G01*
X119800000Y-57878262D02*
X119800000Y-56921738D01*
G75*
G02*
X120071738Y-56650000I271738J0D01*
G01*
X120778262Y-56650000D01*
G75*
G02*
X121050000Y-56921738I0J-271738D01*
G01*
X121050000Y-57878262D01*
G75*
G02*
X120778262Y-58150000I-271738J0D01*
G01*
X120071738Y-58150000D01*
G75*
G02*
X119800000Y-57878262I0J271738D01*
G01*
G37*
G36*
G01*
X121850000Y-57878262D02*
X121850000Y-56921738D01*
G75*
G02*
X122121738Y-56650000I271738J0D01*
G01*
X122828262Y-56650000D01*
G75*
G02*
X123100000Y-56921738I0J-271738D01*
G01*
X123100000Y-57878262D01*
G75*
G02*
X122828262Y-58150000I-271738J0D01*
G01*
X122121738Y-58150000D01*
G75*
G02*
X121850000Y-57878262I0J271738D01*
G01*
G37*
%TD*%
%TO.C,R23*%
G36*
G01*
X119800000Y-69978262D02*
X119800000Y-69021738D01*
G75*
G02*
X120071738Y-68750000I271738J0D01*
G01*
X120778262Y-68750000D01*
G75*
G02*
X121050000Y-69021738I0J-271738D01*
G01*
X121050000Y-69978262D01*
G75*
G02*
X120778262Y-70250000I-271738J0D01*
G01*
X120071738Y-70250000D01*
G75*
G02*
X119800000Y-69978262I0J271738D01*
G01*
G37*
G36*
G01*
X121850000Y-69978262D02*
X121850000Y-69021738D01*
G75*
G02*
X122121738Y-68750000I271738J0D01*
G01*
X122828262Y-68750000D01*
G75*
G02*
X123100000Y-69021738I0J-271738D01*
G01*
X123100000Y-69978262D01*
G75*
G02*
X122828262Y-70250000I-271738J0D01*
G01*
X122121738Y-70250000D01*
G75*
G02*
X121850000Y-69978262I0J271738D01*
G01*
G37*
%TD*%
%TO.C,R24*%
G36*
G01*
X119800000Y-65578262D02*
X119800000Y-64621738D01*
G75*
G02*
X120071738Y-64350000I271738J0D01*
G01*
X120778262Y-64350000D01*
G75*
G02*
X121050000Y-64621738I0J-271738D01*
G01*
X121050000Y-65578262D01*
G75*
G02*
X120778262Y-65850000I-271738J0D01*
G01*
X120071738Y-65850000D01*
G75*
G02*
X119800000Y-65578262I0J271738D01*
G01*
G37*
G36*
G01*
X121850000Y-65578262D02*
X121850000Y-64621738D01*
G75*
G02*
X122121738Y-64350000I271738J0D01*
G01*
X122828262Y-64350000D01*
G75*
G02*
X123100000Y-64621738I0J-271738D01*
G01*
X123100000Y-65578262D01*
G75*
G02*
X122828262Y-65850000I-271738J0D01*
G01*
X122121738Y-65850000D01*
G75*
G02*
X121850000Y-65578262I0J271738D01*
G01*
G37*
%TD*%
%TO.C,R25*%
G36*
G01*
X94850000Y-59071738D02*
X94850000Y-60028262D01*
G75*
G02*
X94578262Y-60300000I-271738J0D01*
G01*
X93871738Y-60300000D01*
G75*
G02*
X93600000Y-60028262I0J271738D01*
G01*
X93600000Y-59071738D01*
G75*
G02*
X93871738Y-58800000I271738J0D01*
G01*
X94578262Y-58800000D01*
G75*
G02*
X94850000Y-59071738I0J-271738D01*
G01*
G37*
G36*
G01*
X96900000Y-59071738D02*
X96900000Y-60028262D01*
G75*
G02*
X96628262Y-60300000I-271738J0D01*
G01*
X95921738Y-60300000D01*
G75*
G02*
X95650000Y-60028262I0J271738D01*
G01*
X95650000Y-59071738D01*
G75*
G02*
X95921738Y-58800000I271738J0D01*
G01*
X96628262Y-58800000D01*
G75*
G02*
X96900000Y-59071738I0J-271738D01*
G01*
G37*
%TD*%
%TO.C,R26*%
G36*
G01*
X96900000Y-61171738D02*
X96900000Y-62128262D01*
G75*
G02*
X96628262Y-62400000I-271738J0D01*
G01*
X95921738Y-62400000D01*
G75*
G02*
X95650000Y-62128262I0J271738D01*
G01*
X95650000Y-61171738D01*
G75*
G02*
X95921738Y-60900000I271738J0D01*
G01*
X96628262Y-60900000D01*
G75*
G02*
X96900000Y-61171738I0J-271738D01*
G01*
G37*
G36*
G01*
X94850000Y-61171738D02*
X94850000Y-62128262D01*
G75*
G02*
X94578262Y-62400000I-271738J0D01*
G01*
X93871738Y-62400000D01*
G75*
G02*
X93600000Y-62128262I0J271738D01*
G01*
X93600000Y-61171738D01*
G75*
G02*
X93871738Y-60900000I271738J0D01*
G01*
X94578262Y-60900000D01*
G75*
G02*
X94850000Y-61171738I0J-271738D01*
G01*
G37*
%TD*%
%TO.C,R28*%
G36*
G01*
X57715738Y-115538000D02*
X58672262Y-115538000D01*
G75*
G02*
X58944000Y-115809738I0J-271738D01*
G01*
X58944000Y-116516262D01*
G75*
G02*
X58672262Y-116788000I-271738J0D01*
G01*
X57715738Y-116788000D01*
G75*
G02*
X57444000Y-116516262I0J271738D01*
G01*
X57444000Y-115809738D01*
G75*
G02*
X57715738Y-115538000I271738J0D01*
G01*
G37*
G36*
G01*
X57715738Y-117588000D02*
X58672262Y-117588000D01*
G75*
G02*
X58944000Y-117859738I0J-271738D01*
G01*
X58944000Y-118566262D01*
G75*
G02*
X58672262Y-118838000I-271738J0D01*
G01*
X57715738Y-118838000D01*
G75*
G02*
X57444000Y-118566262I0J271738D01*
G01*
X57444000Y-117859738D01*
G75*
G02*
X57715738Y-117588000I271738J0D01*
G01*
G37*
%TD*%
%TO.C,R29*%
G36*
G01*
X58672262Y-114838000D02*
X57715738Y-114838000D01*
G75*
G02*
X57444000Y-114566262I0J271738D01*
G01*
X57444000Y-113859738D01*
G75*
G02*
X57715738Y-113588000I271738J0D01*
G01*
X58672262Y-113588000D01*
G75*
G02*
X58944000Y-113859738I0J-271738D01*
G01*
X58944000Y-114566262D01*
G75*
G02*
X58672262Y-114838000I-271738J0D01*
G01*
G37*
G36*
G01*
X58672262Y-112788000D02*
X57715738Y-112788000D01*
G75*
G02*
X57444000Y-112516262I0J271738D01*
G01*
X57444000Y-111809738D01*
G75*
G02*
X57715738Y-111538000I271738J0D01*
G01*
X58672262Y-111538000D01*
G75*
G02*
X58944000Y-111809738I0J-271738D01*
G01*
X58944000Y-112516262D01*
G75*
G02*
X58672262Y-112788000I-271738J0D01*
G01*
G37*
%TD*%
%TO.C,R30*%
G36*
G01*
X56644000Y-111809738D02*
X56644000Y-112766262D01*
G75*
G02*
X56372262Y-113038000I-271738J0D01*
G01*
X55665738Y-113038000D01*
G75*
G02*
X55394000Y-112766262I0J271738D01*
G01*
X55394000Y-111809738D01*
G75*
G02*
X55665738Y-111538000I271738J0D01*
G01*
X56372262Y-111538000D01*
G75*
G02*
X56644000Y-111809738I0J-271738D01*
G01*
G37*
G36*
G01*
X54594000Y-111809738D02*
X54594000Y-112766262D01*
G75*
G02*
X54322262Y-113038000I-271738J0D01*
G01*
X53615738Y-113038000D01*
G75*
G02*
X53344000Y-112766262I0J271738D01*
G01*
X53344000Y-111809738D01*
G75*
G02*
X53615738Y-111538000I271738J0D01*
G01*
X54322262Y-111538000D01*
G75*
G02*
X54594000Y-111809738I0J-271738D01*
G01*
G37*
%TD*%
%TO.C,R41*%
G36*
G01*
X63350000Y-30078262D02*
X63350000Y-29121738D01*
G75*
G02*
X63621738Y-28850000I271738J0D01*
G01*
X64328262Y-28850000D01*
G75*
G02*
X64600000Y-29121738I0J-271738D01*
G01*
X64600000Y-30078262D01*
G75*
G02*
X64328262Y-30350000I-271738J0D01*
G01*
X63621738Y-30350000D01*
G75*
G02*
X63350000Y-30078262I0J271738D01*
G01*
G37*
G36*
G01*
X65400000Y-30078262D02*
X65400000Y-29121738D01*
G75*
G02*
X65671738Y-28850000I271738J0D01*
G01*
X66378262Y-28850000D01*
G75*
G02*
X66650000Y-29121738I0J-271738D01*
G01*
X66650000Y-30078262D01*
G75*
G02*
X66378262Y-30350000I-271738J0D01*
G01*
X65671738Y-30350000D01*
G75*
G02*
X65400000Y-30078262I0J271738D01*
G01*
G37*
%TD*%
%TO.C,R42*%
G36*
G01*
X119800000Y-108978262D02*
X119800000Y-108021738D01*
G75*
G02*
X120071738Y-107750000I271738J0D01*
G01*
X120778262Y-107750000D01*
G75*
G02*
X121050000Y-108021738I0J-271738D01*
G01*
X121050000Y-108978262D01*
G75*
G02*
X120778262Y-109250000I-271738J0D01*
G01*
X120071738Y-109250000D01*
G75*
G02*
X119800000Y-108978262I0J271738D01*
G01*
G37*
G36*
G01*
X117750000Y-108978262D02*
X117750000Y-108021738D01*
G75*
G02*
X118021738Y-107750000I271738J0D01*
G01*
X118728262Y-107750000D01*
G75*
G02*
X119000000Y-108021738I0J-271738D01*
G01*
X119000000Y-108978262D01*
G75*
G02*
X118728262Y-109250000I-271738J0D01*
G01*
X118021738Y-109250000D01*
G75*
G02*
X117750000Y-108978262I0J271738D01*
G01*
G37*
%TD*%
%TO.C,R43*%
G36*
G01*
X117850000Y-105478262D02*
X117850000Y-104521738D01*
G75*
G02*
X118121738Y-104250000I271738J0D01*
G01*
X118828262Y-104250000D01*
G75*
G02*
X119100000Y-104521738I0J-271738D01*
G01*
X119100000Y-105478262D01*
G75*
G02*
X118828262Y-105750000I-271738J0D01*
G01*
X118121738Y-105750000D01*
G75*
G02*
X117850000Y-105478262I0J271738D01*
G01*
G37*
G36*
G01*
X119900000Y-105478262D02*
X119900000Y-104521738D01*
G75*
G02*
X120171738Y-104250000I271738J0D01*
G01*
X120878262Y-104250000D01*
G75*
G02*
X121150000Y-104521738I0J-271738D01*
G01*
X121150000Y-105478262D01*
G75*
G02*
X120878262Y-105750000I-271738J0D01*
G01*
X120171738Y-105750000D01*
G75*
G02*
X119900000Y-105478262I0J271738D01*
G01*
G37*
%TD*%
%TO.C,R44*%
G36*
G01*
X118878262Y-113150000D02*
X117921738Y-113150000D01*
G75*
G02*
X117650000Y-112878262I0J271738D01*
G01*
X117650000Y-112171738D01*
G75*
G02*
X117921738Y-111900000I271738J0D01*
G01*
X118878262Y-111900000D01*
G75*
G02*
X119150000Y-112171738I0J-271738D01*
G01*
X119150000Y-112878262D01*
G75*
G02*
X118878262Y-113150000I-271738J0D01*
G01*
G37*
G36*
G01*
X118878262Y-111100000D02*
X117921738Y-111100000D01*
G75*
G02*
X117650000Y-110828262I0J271738D01*
G01*
X117650000Y-110121738D01*
G75*
G02*
X117921738Y-109850000I271738J0D01*
G01*
X118878262Y-109850000D01*
G75*
G02*
X119150000Y-110121738I0J-271738D01*
G01*
X119150000Y-110828262D01*
G75*
G02*
X118878262Y-111100000I-271738J0D01*
G01*
G37*
%TD*%
%TO.C,R45*%
G36*
G01*
X109850000Y-115321738D02*
X109850000Y-116278262D01*
G75*
G02*
X109578262Y-116550000I-271738J0D01*
G01*
X108871738Y-116550000D01*
G75*
G02*
X108600000Y-116278262I0J271738D01*
G01*
X108600000Y-115321738D01*
G75*
G02*
X108871738Y-115050000I271738J0D01*
G01*
X109578262Y-115050000D01*
G75*
G02*
X109850000Y-115321738I0J-271738D01*
G01*
G37*
G36*
G01*
X107800000Y-115321738D02*
X107800000Y-116278262D01*
G75*
G02*
X107528262Y-116550000I-271738J0D01*
G01*
X106821738Y-116550000D01*
G75*
G02*
X106550000Y-116278262I0J271738D01*
G01*
X106550000Y-115321738D01*
G75*
G02*
X106821738Y-115050000I271738J0D01*
G01*
X107528262Y-115050000D01*
G75*
G02*
X107800000Y-115321738I0J-271738D01*
G01*
G37*
%TD*%
%TO.C,R46*%
G36*
G01*
X111900000Y-118378262D02*
X111900000Y-117421738D01*
G75*
G02*
X112171738Y-117150000I271738J0D01*
G01*
X112878262Y-117150000D01*
G75*
G02*
X113150000Y-117421738I0J-271738D01*
G01*
X113150000Y-118378262D01*
G75*
G02*
X112878262Y-118650000I-271738J0D01*
G01*
X112171738Y-118650000D01*
G75*
G02*
X111900000Y-118378262I0J271738D01*
G01*
G37*
G36*
G01*
X109850000Y-118378262D02*
X109850000Y-117421738D01*
G75*
G02*
X110121738Y-117150000I271738J0D01*
G01*
X110828262Y-117150000D01*
G75*
G02*
X111100000Y-117421738I0J-271738D01*
G01*
X111100000Y-118378262D01*
G75*
G02*
X110828262Y-118650000I-271738J0D01*
G01*
X110121738Y-118650000D01*
G75*
G02*
X109850000Y-118378262I0J271738D01*
G01*
G37*
%TD*%
%TO.C,R47*%
G36*
G01*
X106550000Y-114278262D02*
X106550000Y-113321738D01*
G75*
G02*
X106821738Y-113050000I271738J0D01*
G01*
X107528262Y-113050000D01*
G75*
G02*
X107800000Y-113321738I0J-271738D01*
G01*
X107800000Y-114278262D01*
G75*
G02*
X107528262Y-114550000I-271738J0D01*
G01*
X106821738Y-114550000D01*
G75*
G02*
X106550000Y-114278262I0J271738D01*
G01*
G37*
G36*
G01*
X108600000Y-114278262D02*
X108600000Y-113321738D01*
G75*
G02*
X108871738Y-113050000I271738J0D01*
G01*
X109578262Y-113050000D01*
G75*
G02*
X109850000Y-113321738I0J-271738D01*
G01*
X109850000Y-114278262D01*
G75*
G02*
X109578262Y-114550000I-271738J0D01*
G01*
X108871738Y-114550000D01*
G75*
G02*
X108600000Y-114278262I0J271738D01*
G01*
G37*
%TD*%
%TO.C,R52*%
G36*
G01*
X120550000Y-112978262D02*
X120550000Y-112021738D01*
G75*
G02*
X120821738Y-111750000I271738J0D01*
G01*
X121528262Y-111750000D01*
G75*
G02*
X121800000Y-112021738I0J-271738D01*
G01*
X121800000Y-112978262D01*
G75*
G02*
X121528262Y-113250000I-271738J0D01*
G01*
X120821738Y-113250000D01*
G75*
G02*
X120550000Y-112978262I0J271738D01*
G01*
G37*
G36*
G01*
X122600000Y-112978262D02*
X122600000Y-112021738D01*
G75*
G02*
X122871738Y-111750000I271738J0D01*
G01*
X123578262Y-111750000D01*
G75*
G02*
X123850000Y-112021738I0J-271738D01*
G01*
X123850000Y-112978262D01*
G75*
G02*
X123578262Y-113250000I-271738J0D01*
G01*
X122871738Y-113250000D01*
G75*
G02*
X122600000Y-112978262I0J271738D01*
G01*
G37*
%TD*%
%TO.C,R54*%
G36*
G01*
X84425000Y-77078262D02*
X84425000Y-76121738D01*
G75*
G02*
X84696738Y-75850000I271738J0D01*
G01*
X85403262Y-75850000D01*
G75*
G02*
X85675000Y-76121738I0J-271738D01*
G01*
X85675000Y-77078262D01*
G75*
G02*
X85403262Y-77350000I-271738J0D01*
G01*
X84696738Y-77350000D01*
G75*
G02*
X84425000Y-77078262I0J271738D01*
G01*
G37*
G36*
G01*
X82375000Y-77078262D02*
X82375000Y-76121738D01*
G75*
G02*
X82646738Y-75850000I271738J0D01*
G01*
X83353262Y-75850000D01*
G75*
G02*
X83625000Y-76121738I0J-271738D01*
G01*
X83625000Y-77078262D01*
G75*
G02*
X83353262Y-77350000I-271738J0D01*
G01*
X82646738Y-77350000D01*
G75*
G02*
X82375000Y-77078262I0J271738D01*
G01*
G37*
%TD*%
%TO.C,R55*%
G36*
G01*
X83650000Y-79121738D02*
X83650000Y-80078262D01*
G75*
G02*
X83378262Y-80350000I-271738J0D01*
G01*
X82671738Y-80350000D01*
G75*
G02*
X82400000Y-80078262I0J271738D01*
G01*
X82400000Y-79121738D01*
G75*
G02*
X82671738Y-78850000I271738J0D01*
G01*
X83378262Y-78850000D01*
G75*
G02*
X83650000Y-79121738I0J-271738D01*
G01*
G37*
G36*
G01*
X85700000Y-79121738D02*
X85700000Y-80078262D01*
G75*
G02*
X85428262Y-80350000I-271738J0D01*
G01*
X84721738Y-80350000D01*
G75*
G02*
X84450000Y-80078262I0J271738D01*
G01*
X84450000Y-79121738D01*
G75*
G02*
X84721738Y-78850000I271738J0D01*
G01*
X85428262Y-78850000D01*
G75*
G02*
X85700000Y-79121738I0J-271738D01*
G01*
G37*
%TD*%
D25*
%TO.C,SW1*%
X58420000Y-84074000D03*
D26*
X58420000Y-86614000D03*
%TD*%
D27*
%TO.C,U1*%
X40122000Y-87282000D03*
D28*
X40122000Y-84742000D03*
X40122000Y-82202000D03*
%TD*%
D10*
%TO.C,U3*%
X92550000Y-43100000D03*
D11*
X86250000Y-43100000D03*
X86250000Y-40800000D03*
X86250000Y-45400000D03*
%TD*%
%TO.C,U4*%
X97900000Y-30700000D03*
X97900000Y-35300000D03*
X97900000Y-33000000D03*
D10*
X91600000Y-33000000D03*
%TD*%
%TO.C,U8*%
G36*
G01*
X114725000Y-57555000D02*
X114725000Y-57755000D01*
G75*
G02*
X114625000Y-57855000I-100000J0D01*
G01*
X113125000Y-57855000D01*
G75*
G02*
X113025000Y-57755000I0J100000D01*
G01*
X113025000Y-57555000D01*
G75*
G02*
X113125000Y-57455000I100000J0D01*
G01*
X114625000Y-57455000D01*
G75*
G02*
X114725000Y-57555000I0J-100000D01*
G01*
G37*
G36*
G01*
X114725000Y-58055000D02*
X114725000Y-58255000D01*
G75*
G02*
X114625000Y-58355000I-100000J0D01*
G01*
X113125000Y-58355000D01*
G75*
G02*
X113025000Y-58255000I0J100000D01*
G01*
X113025000Y-58055000D01*
G75*
G02*
X113125000Y-57955000I100000J0D01*
G01*
X114625000Y-57955000D01*
G75*
G02*
X114725000Y-58055000I0J-100000D01*
G01*
G37*
G36*
G01*
X114725000Y-58555000D02*
X114725000Y-58755000D01*
G75*
G02*
X114625000Y-58855000I-100000J0D01*
G01*
X113125000Y-58855000D01*
G75*
G02*
X113025000Y-58755000I0J100000D01*
G01*
X113025000Y-58555000D01*
G75*
G02*
X113125000Y-58455000I100000J0D01*
G01*
X114625000Y-58455000D01*
G75*
G02*
X114725000Y-58555000I0J-100000D01*
G01*
G37*
G36*
G01*
X114725000Y-59055000D02*
X114725000Y-59255000D01*
G75*
G02*
X114625000Y-59355000I-100000J0D01*
G01*
X113125000Y-59355000D01*
G75*
G02*
X113025000Y-59255000I0J100000D01*
G01*
X113025000Y-59055000D01*
G75*
G02*
X113125000Y-58955000I100000J0D01*
G01*
X114625000Y-58955000D01*
G75*
G02*
X114725000Y-59055000I0J-100000D01*
G01*
G37*
G36*
G01*
X114725000Y-59555000D02*
X114725000Y-59755000D01*
G75*
G02*
X114625000Y-59855000I-100000J0D01*
G01*
X113125000Y-59855000D01*
G75*
G02*
X113025000Y-59755000I0J100000D01*
G01*
X113025000Y-59555000D01*
G75*
G02*
X113125000Y-59455000I100000J0D01*
G01*
X114625000Y-59455000D01*
G75*
G02*
X114725000Y-59555000I0J-100000D01*
G01*
G37*
G36*
G01*
X114725000Y-60055000D02*
X114725000Y-60255000D01*
G75*
G02*
X114625000Y-60355000I-100000J0D01*
G01*
X113125000Y-60355000D01*
G75*
G02*
X113025000Y-60255000I0J100000D01*
G01*
X113025000Y-60055000D01*
G75*
G02*
X113125000Y-59955000I100000J0D01*
G01*
X114625000Y-59955000D01*
G75*
G02*
X114725000Y-60055000I0J-100000D01*
G01*
G37*
G36*
G01*
X114725000Y-60555000D02*
X114725000Y-60755000D01*
G75*
G02*
X114625000Y-60855000I-100000J0D01*
G01*
X113125000Y-60855000D01*
G75*
G02*
X113025000Y-60755000I0J100000D01*
G01*
X113025000Y-60555000D01*
G75*
G02*
X113125000Y-60455000I100000J0D01*
G01*
X114625000Y-60455000D01*
G75*
G02*
X114725000Y-60555000I0J-100000D01*
G01*
G37*
G36*
G01*
X114725000Y-61055000D02*
X114725000Y-61255000D01*
G75*
G02*
X114625000Y-61355000I-100000J0D01*
G01*
X113125000Y-61355000D01*
G75*
G02*
X113025000Y-61255000I0J100000D01*
G01*
X113025000Y-61055000D01*
G75*
G02*
X113125000Y-60955000I100000J0D01*
G01*
X114625000Y-60955000D01*
G75*
G02*
X114725000Y-61055000I0J-100000D01*
G01*
G37*
G36*
G01*
X114725000Y-61555000D02*
X114725000Y-61755000D01*
G75*
G02*
X114625000Y-61855000I-100000J0D01*
G01*
X113125000Y-61855000D01*
G75*
G02*
X113025000Y-61755000I0J100000D01*
G01*
X113025000Y-61555000D01*
G75*
G02*
X113125000Y-61455000I100000J0D01*
G01*
X114625000Y-61455000D01*
G75*
G02*
X114725000Y-61555000I0J-100000D01*
G01*
G37*
G36*
G01*
X114725000Y-62055000D02*
X114725000Y-62255000D01*
G75*
G02*
X114625000Y-62355000I-100000J0D01*
G01*
X113125000Y-62355000D01*
G75*
G02*
X113025000Y-62255000I0J100000D01*
G01*
X113025000Y-62055000D01*
G75*
G02*
X113125000Y-61955000I100000J0D01*
G01*
X114625000Y-61955000D01*
G75*
G02*
X114725000Y-62055000I0J-100000D01*
G01*
G37*
G36*
G01*
X114725000Y-62555000D02*
X114725000Y-62755000D01*
G75*
G02*
X114625000Y-62855000I-100000J0D01*
G01*
X113125000Y-62855000D01*
G75*
G02*
X113025000Y-62755000I0J100000D01*
G01*
X113025000Y-62555000D01*
G75*
G02*
X113125000Y-62455000I100000J0D01*
G01*
X114625000Y-62455000D01*
G75*
G02*
X114725000Y-62555000I0J-100000D01*
G01*
G37*
G36*
G01*
X114725000Y-63055000D02*
X114725000Y-63255000D01*
G75*
G02*
X114625000Y-63355000I-100000J0D01*
G01*
X113125000Y-63355000D01*
G75*
G02*
X113025000Y-63255000I0J100000D01*
G01*
X113025000Y-63055000D01*
G75*
G02*
X113125000Y-62955000I100000J0D01*
G01*
X114625000Y-62955000D01*
G75*
G02*
X114725000Y-63055000I0J-100000D01*
G01*
G37*
G36*
G01*
X114725000Y-63555000D02*
X114725000Y-63755000D01*
G75*
G02*
X114625000Y-63855000I-100000J0D01*
G01*
X113125000Y-63855000D01*
G75*
G02*
X113025000Y-63755000I0J100000D01*
G01*
X113025000Y-63555000D01*
G75*
G02*
X113125000Y-63455000I100000J0D01*
G01*
X114625000Y-63455000D01*
G75*
G02*
X114725000Y-63555000I0J-100000D01*
G01*
G37*
G36*
G01*
X114725000Y-64055000D02*
X114725000Y-64255000D01*
G75*
G02*
X114625000Y-64355000I-100000J0D01*
G01*
X113125000Y-64355000D01*
G75*
G02*
X113025000Y-64255000I0J100000D01*
G01*
X113025000Y-64055000D01*
G75*
G02*
X113125000Y-63955000I100000J0D01*
G01*
X114625000Y-63955000D01*
G75*
G02*
X114725000Y-64055000I0J-100000D01*
G01*
G37*
G36*
G01*
X114725000Y-64555000D02*
X114725000Y-64755000D01*
G75*
G02*
X114625000Y-64855000I-100000J0D01*
G01*
X113125000Y-64855000D01*
G75*
G02*
X113025000Y-64755000I0J100000D01*
G01*
X113025000Y-64555000D01*
G75*
G02*
X113125000Y-64455000I100000J0D01*
G01*
X114625000Y-64455000D01*
G75*
G02*
X114725000Y-64555000I0J-100000D01*
G01*
G37*
G36*
G01*
X114725000Y-65055000D02*
X114725000Y-65255000D01*
G75*
G02*
X114625000Y-65355000I-100000J0D01*
G01*
X113125000Y-65355000D01*
G75*
G02*
X113025000Y-65255000I0J100000D01*
G01*
X113025000Y-65055000D01*
G75*
G02*
X113125000Y-64955000I100000J0D01*
G01*
X114625000Y-64955000D01*
G75*
G02*
X114725000Y-65055000I0J-100000D01*
G01*
G37*
G36*
G01*
X114725000Y-65555000D02*
X114725000Y-65755000D01*
G75*
G02*
X114625000Y-65855000I-100000J0D01*
G01*
X113125000Y-65855000D01*
G75*
G02*
X113025000Y-65755000I0J100000D01*
G01*
X113025000Y-65555000D01*
G75*
G02*
X113125000Y-65455000I100000J0D01*
G01*
X114625000Y-65455000D01*
G75*
G02*
X114725000Y-65555000I0J-100000D01*
G01*
G37*
G36*
G01*
X114725000Y-66055000D02*
X114725000Y-66255000D01*
G75*
G02*
X114625000Y-66355000I-100000J0D01*
G01*
X113125000Y-66355000D01*
G75*
G02*
X113025000Y-66255000I0J100000D01*
G01*
X113025000Y-66055000D01*
G75*
G02*
X113125000Y-65955000I100000J0D01*
G01*
X114625000Y-65955000D01*
G75*
G02*
X114725000Y-66055000I0J-100000D01*
G01*
G37*
G36*
G01*
X114725000Y-66555000D02*
X114725000Y-66755000D01*
G75*
G02*
X114625000Y-66855000I-100000J0D01*
G01*
X113125000Y-66855000D01*
G75*
G02*
X113025000Y-66755000I0J100000D01*
G01*
X113025000Y-66555000D01*
G75*
G02*
X113125000Y-66455000I100000J0D01*
G01*
X114625000Y-66455000D01*
G75*
G02*
X114725000Y-66555000I0J-100000D01*
G01*
G37*
G36*
G01*
X114725000Y-67055000D02*
X114725000Y-67255000D01*
G75*
G02*
X114625000Y-67355000I-100000J0D01*
G01*
X113125000Y-67355000D01*
G75*
G02*
X113025000Y-67255000I0J100000D01*
G01*
X113025000Y-67055000D01*
G75*
G02*
X113125000Y-66955000I100000J0D01*
G01*
X114625000Y-66955000D01*
G75*
G02*
X114725000Y-67055000I0J-100000D01*
G01*
G37*
G36*
G01*
X114725000Y-67555000D02*
X114725000Y-67755000D01*
G75*
G02*
X114625000Y-67855000I-100000J0D01*
G01*
X113125000Y-67855000D01*
G75*
G02*
X113025000Y-67755000I0J100000D01*
G01*
X113025000Y-67555000D01*
G75*
G02*
X113125000Y-67455000I100000J0D01*
G01*
X114625000Y-67455000D01*
G75*
G02*
X114725000Y-67555000I0J-100000D01*
G01*
G37*
G36*
G01*
X114725000Y-68055000D02*
X114725000Y-68255000D01*
G75*
G02*
X114625000Y-68355000I-100000J0D01*
G01*
X113125000Y-68355000D01*
G75*
G02*
X113025000Y-68255000I0J100000D01*
G01*
X113025000Y-68055000D01*
G75*
G02*
X113125000Y-67955000I100000J0D01*
G01*
X114625000Y-67955000D01*
G75*
G02*
X114725000Y-68055000I0J-100000D01*
G01*
G37*
G36*
G01*
X114725000Y-68555000D02*
X114725000Y-68755000D01*
G75*
G02*
X114625000Y-68855000I-100000J0D01*
G01*
X113125000Y-68855000D01*
G75*
G02*
X113025000Y-68755000I0J100000D01*
G01*
X113025000Y-68555000D01*
G75*
G02*
X113125000Y-68455000I100000J0D01*
G01*
X114625000Y-68455000D01*
G75*
G02*
X114725000Y-68555000I0J-100000D01*
G01*
G37*
G36*
G01*
X114725000Y-69055000D02*
X114725000Y-69255000D01*
G75*
G02*
X114625000Y-69355000I-100000J0D01*
G01*
X113125000Y-69355000D01*
G75*
G02*
X113025000Y-69255000I0J100000D01*
G01*
X113025000Y-69055000D01*
G75*
G02*
X113125000Y-68955000I100000J0D01*
G01*
X114625000Y-68955000D01*
G75*
G02*
X114725000Y-69055000I0J-100000D01*
G01*
G37*
G36*
G01*
X114725000Y-69555000D02*
X114725000Y-69755000D01*
G75*
G02*
X114625000Y-69855000I-100000J0D01*
G01*
X113125000Y-69855000D01*
G75*
G02*
X113025000Y-69755000I0J100000D01*
G01*
X113025000Y-69555000D01*
G75*
G02*
X113125000Y-69455000I100000J0D01*
G01*
X114625000Y-69455000D01*
G75*
G02*
X114725000Y-69555000I0J-100000D01*
G01*
G37*
G36*
G01*
X112400000Y-70580000D02*
X112400000Y-72080000D01*
G75*
G02*
X112300000Y-72180000I-100000J0D01*
G01*
X112100000Y-72180000D01*
G75*
G02*
X112000000Y-72080000I0J100000D01*
G01*
X112000000Y-70580000D01*
G75*
G02*
X112100000Y-70480000I100000J0D01*
G01*
X112300000Y-70480000D01*
G75*
G02*
X112400000Y-70580000I0J-100000D01*
G01*
G37*
G36*
G01*
X111900000Y-70580000D02*
X111900000Y-72080000D01*
G75*
G02*
X111800000Y-72180000I-100000J0D01*
G01*
X111600000Y-72180000D01*
G75*
G02*
X111500000Y-72080000I0J100000D01*
G01*
X111500000Y-70580000D01*
G75*
G02*
X111600000Y-70480000I100000J0D01*
G01*
X111800000Y-70480000D01*
G75*
G02*
X111900000Y-70580000I0J-100000D01*
G01*
G37*
G36*
G01*
X111400000Y-70580000D02*
X111400000Y-72080000D01*
G75*
G02*
X111300000Y-72180000I-100000J0D01*
G01*
X111100000Y-72180000D01*
G75*
G02*
X111000000Y-72080000I0J100000D01*
G01*
X111000000Y-70580000D01*
G75*
G02*
X111100000Y-70480000I100000J0D01*
G01*
X111300000Y-70480000D01*
G75*
G02*
X111400000Y-70580000I0J-100000D01*
G01*
G37*
G36*
G01*
X110900000Y-70580000D02*
X110900000Y-72080000D01*
G75*
G02*
X110800000Y-72180000I-100000J0D01*
G01*
X110600000Y-72180000D01*
G75*
G02*
X110500000Y-72080000I0J100000D01*
G01*
X110500000Y-70580000D01*
G75*
G02*
X110600000Y-70480000I100000J0D01*
G01*
X110800000Y-70480000D01*
G75*
G02*
X110900000Y-70580000I0J-100000D01*
G01*
G37*
G36*
G01*
X110400000Y-70580000D02*
X110400000Y-72080000D01*
G75*
G02*
X110300000Y-72180000I-100000J0D01*
G01*
X110100000Y-72180000D01*
G75*
G02*
X110000000Y-72080000I0J100000D01*
G01*
X110000000Y-70580000D01*
G75*
G02*
X110100000Y-70480000I100000J0D01*
G01*
X110300000Y-70480000D01*
G75*
G02*
X110400000Y-70580000I0J-100000D01*
G01*
G37*
G36*
G01*
X109900000Y-70580000D02*
X109900000Y-72080000D01*
G75*
G02*
X109800000Y-72180000I-100000J0D01*
G01*
X109600000Y-72180000D01*
G75*
G02*
X109500000Y-72080000I0J100000D01*
G01*
X109500000Y-70580000D01*
G75*
G02*
X109600000Y-70480000I100000J0D01*
G01*
X109800000Y-70480000D01*
G75*
G02*
X109900000Y-70580000I0J-100000D01*
G01*
G37*
G36*
G01*
X109400000Y-70580000D02*
X109400000Y-72080000D01*
G75*
G02*
X109300000Y-72180000I-100000J0D01*
G01*
X109100000Y-72180000D01*
G75*
G02*
X109000000Y-72080000I0J100000D01*
G01*
X109000000Y-70580000D01*
G75*
G02*
X109100000Y-70480000I100000J0D01*
G01*
X109300000Y-70480000D01*
G75*
G02*
X109400000Y-70580000I0J-100000D01*
G01*
G37*
G36*
G01*
X108900000Y-70580000D02*
X108900000Y-72080000D01*
G75*
G02*
X108800000Y-72180000I-100000J0D01*
G01*
X108600000Y-72180000D01*
G75*
G02*
X108500000Y-72080000I0J100000D01*
G01*
X108500000Y-70580000D01*
G75*
G02*
X108600000Y-70480000I100000J0D01*
G01*
X108800000Y-70480000D01*
G75*
G02*
X108900000Y-70580000I0J-100000D01*
G01*
G37*
G36*
G01*
X108400000Y-70580000D02*
X108400000Y-72080000D01*
G75*
G02*
X108300000Y-72180000I-100000J0D01*
G01*
X108100000Y-72180000D01*
G75*
G02*
X108000000Y-72080000I0J100000D01*
G01*
X108000000Y-70580000D01*
G75*
G02*
X108100000Y-70480000I100000J0D01*
G01*
X108300000Y-70480000D01*
G75*
G02*
X108400000Y-70580000I0J-100000D01*
G01*
G37*
G36*
G01*
X107900000Y-70580000D02*
X107900000Y-72080000D01*
G75*
G02*
X107800000Y-72180000I-100000J0D01*
G01*
X107600000Y-72180000D01*
G75*
G02*
X107500000Y-72080000I0J100000D01*
G01*
X107500000Y-70580000D01*
G75*
G02*
X107600000Y-70480000I100000J0D01*
G01*
X107800000Y-70480000D01*
G75*
G02*
X107900000Y-70580000I0J-100000D01*
G01*
G37*
G36*
G01*
X107400000Y-70580000D02*
X107400000Y-72080000D01*
G75*
G02*
X107300000Y-72180000I-100000J0D01*
G01*
X107100000Y-72180000D01*
G75*
G02*
X107000000Y-72080000I0J100000D01*
G01*
X107000000Y-70580000D01*
G75*
G02*
X107100000Y-70480000I100000J0D01*
G01*
X107300000Y-70480000D01*
G75*
G02*
X107400000Y-70580000I0J-100000D01*
G01*
G37*
G36*
G01*
X106900000Y-70580000D02*
X106900000Y-72080000D01*
G75*
G02*
X106800000Y-72180000I-100000J0D01*
G01*
X106600000Y-72180000D01*
G75*
G02*
X106500000Y-72080000I0J100000D01*
G01*
X106500000Y-70580000D01*
G75*
G02*
X106600000Y-70480000I100000J0D01*
G01*
X106800000Y-70480000D01*
G75*
G02*
X106900000Y-70580000I0J-100000D01*
G01*
G37*
G36*
G01*
X106400000Y-70580000D02*
X106400000Y-72080000D01*
G75*
G02*
X106300000Y-72180000I-100000J0D01*
G01*
X106100000Y-72180000D01*
G75*
G02*
X106000000Y-72080000I0J100000D01*
G01*
X106000000Y-70580000D01*
G75*
G02*
X106100000Y-70480000I100000J0D01*
G01*
X106300000Y-70480000D01*
G75*
G02*
X106400000Y-70580000I0J-100000D01*
G01*
G37*
G36*
G01*
X105900000Y-70580000D02*
X105900000Y-72080000D01*
G75*
G02*
X105800000Y-72180000I-100000J0D01*
G01*
X105600000Y-72180000D01*
G75*
G02*
X105500000Y-72080000I0J100000D01*
G01*
X105500000Y-70580000D01*
G75*
G02*
X105600000Y-70480000I100000J0D01*
G01*
X105800000Y-70480000D01*
G75*
G02*
X105900000Y-70580000I0J-100000D01*
G01*
G37*
G36*
G01*
X105400000Y-70580000D02*
X105400000Y-72080000D01*
G75*
G02*
X105300000Y-72180000I-100000J0D01*
G01*
X105100000Y-72180000D01*
G75*
G02*
X105000000Y-72080000I0J100000D01*
G01*
X105000000Y-70580000D01*
G75*
G02*
X105100000Y-70480000I100000J0D01*
G01*
X105300000Y-70480000D01*
G75*
G02*
X105400000Y-70580000I0J-100000D01*
G01*
G37*
G36*
G01*
X104900000Y-70580000D02*
X104900000Y-72080000D01*
G75*
G02*
X104800000Y-72180000I-100000J0D01*
G01*
X104600000Y-72180000D01*
G75*
G02*
X104500000Y-72080000I0J100000D01*
G01*
X104500000Y-70580000D01*
G75*
G02*
X104600000Y-70480000I100000J0D01*
G01*
X104800000Y-70480000D01*
G75*
G02*
X104900000Y-70580000I0J-100000D01*
G01*
G37*
G36*
G01*
X104400000Y-70580000D02*
X104400000Y-72080000D01*
G75*
G02*
X104300000Y-72180000I-100000J0D01*
G01*
X104100000Y-72180000D01*
G75*
G02*
X104000000Y-72080000I0J100000D01*
G01*
X104000000Y-70580000D01*
G75*
G02*
X104100000Y-70480000I100000J0D01*
G01*
X104300000Y-70480000D01*
G75*
G02*
X104400000Y-70580000I0J-100000D01*
G01*
G37*
G36*
G01*
X103900000Y-70580000D02*
X103900000Y-72080000D01*
G75*
G02*
X103800000Y-72180000I-100000J0D01*
G01*
X103600000Y-72180000D01*
G75*
G02*
X103500000Y-72080000I0J100000D01*
G01*
X103500000Y-70580000D01*
G75*
G02*
X103600000Y-70480000I100000J0D01*
G01*
X103800000Y-70480000D01*
G75*
G02*
X103900000Y-70580000I0J-100000D01*
G01*
G37*
G36*
G01*
X103400000Y-70580000D02*
X103400000Y-72080000D01*
G75*
G02*
X103300000Y-72180000I-100000J0D01*
G01*
X103100000Y-72180000D01*
G75*
G02*
X103000000Y-72080000I0J100000D01*
G01*
X103000000Y-70580000D01*
G75*
G02*
X103100000Y-70480000I100000J0D01*
G01*
X103300000Y-70480000D01*
G75*
G02*
X103400000Y-70580000I0J-100000D01*
G01*
G37*
G36*
G01*
X102900000Y-70580000D02*
X102900000Y-72080000D01*
G75*
G02*
X102800000Y-72180000I-100000J0D01*
G01*
X102600000Y-72180000D01*
G75*
G02*
X102500000Y-72080000I0J100000D01*
G01*
X102500000Y-70580000D01*
G75*
G02*
X102600000Y-70480000I100000J0D01*
G01*
X102800000Y-70480000D01*
G75*
G02*
X102900000Y-70580000I0J-100000D01*
G01*
G37*
G36*
G01*
X102400000Y-70580000D02*
X102400000Y-72080000D01*
G75*
G02*
X102300000Y-72180000I-100000J0D01*
G01*
X102100000Y-72180000D01*
G75*
G02*
X102000000Y-72080000I0J100000D01*
G01*
X102000000Y-70580000D01*
G75*
G02*
X102100000Y-70480000I100000J0D01*
G01*
X102300000Y-70480000D01*
G75*
G02*
X102400000Y-70580000I0J-100000D01*
G01*
G37*
G36*
G01*
X101900000Y-70580000D02*
X101900000Y-72080000D01*
G75*
G02*
X101800000Y-72180000I-100000J0D01*
G01*
X101600000Y-72180000D01*
G75*
G02*
X101500000Y-72080000I0J100000D01*
G01*
X101500000Y-70580000D01*
G75*
G02*
X101600000Y-70480000I100000J0D01*
G01*
X101800000Y-70480000D01*
G75*
G02*
X101900000Y-70580000I0J-100000D01*
G01*
G37*
G36*
G01*
X101400000Y-70580000D02*
X101400000Y-72080000D01*
G75*
G02*
X101300000Y-72180000I-100000J0D01*
G01*
X101100000Y-72180000D01*
G75*
G02*
X101000000Y-72080000I0J100000D01*
G01*
X101000000Y-70580000D01*
G75*
G02*
X101100000Y-70480000I100000J0D01*
G01*
X101300000Y-70480000D01*
G75*
G02*
X101400000Y-70580000I0J-100000D01*
G01*
G37*
G36*
G01*
X100900000Y-70580000D02*
X100900000Y-72080000D01*
G75*
G02*
X100800000Y-72180000I-100000J0D01*
G01*
X100600000Y-72180000D01*
G75*
G02*
X100500000Y-72080000I0J100000D01*
G01*
X100500000Y-70580000D01*
G75*
G02*
X100600000Y-70480000I100000J0D01*
G01*
X100800000Y-70480000D01*
G75*
G02*
X100900000Y-70580000I0J-100000D01*
G01*
G37*
G36*
G01*
X100400000Y-70580000D02*
X100400000Y-72080000D01*
G75*
G02*
X100300000Y-72180000I-100000J0D01*
G01*
X100100000Y-72180000D01*
G75*
G02*
X100000000Y-72080000I0J100000D01*
G01*
X100000000Y-70580000D01*
G75*
G02*
X100100000Y-70480000I100000J0D01*
G01*
X100300000Y-70480000D01*
G75*
G02*
X100400000Y-70580000I0J-100000D01*
G01*
G37*
G36*
G01*
X99375000Y-69555000D02*
X99375000Y-69755000D01*
G75*
G02*
X99275000Y-69855000I-100000J0D01*
G01*
X97775000Y-69855000D01*
G75*
G02*
X97675000Y-69755000I0J100000D01*
G01*
X97675000Y-69555000D01*
G75*
G02*
X97775000Y-69455000I100000J0D01*
G01*
X99275000Y-69455000D01*
G75*
G02*
X99375000Y-69555000I0J-100000D01*
G01*
G37*
G36*
G01*
X99375000Y-69055000D02*
X99375000Y-69255000D01*
G75*
G02*
X99275000Y-69355000I-100000J0D01*
G01*
X97775000Y-69355000D01*
G75*
G02*
X97675000Y-69255000I0J100000D01*
G01*
X97675000Y-69055000D01*
G75*
G02*
X97775000Y-68955000I100000J0D01*
G01*
X99275000Y-68955000D01*
G75*
G02*
X99375000Y-69055000I0J-100000D01*
G01*
G37*
G36*
G01*
X99375000Y-68555000D02*
X99375000Y-68755000D01*
G75*
G02*
X99275000Y-68855000I-100000J0D01*
G01*
X97775000Y-68855000D01*
G75*
G02*
X97675000Y-68755000I0J100000D01*
G01*
X97675000Y-68555000D01*
G75*
G02*
X97775000Y-68455000I100000J0D01*
G01*
X99275000Y-68455000D01*
G75*
G02*
X99375000Y-68555000I0J-100000D01*
G01*
G37*
G36*
G01*
X99375000Y-68055000D02*
X99375000Y-68255000D01*
G75*
G02*
X99275000Y-68355000I-100000J0D01*
G01*
X97775000Y-68355000D01*
G75*
G02*
X97675000Y-68255000I0J100000D01*
G01*
X97675000Y-68055000D01*
G75*
G02*
X97775000Y-67955000I100000J0D01*
G01*
X99275000Y-67955000D01*
G75*
G02*
X99375000Y-68055000I0J-100000D01*
G01*
G37*
G36*
G01*
X99375000Y-67555000D02*
X99375000Y-67755000D01*
G75*
G02*
X99275000Y-67855000I-100000J0D01*
G01*
X97775000Y-67855000D01*
G75*
G02*
X97675000Y-67755000I0J100000D01*
G01*
X97675000Y-67555000D01*
G75*
G02*
X97775000Y-67455000I100000J0D01*
G01*
X99275000Y-67455000D01*
G75*
G02*
X99375000Y-67555000I0J-100000D01*
G01*
G37*
G36*
G01*
X99375000Y-67055000D02*
X99375000Y-67255000D01*
G75*
G02*
X99275000Y-67355000I-100000J0D01*
G01*
X97775000Y-67355000D01*
G75*
G02*
X97675000Y-67255000I0J100000D01*
G01*
X97675000Y-67055000D01*
G75*
G02*
X97775000Y-66955000I100000J0D01*
G01*
X99275000Y-66955000D01*
G75*
G02*
X99375000Y-67055000I0J-100000D01*
G01*
G37*
G36*
G01*
X99375000Y-66555000D02*
X99375000Y-66755000D01*
G75*
G02*
X99275000Y-66855000I-100000J0D01*
G01*
X97775000Y-66855000D01*
G75*
G02*
X97675000Y-66755000I0J100000D01*
G01*
X97675000Y-66555000D01*
G75*
G02*
X97775000Y-66455000I100000J0D01*
G01*
X99275000Y-66455000D01*
G75*
G02*
X99375000Y-66555000I0J-100000D01*
G01*
G37*
G36*
G01*
X99375000Y-66055000D02*
X99375000Y-66255000D01*
G75*
G02*
X99275000Y-66355000I-100000J0D01*
G01*
X97775000Y-66355000D01*
G75*
G02*
X97675000Y-66255000I0J100000D01*
G01*
X97675000Y-66055000D01*
G75*
G02*
X97775000Y-65955000I100000J0D01*
G01*
X99275000Y-65955000D01*
G75*
G02*
X99375000Y-66055000I0J-100000D01*
G01*
G37*
G36*
G01*
X99375000Y-65555000D02*
X99375000Y-65755000D01*
G75*
G02*
X99275000Y-65855000I-100000J0D01*
G01*
X97775000Y-65855000D01*
G75*
G02*
X97675000Y-65755000I0J100000D01*
G01*
X97675000Y-65555000D01*
G75*
G02*
X97775000Y-65455000I100000J0D01*
G01*
X99275000Y-65455000D01*
G75*
G02*
X99375000Y-65555000I0J-100000D01*
G01*
G37*
G36*
G01*
X99375000Y-65055000D02*
X99375000Y-65255000D01*
G75*
G02*
X99275000Y-65355000I-100000J0D01*
G01*
X97775000Y-65355000D01*
G75*
G02*
X97675000Y-65255000I0J100000D01*
G01*
X97675000Y-65055000D01*
G75*
G02*
X97775000Y-64955000I100000J0D01*
G01*
X99275000Y-64955000D01*
G75*
G02*
X99375000Y-65055000I0J-100000D01*
G01*
G37*
G36*
G01*
X99375000Y-64555000D02*
X99375000Y-64755000D01*
G75*
G02*
X99275000Y-64855000I-100000J0D01*
G01*
X97775000Y-64855000D01*
G75*
G02*
X97675000Y-64755000I0J100000D01*
G01*
X97675000Y-64555000D01*
G75*
G02*
X97775000Y-64455000I100000J0D01*
G01*
X99275000Y-64455000D01*
G75*
G02*
X99375000Y-64555000I0J-100000D01*
G01*
G37*
G36*
G01*
X99375000Y-64055000D02*
X99375000Y-64255000D01*
G75*
G02*
X99275000Y-64355000I-100000J0D01*
G01*
X97775000Y-64355000D01*
G75*
G02*
X97675000Y-64255000I0J100000D01*
G01*
X97675000Y-64055000D01*
G75*
G02*
X97775000Y-63955000I100000J0D01*
G01*
X99275000Y-63955000D01*
G75*
G02*
X99375000Y-64055000I0J-100000D01*
G01*
G37*
G36*
G01*
X99375000Y-63555000D02*
X99375000Y-63755000D01*
G75*
G02*
X99275000Y-63855000I-100000J0D01*
G01*
X97775000Y-63855000D01*
G75*
G02*
X97675000Y-63755000I0J100000D01*
G01*
X97675000Y-63555000D01*
G75*
G02*
X97775000Y-63455000I100000J0D01*
G01*
X99275000Y-63455000D01*
G75*
G02*
X99375000Y-63555000I0J-100000D01*
G01*
G37*
G36*
G01*
X99375000Y-63055000D02*
X99375000Y-63255000D01*
G75*
G02*
X99275000Y-63355000I-100000J0D01*
G01*
X97775000Y-63355000D01*
G75*
G02*
X97675000Y-63255000I0J100000D01*
G01*
X97675000Y-63055000D01*
G75*
G02*
X97775000Y-62955000I100000J0D01*
G01*
X99275000Y-62955000D01*
G75*
G02*
X99375000Y-63055000I0J-100000D01*
G01*
G37*
G36*
G01*
X99375000Y-62555000D02*
X99375000Y-62755000D01*
G75*
G02*
X99275000Y-62855000I-100000J0D01*
G01*
X97775000Y-62855000D01*
G75*
G02*
X97675000Y-62755000I0J100000D01*
G01*
X97675000Y-62555000D01*
G75*
G02*
X97775000Y-62455000I100000J0D01*
G01*
X99275000Y-62455000D01*
G75*
G02*
X99375000Y-62555000I0J-100000D01*
G01*
G37*
G36*
G01*
X99375000Y-62055000D02*
X99375000Y-62255000D01*
G75*
G02*
X99275000Y-62355000I-100000J0D01*
G01*
X97775000Y-62355000D01*
G75*
G02*
X97675000Y-62255000I0J100000D01*
G01*
X97675000Y-62055000D01*
G75*
G02*
X97775000Y-61955000I100000J0D01*
G01*
X99275000Y-61955000D01*
G75*
G02*
X99375000Y-62055000I0J-100000D01*
G01*
G37*
G36*
G01*
X99375000Y-61555000D02*
X99375000Y-61755000D01*
G75*
G02*
X99275000Y-61855000I-100000J0D01*
G01*
X97775000Y-61855000D01*
G75*
G02*
X97675000Y-61755000I0J100000D01*
G01*
X97675000Y-61555000D01*
G75*
G02*
X97775000Y-61455000I100000J0D01*
G01*
X99275000Y-61455000D01*
G75*
G02*
X99375000Y-61555000I0J-100000D01*
G01*
G37*
G36*
G01*
X99375000Y-61055000D02*
X99375000Y-61255000D01*
G75*
G02*
X99275000Y-61355000I-100000J0D01*
G01*
X97775000Y-61355000D01*
G75*
G02*
X97675000Y-61255000I0J100000D01*
G01*
X97675000Y-61055000D01*
G75*
G02*
X97775000Y-60955000I100000J0D01*
G01*
X99275000Y-60955000D01*
G75*
G02*
X99375000Y-61055000I0J-100000D01*
G01*
G37*
G36*
G01*
X99375000Y-60555000D02*
X99375000Y-60755000D01*
G75*
G02*
X99275000Y-60855000I-100000J0D01*
G01*
X97775000Y-60855000D01*
G75*
G02*
X97675000Y-60755000I0J100000D01*
G01*
X97675000Y-60555000D01*
G75*
G02*
X97775000Y-60455000I100000J0D01*
G01*
X99275000Y-60455000D01*
G75*
G02*
X99375000Y-60555000I0J-100000D01*
G01*
G37*
G36*
G01*
X99375000Y-60055000D02*
X99375000Y-60255000D01*
G75*
G02*
X99275000Y-60355000I-100000J0D01*
G01*
X97775000Y-60355000D01*
G75*
G02*
X97675000Y-60255000I0J100000D01*
G01*
X97675000Y-60055000D01*
G75*
G02*
X97775000Y-59955000I100000J0D01*
G01*
X99275000Y-59955000D01*
G75*
G02*
X99375000Y-60055000I0J-100000D01*
G01*
G37*
G36*
G01*
X99375000Y-59555000D02*
X99375000Y-59755000D01*
G75*
G02*
X99275000Y-59855000I-100000J0D01*
G01*
X97775000Y-59855000D01*
G75*
G02*
X97675000Y-59755000I0J100000D01*
G01*
X97675000Y-59555000D01*
G75*
G02*
X97775000Y-59455000I100000J0D01*
G01*
X99275000Y-59455000D01*
G75*
G02*
X99375000Y-59555000I0J-100000D01*
G01*
G37*
G36*
G01*
X99375000Y-59055000D02*
X99375000Y-59255000D01*
G75*
G02*
X99275000Y-59355000I-100000J0D01*
G01*
X97775000Y-59355000D01*
G75*
G02*
X97675000Y-59255000I0J100000D01*
G01*
X97675000Y-59055000D01*
G75*
G02*
X97775000Y-58955000I100000J0D01*
G01*
X99275000Y-58955000D01*
G75*
G02*
X99375000Y-59055000I0J-100000D01*
G01*
G37*
G36*
G01*
X99375000Y-58555000D02*
X99375000Y-58755000D01*
G75*
G02*
X99275000Y-58855000I-100000J0D01*
G01*
X97775000Y-58855000D01*
G75*
G02*
X97675000Y-58755000I0J100000D01*
G01*
X97675000Y-58555000D01*
G75*
G02*
X97775000Y-58455000I100000J0D01*
G01*
X99275000Y-58455000D01*
G75*
G02*
X99375000Y-58555000I0J-100000D01*
G01*
G37*
G36*
G01*
X99375000Y-58055000D02*
X99375000Y-58255000D01*
G75*
G02*
X99275000Y-58355000I-100000J0D01*
G01*
X97775000Y-58355000D01*
G75*
G02*
X97675000Y-58255000I0J100000D01*
G01*
X97675000Y-58055000D01*
G75*
G02*
X97775000Y-57955000I100000J0D01*
G01*
X99275000Y-57955000D01*
G75*
G02*
X99375000Y-58055000I0J-100000D01*
G01*
G37*
G36*
G01*
X99375000Y-57555000D02*
X99375000Y-57755000D01*
G75*
G02*
X99275000Y-57855000I-100000J0D01*
G01*
X97775000Y-57855000D01*
G75*
G02*
X97675000Y-57755000I0J100000D01*
G01*
X97675000Y-57555000D01*
G75*
G02*
X97775000Y-57455000I100000J0D01*
G01*
X99275000Y-57455000D01*
G75*
G02*
X99375000Y-57555000I0J-100000D01*
G01*
G37*
G36*
G01*
X100400000Y-55230000D02*
X100400000Y-56730000D01*
G75*
G02*
X100300000Y-56830000I-100000J0D01*
G01*
X100100000Y-56830000D01*
G75*
G02*
X100000000Y-56730000I0J100000D01*
G01*
X100000000Y-55230000D01*
G75*
G02*
X100100000Y-55130000I100000J0D01*
G01*
X100300000Y-55130000D01*
G75*
G02*
X100400000Y-55230000I0J-100000D01*
G01*
G37*
G36*
G01*
X100900000Y-55230000D02*
X100900000Y-56730000D01*
G75*
G02*
X100800000Y-56830000I-100000J0D01*
G01*
X100600000Y-56830000D01*
G75*
G02*
X100500000Y-56730000I0J100000D01*
G01*
X100500000Y-55230000D01*
G75*
G02*
X100600000Y-55130000I100000J0D01*
G01*
X100800000Y-55130000D01*
G75*
G02*
X100900000Y-55230000I0J-100000D01*
G01*
G37*
G36*
G01*
X101400000Y-55230000D02*
X101400000Y-56730000D01*
G75*
G02*
X101300000Y-56830000I-100000J0D01*
G01*
X101100000Y-56830000D01*
G75*
G02*
X101000000Y-56730000I0J100000D01*
G01*
X101000000Y-55230000D01*
G75*
G02*
X101100000Y-55130000I100000J0D01*
G01*
X101300000Y-55130000D01*
G75*
G02*
X101400000Y-55230000I0J-100000D01*
G01*
G37*
G36*
G01*
X101900000Y-55230000D02*
X101900000Y-56730000D01*
G75*
G02*
X101800000Y-56830000I-100000J0D01*
G01*
X101600000Y-56830000D01*
G75*
G02*
X101500000Y-56730000I0J100000D01*
G01*
X101500000Y-55230000D01*
G75*
G02*
X101600000Y-55130000I100000J0D01*
G01*
X101800000Y-55130000D01*
G75*
G02*
X101900000Y-55230000I0J-100000D01*
G01*
G37*
G36*
G01*
X102400000Y-55230000D02*
X102400000Y-56730000D01*
G75*
G02*
X102300000Y-56830000I-100000J0D01*
G01*
X102100000Y-56830000D01*
G75*
G02*
X102000000Y-56730000I0J100000D01*
G01*
X102000000Y-55230000D01*
G75*
G02*
X102100000Y-55130000I100000J0D01*
G01*
X102300000Y-55130000D01*
G75*
G02*
X102400000Y-55230000I0J-100000D01*
G01*
G37*
G36*
G01*
X102900000Y-55230000D02*
X102900000Y-56730000D01*
G75*
G02*
X102800000Y-56830000I-100000J0D01*
G01*
X102600000Y-56830000D01*
G75*
G02*
X102500000Y-56730000I0J100000D01*
G01*
X102500000Y-55230000D01*
G75*
G02*
X102600000Y-55130000I100000J0D01*
G01*
X102800000Y-55130000D01*
G75*
G02*
X102900000Y-55230000I0J-100000D01*
G01*
G37*
G36*
G01*
X103400000Y-55230000D02*
X103400000Y-56730000D01*
G75*
G02*
X103300000Y-56830000I-100000J0D01*
G01*
X103100000Y-56830000D01*
G75*
G02*
X103000000Y-56730000I0J100000D01*
G01*
X103000000Y-55230000D01*
G75*
G02*
X103100000Y-55130000I100000J0D01*
G01*
X103300000Y-55130000D01*
G75*
G02*
X103400000Y-55230000I0J-100000D01*
G01*
G37*
G36*
G01*
X103900000Y-55230000D02*
X103900000Y-56730000D01*
G75*
G02*
X103800000Y-56830000I-100000J0D01*
G01*
X103600000Y-56830000D01*
G75*
G02*
X103500000Y-56730000I0J100000D01*
G01*
X103500000Y-55230000D01*
G75*
G02*
X103600000Y-55130000I100000J0D01*
G01*
X103800000Y-55130000D01*
G75*
G02*
X103900000Y-55230000I0J-100000D01*
G01*
G37*
G36*
G01*
X104400000Y-55230000D02*
X104400000Y-56730000D01*
G75*
G02*
X104300000Y-56830000I-100000J0D01*
G01*
X104100000Y-56830000D01*
G75*
G02*
X104000000Y-56730000I0J100000D01*
G01*
X104000000Y-55230000D01*
G75*
G02*
X104100000Y-55130000I100000J0D01*
G01*
X104300000Y-55130000D01*
G75*
G02*
X104400000Y-55230000I0J-100000D01*
G01*
G37*
G36*
G01*
X104900000Y-55230000D02*
X104900000Y-56730000D01*
G75*
G02*
X104800000Y-56830000I-100000J0D01*
G01*
X104600000Y-56830000D01*
G75*
G02*
X104500000Y-56730000I0J100000D01*
G01*
X104500000Y-55230000D01*
G75*
G02*
X104600000Y-55130000I100000J0D01*
G01*
X104800000Y-55130000D01*
G75*
G02*
X104900000Y-55230000I0J-100000D01*
G01*
G37*
G36*
G01*
X105400000Y-55230000D02*
X105400000Y-56730000D01*
G75*
G02*
X105300000Y-56830000I-100000J0D01*
G01*
X105100000Y-56830000D01*
G75*
G02*
X105000000Y-56730000I0J100000D01*
G01*
X105000000Y-55230000D01*
G75*
G02*
X105100000Y-55130000I100000J0D01*
G01*
X105300000Y-55130000D01*
G75*
G02*
X105400000Y-55230000I0J-100000D01*
G01*
G37*
G36*
G01*
X105900000Y-55230000D02*
X105900000Y-56730000D01*
G75*
G02*
X105800000Y-56830000I-100000J0D01*
G01*
X105600000Y-56830000D01*
G75*
G02*
X105500000Y-56730000I0J100000D01*
G01*
X105500000Y-55230000D01*
G75*
G02*
X105600000Y-55130000I100000J0D01*
G01*
X105800000Y-55130000D01*
G75*
G02*
X105900000Y-55230000I0J-100000D01*
G01*
G37*
G36*
G01*
X106400000Y-55230000D02*
X106400000Y-56730000D01*
G75*
G02*
X106300000Y-56830000I-100000J0D01*
G01*
X106100000Y-56830000D01*
G75*
G02*
X106000000Y-56730000I0J100000D01*
G01*
X106000000Y-55230000D01*
G75*
G02*
X106100000Y-55130000I100000J0D01*
G01*
X106300000Y-55130000D01*
G75*
G02*
X106400000Y-55230000I0J-100000D01*
G01*
G37*
G36*
G01*
X106900000Y-55230000D02*
X106900000Y-56730000D01*
G75*
G02*
X106800000Y-56830000I-100000J0D01*
G01*
X106600000Y-56830000D01*
G75*
G02*
X106500000Y-56730000I0J100000D01*
G01*
X106500000Y-55230000D01*
G75*
G02*
X106600000Y-55130000I100000J0D01*
G01*
X106800000Y-55130000D01*
G75*
G02*
X106900000Y-55230000I0J-100000D01*
G01*
G37*
G36*
G01*
X107400000Y-55230000D02*
X107400000Y-56730000D01*
G75*
G02*
X107300000Y-56830000I-100000J0D01*
G01*
X107100000Y-56830000D01*
G75*
G02*
X107000000Y-56730000I0J100000D01*
G01*
X107000000Y-55230000D01*
G75*
G02*
X107100000Y-55130000I100000J0D01*
G01*
X107300000Y-55130000D01*
G75*
G02*
X107400000Y-55230000I0J-100000D01*
G01*
G37*
G36*
G01*
X107900000Y-55230000D02*
X107900000Y-56730000D01*
G75*
G02*
X107800000Y-56830000I-100000J0D01*
G01*
X107600000Y-56830000D01*
G75*
G02*
X107500000Y-56730000I0J100000D01*
G01*
X107500000Y-55230000D01*
G75*
G02*
X107600000Y-55130000I100000J0D01*
G01*
X107800000Y-55130000D01*
G75*
G02*
X107900000Y-55230000I0J-100000D01*
G01*
G37*
G36*
G01*
X108400000Y-55230000D02*
X108400000Y-56730000D01*
G75*
G02*
X108300000Y-56830000I-100000J0D01*
G01*
X108100000Y-56830000D01*
G75*
G02*
X108000000Y-56730000I0J100000D01*
G01*
X108000000Y-55230000D01*
G75*
G02*
X108100000Y-55130000I100000J0D01*
G01*
X108300000Y-55130000D01*
G75*
G02*
X108400000Y-55230000I0J-100000D01*
G01*
G37*
G36*
G01*
X108900000Y-55230000D02*
X108900000Y-56730000D01*
G75*
G02*
X108800000Y-56830000I-100000J0D01*
G01*
X108600000Y-56830000D01*
G75*
G02*
X108500000Y-56730000I0J100000D01*
G01*
X108500000Y-55230000D01*
G75*
G02*
X108600000Y-55130000I100000J0D01*
G01*
X108800000Y-55130000D01*
G75*
G02*
X108900000Y-55230000I0J-100000D01*
G01*
G37*
G36*
G01*
X109400000Y-55230000D02*
X109400000Y-56730000D01*
G75*
G02*
X109300000Y-56830000I-100000J0D01*
G01*
X109100000Y-56830000D01*
G75*
G02*
X109000000Y-56730000I0J100000D01*
G01*
X109000000Y-55230000D01*
G75*
G02*
X109100000Y-55130000I100000J0D01*
G01*
X109300000Y-55130000D01*
G75*
G02*
X109400000Y-55230000I0J-100000D01*
G01*
G37*
G36*
G01*
X109900000Y-55230000D02*
X109900000Y-56730000D01*
G75*
G02*
X109800000Y-56830000I-100000J0D01*
G01*
X109600000Y-56830000D01*
G75*
G02*
X109500000Y-56730000I0J100000D01*
G01*
X109500000Y-55230000D01*
G75*
G02*
X109600000Y-55130000I100000J0D01*
G01*
X109800000Y-55130000D01*
G75*
G02*
X109900000Y-55230000I0J-100000D01*
G01*
G37*
G36*
G01*
X110400000Y-55230000D02*
X110400000Y-56730000D01*
G75*
G02*
X110300000Y-56830000I-100000J0D01*
G01*
X110100000Y-56830000D01*
G75*
G02*
X110000000Y-56730000I0J100000D01*
G01*
X110000000Y-55230000D01*
G75*
G02*
X110100000Y-55130000I100000J0D01*
G01*
X110300000Y-55130000D01*
G75*
G02*
X110400000Y-55230000I0J-100000D01*
G01*
G37*
G36*
G01*
X110900000Y-55230000D02*
X110900000Y-56730000D01*
G75*
G02*
X110800000Y-56830000I-100000J0D01*
G01*
X110600000Y-56830000D01*
G75*
G02*
X110500000Y-56730000I0J100000D01*
G01*
X110500000Y-55230000D01*
G75*
G02*
X110600000Y-55130000I100000J0D01*
G01*
X110800000Y-55130000D01*
G75*
G02*
X110900000Y-55230000I0J-100000D01*
G01*
G37*
G36*
G01*
X111400000Y-55230000D02*
X111400000Y-56730000D01*
G75*
G02*
X111300000Y-56830000I-100000J0D01*
G01*
X111100000Y-56830000D01*
G75*
G02*
X111000000Y-56730000I0J100000D01*
G01*
X111000000Y-55230000D01*
G75*
G02*
X111100000Y-55130000I100000J0D01*
G01*
X111300000Y-55130000D01*
G75*
G02*
X111400000Y-55230000I0J-100000D01*
G01*
G37*
G36*
G01*
X111900000Y-55230000D02*
X111900000Y-56730000D01*
G75*
G02*
X111800000Y-56830000I-100000J0D01*
G01*
X111600000Y-56830000D01*
G75*
G02*
X111500000Y-56730000I0J100000D01*
G01*
X111500000Y-55230000D01*
G75*
G02*
X111600000Y-55130000I100000J0D01*
G01*
X111800000Y-55130000D01*
G75*
G02*
X111900000Y-55230000I0J-100000D01*
G01*
G37*
G36*
G01*
X112400000Y-55230000D02*
X112400000Y-56730000D01*
G75*
G02*
X112300000Y-56830000I-100000J0D01*
G01*
X112100000Y-56830000D01*
G75*
G02*
X112000000Y-56730000I0J100000D01*
G01*
X112000000Y-55230000D01*
G75*
G02*
X112100000Y-55130000I100000J0D01*
G01*
X112300000Y-55130000D01*
G75*
G02*
X112400000Y-55230000I0J-100000D01*
G01*
G37*
%TD*%
D28*
%TO.C,U10*%
X40132000Y-101108000D03*
X40132000Y-103648000D03*
D27*
X40132000Y-106188000D03*
%TD*%
D29*
%TO.C,U11*%
X56111600Y-116258001D03*
X56111600Y-114357999D03*
X53876400Y-114357999D03*
X53876400Y-115308000D03*
X53876400Y-116258001D03*
%TD*%
D11*
%TO.C,U13*%
X58344000Y-104788000D03*
X58344000Y-109388000D03*
X58344000Y-107088000D03*
D10*
X52044000Y-107088000D03*
%TD*%
%TO.C,U16*%
X56800000Y-27500000D03*
D11*
X50500000Y-27500000D03*
X50500000Y-25200000D03*
X50500000Y-29800000D03*
%TD*%
D13*
%TO.C,U23*%
X82895000Y-67630000D03*
D12*
X82895000Y-73930000D03*
X80595000Y-73930000D03*
X85195000Y-73930000D03*
%TD*%
D29*
%TO.C,U24*%
X88207600Y-83204999D03*
X88207600Y-84155000D03*
X88207600Y-85105001D03*
X85972400Y-85105001D03*
X85972400Y-83204999D03*
%TD*%
D19*
%TO.C,U12*%
X70574000Y-106733000D03*
X70574000Y-97208000D03*
X70574000Y-116258000D03*
X51524000Y-116258000D03*
D25*
X51524000Y-97208000D03*
%TD*%
D24*
%TO.C,SW2*%
X130550001Y-118700001D03*
X130550001Y-117430001D03*
X130550001Y-116160001D03*
X130550001Y-114890001D03*
D23*
X130550001Y-113620001D03*
%TD*%
D24*
%TO.C,U22*%
X133820000Y-84395000D03*
X132550000Y-84395000D03*
X133820000Y-83125000D03*
X132550000Y-83125000D03*
X133820000Y-81855000D03*
X132550000Y-81855000D03*
X133820000Y-80585000D03*
X132550000Y-80585000D03*
X133820000Y-79315000D03*
X132550000Y-79315000D03*
X133820000Y-78045000D03*
X132550000Y-78045000D03*
X133820000Y-76775000D03*
D23*
X132550000Y-76775000D03*
%TD*%
D30*
%TO.C,J1*%
X45500000Y-74880000D03*
G36*
G01*
X43913889Y-68850000D02*
X47086111Y-68850000D01*
G75*
G02*
X47350000Y-69113889I0J-263889D01*
G01*
X47350000Y-70486111D01*
G75*
G02*
X47086111Y-70750000I-263889J0D01*
G01*
X43913889Y-70750000D01*
G75*
G02*
X43650000Y-70486111I0J263889D01*
G01*
X43650000Y-69113889D01*
G75*
G02*
X43913889Y-68850000I263889J0D01*
G01*
G37*
%TD*%
D31*
%TO.C,Y1*%
X99800000Y-109000000D03*
X99800000Y-114200000D03*
%TD*%
M02*
