%TF.GenerationSoftware,KiCad,Pcbnew,5.1.6-c6e7f7d~87~ubuntu20.04.1*%
%TF.CreationDate,2020-11-09T11:07:28+00:00*%
%TF.ProjectId,FrequencyCounter,46726571-7565-46e6-9379-436f756e7465,rev?*%
%TF.SameCoordinates,Original*%
%TF.FileFunction,Paste,Top*%
%TF.FilePolarity,Positive*%
%FSLAX46Y46*%
G04 Gerber Fmt 4.6, Leading zero omitted, Abs format (unit mm)*
G04 Created by KiCad (PCBNEW 5.1.6-c6e7f7d~87~ubuntu20.04.1) date 2020-11-09 11:07:28*
%MOMM*%
%LPD*%
G01*
G04 APERTURE LIST*
%ADD10C,0.100000*%
%ADD11C,0.152400*%
%ADD12R,1.500000X2.000000*%
%ADD13R,3.800000X2.000000*%
%ADD14R,0.756037X0.239283*%
%ADD15R,0.250000X1.000000*%
%ADD16R,1.000000X0.250000*%
%ADD17R,2.100000X2.100000*%
%ADD18R,0.900000X1.200000*%
%ADD19R,1.200000X0.900000*%
%ADD20R,5.080000X1.500000*%
%ADD21R,0.704800X0.249200*%
%ADD22R,0.249200X0.704800*%
%ADD23R,3.750000X3.750000*%
%ADD24R,0.900000X1.300000*%
%ADD25R,2.400000X3.000000*%
%ADD26R,1.560000X0.650000*%
G04 APERTURE END LIST*
D10*
%TO.C,U17*%
G36*
X59746186Y-29986186D02*
G01*
X61453814Y-29986186D01*
X61453814Y-31693814D01*
X59746186Y-31693814D01*
X59746186Y-29986186D01*
G37*
D11*
%TO.C,U5*%
X79225000Y-39900000D02*
X80900000Y-39900000D01*
X79225000Y-38225000D02*
X79225000Y-39900000D01*
X80900000Y-38225000D02*
X79225000Y-38225000D01*
X80900000Y-39900000D02*
X80900000Y-38225000D01*
X79225000Y-41775000D02*
X80900000Y-41775000D01*
X79225000Y-40100000D02*
X79225000Y-41775000D01*
X80900000Y-40100000D02*
X79225000Y-40100000D01*
X80900000Y-41775000D02*
X80900000Y-40100000D01*
X81100000Y-39900000D02*
X82775000Y-39900000D01*
X81100000Y-38225000D02*
X81100000Y-39900000D01*
X82775000Y-38225000D02*
X81100000Y-38225000D01*
X82775000Y-39900000D02*
X82775000Y-38225000D01*
X81100000Y-41775000D02*
X82775000Y-41775000D01*
X81100000Y-40100000D02*
X81100000Y-41775000D01*
X82775000Y-40100000D02*
X81100000Y-40100000D01*
X82775000Y-41775000D02*
X82775000Y-40100000D01*
D10*
%TO.C,U18*%
G36*
X68716186Y-30006186D02*
G01*
X70423814Y-30006186D01*
X70423814Y-31713814D01*
X68716186Y-31713814D01*
X68716186Y-30006186D01*
G37*
%TD*%
%TO.C,C94*%
G36*
G01*
X90050001Y-68875000D02*
X89149999Y-68875000D01*
G75*
G02*
X88900000Y-68625001I0J249999D01*
G01*
X88900000Y-67974999D01*
G75*
G02*
X89149999Y-67725000I249999J0D01*
G01*
X90050001Y-67725000D01*
G75*
G02*
X90300000Y-67974999I0J-249999D01*
G01*
X90300000Y-68625001D01*
G75*
G02*
X90050001Y-68875000I-249999J0D01*
G01*
G37*
G36*
G01*
X90050001Y-70925000D02*
X89149999Y-70925000D01*
G75*
G02*
X88900000Y-70675001I0J249999D01*
G01*
X88900000Y-70024999D01*
G75*
G02*
X89149999Y-69775000I249999J0D01*
G01*
X90050001Y-69775000D01*
G75*
G02*
X90300000Y-70024999I0J-249999D01*
G01*
X90300000Y-70675001D01*
G75*
G02*
X90050001Y-70925000I-249999J0D01*
G01*
G37*
%TD*%
D12*
%TO.C,U6*%
X118550000Y-35250000D03*
X113950000Y-35250000D03*
X116250000Y-35250000D03*
D13*
X116250000Y-41550000D03*
%TD*%
D14*
%TO.C,U17*%
X58721955Y-29590000D03*
G36*
G01*
X58343937Y-30090000D02*
X58343937Y-30090000D01*
G75*
G02*
X58463578Y-29970359I119641J0D01*
G01*
X58980332Y-29970359D01*
G75*
G02*
X59099973Y-30090000I0J-119641D01*
G01*
X59099973Y-30090000D01*
G75*
G02*
X58980332Y-30209641I-119641J0D01*
G01*
X58463578Y-30209641D01*
G75*
G02*
X58343937Y-30090000I0J119641D01*
G01*
G37*
G36*
G01*
X58343937Y-30590000D02*
X58343937Y-30590000D01*
G75*
G02*
X58463578Y-30470359I119641J0D01*
G01*
X58980332Y-30470359D01*
G75*
G02*
X59099973Y-30590000I0J-119641D01*
G01*
X59099973Y-30590000D01*
G75*
G02*
X58980332Y-30709641I-119641J0D01*
G01*
X58463578Y-30709641D01*
G75*
G02*
X58343937Y-30590000I0J119641D01*
G01*
G37*
G36*
G01*
X58343937Y-31090000D02*
X58343937Y-31090000D01*
G75*
G02*
X58463578Y-30970359I119641J0D01*
G01*
X58980332Y-30970359D01*
G75*
G02*
X59099973Y-31090000I0J-119641D01*
G01*
X59099973Y-31090000D01*
G75*
G02*
X58980332Y-31209641I-119641J0D01*
G01*
X58463578Y-31209641D01*
G75*
G02*
X58343937Y-31090000I0J119641D01*
G01*
G37*
G36*
G01*
X58343937Y-31590000D02*
X58343937Y-31590000D01*
G75*
G02*
X58463578Y-31470359I119641J0D01*
G01*
X58980332Y-31470359D01*
G75*
G02*
X59099973Y-31590000I0J-119641D01*
G01*
X59099973Y-31590000D01*
G75*
G02*
X58980332Y-31709641I-119641J0D01*
G01*
X58463578Y-31709641D01*
G75*
G02*
X58343937Y-31590000I0J119641D01*
G01*
G37*
G36*
G01*
X58343937Y-32090000D02*
X58343937Y-32090000D01*
G75*
G02*
X58463578Y-31970359I119641J0D01*
G01*
X58980332Y-31970359D01*
G75*
G02*
X59099973Y-32090000I0J-119641D01*
G01*
X59099973Y-32090000D01*
G75*
G02*
X58980332Y-32209641I-119641J0D01*
G01*
X58463578Y-32209641D01*
G75*
G02*
X58343937Y-32090000I0J119641D01*
G01*
G37*
G36*
G01*
X59230359Y-32976422D02*
X59230359Y-32459668D01*
G75*
G02*
X59350000Y-32340027I119641J0D01*
G01*
X59350000Y-32340027D01*
G75*
G02*
X59469641Y-32459668I0J-119641D01*
G01*
X59469641Y-32976422D01*
G75*
G02*
X59350000Y-33096063I-119641J0D01*
G01*
X59350000Y-33096063D01*
G75*
G02*
X59230359Y-32976422I0J119641D01*
G01*
G37*
G36*
G01*
X59730359Y-32976422D02*
X59730359Y-32459668D01*
G75*
G02*
X59850000Y-32340027I119641J0D01*
G01*
X59850000Y-32340027D01*
G75*
G02*
X59969641Y-32459668I0J-119641D01*
G01*
X59969641Y-32976422D01*
G75*
G02*
X59850000Y-33096063I-119641J0D01*
G01*
X59850000Y-33096063D01*
G75*
G02*
X59730359Y-32976422I0J119641D01*
G01*
G37*
G36*
G01*
X60230359Y-32976422D02*
X60230359Y-32459668D01*
G75*
G02*
X60350000Y-32340027I119641J0D01*
G01*
X60350000Y-32340027D01*
G75*
G02*
X60469641Y-32459668I0J-119641D01*
G01*
X60469641Y-32976422D01*
G75*
G02*
X60350000Y-33096063I-119641J0D01*
G01*
X60350000Y-33096063D01*
G75*
G02*
X60230359Y-32976422I0J119641D01*
G01*
G37*
G36*
G01*
X60730359Y-32976422D02*
X60730359Y-32459668D01*
G75*
G02*
X60850000Y-32340027I119641J0D01*
G01*
X60850000Y-32340027D01*
G75*
G02*
X60969641Y-32459668I0J-119641D01*
G01*
X60969641Y-32976422D01*
G75*
G02*
X60850000Y-33096063I-119641J0D01*
G01*
X60850000Y-33096063D01*
G75*
G02*
X60730359Y-32976422I0J119641D01*
G01*
G37*
G36*
G01*
X61230359Y-32976422D02*
X61230359Y-32459668D01*
G75*
G02*
X61350000Y-32340027I119641J0D01*
G01*
X61350000Y-32340027D01*
G75*
G02*
X61469641Y-32459668I0J-119641D01*
G01*
X61469641Y-32976422D01*
G75*
G02*
X61350000Y-33096063I-119641J0D01*
G01*
X61350000Y-33096063D01*
G75*
G02*
X61230359Y-32976422I0J119641D01*
G01*
G37*
G36*
G01*
X61730359Y-32976422D02*
X61730359Y-32459668D01*
G75*
G02*
X61850000Y-32340027I119641J0D01*
G01*
X61850000Y-32340027D01*
G75*
G02*
X61969641Y-32459668I0J-119641D01*
G01*
X61969641Y-32976422D01*
G75*
G02*
X61850000Y-33096063I-119641J0D01*
G01*
X61850000Y-33096063D01*
G75*
G02*
X61730359Y-32976422I0J119641D01*
G01*
G37*
G36*
G01*
X61730359Y-29220332D02*
X61730359Y-28703578D01*
G75*
G02*
X61850000Y-28583937I119641J0D01*
G01*
X61850000Y-28583937D01*
G75*
G02*
X61969641Y-28703578I0J-119641D01*
G01*
X61969641Y-29220332D01*
G75*
G02*
X61850000Y-29339973I-119641J0D01*
G01*
X61850000Y-29339973D01*
G75*
G02*
X61730359Y-29220332I0J119641D01*
G01*
G37*
G36*
G01*
X61230359Y-29220332D02*
X61230359Y-28703578D01*
G75*
G02*
X61350000Y-28583937I119641J0D01*
G01*
X61350000Y-28583937D01*
G75*
G02*
X61469641Y-28703578I0J-119641D01*
G01*
X61469641Y-29220332D01*
G75*
G02*
X61350000Y-29339973I-119641J0D01*
G01*
X61350000Y-29339973D01*
G75*
G02*
X61230359Y-29220332I0J119641D01*
G01*
G37*
G36*
G01*
X60730359Y-29220332D02*
X60730359Y-28703578D01*
G75*
G02*
X60850000Y-28583937I119641J0D01*
G01*
X60850000Y-28583937D01*
G75*
G02*
X60969641Y-28703578I0J-119641D01*
G01*
X60969641Y-29220332D01*
G75*
G02*
X60850000Y-29339973I-119641J0D01*
G01*
X60850000Y-29339973D01*
G75*
G02*
X60730359Y-29220332I0J119641D01*
G01*
G37*
G36*
G01*
X60230359Y-29220332D02*
X60230359Y-28703578D01*
G75*
G02*
X60350000Y-28583937I119641J0D01*
G01*
X60350000Y-28583937D01*
G75*
G02*
X60469641Y-28703578I0J-119641D01*
G01*
X60469641Y-29220332D01*
G75*
G02*
X60350000Y-29339973I-119641J0D01*
G01*
X60350000Y-29339973D01*
G75*
G02*
X60230359Y-29220332I0J119641D01*
G01*
G37*
G36*
G01*
X59730359Y-29220332D02*
X59730359Y-28703578D01*
G75*
G02*
X59850000Y-28583937I119641J0D01*
G01*
X59850000Y-28583937D01*
G75*
G02*
X59969641Y-28703578I0J-119641D01*
G01*
X59969641Y-29220332D01*
G75*
G02*
X59850000Y-29339973I-119641J0D01*
G01*
X59850000Y-29339973D01*
G75*
G02*
X59730359Y-29220332I0J119641D01*
G01*
G37*
G36*
G01*
X59230359Y-29220332D02*
X59230359Y-28703578D01*
G75*
G02*
X59350000Y-28583937I119641J0D01*
G01*
X59350000Y-28583937D01*
G75*
G02*
X59469641Y-28703578I0J-119641D01*
G01*
X59469641Y-29220332D01*
G75*
G02*
X59350000Y-29339973I-119641J0D01*
G01*
X59350000Y-29339973D01*
G75*
G02*
X59230359Y-29220332I0J119641D01*
G01*
G37*
G36*
G01*
X62100028Y-32090000D02*
X62100028Y-32090000D01*
G75*
G02*
X62219669Y-31970359I119641J0D01*
G01*
X62736423Y-31970359D01*
G75*
G02*
X62856064Y-32090000I0J-119641D01*
G01*
X62856064Y-32090000D01*
G75*
G02*
X62736423Y-32209641I-119641J0D01*
G01*
X62219669Y-32209641D01*
G75*
G02*
X62100028Y-32090000I0J119641D01*
G01*
G37*
G36*
G01*
X62100028Y-31590000D02*
X62100028Y-31590000D01*
G75*
G02*
X62219669Y-31470359I119641J0D01*
G01*
X62736423Y-31470359D01*
G75*
G02*
X62856064Y-31590000I0J-119641D01*
G01*
X62856064Y-31590000D01*
G75*
G02*
X62736423Y-31709641I-119641J0D01*
G01*
X62219669Y-31709641D01*
G75*
G02*
X62100028Y-31590000I0J119641D01*
G01*
G37*
G36*
G01*
X62100028Y-31090000D02*
X62100028Y-31090000D01*
G75*
G02*
X62219669Y-30970359I119641J0D01*
G01*
X62736423Y-30970359D01*
G75*
G02*
X62856064Y-31090000I0J-119641D01*
G01*
X62856064Y-31090000D01*
G75*
G02*
X62736423Y-31209641I-119641J0D01*
G01*
X62219669Y-31209641D01*
G75*
G02*
X62100028Y-31090000I0J119641D01*
G01*
G37*
G36*
G01*
X62100028Y-30590000D02*
X62100028Y-30590000D01*
G75*
G02*
X62219669Y-30470359I119641J0D01*
G01*
X62736423Y-30470359D01*
G75*
G02*
X62856064Y-30590000I0J-119641D01*
G01*
X62856064Y-30590000D01*
G75*
G02*
X62736423Y-30709641I-119641J0D01*
G01*
X62219669Y-30709641D01*
G75*
G02*
X62100028Y-30590000I0J119641D01*
G01*
G37*
G36*
G01*
X62100028Y-30090000D02*
X62100028Y-30090000D01*
G75*
G02*
X62219669Y-29970359I119641J0D01*
G01*
X62736423Y-29970359D01*
G75*
G02*
X62856064Y-30090000I0J-119641D01*
G01*
X62856064Y-30090000D01*
G75*
G02*
X62736423Y-30209641I-119641J0D01*
G01*
X62219669Y-30209641D01*
G75*
G02*
X62100028Y-30090000I0J119641D01*
G01*
G37*
G36*
G01*
X62100028Y-29590000D02*
X62100028Y-29590000D01*
G75*
G02*
X62219669Y-29470359I119641J0D01*
G01*
X62736423Y-29470359D01*
G75*
G02*
X62856064Y-29590000I0J-119641D01*
G01*
X62856064Y-29590000D01*
G75*
G02*
X62736423Y-29709641I-119641J0D01*
G01*
X62219669Y-29709641D01*
G75*
G02*
X62100028Y-29590000I0J119641D01*
G01*
G37*
%TD*%
D15*
%TO.C,U2*%
X49774999Y-41497601D03*
X49125001Y-41497601D03*
X48474999Y-41497601D03*
X47825001Y-41497601D03*
D16*
X46997601Y-42325001D03*
X46997601Y-42974999D03*
X46997601Y-43625001D03*
X46997601Y-44274999D03*
D15*
X47825001Y-45102399D03*
X48474999Y-45102399D03*
X49125001Y-45102399D03*
X49774999Y-45102399D03*
D16*
X50602399Y-44274999D03*
X50602399Y-43625001D03*
X50602399Y-42974999D03*
X50602399Y-42325001D03*
D17*
X48800000Y-43300000D03*
%TD*%
%TO.C,U7*%
G36*
G01*
X54900000Y-40750000D02*
X54900000Y-40550000D01*
G75*
G02*
X55000000Y-40450000I100000J0D01*
G01*
X56275000Y-40450000D01*
G75*
G02*
X56375000Y-40550000I0J-100000D01*
G01*
X56375000Y-40750000D01*
G75*
G02*
X56275000Y-40850000I-100000J0D01*
G01*
X55000000Y-40850000D01*
G75*
G02*
X54900000Y-40750000I0J100000D01*
G01*
G37*
G36*
G01*
X54900000Y-41400000D02*
X54900000Y-41200000D01*
G75*
G02*
X55000000Y-41100000I100000J0D01*
G01*
X56275000Y-41100000D01*
G75*
G02*
X56375000Y-41200000I0J-100000D01*
G01*
X56375000Y-41400000D01*
G75*
G02*
X56275000Y-41500000I-100000J0D01*
G01*
X55000000Y-41500000D01*
G75*
G02*
X54900000Y-41400000I0J100000D01*
G01*
G37*
G36*
G01*
X54900000Y-42050000D02*
X54900000Y-41850000D01*
G75*
G02*
X55000000Y-41750000I100000J0D01*
G01*
X56275000Y-41750000D01*
G75*
G02*
X56375000Y-41850000I0J-100000D01*
G01*
X56375000Y-42050000D01*
G75*
G02*
X56275000Y-42150000I-100000J0D01*
G01*
X55000000Y-42150000D01*
G75*
G02*
X54900000Y-42050000I0J100000D01*
G01*
G37*
G36*
G01*
X54900000Y-42700000D02*
X54900000Y-42500000D01*
G75*
G02*
X55000000Y-42400000I100000J0D01*
G01*
X56275000Y-42400000D01*
G75*
G02*
X56375000Y-42500000I0J-100000D01*
G01*
X56375000Y-42700000D01*
G75*
G02*
X56275000Y-42800000I-100000J0D01*
G01*
X55000000Y-42800000D01*
G75*
G02*
X54900000Y-42700000I0J100000D01*
G01*
G37*
G36*
G01*
X54900000Y-43350000D02*
X54900000Y-43150000D01*
G75*
G02*
X55000000Y-43050000I100000J0D01*
G01*
X56275000Y-43050000D01*
G75*
G02*
X56375000Y-43150000I0J-100000D01*
G01*
X56375000Y-43350000D01*
G75*
G02*
X56275000Y-43450000I-100000J0D01*
G01*
X55000000Y-43450000D01*
G75*
G02*
X54900000Y-43350000I0J100000D01*
G01*
G37*
G36*
G01*
X54900000Y-44000000D02*
X54900000Y-43800000D01*
G75*
G02*
X55000000Y-43700000I100000J0D01*
G01*
X56275000Y-43700000D01*
G75*
G02*
X56375000Y-43800000I0J-100000D01*
G01*
X56375000Y-44000000D01*
G75*
G02*
X56275000Y-44100000I-100000J0D01*
G01*
X55000000Y-44100000D01*
G75*
G02*
X54900000Y-44000000I0J100000D01*
G01*
G37*
G36*
G01*
X54900000Y-44650000D02*
X54900000Y-44450000D01*
G75*
G02*
X55000000Y-44350000I100000J0D01*
G01*
X56275000Y-44350000D01*
G75*
G02*
X56375000Y-44450000I0J-100000D01*
G01*
X56375000Y-44650000D01*
G75*
G02*
X56275000Y-44750000I-100000J0D01*
G01*
X55000000Y-44750000D01*
G75*
G02*
X54900000Y-44650000I0J100000D01*
G01*
G37*
G36*
G01*
X60625000Y-44650000D02*
X60625000Y-44450000D01*
G75*
G02*
X60725000Y-44350000I100000J0D01*
G01*
X62000000Y-44350000D01*
G75*
G02*
X62100000Y-44450000I0J-100000D01*
G01*
X62100000Y-44650000D01*
G75*
G02*
X62000000Y-44750000I-100000J0D01*
G01*
X60725000Y-44750000D01*
G75*
G02*
X60625000Y-44650000I0J100000D01*
G01*
G37*
G36*
G01*
X60625000Y-44000000D02*
X60625000Y-43800000D01*
G75*
G02*
X60725000Y-43700000I100000J0D01*
G01*
X62000000Y-43700000D01*
G75*
G02*
X62100000Y-43800000I0J-100000D01*
G01*
X62100000Y-44000000D01*
G75*
G02*
X62000000Y-44100000I-100000J0D01*
G01*
X60725000Y-44100000D01*
G75*
G02*
X60625000Y-44000000I0J100000D01*
G01*
G37*
G36*
G01*
X60625000Y-43350000D02*
X60625000Y-43150000D01*
G75*
G02*
X60725000Y-43050000I100000J0D01*
G01*
X62000000Y-43050000D01*
G75*
G02*
X62100000Y-43150000I0J-100000D01*
G01*
X62100000Y-43350000D01*
G75*
G02*
X62000000Y-43450000I-100000J0D01*
G01*
X60725000Y-43450000D01*
G75*
G02*
X60625000Y-43350000I0J100000D01*
G01*
G37*
G36*
G01*
X60625000Y-42700000D02*
X60625000Y-42500000D01*
G75*
G02*
X60725000Y-42400000I100000J0D01*
G01*
X62000000Y-42400000D01*
G75*
G02*
X62100000Y-42500000I0J-100000D01*
G01*
X62100000Y-42700000D01*
G75*
G02*
X62000000Y-42800000I-100000J0D01*
G01*
X60725000Y-42800000D01*
G75*
G02*
X60625000Y-42700000I0J100000D01*
G01*
G37*
G36*
G01*
X60625000Y-42050000D02*
X60625000Y-41850000D01*
G75*
G02*
X60725000Y-41750000I100000J0D01*
G01*
X62000000Y-41750000D01*
G75*
G02*
X62100000Y-41850000I0J-100000D01*
G01*
X62100000Y-42050000D01*
G75*
G02*
X62000000Y-42150000I-100000J0D01*
G01*
X60725000Y-42150000D01*
G75*
G02*
X60625000Y-42050000I0J100000D01*
G01*
G37*
G36*
G01*
X60625000Y-41400000D02*
X60625000Y-41200000D01*
G75*
G02*
X60725000Y-41100000I100000J0D01*
G01*
X62000000Y-41100000D01*
G75*
G02*
X62100000Y-41200000I0J-100000D01*
G01*
X62100000Y-41400000D01*
G75*
G02*
X62000000Y-41500000I-100000J0D01*
G01*
X60725000Y-41500000D01*
G75*
G02*
X60625000Y-41400000I0J100000D01*
G01*
G37*
G36*
G01*
X60625000Y-40750000D02*
X60625000Y-40550000D01*
G75*
G02*
X60725000Y-40450000I100000J0D01*
G01*
X62000000Y-40450000D01*
G75*
G02*
X62100000Y-40550000I0J-100000D01*
G01*
X62100000Y-40750000D01*
G75*
G02*
X62000000Y-40850000I-100000J0D01*
G01*
X60725000Y-40850000D01*
G75*
G02*
X60625000Y-40750000I0J100000D01*
G01*
G37*
%TD*%
%TO.C,R40*%
G36*
G01*
X54550000Y-29950001D02*
X54550000Y-29049999D01*
G75*
G02*
X54799999Y-28800000I249999J0D01*
G01*
X55450001Y-28800000D01*
G75*
G02*
X55700000Y-29049999I0J-249999D01*
G01*
X55700000Y-29950001D01*
G75*
G02*
X55450001Y-30200000I-249999J0D01*
G01*
X54799999Y-30200000D01*
G75*
G02*
X54550000Y-29950001I0J249999D01*
G01*
G37*
G36*
G01*
X56600000Y-29950001D02*
X56600000Y-29049999D01*
G75*
G02*
X56849999Y-28800000I249999J0D01*
G01*
X57500001Y-28800000D01*
G75*
G02*
X57750000Y-29049999I0J-249999D01*
G01*
X57750000Y-29950001D01*
G75*
G02*
X57500001Y-30200000I-249999J0D01*
G01*
X56849999Y-30200000D01*
G75*
G02*
X56600000Y-29950001I0J249999D01*
G01*
G37*
%TD*%
%TO.C,C87*%
G36*
G01*
X55135000Y-32272500D02*
X55135000Y-31927500D01*
G75*
G02*
X55282500Y-31780000I147500J0D01*
G01*
X55577500Y-31780000D01*
G75*
G02*
X55725000Y-31927500I0J-147500D01*
G01*
X55725000Y-32272500D01*
G75*
G02*
X55577500Y-32420000I-147500J0D01*
G01*
X55282500Y-32420000D01*
G75*
G02*
X55135000Y-32272500I0J147500D01*
G01*
G37*
G36*
G01*
X56105000Y-32272500D02*
X56105000Y-31927500D01*
G75*
G02*
X56252500Y-31780000I147500J0D01*
G01*
X56547500Y-31780000D01*
G75*
G02*
X56695000Y-31927500I0J-147500D01*
G01*
X56695000Y-32272500D01*
G75*
G02*
X56547500Y-32420000I-147500J0D01*
G01*
X56252500Y-32420000D01*
G75*
G02*
X56105000Y-32272500I0J147500D01*
G01*
G37*
%TD*%
%TO.C,R3*%
G36*
G01*
X46572500Y-36740000D02*
X46227500Y-36740000D01*
G75*
G02*
X46080000Y-36592500I0J147500D01*
G01*
X46080000Y-36297500D01*
G75*
G02*
X46227500Y-36150000I147500J0D01*
G01*
X46572500Y-36150000D01*
G75*
G02*
X46720000Y-36297500I0J-147500D01*
G01*
X46720000Y-36592500D01*
G75*
G02*
X46572500Y-36740000I-147500J0D01*
G01*
G37*
G36*
G01*
X46572500Y-35770000D02*
X46227500Y-35770000D01*
G75*
G02*
X46080000Y-35622500I0J147500D01*
G01*
X46080000Y-35327500D01*
G75*
G02*
X46227500Y-35180000I147500J0D01*
G01*
X46572500Y-35180000D01*
G75*
G02*
X46720000Y-35327500I0J-147500D01*
G01*
X46720000Y-35622500D01*
G75*
G02*
X46572500Y-35770000I-147500J0D01*
G01*
G37*
%TD*%
%TO.C,C48*%
G36*
G01*
X60150000Y-37462500D02*
X60150000Y-37937500D01*
G75*
G02*
X59912500Y-38175000I-237500J0D01*
G01*
X59337500Y-38175000D01*
G75*
G02*
X59100000Y-37937500I0J237500D01*
G01*
X59100000Y-37462500D01*
G75*
G02*
X59337500Y-37225000I237500J0D01*
G01*
X59912500Y-37225000D01*
G75*
G02*
X60150000Y-37462500I0J-237500D01*
G01*
G37*
G36*
G01*
X61900000Y-37462500D02*
X61900000Y-37937500D01*
G75*
G02*
X61662500Y-38175000I-237500J0D01*
G01*
X61087500Y-38175000D01*
G75*
G02*
X60850000Y-37937500I0J237500D01*
G01*
X60850000Y-37462500D01*
G75*
G02*
X61087500Y-37225000I237500J0D01*
G01*
X61662500Y-37225000D01*
G75*
G02*
X61900000Y-37462500I0J-237500D01*
G01*
G37*
%TD*%
%TO.C,C47*%
G36*
G01*
X64250000Y-37937500D02*
X64250000Y-37462500D01*
G75*
G02*
X64487500Y-37225000I237500J0D01*
G01*
X65062500Y-37225000D01*
G75*
G02*
X65300000Y-37462500I0J-237500D01*
G01*
X65300000Y-37937500D01*
G75*
G02*
X65062500Y-38175000I-237500J0D01*
G01*
X64487500Y-38175000D01*
G75*
G02*
X64250000Y-37937500I0J237500D01*
G01*
G37*
G36*
G01*
X62500000Y-37937500D02*
X62500000Y-37462500D01*
G75*
G02*
X62737500Y-37225000I237500J0D01*
G01*
X63312500Y-37225000D01*
G75*
G02*
X63550000Y-37462500I0J-237500D01*
G01*
X63550000Y-37937500D01*
G75*
G02*
X63312500Y-38175000I-237500J0D01*
G01*
X62737500Y-38175000D01*
G75*
G02*
X62500000Y-37937500I0J237500D01*
G01*
G37*
%TD*%
%TO.C,C43*%
G36*
G01*
X64450000Y-47162500D02*
X64450000Y-47637500D01*
G75*
G02*
X64212500Y-47875000I-237500J0D01*
G01*
X63637500Y-47875000D01*
G75*
G02*
X63400000Y-47637500I0J237500D01*
G01*
X63400000Y-47162500D01*
G75*
G02*
X63637500Y-46925000I237500J0D01*
G01*
X64212500Y-46925000D01*
G75*
G02*
X64450000Y-47162500I0J-237500D01*
G01*
G37*
G36*
G01*
X66200000Y-47162500D02*
X66200000Y-47637500D01*
G75*
G02*
X65962500Y-47875000I-237500J0D01*
G01*
X65387500Y-47875000D01*
G75*
G02*
X65150000Y-47637500I0J237500D01*
G01*
X65150000Y-47162500D01*
G75*
G02*
X65387500Y-46925000I237500J0D01*
G01*
X65962500Y-46925000D01*
G75*
G02*
X66200000Y-47162500I0J-237500D01*
G01*
G37*
%TD*%
%TO.C,C42*%
G36*
G01*
X64450000Y-39562500D02*
X64450000Y-40037500D01*
G75*
G02*
X64212500Y-40275000I-237500J0D01*
G01*
X63637500Y-40275000D01*
G75*
G02*
X63400000Y-40037500I0J237500D01*
G01*
X63400000Y-39562500D01*
G75*
G02*
X63637500Y-39325000I237500J0D01*
G01*
X64212500Y-39325000D01*
G75*
G02*
X64450000Y-39562500I0J-237500D01*
G01*
G37*
G36*
G01*
X66200000Y-39562500D02*
X66200000Y-40037500D01*
G75*
G02*
X65962500Y-40275000I-237500J0D01*
G01*
X65387500Y-40275000D01*
G75*
G02*
X65150000Y-40037500I0J237500D01*
G01*
X65150000Y-39562500D01*
G75*
G02*
X65387500Y-39325000I237500J0D01*
G01*
X65962500Y-39325000D01*
G75*
G02*
X66200000Y-39562500I0J-237500D01*
G01*
G37*
%TD*%
%TO.C,C37*%
G36*
G01*
X81622500Y-45510000D02*
X82097500Y-45510000D01*
G75*
G02*
X82335000Y-45747500I0J-237500D01*
G01*
X82335000Y-46322500D01*
G75*
G02*
X82097500Y-46560000I-237500J0D01*
G01*
X81622500Y-46560000D01*
G75*
G02*
X81385000Y-46322500I0J237500D01*
G01*
X81385000Y-45747500D01*
G75*
G02*
X81622500Y-45510000I237500J0D01*
G01*
G37*
G36*
G01*
X81622500Y-43760000D02*
X82097500Y-43760000D01*
G75*
G02*
X82335000Y-43997500I0J-237500D01*
G01*
X82335000Y-44572500D01*
G75*
G02*
X82097500Y-44810000I-237500J0D01*
G01*
X81622500Y-44810000D01*
G75*
G02*
X81385000Y-44572500I0J237500D01*
G01*
X81385000Y-43997500D01*
G75*
G02*
X81622500Y-43760000I237500J0D01*
G01*
G37*
%TD*%
%TO.C,C28*%
G36*
G01*
X78287500Y-46000000D02*
X78762500Y-46000000D01*
G75*
G02*
X79000000Y-46237500I0J-237500D01*
G01*
X79000000Y-46812500D01*
G75*
G02*
X78762500Y-47050000I-237500J0D01*
G01*
X78287500Y-47050000D01*
G75*
G02*
X78050000Y-46812500I0J237500D01*
G01*
X78050000Y-46237500D01*
G75*
G02*
X78287500Y-46000000I237500J0D01*
G01*
G37*
G36*
G01*
X78287500Y-44250000D02*
X78762500Y-44250000D01*
G75*
G02*
X79000000Y-44487500I0J-237500D01*
G01*
X79000000Y-45062500D01*
G75*
G02*
X78762500Y-45300000I-237500J0D01*
G01*
X78287500Y-45300000D01*
G75*
G02*
X78050000Y-45062500I0J237500D01*
G01*
X78050000Y-44487500D01*
G75*
G02*
X78287500Y-44250000I237500J0D01*
G01*
G37*
%TD*%
%TO.C,C25*%
G36*
G01*
X78637500Y-34650000D02*
X78162500Y-34650000D01*
G75*
G02*
X77925000Y-34412500I0J237500D01*
G01*
X77925000Y-33837500D01*
G75*
G02*
X78162500Y-33600000I237500J0D01*
G01*
X78637500Y-33600000D01*
G75*
G02*
X78875000Y-33837500I0J-237500D01*
G01*
X78875000Y-34412500D01*
G75*
G02*
X78637500Y-34650000I-237500J0D01*
G01*
G37*
G36*
G01*
X78637500Y-36400000D02*
X78162500Y-36400000D01*
G75*
G02*
X77925000Y-36162500I0J237500D01*
G01*
X77925000Y-35587500D01*
G75*
G02*
X78162500Y-35350000I237500J0D01*
G01*
X78637500Y-35350000D01*
G75*
G02*
X78875000Y-35587500I0J-237500D01*
G01*
X78875000Y-36162500D01*
G75*
G02*
X78637500Y-36400000I-237500J0D01*
G01*
G37*
%TD*%
%TO.C,C17*%
G36*
G01*
X85937500Y-34650000D02*
X85462500Y-34650000D01*
G75*
G02*
X85225000Y-34412500I0J237500D01*
G01*
X85225000Y-33837500D01*
G75*
G02*
X85462500Y-33600000I237500J0D01*
G01*
X85937500Y-33600000D01*
G75*
G02*
X86175000Y-33837500I0J-237500D01*
G01*
X86175000Y-34412500D01*
G75*
G02*
X85937500Y-34650000I-237500J0D01*
G01*
G37*
G36*
G01*
X85937500Y-36400000D02*
X85462500Y-36400000D01*
G75*
G02*
X85225000Y-36162500I0J237500D01*
G01*
X85225000Y-35587500D01*
G75*
G02*
X85462500Y-35350000I237500J0D01*
G01*
X85937500Y-35350000D01*
G75*
G02*
X86175000Y-35587500I0J-237500D01*
G01*
X86175000Y-36162500D01*
G75*
G02*
X85937500Y-36400000I-237500J0D01*
G01*
G37*
%TD*%
%TO.C,C14*%
G36*
G01*
X82737500Y-34650000D02*
X82262500Y-34650000D01*
G75*
G02*
X82025000Y-34412500I0J237500D01*
G01*
X82025000Y-33837500D01*
G75*
G02*
X82262500Y-33600000I237500J0D01*
G01*
X82737500Y-33600000D01*
G75*
G02*
X82975000Y-33837500I0J-237500D01*
G01*
X82975000Y-34412500D01*
G75*
G02*
X82737500Y-34650000I-237500J0D01*
G01*
G37*
G36*
G01*
X82737500Y-36400000D02*
X82262500Y-36400000D01*
G75*
G02*
X82025000Y-36162500I0J237500D01*
G01*
X82025000Y-35587500D01*
G75*
G02*
X82262500Y-35350000I237500J0D01*
G01*
X82737500Y-35350000D01*
G75*
G02*
X82975000Y-35587500I0J-237500D01*
G01*
X82975000Y-36162500D01*
G75*
G02*
X82737500Y-36400000I-237500J0D01*
G01*
G37*
%TD*%
%TO.C,C2*%
G36*
G01*
X45671999Y-86752000D02*
X46572001Y-86752000D01*
G75*
G02*
X46822000Y-87001999I0J-249999D01*
G01*
X46822000Y-87652001D01*
G75*
G02*
X46572001Y-87902000I-249999J0D01*
G01*
X45671999Y-87902000D01*
G75*
G02*
X45422000Y-87652001I0J249999D01*
G01*
X45422000Y-87001999D01*
G75*
G02*
X45671999Y-86752000I249999J0D01*
G01*
G37*
G36*
G01*
X45671999Y-88802000D02*
X46572001Y-88802000D01*
G75*
G02*
X46822000Y-89051999I0J-249999D01*
G01*
X46822000Y-89702001D01*
G75*
G02*
X46572001Y-89952000I-249999J0D01*
G01*
X45671999Y-89952000D01*
G75*
G02*
X45422000Y-89702001I0J249999D01*
G01*
X45422000Y-89051999D01*
G75*
G02*
X45671999Y-88802000I249999J0D01*
G01*
G37*
%TD*%
%TO.C,C4*%
G36*
G01*
X45721999Y-80652000D02*
X46622001Y-80652000D01*
G75*
G02*
X46872000Y-80901999I0J-249999D01*
G01*
X46872000Y-81552001D01*
G75*
G02*
X46622001Y-81802000I-249999J0D01*
G01*
X45721999Y-81802000D01*
G75*
G02*
X45472000Y-81552001I0J249999D01*
G01*
X45472000Y-80901999D01*
G75*
G02*
X45721999Y-80652000I249999J0D01*
G01*
G37*
G36*
G01*
X45721999Y-82702000D02*
X46622001Y-82702000D01*
G75*
G02*
X46872000Y-82951999I0J-249999D01*
G01*
X46872000Y-83602001D01*
G75*
G02*
X46622001Y-83852000I-249999J0D01*
G01*
X45721999Y-83852000D01*
G75*
G02*
X45472000Y-83602001I0J249999D01*
G01*
X45472000Y-82951999D01*
G75*
G02*
X45721999Y-82702000I249999J0D01*
G01*
G37*
%TD*%
%TO.C,C5*%
G36*
G01*
X43505000Y-35147500D02*
X43505000Y-34802500D01*
G75*
G02*
X43652500Y-34655000I147500J0D01*
G01*
X43947500Y-34655000D01*
G75*
G02*
X44095000Y-34802500I0J-147500D01*
G01*
X44095000Y-35147500D01*
G75*
G02*
X43947500Y-35295000I-147500J0D01*
G01*
X43652500Y-35295000D01*
G75*
G02*
X43505000Y-35147500I0J147500D01*
G01*
G37*
G36*
G01*
X44475000Y-35147500D02*
X44475000Y-34802500D01*
G75*
G02*
X44622500Y-34655000I147500J0D01*
G01*
X44917500Y-34655000D01*
G75*
G02*
X45065000Y-34802500I0J-147500D01*
G01*
X45065000Y-35147500D01*
G75*
G02*
X44917500Y-35295000I-147500J0D01*
G01*
X44622500Y-35295000D01*
G75*
G02*
X44475000Y-35147500I0J147500D01*
G01*
G37*
%TD*%
%TO.C,C8*%
G36*
G01*
X53029568Y-42126481D02*
X53273519Y-42370433D01*
G75*
G02*
X53273519Y-42579029I-104298J-104298D01*
G01*
X53064923Y-42787625D01*
G75*
G02*
X52856327Y-42787625I-104298J104298D01*
G01*
X52612375Y-42543673D01*
G75*
G02*
X52612375Y-42335077I104298J104298D01*
G01*
X52820971Y-42126481D01*
G75*
G02*
X53029567Y-42126481I104298J-104298D01*
G01*
G37*
G36*
G01*
X52343674Y-42812375D02*
X52587625Y-43056327D01*
G75*
G02*
X52587625Y-43264923I-104298J-104298D01*
G01*
X52379029Y-43473519D01*
G75*
G02*
X52170433Y-43473519I-104298J104298D01*
G01*
X51926481Y-43229567D01*
G75*
G02*
X51926481Y-43020971I104298J104298D01*
G01*
X52135077Y-42812375D01*
G75*
G02*
X52343673Y-42812375I104298J-104298D01*
G01*
G37*
%TD*%
%TO.C,C10*%
G36*
G01*
X47550001Y-47550000D02*
X46649999Y-47550000D01*
G75*
G02*
X46400000Y-47300001I0J249999D01*
G01*
X46400000Y-46649999D01*
G75*
G02*
X46649999Y-46400000I249999J0D01*
G01*
X47550001Y-46400000D01*
G75*
G02*
X47800000Y-46649999I0J-249999D01*
G01*
X47800000Y-47300001D01*
G75*
G02*
X47550001Y-47550000I-249999J0D01*
G01*
G37*
G36*
G01*
X47550001Y-49600000D02*
X46649999Y-49600000D01*
G75*
G02*
X46400000Y-49350001I0J249999D01*
G01*
X46400000Y-48699999D01*
G75*
G02*
X46649999Y-48450000I249999J0D01*
G01*
X47550001Y-48450000D01*
G75*
G02*
X47800000Y-48699999I0J-249999D01*
G01*
X47800000Y-49350001D01*
G75*
G02*
X47550001Y-49600000I-249999J0D01*
G01*
G37*
%TD*%
%TO.C,C11*%
G36*
G01*
X43000000Y-45737500D02*
X43000000Y-45262500D01*
G75*
G02*
X43237500Y-45025000I237500J0D01*
G01*
X43812500Y-45025000D01*
G75*
G02*
X44050000Y-45262500I0J-237500D01*
G01*
X44050000Y-45737500D01*
G75*
G02*
X43812500Y-45975000I-237500J0D01*
G01*
X43237500Y-45975000D01*
G75*
G02*
X43000000Y-45737500I0J237500D01*
G01*
G37*
G36*
G01*
X44750000Y-45737500D02*
X44750000Y-45262500D01*
G75*
G02*
X44987500Y-45025000I237500J0D01*
G01*
X45562500Y-45025000D01*
G75*
G02*
X45800000Y-45262500I0J-237500D01*
G01*
X45800000Y-45737500D01*
G75*
G02*
X45562500Y-45975000I-237500J0D01*
G01*
X44987500Y-45975000D01*
G75*
G02*
X44750000Y-45737500I0J237500D01*
G01*
G37*
%TD*%
%TO.C,C18*%
G36*
G01*
X84337500Y-36400000D02*
X83862500Y-36400000D01*
G75*
G02*
X83625000Y-36162500I0J237500D01*
G01*
X83625000Y-35587500D01*
G75*
G02*
X83862500Y-35350000I237500J0D01*
G01*
X84337500Y-35350000D01*
G75*
G02*
X84575000Y-35587500I0J-237500D01*
G01*
X84575000Y-36162500D01*
G75*
G02*
X84337500Y-36400000I-237500J0D01*
G01*
G37*
G36*
G01*
X84337500Y-34650000D02*
X83862500Y-34650000D01*
G75*
G02*
X83625000Y-34412500I0J237500D01*
G01*
X83625000Y-33837500D01*
G75*
G02*
X83862500Y-33600000I237500J0D01*
G01*
X84337500Y-33600000D01*
G75*
G02*
X84575000Y-33837500I0J-237500D01*
G01*
X84575000Y-34412500D01*
G75*
G02*
X84337500Y-34650000I-237500J0D01*
G01*
G37*
%TD*%
%TO.C,C26*%
G36*
G01*
X84500000Y-38337500D02*
X84500000Y-37862500D01*
G75*
G02*
X84737500Y-37625000I237500J0D01*
G01*
X85312500Y-37625000D01*
G75*
G02*
X85550000Y-37862500I0J-237500D01*
G01*
X85550000Y-38337500D01*
G75*
G02*
X85312500Y-38575000I-237500J0D01*
G01*
X84737500Y-38575000D01*
G75*
G02*
X84500000Y-38337500I0J237500D01*
G01*
G37*
G36*
G01*
X86250000Y-38337500D02*
X86250000Y-37862500D01*
G75*
G02*
X86487500Y-37625000I237500J0D01*
G01*
X87062500Y-37625000D01*
G75*
G02*
X87300000Y-37862500I0J-237500D01*
G01*
X87300000Y-38337500D01*
G75*
G02*
X87062500Y-38575000I-237500J0D01*
G01*
X86487500Y-38575000D01*
G75*
G02*
X86250000Y-38337500I0J237500D01*
G01*
G37*
%TD*%
%TO.C,C27*%
G36*
G01*
X77037500Y-36400000D02*
X76562500Y-36400000D01*
G75*
G02*
X76325000Y-36162500I0J237500D01*
G01*
X76325000Y-35587500D01*
G75*
G02*
X76562500Y-35350000I237500J0D01*
G01*
X77037500Y-35350000D01*
G75*
G02*
X77275000Y-35587500I0J-237500D01*
G01*
X77275000Y-36162500D01*
G75*
G02*
X77037500Y-36400000I-237500J0D01*
G01*
G37*
G36*
G01*
X77037500Y-34650000D02*
X76562500Y-34650000D01*
G75*
G02*
X76325000Y-34412500I0J237500D01*
G01*
X76325000Y-33837500D01*
G75*
G02*
X76562500Y-33600000I237500J0D01*
G01*
X77037500Y-33600000D01*
G75*
G02*
X77275000Y-33837500I0J-237500D01*
G01*
X77275000Y-34412500D01*
G75*
G02*
X77037500Y-34650000I-237500J0D01*
G01*
G37*
%TD*%
%TO.C,C31*%
G36*
G01*
X79937500Y-46475000D02*
X80412500Y-46475000D01*
G75*
G02*
X80650000Y-46712500I0J-237500D01*
G01*
X80650000Y-47287500D01*
G75*
G02*
X80412500Y-47525000I-237500J0D01*
G01*
X79937500Y-47525000D01*
G75*
G02*
X79700000Y-47287500I0J237500D01*
G01*
X79700000Y-46712500D01*
G75*
G02*
X79937500Y-46475000I237500J0D01*
G01*
G37*
G36*
G01*
X79937500Y-44725000D02*
X80412500Y-44725000D01*
G75*
G02*
X80650000Y-44962500I0J-237500D01*
G01*
X80650000Y-45537500D01*
G75*
G02*
X80412500Y-45775000I-237500J0D01*
G01*
X79937500Y-45775000D01*
G75*
G02*
X79700000Y-45537500I0J237500D01*
G01*
X79700000Y-44962500D01*
G75*
G02*
X79937500Y-44725000I237500J0D01*
G01*
G37*
%TD*%
%TO.C,C35*%
G36*
G01*
X83322500Y-45500000D02*
X83797500Y-45500000D01*
G75*
G02*
X84035000Y-45737500I0J-237500D01*
G01*
X84035000Y-46312500D01*
G75*
G02*
X83797500Y-46550000I-237500J0D01*
G01*
X83322500Y-46550000D01*
G75*
G02*
X83085000Y-46312500I0J237500D01*
G01*
X83085000Y-45737500D01*
G75*
G02*
X83322500Y-45500000I237500J0D01*
G01*
G37*
G36*
G01*
X83322500Y-43750000D02*
X83797500Y-43750000D01*
G75*
G02*
X84035000Y-43987500I0J-237500D01*
G01*
X84035000Y-44562500D01*
G75*
G02*
X83797500Y-44800000I-237500J0D01*
G01*
X83322500Y-44800000D01*
G75*
G02*
X83085000Y-44562500I0J237500D01*
G01*
X83085000Y-43987500D01*
G75*
G02*
X83322500Y-43750000I237500J0D01*
G01*
G37*
%TD*%
%TO.C,C36*%
G36*
G01*
X100749999Y-35300000D02*
X101650001Y-35300000D01*
G75*
G02*
X101900000Y-35549999I0J-249999D01*
G01*
X101900000Y-36200001D01*
G75*
G02*
X101650001Y-36450000I-249999J0D01*
G01*
X100749999Y-36450000D01*
G75*
G02*
X100500000Y-36200001I0J249999D01*
G01*
X100500000Y-35549999D01*
G75*
G02*
X100749999Y-35300000I249999J0D01*
G01*
G37*
G36*
G01*
X100749999Y-37350000D02*
X101650001Y-37350000D01*
G75*
G02*
X101900000Y-37599999I0J-249999D01*
G01*
X101900000Y-38250001D01*
G75*
G02*
X101650001Y-38500000I-249999J0D01*
G01*
X100749999Y-38500000D01*
G75*
G02*
X100500000Y-38250001I0J249999D01*
G01*
X100500000Y-37599999D01*
G75*
G02*
X100749999Y-37350000I249999J0D01*
G01*
G37*
%TD*%
%TO.C,C38*%
G36*
G01*
X75750000Y-40562500D02*
X75750000Y-41037500D01*
G75*
G02*
X75512500Y-41275000I-237500J0D01*
G01*
X74937500Y-41275000D01*
G75*
G02*
X74700000Y-41037500I0J237500D01*
G01*
X74700000Y-40562500D01*
G75*
G02*
X74937500Y-40325000I237500J0D01*
G01*
X75512500Y-40325000D01*
G75*
G02*
X75750000Y-40562500I0J-237500D01*
G01*
G37*
G36*
G01*
X77500000Y-40562500D02*
X77500000Y-41037500D01*
G75*
G02*
X77262500Y-41275000I-237500J0D01*
G01*
X76687500Y-41275000D01*
G75*
G02*
X76450000Y-41037500I0J237500D01*
G01*
X76450000Y-40562500D01*
G75*
G02*
X76687500Y-40325000I237500J0D01*
G01*
X77262500Y-40325000D01*
G75*
G02*
X77500000Y-40562500I0J-237500D01*
G01*
G37*
%TD*%
%TO.C,C39*%
G36*
G01*
X105850001Y-38500000D02*
X104949999Y-38500000D01*
G75*
G02*
X104700000Y-38250001I0J249999D01*
G01*
X104700000Y-37599999D01*
G75*
G02*
X104949999Y-37350000I249999J0D01*
G01*
X105850001Y-37350000D01*
G75*
G02*
X106100000Y-37599999I0J-249999D01*
G01*
X106100000Y-38250001D01*
G75*
G02*
X105850001Y-38500000I-249999J0D01*
G01*
G37*
G36*
G01*
X105850001Y-36450000D02*
X104949999Y-36450000D01*
G75*
G02*
X104700000Y-36200001I0J249999D01*
G01*
X104700000Y-35549999D01*
G75*
G02*
X104949999Y-35300000I249999J0D01*
G01*
X105850001Y-35300000D01*
G75*
G02*
X106100000Y-35549999I0J-249999D01*
G01*
X106100000Y-36200001D01*
G75*
G02*
X105850001Y-36450000I-249999J0D01*
G01*
G37*
%TD*%
%TO.C,C40*%
G36*
G01*
X108325000Y-36225000D02*
X107075000Y-36225000D01*
G75*
G02*
X106825000Y-35975000I0J250000D01*
G01*
X106825000Y-35050000D01*
G75*
G02*
X107075000Y-34800000I250000J0D01*
G01*
X108325000Y-34800000D01*
G75*
G02*
X108575000Y-35050000I0J-250000D01*
G01*
X108575000Y-35975000D01*
G75*
G02*
X108325000Y-36225000I-250000J0D01*
G01*
G37*
G36*
G01*
X108325000Y-39200000D02*
X107075000Y-39200000D01*
G75*
G02*
X106825000Y-38950000I0J250000D01*
G01*
X106825000Y-38025000D01*
G75*
G02*
X107075000Y-37775000I250000J0D01*
G01*
X108325000Y-37775000D01*
G75*
G02*
X108575000Y-38025000I0J-250000D01*
G01*
X108575000Y-38950000D01*
G75*
G02*
X108325000Y-39200000I-250000J0D01*
G01*
G37*
%TD*%
%TO.C,C41*%
G36*
G01*
X109375000Y-41100000D02*
X110625000Y-41100000D01*
G75*
G02*
X110875000Y-41350000I0J-250000D01*
G01*
X110875000Y-42275000D01*
G75*
G02*
X110625000Y-42525000I-250000J0D01*
G01*
X109375000Y-42525000D01*
G75*
G02*
X109125000Y-42275000I0J250000D01*
G01*
X109125000Y-41350000D01*
G75*
G02*
X109375000Y-41100000I250000J0D01*
G01*
G37*
G36*
G01*
X109375000Y-44075000D02*
X110625000Y-44075000D01*
G75*
G02*
X110875000Y-44325000I0J-250000D01*
G01*
X110875000Y-45250000D01*
G75*
G02*
X110625000Y-45500000I-250000J0D01*
G01*
X109375000Y-45500000D01*
G75*
G02*
X109125000Y-45250000I0J250000D01*
G01*
X109125000Y-44325000D01*
G75*
G02*
X109375000Y-44075000I250000J0D01*
G01*
G37*
%TD*%
%TO.C,C44*%
G36*
G01*
X107249999Y-41100000D02*
X108150001Y-41100000D01*
G75*
G02*
X108400000Y-41349999I0J-249999D01*
G01*
X108400000Y-42000001D01*
G75*
G02*
X108150001Y-42250000I-249999J0D01*
G01*
X107249999Y-42250000D01*
G75*
G02*
X107000000Y-42000001I0J249999D01*
G01*
X107000000Y-41349999D01*
G75*
G02*
X107249999Y-41100000I249999J0D01*
G01*
G37*
G36*
G01*
X107249999Y-43150000D02*
X108150001Y-43150000D01*
G75*
G02*
X108400000Y-43399999I0J-249999D01*
G01*
X108400000Y-44050001D01*
G75*
G02*
X108150001Y-44300000I-249999J0D01*
G01*
X107249999Y-44300000D01*
G75*
G02*
X107000000Y-44050001I0J249999D01*
G01*
X107000000Y-43399999D01*
G75*
G02*
X107249999Y-43150000I249999J0D01*
G01*
G37*
%TD*%
%TO.C,C45*%
G36*
G01*
X66200000Y-41262500D02*
X66200000Y-41737500D01*
G75*
G02*
X65962500Y-41975000I-237500J0D01*
G01*
X65387500Y-41975000D01*
G75*
G02*
X65150000Y-41737500I0J237500D01*
G01*
X65150000Y-41262500D01*
G75*
G02*
X65387500Y-41025000I237500J0D01*
G01*
X65962500Y-41025000D01*
G75*
G02*
X66200000Y-41262500I0J-237500D01*
G01*
G37*
G36*
G01*
X64450000Y-41262500D02*
X64450000Y-41737500D01*
G75*
G02*
X64212500Y-41975000I-237500J0D01*
G01*
X63637500Y-41975000D01*
G75*
G02*
X63400000Y-41737500I0J237500D01*
G01*
X63400000Y-41262500D01*
G75*
G02*
X63637500Y-41025000I237500J0D01*
G01*
X64212500Y-41025000D01*
G75*
G02*
X64450000Y-41262500I0J-237500D01*
G01*
G37*
%TD*%
%TO.C,C46*%
G36*
G01*
X64450000Y-45462500D02*
X64450000Y-45937500D01*
G75*
G02*
X64212500Y-46175000I-237500J0D01*
G01*
X63637500Y-46175000D01*
G75*
G02*
X63400000Y-45937500I0J237500D01*
G01*
X63400000Y-45462500D01*
G75*
G02*
X63637500Y-45225000I237500J0D01*
G01*
X64212500Y-45225000D01*
G75*
G02*
X64450000Y-45462500I0J-237500D01*
G01*
G37*
G36*
G01*
X66200000Y-45462500D02*
X66200000Y-45937500D01*
G75*
G02*
X65962500Y-46175000I-237500J0D01*
G01*
X65387500Y-46175000D01*
G75*
G02*
X65150000Y-45937500I0J237500D01*
G01*
X65150000Y-45462500D01*
G75*
G02*
X65387500Y-45225000I237500J0D01*
G01*
X65962500Y-45225000D01*
G75*
G02*
X66200000Y-45462500I0J-237500D01*
G01*
G37*
%TD*%
%TO.C,C59*%
G36*
G01*
X102175000Y-62775000D02*
X102175000Y-64025000D01*
G75*
G02*
X101925000Y-64275000I-250000J0D01*
G01*
X101000000Y-64275000D01*
G75*
G02*
X100750000Y-64025000I0J250000D01*
G01*
X100750000Y-62775000D01*
G75*
G02*
X101000000Y-62525000I250000J0D01*
G01*
X101925000Y-62525000D01*
G75*
G02*
X102175000Y-62775000I0J-250000D01*
G01*
G37*
G36*
G01*
X105150000Y-62775000D02*
X105150000Y-64025000D01*
G75*
G02*
X104900000Y-64275000I-250000J0D01*
G01*
X103975000Y-64275000D01*
G75*
G02*
X103725000Y-64025000I0J250000D01*
G01*
X103725000Y-62775000D01*
G75*
G02*
X103975000Y-62525000I250000J0D01*
G01*
X104900000Y-62525000D01*
G75*
G02*
X105150000Y-62775000I0J-250000D01*
G01*
G37*
%TD*%
%TO.C,C60*%
G36*
G01*
X104700000Y-60599999D02*
X104700000Y-61500001D01*
G75*
G02*
X104450001Y-61750000I-249999J0D01*
G01*
X103799999Y-61750000D01*
G75*
G02*
X103550000Y-61500001I0J249999D01*
G01*
X103550000Y-60599999D01*
G75*
G02*
X103799999Y-60350000I249999J0D01*
G01*
X104450001Y-60350000D01*
G75*
G02*
X104700000Y-60599999I0J-249999D01*
G01*
G37*
G36*
G01*
X102650000Y-60599999D02*
X102650000Y-61500001D01*
G75*
G02*
X102400001Y-61750000I-249999J0D01*
G01*
X101749999Y-61750000D01*
G75*
G02*
X101500000Y-61500001I0J249999D01*
G01*
X101500000Y-60599999D01*
G75*
G02*
X101749999Y-60350000I249999J0D01*
G01*
X102400001Y-60350000D01*
G75*
G02*
X102650000Y-60599999I0J-249999D01*
G01*
G37*
%TD*%
%TO.C,C61*%
G36*
G01*
X108875000Y-64025000D02*
X108875000Y-62775000D01*
G75*
G02*
X109125000Y-62525000I250000J0D01*
G01*
X110050000Y-62525000D01*
G75*
G02*
X110300000Y-62775000I0J-250000D01*
G01*
X110300000Y-64025000D01*
G75*
G02*
X110050000Y-64275000I-250000J0D01*
G01*
X109125000Y-64275000D01*
G75*
G02*
X108875000Y-64025000I0J250000D01*
G01*
G37*
G36*
G01*
X105900000Y-64025000D02*
X105900000Y-62775000D01*
G75*
G02*
X106150000Y-62525000I250000J0D01*
G01*
X107075000Y-62525000D01*
G75*
G02*
X107325000Y-62775000I0J-250000D01*
G01*
X107325000Y-64025000D01*
G75*
G02*
X107075000Y-64275000I-250000J0D01*
G01*
X106150000Y-64275000D01*
G75*
G02*
X105900000Y-64025000I0J250000D01*
G01*
G37*
%TD*%
%TO.C,C62*%
G36*
G01*
X108700000Y-61450001D02*
X108700000Y-60549999D01*
G75*
G02*
X108949999Y-60300000I249999J0D01*
G01*
X109600001Y-60300000D01*
G75*
G02*
X109850000Y-60549999I0J-249999D01*
G01*
X109850000Y-61450001D01*
G75*
G02*
X109600001Y-61700000I-249999J0D01*
G01*
X108949999Y-61700000D01*
G75*
G02*
X108700000Y-61450001I0J249999D01*
G01*
G37*
G36*
G01*
X106650000Y-61450001D02*
X106650000Y-60549999D01*
G75*
G02*
X106899999Y-60300000I249999J0D01*
G01*
X107550001Y-60300000D01*
G75*
G02*
X107800000Y-60549999I0J-249999D01*
G01*
X107800000Y-61450001D01*
G75*
G02*
X107550001Y-61700000I-249999J0D01*
G01*
X106899999Y-61700000D01*
G75*
G02*
X106650000Y-61450001I0J249999D01*
G01*
G37*
%TD*%
%TO.C,C73*%
G36*
G01*
X79765000Y-119508000D02*
X78515000Y-119508000D01*
G75*
G02*
X78265000Y-119258000I0J250000D01*
G01*
X78265000Y-118333000D01*
G75*
G02*
X78515000Y-118083000I250000J0D01*
G01*
X79765000Y-118083000D01*
G75*
G02*
X80015000Y-118333000I0J-250000D01*
G01*
X80015000Y-119258000D01*
G75*
G02*
X79765000Y-119508000I-250000J0D01*
G01*
G37*
G36*
G01*
X79765000Y-116533000D02*
X78515000Y-116533000D01*
G75*
G02*
X78265000Y-116283000I0J250000D01*
G01*
X78265000Y-115358000D01*
G75*
G02*
X78515000Y-115108000I250000J0D01*
G01*
X79765000Y-115108000D01*
G75*
G02*
X80015000Y-115358000I0J-250000D01*
G01*
X80015000Y-116283000D01*
G75*
G02*
X79765000Y-116533000I-250000J0D01*
G01*
G37*
%TD*%
%TO.C,C74*%
G36*
G01*
X77190001Y-117458000D02*
X76289999Y-117458000D01*
G75*
G02*
X76040000Y-117208001I0J249999D01*
G01*
X76040000Y-116557999D01*
G75*
G02*
X76289999Y-116308000I249999J0D01*
G01*
X77190001Y-116308000D01*
G75*
G02*
X77440000Y-116557999I0J-249999D01*
G01*
X77440000Y-117208001D01*
G75*
G02*
X77190001Y-117458000I-249999J0D01*
G01*
G37*
G36*
G01*
X77190001Y-119508000D02*
X76289999Y-119508000D01*
G75*
G02*
X76040000Y-119258001I0J249999D01*
G01*
X76040000Y-118607999D01*
G75*
G02*
X76289999Y-118358000I249999J0D01*
G01*
X77190001Y-118358000D01*
G75*
G02*
X77440000Y-118607999I0J-249999D01*
G01*
X77440000Y-119258001D01*
G75*
G02*
X77190001Y-119508000I-249999J0D01*
G01*
G37*
%TD*%
%TO.C,C79*%
G36*
G01*
X60622500Y-33775000D02*
X61097500Y-33775000D01*
G75*
G02*
X61335000Y-34012500I0J-237500D01*
G01*
X61335000Y-34587500D01*
G75*
G02*
X61097500Y-34825000I-237500J0D01*
G01*
X60622500Y-34825000D01*
G75*
G02*
X60385000Y-34587500I0J237500D01*
G01*
X60385000Y-34012500D01*
G75*
G02*
X60622500Y-33775000I237500J0D01*
G01*
G37*
G36*
G01*
X60622500Y-35525000D02*
X61097500Y-35525000D01*
G75*
G02*
X61335000Y-35762500I0J-237500D01*
G01*
X61335000Y-36337500D01*
G75*
G02*
X61097500Y-36575000I-237500J0D01*
G01*
X60622500Y-36575000D01*
G75*
G02*
X60385000Y-36337500I0J237500D01*
G01*
X60385000Y-35762500D01*
G75*
G02*
X60622500Y-35525000I237500J0D01*
G01*
G37*
%TD*%
%TO.C,C81*%
G36*
G01*
X59062500Y-35550000D02*
X59537500Y-35550000D01*
G75*
G02*
X59775000Y-35787500I0J-237500D01*
G01*
X59775000Y-36362500D01*
G75*
G02*
X59537500Y-36600000I-237500J0D01*
G01*
X59062500Y-36600000D01*
G75*
G02*
X58825000Y-36362500I0J237500D01*
G01*
X58825000Y-35787500D01*
G75*
G02*
X59062500Y-35550000I237500J0D01*
G01*
G37*
G36*
G01*
X59062500Y-33800000D02*
X59537500Y-33800000D01*
G75*
G02*
X59775000Y-34037500I0J-237500D01*
G01*
X59775000Y-34612500D01*
G75*
G02*
X59537500Y-34850000I-237500J0D01*
G01*
X59062500Y-34850000D01*
G75*
G02*
X58825000Y-34612500I0J237500D01*
G01*
X58825000Y-34037500D01*
G75*
G02*
X59062500Y-33800000I237500J0D01*
G01*
G37*
%TD*%
%TO.C,C82*%
G36*
G01*
X63087500Y-26450000D02*
X62612500Y-26450000D01*
G75*
G02*
X62375000Y-26212500I0J237500D01*
G01*
X62375000Y-25637500D01*
G75*
G02*
X62612500Y-25400000I237500J0D01*
G01*
X63087500Y-25400000D01*
G75*
G02*
X63325000Y-25637500I0J-237500D01*
G01*
X63325000Y-26212500D01*
G75*
G02*
X63087500Y-26450000I-237500J0D01*
G01*
G37*
G36*
G01*
X63087500Y-28200000D02*
X62612500Y-28200000D01*
G75*
G02*
X62375000Y-27962500I0J237500D01*
G01*
X62375000Y-27387500D01*
G75*
G02*
X62612500Y-27150000I237500J0D01*
G01*
X63087500Y-27150000D01*
G75*
G02*
X63325000Y-27387500I0J-237500D01*
G01*
X63325000Y-27962500D01*
G75*
G02*
X63087500Y-28200000I-237500J0D01*
G01*
G37*
%TD*%
%TO.C,C83*%
G36*
G01*
X62162500Y-35520000D02*
X62637500Y-35520000D01*
G75*
G02*
X62875000Y-35757500I0J-237500D01*
G01*
X62875000Y-36332500D01*
G75*
G02*
X62637500Y-36570000I-237500J0D01*
G01*
X62162500Y-36570000D01*
G75*
G02*
X61925000Y-36332500I0J237500D01*
G01*
X61925000Y-35757500D01*
G75*
G02*
X62162500Y-35520000I237500J0D01*
G01*
G37*
G36*
G01*
X62162500Y-33770000D02*
X62637500Y-33770000D01*
G75*
G02*
X62875000Y-34007500I0J-237500D01*
G01*
X62875000Y-34582500D01*
G75*
G02*
X62637500Y-34820000I-237500J0D01*
G01*
X62162500Y-34820000D01*
G75*
G02*
X61925000Y-34582500I0J237500D01*
G01*
X61925000Y-34007500D01*
G75*
G02*
X62162500Y-33770000I237500J0D01*
G01*
G37*
%TD*%
%TO.C,C84*%
G36*
G01*
X63762500Y-33800000D02*
X64237500Y-33800000D01*
G75*
G02*
X64475000Y-34037500I0J-237500D01*
G01*
X64475000Y-34612500D01*
G75*
G02*
X64237500Y-34850000I-237500J0D01*
G01*
X63762500Y-34850000D01*
G75*
G02*
X63525000Y-34612500I0J237500D01*
G01*
X63525000Y-34037500D01*
G75*
G02*
X63762500Y-33800000I237500J0D01*
G01*
G37*
G36*
G01*
X63762500Y-35550000D02*
X64237500Y-35550000D01*
G75*
G02*
X64475000Y-35787500I0J-237500D01*
G01*
X64475000Y-36362500D01*
G75*
G02*
X64237500Y-36600000I-237500J0D01*
G01*
X63762500Y-36600000D01*
G75*
G02*
X63525000Y-36362500I0J237500D01*
G01*
X63525000Y-35787500D01*
G75*
G02*
X63762500Y-35550000I237500J0D01*
G01*
G37*
%TD*%
%TO.C,C85*%
G36*
G01*
X57425000Y-25225000D02*
X56175000Y-25225000D01*
G75*
G02*
X55925000Y-24975000I0J250000D01*
G01*
X55925000Y-24050000D01*
G75*
G02*
X56175000Y-23800000I250000J0D01*
G01*
X57425000Y-23800000D01*
G75*
G02*
X57675000Y-24050000I0J-250000D01*
G01*
X57675000Y-24975000D01*
G75*
G02*
X57425000Y-25225000I-250000J0D01*
G01*
G37*
G36*
G01*
X57425000Y-28200000D02*
X56175000Y-28200000D01*
G75*
G02*
X55925000Y-27950000I0J250000D01*
G01*
X55925000Y-27025000D01*
G75*
G02*
X56175000Y-26775000I250000J0D01*
G01*
X57425000Y-26775000D01*
G75*
G02*
X57675000Y-27025000I0J-250000D01*
G01*
X57675000Y-27950000D01*
G75*
G02*
X57425000Y-28200000I-250000J0D01*
G01*
G37*
%TD*%
%TO.C,C86*%
G36*
G01*
X55325000Y-24249999D02*
X55325000Y-25150001D01*
G75*
G02*
X55075001Y-25400000I-249999J0D01*
G01*
X54424999Y-25400000D01*
G75*
G02*
X54175000Y-25150001I0J249999D01*
G01*
X54175000Y-24249999D01*
G75*
G02*
X54424999Y-24000000I249999J0D01*
G01*
X55075001Y-24000000D01*
G75*
G02*
X55325000Y-24249999I0J-249999D01*
G01*
G37*
G36*
G01*
X53275000Y-24249999D02*
X53275000Y-25150001D01*
G75*
G02*
X53025001Y-25400000I-249999J0D01*
G01*
X52374999Y-25400000D01*
G75*
G02*
X52125000Y-25150001I0J249999D01*
G01*
X52125000Y-24249999D01*
G75*
G02*
X52374999Y-24000000I249999J0D01*
G01*
X53025001Y-24000000D01*
G75*
G02*
X53275000Y-24249999I0J-249999D01*
G01*
G37*
%TD*%
%TO.C,C88*%
G36*
G01*
X69662500Y-35550000D02*
X70137500Y-35550000D01*
G75*
G02*
X70375000Y-35787500I0J-237500D01*
G01*
X70375000Y-36362500D01*
G75*
G02*
X70137500Y-36600000I-237500J0D01*
G01*
X69662500Y-36600000D01*
G75*
G02*
X69425000Y-36362500I0J237500D01*
G01*
X69425000Y-35787500D01*
G75*
G02*
X69662500Y-35550000I237500J0D01*
G01*
G37*
G36*
G01*
X69662500Y-33800000D02*
X70137500Y-33800000D01*
G75*
G02*
X70375000Y-34037500I0J-237500D01*
G01*
X70375000Y-34612500D01*
G75*
G02*
X70137500Y-34850000I-237500J0D01*
G01*
X69662500Y-34850000D01*
G75*
G02*
X69425000Y-34612500I0J237500D01*
G01*
X69425000Y-34037500D01*
G75*
G02*
X69662500Y-33800000I237500J0D01*
G01*
G37*
%TD*%
%TO.C,C89*%
G36*
G01*
X68062500Y-33800000D02*
X68537500Y-33800000D01*
G75*
G02*
X68775000Y-34037500I0J-237500D01*
G01*
X68775000Y-34612500D01*
G75*
G02*
X68537500Y-34850000I-237500J0D01*
G01*
X68062500Y-34850000D01*
G75*
G02*
X67825000Y-34612500I0J237500D01*
G01*
X67825000Y-34037500D01*
G75*
G02*
X68062500Y-33800000I237500J0D01*
G01*
G37*
G36*
G01*
X68062500Y-35550000D02*
X68537500Y-35550000D01*
G75*
G02*
X68775000Y-35787500I0J-237500D01*
G01*
X68775000Y-36362500D01*
G75*
G02*
X68537500Y-36600000I-237500J0D01*
G01*
X68062500Y-36600000D01*
G75*
G02*
X67825000Y-36362500I0J237500D01*
G01*
X67825000Y-35787500D01*
G75*
G02*
X68062500Y-35550000I237500J0D01*
G01*
G37*
%TD*%
%TO.C,C90*%
G36*
G01*
X74150000Y-29737500D02*
X74150000Y-29262500D01*
G75*
G02*
X74387500Y-29025000I237500J0D01*
G01*
X74962500Y-29025000D01*
G75*
G02*
X75200000Y-29262500I0J-237500D01*
G01*
X75200000Y-29737500D01*
G75*
G02*
X74962500Y-29975000I-237500J0D01*
G01*
X74387500Y-29975000D01*
G75*
G02*
X74150000Y-29737500I0J237500D01*
G01*
G37*
G36*
G01*
X72400000Y-29737500D02*
X72400000Y-29262500D01*
G75*
G02*
X72637500Y-29025000I237500J0D01*
G01*
X73212500Y-29025000D01*
G75*
G02*
X73450000Y-29262500I0J-237500D01*
G01*
X73450000Y-29737500D01*
G75*
G02*
X73212500Y-29975000I-237500J0D01*
G01*
X72637500Y-29975000D01*
G75*
G02*
X72400000Y-29737500I0J237500D01*
G01*
G37*
%TD*%
%TO.C,C91*%
G36*
G01*
X71262500Y-33800000D02*
X71737500Y-33800000D01*
G75*
G02*
X71975000Y-34037500I0J-237500D01*
G01*
X71975000Y-34612500D01*
G75*
G02*
X71737500Y-34850000I-237500J0D01*
G01*
X71262500Y-34850000D01*
G75*
G02*
X71025000Y-34612500I0J237500D01*
G01*
X71025000Y-34037500D01*
G75*
G02*
X71262500Y-33800000I237500J0D01*
G01*
G37*
G36*
G01*
X71262500Y-35550000D02*
X71737500Y-35550000D01*
G75*
G02*
X71975000Y-35787500I0J-237500D01*
G01*
X71975000Y-36362500D01*
G75*
G02*
X71737500Y-36600000I-237500J0D01*
G01*
X71262500Y-36600000D01*
G75*
G02*
X71025000Y-36362500I0J237500D01*
G01*
X71025000Y-35787500D01*
G75*
G02*
X71262500Y-35550000I237500J0D01*
G01*
G37*
%TD*%
%TO.C,C92*%
G36*
G01*
X72862500Y-33800000D02*
X73337500Y-33800000D01*
G75*
G02*
X73575000Y-34037500I0J-237500D01*
G01*
X73575000Y-34612500D01*
G75*
G02*
X73337500Y-34850000I-237500J0D01*
G01*
X72862500Y-34850000D01*
G75*
G02*
X72625000Y-34612500I0J237500D01*
G01*
X72625000Y-34037500D01*
G75*
G02*
X72862500Y-33800000I237500J0D01*
G01*
G37*
G36*
G01*
X72862500Y-35550000D02*
X73337500Y-35550000D01*
G75*
G02*
X73575000Y-35787500I0J-237500D01*
G01*
X73575000Y-36362500D01*
G75*
G02*
X73337500Y-36600000I-237500J0D01*
G01*
X72862500Y-36600000D01*
G75*
G02*
X72625000Y-36362500I0J237500D01*
G01*
X72625000Y-35787500D01*
G75*
G02*
X72862500Y-35550000I237500J0D01*
G01*
G37*
%TD*%
%TO.C,C93*%
G36*
G01*
X64910000Y-31927500D02*
X64910000Y-32272500D01*
G75*
G02*
X64762500Y-32420000I-147500J0D01*
G01*
X64467500Y-32420000D01*
G75*
G02*
X64320000Y-32272500I0J147500D01*
G01*
X64320000Y-31927500D01*
G75*
G02*
X64467500Y-31780000I147500J0D01*
G01*
X64762500Y-31780000D01*
G75*
G02*
X64910000Y-31927500I0J-147500D01*
G01*
G37*
G36*
G01*
X65880000Y-31927500D02*
X65880000Y-32272500D01*
G75*
G02*
X65732500Y-32420000I-147500J0D01*
G01*
X65437500Y-32420000D01*
G75*
G02*
X65290000Y-32272500I0J147500D01*
G01*
X65290000Y-31927500D01*
G75*
G02*
X65437500Y-31780000I147500J0D01*
G01*
X65732500Y-31780000D01*
G75*
G02*
X65880000Y-31927500I0J-147500D01*
G01*
G37*
%TD*%
%TO.C,C95*%
G36*
G01*
X94650001Y-108600000D02*
X93749999Y-108600000D01*
G75*
G02*
X93500000Y-108350001I0J249999D01*
G01*
X93500000Y-107699999D01*
G75*
G02*
X93749999Y-107450000I249999J0D01*
G01*
X94650001Y-107450000D01*
G75*
G02*
X94900000Y-107699999I0J-249999D01*
G01*
X94900000Y-108350001D01*
G75*
G02*
X94650001Y-108600000I-249999J0D01*
G01*
G37*
G36*
G01*
X94650001Y-106550000D02*
X93749999Y-106550000D01*
G75*
G02*
X93500000Y-106300001I0J249999D01*
G01*
X93500000Y-105649999D01*
G75*
G02*
X93749999Y-105400000I249999J0D01*
G01*
X94650001Y-105400000D01*
G75*
G02*
X94900000Y-105649999I0J-249999D01*
G01*
X94900000Y-106300001D01*
G75*
G02*
X94650001Y-106550000I-249999J0D01*
G01*
G37*
%TD*%
%TO.C,C105*%
G36*
G01*
X126450000Y-112499999D02*
X126450000Y-113400001D01*
G75*
G02*
X126200001Y-113650000I-249999J0D01*
G01*
X125549999Y-113650000D01*
G75*
G02*
X125300000Y-113400001I0J249999D01*
G01*
X125300000Y-112499999D01*
G75*
G02*
X125549999Y-112250000I249999J0D01*
G01*
X126200001Y-112250000D01*
G75*
G02*
X126450000Y-112499999I0J-249999D01*
G01*
G37*
G36*
G01*
X128500000Y-112499999D02*
X128500000Y-113400001D01*
G75*
G02*
X128250001Y-113650000I-249999J0D01*
G01*
X127599999Y-113650000D01*
G75*
G02*
X127350000Y-113400001I0J249999D01*
G01*
X127350000Y-112499999D01*
G75*
G02*
X127599999Y-112250000I249999J0D01*
G01*
X128250001Y-112250000D01*
G75*
G02*
X128500000Y-112499999I0J-249999D01*
G01*
G37*
%TD*%
%TO.C,C107*%
G36*
G01*
X128525000Y-114549999D02*
X128525000Y-115450001D01*
G75*
G02*
X128275001Y-115700000I-249999J0D01*
G01*
X127624999Y-115700000D01*
G75*
G02*
X127375000Y-115450001I0J249999D01*
G01*
X127375000Y-114549999D01*
G75*
G02*
X127624999Y-114300000I249999J0D01*
G01*
X128275001Y-114300000D01*
G75*
G02*
X128525000Y-114549999I0J-249999D01*
G01*
G37*
G36*
G01*
X126475000Y-114549999D02*
X126475000Y-115450001D01*
G75*
G02*
X126225001Y-115700000I-249999J0D01*
G01*
X125574999Y-115700000D01*
G75*
G02*
X125325000Y-115450001I0J249999D01*
G01*
X125325000Y-114549999D01*
G75*
G02*
X125574999Y-114300000I249999J0D01*
G01*
X126225001Y-114300000D01*
G75*
G02*
X126475000Y-114549999I0J-249999D01*
G01*
G37*
%TD*%
%TO.C,C109*%
G36*
G01*
X126450000Y-118749999D02*
X126450000Y-119650001D01*
G75*
G02*
X126200001Y-119900000I-249999J0D01*
G01*
X125549999Y-119900000D01*
G75*
G02*
X125300000Y-119650001I0J249999D01*
G01*
X125300000Y-118749999D01*
G75*
G02*
X125549999Y-118500000I249999J0D01*
G01*
X126200001Y-118500000D01*
G75*
G02*
X126450000Y-118749999I0J-249999D01*
G01*
G37*
G36*
G01*
X128500000Y-118749999D02*
X128500000Y-119650001D01*
G75*
G02*
X128250001Y-119900000I-249999J0D01*
G01*
X127599999Y-119900000D01*
G75*
G02*
X127350000Y-119650001I0J249999D01*
G01*
X127350000Y-118749999D01*
G75*
G02*
X127599999Y-118500000I249999J0D01*
G01*
X128250001Y-118500000D01*
G75*
G02*
X128500000Y-118749999I0J-249999D01*
G01*
G37*
%TD*%
%TO.C,C114*%
G36*
G01*
X47250000Y-56250001D02*
X47250000Y-55349999D01*
G75*
G02*
X47499999Y-55100000I249999J0D01*
G01*
X48150001Y-55100000D01*
G75*
G02*
X48400000Y-55349999I0J-249999D01*
G01*
X48400000Y-56250001D01*
G75*
G02*
X48150001Y-56500000I-249999J0D01*
G01*
X47499999Y-56500000D01*
G75*
G02*
X47250000Y-56250001I0J249999D01*
G01*
G37*
G36*
G01*
X45200000Y-56250001D02*
X45200000Y-55349999D01*
G75*
G02*
X45449999Y-55100000I249999J0D01*
G01*
X46100001Y-55100000D01*
G75*
G02*
X46350000Y-55349999I0J-249999D01*
G01*
X46350000Y-56250001D01*
G75*
G02*
X46100001Y-56500000I-249999J0D01*
G01*
X45449999Y-56500000D01*
G75*
G02*
X45200000Y-56250001I0J249999D01*
G01*
G37*
%TD*%
%TO.C,C115*%
G36*
G01*
X53725000Y-65700000D02*
X52475000Y-65700000D01*
G75*
G02*
X52225000Y-65450000I0J250000D01*
G01*
X52225000Y-64525000D01*
G75*
G02*
X52475000Y-64275000I250000J0D01*
G01*
X53725000Y-64275000D01*
G75*
G02*
X53975000Y-64525000I0J-250000D01*
G01*
X53975000Y-65450000D01*
G75*
G02*
X53725000Y-65700000I-250000J0D01*
G01*
G37*
G36*
G01*
X53725000Y-62725000D02*
X52475000Y-62725000D01*
G75*
G02*
X52225000Y-62475000I0J250000D01*
G01*
X52225000Y-61550000D01*
G75*
G02*
X52475000Y-61300000I250000J0D01*
G01*
X53725000Y-61300000D01*
G75*
G02*
X53975000Y-61550000I0J-250000D01*
G01*
X53975000Y-62475000D01*
G75*
G02*
X53725000Y-62725000I-250000J0D01*
G01*
G37*
%TD*%
%TO.C,C116*%
G36*
G01*
X57950001Y-62250000D02*
X57049999Y-62250000D01*
G75*
G02*
X56800000Y-62000001I0J249999D01*
G01*
X56800000Y-61349999D01*
G75*
G02*
X57049999Y-61100000I249999J0D01*
G01*
X57950001Y-61100000D01*
G75*
G02*
X58200000Y-61349999I0J-249999D01*
G01*
X58200000Y-62000001D01*
G75*
G02*
X57950001Y-62250000I-249999J0D01*
G01*
G37*
G36*
G01*
X57950001Y-64300000D02*
X57049999Y-64300000D01*
G75*
G02*
X56800000Y-64050001I0J249999D01*
G01*
X56800000Y-63399999D01*
G75*
G02*
X57049999Y-63150000I249999J0D01*
G01*
X57950001Y-63150000D01*
G75*
G02*
X58200000Y-63399999I0J-249999D01*
G01*
X58200000Y-64050001D01*
G75*
G02*
X57950001Y-64300000I-249999J0D01*
G01*
G37*
%TD*%
%TO.C,C117*%
G36*
G01*
X74195000Y-31927500D02*
X74195000Y-32272500D01*
G75*
G02*
X74047500Y-32420000I-147500J0D01*
G01*
X73752500Y-32420000D01*
G75*
G02*
X73605000Y-32272500I0J147500D01*
G01*
X73605000Y-31927500D01*
G75*
G02*
X73752500Y-31780000I147500J0D01*
G01*
X74047500Y-31780000D01*
G75*
G02*
X74195000Y-31927500I0J-147500D01*
G01*
G37*
G36*
G01*
X75165000Y-31927500D02*
X75165000Y-32272500D01*
G75*
G02*
X75017500Y-32420000I-147500J0D01*
G01*
X74722500Y-32420000D01*
G75*
G02*
X74575000Y-32272500I0J147500D01*
G01*
X74575000Y-31927500D01*
G75*
G02*
X74722500Y-31780000I147500J0D01*
G01*
X75017500Y-31780000D01*
G75*
G02*
X75165000Y-31927500I0J-147500D01*
G01*
G37*
%TD*%
%TO.C,C122*%
G36*
G01*
X80972500Y-33925000D02*
X80627500Y-33925000D01*
G75*
G02*
X80480000Y-33777500I0J147500D01*
G01*
X80480000Y-33482500D01*
G75*
G02*
X80627500Y-33335000I147500J0D01*
G01*
X80972500Y-33335000D01*
G75*
G02*
X81120000Y-33482500I0J-147500D01*
G01*
X81120000Y-33777500D01*
G75*
G02*
X80972500Y-33925000I-147500J0D01*
G01*
G37*
G36*
G01*
X80972500Y-34895000D02*
X80627500Y-34895000D01*
G75*
G02*
X80480000Y-34747500I0J147500D01*
G01*
X80480000Y-34452500D01*
G75*
G02*
X80627500Y-34305000I147500J0D01*
G01*
X80972500Y-34305000D01*
G75*
G02*
X81120000Y-34452500I0J-147500D01*
G01*
X81120000Y-34747500D01*
G75*
G02*
X80972500Y-34895000I-147500J0D01*
G01*
G37*
%TD*%
%TO.C,C123*%
G36*
G01*
X86850000Y-25049999D02*
X86850000Y-25950001D01*
G75*
G02*
X86600001Y-26200000I-249999J0D01*
G01*
X85949999Y-26200000D01*
G75*
G02*
X85700000Y-25950001I0J249999D01*
G01*
X85700000Y-25049999D01*
G75*
G02*
X85949999Y-24800000I249999J0D01*
G01*
X86600001Y-24800000D01*
G75*
G02*
X86850000Y-25049999I0J-249999D01*
G01*
G37*
G36*
G01*
X88900000Y-25049999D02*
X88900000Y-25950001D01*
G75*
G02*
X88650001Y-26200000I-249999J0D01*
G01*
X87999999Y-26200000D01*
G75*
G02*
X87750000Y-25950001I0J249999D01*
G01*
X87750000Y-25049999D01*
G75*
G02*
X87999999Y-24800000I249999J0D01*
G01*
X88650001Y-24800000D01*
G75*
G02*
X88900000Y-25049999I0J-249999D01*
G01*
G37*
%TD*%
%TO.C,C124*%
G36*
G01*
X86850000Y-27149999D02*
X86850000Y-28050001D01*
G75*
G02*
X86600001Y-28300000I-249999J0D01*
G01*
X85949999Y-28300000D01*
G75*
G02*
X85700000Y-28050001I0J249999D01*
G01*
X85700000Y-27149999D01*
G75*
G02*
X85949999Y-26900000I249999J0D01*
G01*
X86600001Y-26900000D01*
G75*
G02*
X86850000Y-27149999I0J-249999D01*
G01*
G37*
G36*
G01*
X88900000Y-27149999D02*
X88900000Y-28050001D01*
G75*
G02*
X88650001Y-28300000I-249999J0D01*
G01*
X87999999Y-28300000D01*
G75*
G02*
X87750000Y-28050001I0J249999D01*
G01*
X87750000Y-27149999D01*
G75*
G02*
X87999999Y-26900000I249999J0D01*
G01*
X88650001Y-26900000D01*
G75*
G02*
X88900000Y-27149999I0J-249999D01*
G01*
G37*
%TD*%
%TO.C,C125*%
G36*
G01*
X86750000Y-29562500D02*
X86750000Y-30037500D01*
G75*
G02*
X86512500Y-30275000I-237500J0D01*
G01*
X85937500Y-30275000D01*
G75*
G02*
X85700000Y-30037500I0J237500D01*
G01*
X85700000Y-29562500D01*
G75*
G02*
X85937500Y-29325000I237500J0D01*
G01*
X86512500Y-29325000D01*
G75*
G02*
X86750000Y-29562500I0J-237500D01*
G01*
G37*
G36*
G01*
X88500000Y-29562500D02*
X88500000Y-30037500D01*
G75*
G02*
X88262500Y-30275000I-237500J0D01*
G01*
X87687500Y-30275000D01*
G75*
G02*
X87450000Y-30037500I0J237500D01*
G01*
X87450000Y-29562500D01*
G75*
G02*
X87687500Y-29325000I237500J0D01*
G01*
X88262500Y-29325000D01*
G75*
G02*
X88500000Y-29562500I0J-237500D01*
G01*
G37*
%TD*%
D18*
%TO.C,D1*%
X43814000Y-91852000D03*
X40514000Y-91852000D03*
%TD*%
D19*
%TO.C,D2*%
X43772000Y-86452000D03*
X43772000Y-83152000D03*
%TD*%
%TO.C,D3*%
G36*
G01*
X104450000Y-24349999D02*
X104450000Y-25250001D01*
G75*
G02*
X104200001Y-25500000I-249999J0D01*
G01*
X103549999Y-25500000D01*
G75*
G02*
X103300000Y-25250001I0J249999D01*
G01*
X103300000Y-24349999D01*
G75*
G02*
X103549999Y-24100000I249999J0D01*
G01*
X104200001Y-24100000D01*
G75*
G02*
X104450000Y-24349999I0J-249999D01*
G01*
G37*
G36*
G01*
X106500000Y-24349999D02*
X106500000Y-25250001D01*
G75*
G02*
X106250001Y-25500000I-249999J0D01*
G01*
X105599999Y-25500000D01*
G75*
G02*
X105350000Y-25250001I0J249999D01*
G01*
X105350000Y-24349999D01*
G75*
G02*
X105599999Y-24100000I249999J0D01*
G01*
X106250001Y-24100000D01*
G75*
G02*
X106500000Y-24349999I0J-249999D01*
G01*
G37*
%TD*%
%TO.C,D4*%
G36*
G01*
X111000000Y-24349999D02*
X111000000Y-25250001D01*
G75*
G02*
X110750001Y-25500000I-249999J0D01*
G01*
X110099999Y-25500000D01*
G75*
G02*
X109850000Y-25250001I0J249999D01*
G01*
X109850000Y-24349999D01*
G75*
G02*
X110099999Y-24100000I249999J0D01*
G01*
X110750001Y-24100000D01*
G75*
G02*
X111000000Y-24349999I0J-249999D01*
G01*
G37*
G36*
G01*
X108950000Y-24349999D02*
X108950000Y-25250001D01*
G75*
G02*
X108700001Y-25500000I-249999J0D01*
G01*
X108049999Y-25500000D01*
G75*
G02*
X107800000Y-25250001I0J249999D01*
G01*
X107800000Y-24349999D01*
G75*
G02*
X108049999Y-24100000I249999J0D01*
G01*
X108700001Y-24100000D01*
G75*
G02*
X108950000Y-24349999I0J-249999D01*
G01*
G37*
%TD*%
%TO.C,D5*%
G36*
G01*
X115675000Y-24349999D02*
X115675000Y-25250001D01*
G75*
G02*
X115425001Y-25500000I-249999J0D01*
G01*
X114774999Y-25500000D01*
G75*
G02*
X114525000Y-25250001I0J249999D01*
G01*
X114525000Y-24349999D01*
G75*
G02*
X114774999Y-24100000I249999J0D01*
G01*
X115425001Y-24100000D01*
G75*
G02*
X115675000Y-24349999I0J-249999D01*
G01*
G37*
G36*
G01*
X113625000Y-24349999D02*
X113625000Y-25250001D01*
G75*
G02*
X113375001Y-25500000I-249999J0D01*
G01*
X112724999Y-25500000D01*
G75*
G02*
X112475000Y-25250001I0J249999D01*
G01*
X112475000Y-24349999D01*
G75*
G02*
X112724999Y-24100000I249999J0D01*
G01*
X113375001Y-24100000D01*
G75*
G02*
X113625000Y-24349999I0J-249999D01*
G01*
G37*
%TD*%
%TO.C,D8*%
G36*
G01*
X97605000Y-66489999D02*
X97605000Y-67390001D01*
G75*
G02*
X97355001Y-67640000I-249999J0D01*
G01*
X96704999Y-67640000D01*
G75*
G02*
X96455000Y-67390001I0J249999D01*
G01*
X96455000Y-66489999D01*
G75*
G02*
X96704999Y-66240000I249999J0D01*
G01*
X97355001Y-66240000D01*
G75*
G02*
X97605000Y-66489999I0J-249999D01*
G01*
G37*
G36*
G01*
X99655000Y-66489999D02*
X99655000Y-67390001D01*
G75*
G02*
X99405001Y-67640000I-249999J0D01*
G01*
X98754999Y-67640000D01*
G75*
G02*
X98505000Y-67390001I0J249999D01*
G01*
X98505000Y-66489999D01*
G75*
G02*
X98754999Y-66240000I249999J0D01*
G01*
X99405001Y-66240000D01*
G75*
G02*
X99655000Y-66489999I0J-249999D01*
G01*
G37*
%TD*%
%TO.C,D9*%
G36*
G01*
X76440000Y-95258001D02*
X76440000Y-94357999D01*
G75*
G02*
X76689999Y-94108000I249999J0D01*
G01*
X77340001Y-94108000D01*
G75*
G02*
X77590000Y-94357999I0J-249999D01*
G01*
X77590000Y-95258001D01*
G75*
G02*
X77340001Y-95508000I-249999J0D01*
G01*
X76689999Y-95508000D01*
G75*
G02*
X76440000Y-95258001I0J249999D01*
G01*
G37*
G36*
G01*
X78490000Y-95258001D02*
X78490000Y-94357999D01*
G75*
G02*
X78739999Y-94108000I249999J0D01*
G01*
X79390001Y-94108000D01*
G75*
G02*
X79640000Y-94357999I0J-249999D01*
G01*
X79640000Y-95258001D01*
G75*
G02*
X79390001Y-95508000I-249999J0D01*
G01*
X78739999Y-95508000D01*
G75*
G02*
X78490000Y-95258001I0J249999D01*
G01*
G37*
%TD*%
%TO.C,D10*%
G36*
G01*
X78490000Y-99658001D02*
X78490000Y-98757999D01*
G75*
G02*
X78739999Y-98508000I249999J0D01*
G01*
X79390001Y-98508000D01*
G75*
G02*
X79640000Y-98757999I0J-249999D01*
G01*
X79640000Y-99658001D01*
G75*
G02*
X79390001Y-99908000I-249999J0D01*
G01*
X78739999Y-99908000D01*
G75*
G02*
X78490000Y-99658001I0J249999D01*
G01*
G37*
G36*
G01*
X76440000Y-99658001D02*
X76440000Y-98757999D01*
G75*
G02*
X76689999Y-98508000I249999J0D01*
G01*
X77340001Y-98508000D01*
G75*
G02*
X77590000Y-98757999I0J-249999D01*
G01*
X77590000Y-99658001D01*
G75*
G02*
X77340001Y-99908000I-249999J0D01*
G01*
X76689999Y-99908000D01*
G75*
G02*
X76440000Y-99658001I0J249999D01*
G01*
G37*
%TD*%
%TO.C,D11*%
G36*
G01*
X53450001Y-30325000D02*
X52549999Y-30325000D01*
G75*
G02*
X52300000Y-30075001I0J249999D01*
G01*
X52300000Y-29424999D01*
G75*
G02*
X52549999Y-29175000I249999J0D01*
G01*
X53450001Y-29175000D01*
G75*
G02*
X53700000Y-29424999I0J-249999D01*
G01*
X53700000Y-30075001D01*
G75*
G02*
X53450001Y-30325000I-249999J0D01*
G01*
G37*
G36*
G01*
X53450001Y-28275000D02*
X52549999Y-28275000D01*
G75*
G02*
X52300000Y-28025001I0J249999D01*
G01*
X52300000Y-27374999D01*
G75*
G02*
X52549999Y-27125000I249999J0D01*
G01*
X53450001Y-27125000D01*
G75*
G02*
X53700000Y-27374999I0J-249999D01*
G01*
X53700000Y-28025001D01*
G75*
G02*
X53450001Y-28275000I-249999J0D01*
G01*
G37*
%TD*%
%TO.C,D12*%
G36*
G01*
X119000000Y-116250001D02*
X119000000Y-115349999D01*
G75*
G02*
X119249999Y-115100000I249999J0D01*
G01*
X119900001Y-115100000D01*
G75*
G02*
X120150000Y-115349999I0J-249999D01*
G01*
X120150000Y-116250001D01*
G75*
G02*
X119900001Y-116500000I-249999J0D01*
G01*
X119249999Y-116500000D01*
G75*
G02*
X119000000Y-116250001I0J249999D01*
G01*
G37*
G36*
G01*
X121050000Y-116250001D02*
X121050000Y-115349999D01*
G75*
G02*
X121299999Y-115100000I249999J0D01*
G01*
X121950001Y-115100000D01*
G75*
G02*
X122200000Y-115349999I0J-249999D01*
G01*
X122200000Y-116250001D01*
G75*
G02*
X121950001Y-116500000I-249999J0D01*
G01*
X121299999Y-116500000D01*
G75*
G02*
X121050000Y-116250001I0J249999D01*
G01*
G37*
%TD*%
%TO.C,D16*%
G36*
G01*
X75000000Y-26350001D02*
X75000000Y-25449999D01*
G75*
G02*
X75249999Y-25200000I249999J0D01*
G01*
X75900001Y-25200000D01*
G75*
G02*
X76150000Y-25449999I0J-249999D01*
G01*
X76150000Y-26350001D01*
G75*
G02*
X75900001Y-26600000I-249999J0D01*
G01*
X75249999Y-26600000D01*
G75*
G02*
X75000000Y-26350001I0J249999D01*
G01*
G37*
G36*
G01*
X77050000Y-26350001D02*
X77050000Y-25449999D01*
G75*
G02*
X77299999Y-25200000I249999J0D01*
G01*
X77950001Y-25200000D01*
G75*
G02*
X78200000Y-25449999I0J-249999D01*
G01*
X78200000Y-26350001D01*
G75*
G02*
X77950001Y-26600000I-249999J0D01*
G01*
X77299999Y-26600000D01*
G75*
G02*
X77050000Y-26350001I0J249999D01*
G01*
G37*
%TD*%
%TO.C,FB2*%
G36*
G01*
X58750001Y-77725000D02*
X57849999Y-77725000D01*
G75*
G02*
X57600000Y-77475001I0J249999D01*
G01*
X57600000Y-76824999D01*
G75*
G02*
X57849999Y-76575000I249999J0D01*
G01*
X58750001Y-76575000D01*
G75*
G02*
X59000000Y-76824999I0J-249999D01*
G01*
X59000000Y-77475001D01*
G75*
G02*
X58750001Y-77725000I-249999J0D01*
G01*
G37*
G36*
G01*
X58750001Y-79775000D02*
X57849999Y-79775000D01*
G75*
G02*
X57600000Y-79525001I0J249999D01*
G01*
X57600000Y-78874999D01*
G75*
G02*
X57849999Y-78625000I249999J0D01*
G01*
X58750001Y-78625000D01*
G75*
G02*
X59000000Y-78874999I0J-249999D01*
G01*
X59000000Y-79525001D01*
G75*
G02*
X58750001Y-79775000I-249999J0D01*
G01*
G37*
%TD*%
%TO.C,FB5*%
G36*
G01*
X102849999Y-35300000D02*
X103750001Y-35300000D01*
G75*
G02*
X104000000Y-35549999I0J-249999D01*
G01*
X104000000Y-36200001D01*
G75*
G02*
X103750001Y-36450000I-249999J0D01*
G01*
X102849999Y-36450000D01*
G75*
G02*
X102600000Y-36200001I0J249999D01*
G01*
X102600000Y-35549999D01*
G75*
G02*
X102849999Y-35300000I249999J0D01*
G01*
G37*
G36*
G01*
X102849999Y-37350000D02*
X103750001Y-37350000D01*
G75*
G02*
X104000000Y-37599999I0J-249999D01*
G01*
X104000000Y-38250001D01*
G75*
G02*
X103750001Y-38500000I-249999J0D01*
G01*
X102849999Y-38500000D01*
G75*
G02*
X102600000Y-38250001I0J249999D01*
G01*
X102600000Y-37599999D01*
G75*
G02*
X102849999Y-37350000I249999J0D01*
G01*
G37*
%TD*%
D20*
%TO.C,J2*%
X39480000Y-59760000D03*
X39480000Y-64010000D03*
X39480000Y-55510000D03*
%TD*%
%TO.C,J3*%
X39350000Y-30750000D03*
X39350000Y-39250000D03*
X39350000Y-35000000D03*
%TD*%
%TO.C,L1*%
G36*
G01*
X83349999Y-29375000D02*
X84250001Y-29375000D01*
G75*
G02*
X84500000Y-29624999I0J-249999D01*
G01*
X84500000Y-30275001D01*
G75*
G02*
X84250001Y-30525000I-249999J0D01*
G01*
X83349999Y-30525000D01*
G75*
G02*
X83100000Y-30275001I0J249999D01*
G01*
X83100000Y-29624999D01*
G75*
G02*
X83349999Y-29375000I249999J0D01*
G01*
G37*
G36*
G01*
X83349999Y-31425000D02*
X84250001Y-31425000D01*
G75*
G02*
X84500000Y-31674999I0J-249999D01*
G01*
X84500000Y-32325001D01*
G75*
G02*
X84250001Y-32575000I-249999J0D01*
G01*
X83349999Y-32575000D01*
G75*
G02*
X83100000Y-32325001I0J249999D01*
G01*
X83100000Y-31674999D01*
G75*
G02*
X83349999Y-31425000I249999J0D01*
G01*
G37*
%TD*%
%TO.C,R2*%
G36*
G01*
X46572500Y-33795000D02*
X46227500Y-33795000D01*
G75*
G02*
X46080000Y-33647500I0J147500D01*
G01*
X46080000Y-33352500D01*
G75*
G02*
X46227500Y-33205000I147500J0D01*
G01*
X46572500Y-33205000D01*
G75*
G02*
X46720000Y-33352500I0J-147500D01*
G01*
X46720000Y-33647500D01*
G75*
G02*
X46572500Y-33795000I-147500J0D01*
G01*
G37*
G36*
G01*
X46572500Y-34765000D02*
X46227500Y-34765000D01*
G75*
G02*
X46080000Y-34617500I0J147500D01*
G01*
X46080000Y-34322500D01*
G75*
G02*
X46227500Y-34175000I147500J0D01*
G01*
X46572500Y-34175000D01*
G75*
G02*
X46720000Y-34322500I0J-147500D01*
G01*
X46720000Y-34617500D01*
G75*
G02*
X46572500Y-34765000I-147500J0D01*
G01*
G37*
%TD*%
%TO.C,R4*%
G36*
G01*
X52210000Y-40827500D02*
X52210000Y-41172500D01*
G75*
G02*
X52062500Y-41320000I-147500J0D01*
G01*
X51767500Y-41320000D01*
G75*
G02*
X51620000Y-41172500I0J147500D01*
G01*
X51620000Y-40827500D01*
G75*
G02*
X51767500Y-40680000I147500J0D01*
G01*
X52062500Y-40680000D01*
G75*
G02*
X52210000Y-40827500I0J-147500D01*
G01*
G37*
G36*
G01*
X53180000Y-40827500D02*
X53180000Y-41172500D01*
G75*
G02*
X53032500Y-41320000I-147500J0D01*
G01*
X52737500Y-41320000D01*
G75*
G02*
X52590000Y-41172500I0J147500D01*
G01*
X52590000Y-40827500D01*
G75*
G02*
X52737500Y-40680000I147500J0D01*
G01*
X53032500Y-40680000D01*
G75*
G02*
X53180000Y-40827500I0J-147500D01*
G01*
G37*
%TD*%
%TO.C,R5*%
G36*
G01*
X48749999Y-46400000D02*
X49650001Y-46400000D01*
G75*
G02*
X49900000Y-46649999I0J-249999D01*
G01*
X49900000Y-47300001D01*
G75*
G02*
X49650001Y-47550000I-249999J0D01*
G01*
X48749999Y-47550000D01*
G75*
G02*
X48500000Y-47300001I0J249999D01*
G01*
X48500000Y-46649999D01*
G75*
G02*
X48749999Y-46400000I249999J0D01*
G01*
G37*
G36*
G01*
X48749999Y-48450000D02*
X49650001Y-48450000D01*
G75*
G02*
X49900000Y-48699999I0J-249999D01*
G01*
X49900000Y-49350001D01*
G75*
G02*
X49650001Y-49600000I-249999J0D01*
G01*
X48749999Y-49600000D01*
G75*
G02*
X48500000Y-49350001I0J249999D01*
G01*
X48500000Y-48699999D01*
G75*
G02*
X48749999Y-48450000I249999J0D01*
G01*
G37*
%TD*%
%TO.C,R7*%
G36*
G01*
X75849999Y-45150000D02*
X76750001Y-45150000D01*
G75*
G02*
X77000000Y-45399999I0J-249999D01*
G01*
X77000000Y-46050001D01*
G75*
G02*
X76750001Y-46300000I-249999J0D01*
G01*
X75849999Y-46300000D01*
G75*
G02*
X75600000Y-46050001I0J249999D01*
G01*
X75600000Y-45399999D01*
G75*
G02*
X75849999Y-45150000I249999J0D01*
G01*
G37*
G36*
G01*
X75849999Y-43100000D02*
X76750001Y-43100000D01*
G75*
G02*
X77000000Y-43349999I0J-249999D01*
G01*
X77000000Y-44000001D01*
G75*
G02*
X76750001Y-44250000I-249999J0D01*
G01*
X75849999Y-44250000D01*
G75*
G02*
X75600000Y-44000001I0J249999D01*
G01*
X75600000Y-43349999D01*
G75*
G02*
X75849999Y-43100000I249999J0D01*
G01*
G37*
%TD*%
%TO.C,R8*%
G36*
G01*
X73390000Y-38172500D02*
X73390000Y-37827500D01*
G75*
G02*
X73537500Y-37680000I147500J0D01*
G01*
X73832500Y-37680000D01*
G75*
G02*
X73980000Y-37827500I0J-147500D01*
G01*
X73980000Y-38172500D01*
G75*
G02*
X73832500Y-38320000I-147500J0D01*
G01*
X73537500Y-38320000D01*
G75*
G02*
X73390000Y-38172500I0J147500D01*
G01*
G37*
G36*
G01*
X72420000Y-38172500D02*
X72420000Y-37827500D01*
G75*
G02*
X72567500Y-37680000I147500J0D01*
G01*
X72862500Y-37680000D01*
G75*
G02*
X73010000Y-37827500I0J-147500D01*
G01*
X73010000Y-38172500D01*
G75*
G02*
X72862500Y-38320000I-147500J0D01*
G01*
X72567500Y-38320000D01*
G75*
G02*
X72420000Y-38172500I0J147500D01*
G01*
G37*
%TD*%
%TO.C,R9*%
G36*
G01*
X72420000Y-39172500D02*
X72420000Y-38827500D01*
G75*
G02*
X72567500Y-38680000I147500J0D01*
G01*
X72862500Y-38680000D01*
G75*
G02*
X73010000Y-38827500I0J-147500D01*
G01*
X73010000Y-39172500D01*
G75*
G02*
X72862500Y-39320000I-147500J0D01*
G01*
X72567500Y-39320000D01*
G75*
G02*
X72420000Y-39172500I0J147500D01*
G01*
G37*
G36*
G01*
X73390000Y-39172500D02*
X73390000Y-38827500D01*
G75*
G02*
X73537500Y-38680000I147500J0D01*
G01*
X73832500Y-38680000D01*
G75*
G02*
X73980000Y-38827500I0J-147500D01*
G01*
X73980000Y-39172500D01*
G75*
G02*
X73832500Y-39320000I-147500J0D01*
G01*
X73537500Y-39320000D01*
G75*
G02*
X73390000Y-39172500I0J147500D01*
G01*
G37*
%TD*%
%TO.C,R11*%
G36*
G01*
X68050001Y-40450000D02*
X67149999Y-40450000D01*
G75*
G02*
X66900000Y-40200001I0J249999D01*
G01*
X66900000Y-39549999D01*
G75*
G02*
X67149999Y-39300000I249999J0D01*
G01*
X68050001Y-39300000D01*
G75*
G02*
X68300000Y-39549999I0J-249999D01*
G01*
X68300000Y-40200001D01*
G75*
G02*
X68050001Y-40450000I-249999J0D01*
G01*
G37*
G36*
G01*
X68050001Y-42500000D02*
X67149999Y-42500000D01*
G75*
G02*
X66900000Y-42250001I0J249999D01*
G01*
X66900000Y-41599999D01*
G75*
G02*
X67149999Y-41350000I249999J0D01*
G01*
X68050001Y-41350000D01*
G75*
G02*
X68300000Y-41599999I0J-249999D01*
G01*
X68300000Y-42250001D01*
G75*
G02*
X68050001Y-42500000I-249999J0D01*
G01*
G37*
%TD*%
%TO.C,R12*%
G36*
G01*
X68050001Y-47900000D02*
X67149999Y-47900000D01*
G75*
G02*
X66900000Y-47650001I0J249999D01*
G01*
X66900000Y-46999999D01*
G75*
G02*
X67149999Y-46750000I249999J0D01*
G01*
X68050001Y-46750000D01*
G75*
G02*
X68300000Y-46999999I0J-249999D01*
G01*
X68300000Y-47650001D01*
G75*
G02*
X68050001Y-47900000I-249999J0D01*
G01*
G37*
G36*
G01*
X68050001Y-45850000D02*
X67149999Y-45850000D01*
G75*
G02*
X66900000Y-45600001I0J249999D01*
G01*
X66900000Y-44949999D01*
G75*
G02*
X67149999Y-44700000I249999J0D01*
G01*
X68050001Y-44700000D01*
G75*
G02*
X68300000Y-44949999I0J-249999D01*
G01*
X68300000Y-45600001D01*
G75*
G02*
X68050001Y-45850000I-249999J0D01*
G01*
G37*
%TD*%
%TO.C,R13*%
G36*
G01*
X73649999Y-45150000D02*
X74550001Y-45150000D01*
G75*
G02*
X74800000Y-45399999I0J-249999D01*
G01*
X74800000Y-46050001D01*
G75*
G02*
X74550001Y-46300000I-249999J0D01*
G01*
X73649999Y-46300000D01*
G75*
G02*
X73400000Y-46050001I0J249999D01*
G01*
X73400000Y-45399999D01*
G75*
G02*
X73649999Y-45150000I249999J0D01*
G01*
G37*
G36*
G01*
X73649999Y-43100000D02*
X74550001Y-43100000D01*
G75*
G02*
X74800000Y-43349999I0J-249999D01*
G01*
X74800000Y-44000001D01*
G75*
G02*
X74550001Y-44250000I-249999J0D01*
G01*
X73649999Y-44250000D01*
G75*
G02*
X73400000Y-44000001I0J249999D01*
G01*
X73400000Y-43349999D01*
G75*
G02*
X73649999Y-43100000I249999J0D01*
G01*
G37*
%TD*%
%TO.C,R15*%
G36*
G01*
X71449999Y-45150000D02*
X72350001Y-45150000D01*
G75*
G02*
X72600000Y-45399999I0J-249999D01*
G01*
X72600000Y-46050001D01*
G75*
G02*
X72350001Y-46300000I-249999J0D01*
G01*
X71449999Y-46300000D01*
G75*
G02*
X71200000Y-46050001I0J249999D01*
G01*
X71200000Y-45399999D01*
G75*
G02*
X71449999Y-45150000I249999J0D01*
G01*
G37*
G36*
G01*
X71449999Y-43100000D02*
X72350001Y-43100000D01*
G75*
G02*
X72600000Y-43349999I0J-249999D01*
G01*
X72600000Y-44000001D01*
G75*
G02*
X72350001Y-44250000I-249999J0D01*
G01*
X71449999Y-44250000D01*
G75*
G02*
X71200000Y-44000001I0J249999D01*
G01*
X71200000Y-43349999D01*
G75*
G02*
X71449999Y-43100000I249999J0D01*
G01*
G37*
%TD*%
%TO.C,R16*%
G36*
G01*
X104350000Y-27049999D02*
X104350000Y-27950001D01*
G75*
G02*
X104100001Y-28200000I-249999J0D01*
G01*
X103449999Y-28200000D01*
G75*
G02*
X103200000Y-27950001I0J249999D01*
G01*
X103200000Y-27049999D01*
G75*
G02*
X103449999Y-26800000I249999J0D01*
G01*
X104100001Y-26800000D01*
G75*
G02*
X104350000Y-27049999I0J-249999D01*
G01*
G37*
G36*
G01*
X106400000Y-27049999D02*
X106400000Y-27950001D01*
G75*
G02*
X106150001Y-28200000I-249999J0D01*
G01*
X105499999Y-28200000D01*
G75*
G02*
X105250000Y-27950001I0J249999D01*
G01*
X105250000Y-27049999D01*
G75*
G02*
X105499999Y-26800000I249999J0D01*
G01*
X106150001Y-26800000D01*
G75*
G02*
X106400000Y-27049999I0J-249999D01*
G01*
G37*
%TD*%
%TO.C,R17*%
G36*
G01*
X109050000Y-27049999D02*
X109050000Y-27950001D01*
G75*
G02*
X108800001Y-28200000I-249999J0D01*
G01*
X108149999Y-28200000D01*
G75*
G02*
X107900000Y-27950001I0J249999D01*
G01*
X107900000Y-27049999D01*
G75*
G02*
X108149999Y-26800000I249999J0D01*
G01*
X108800001Y-26800000D01*
G75*
G02*
X109050000Y-27049999I0J-249999D01*
G01*
G37*
G36*
G01*
X111100000Y-27049999D02*
X111100000Y-27950001D01*
G75*
G02*
X110850001Y-28200000I-249999J0D01*
G01*
X110199999Y-28200000D01*
G75*
G02*
X109950000Y-27950001I0J249999D01*
G01*
X109950000Y-27049999D01*
G75*
G02*
X110199999Y-26800000I249999J0D01*
G01*
X110850001Y-26800000D01*
G75*
G02*
X111100000Y-27049999I0J-249999D01*
G01*
G37*
%TD*%
%TO.C,R19*%
G36*
G01*
X113675000Y-27049999D02*
X113675000Y-27950001D01*
G75*
G02*
X113425001Y-28200000I-249999J0D01*
G01*
X112774999Y-28200000D01*
G75*
G02*
X112525000Y-27950001I0J249999D01*
G01*
X112525000Y-27049999D01*
G75*
G02*
X112774999Y-26800000I249999J0D01*
G01*
X113425001Y-26800000D01*
G75*
G02*
X113675000Y-27049999I0J-249999D01*
G01*
G37*
G36*
G01*
X115725000Y-27049999D02*
X115725000Y-27950001D01*
G75*
G02*
X115475001Y-28200000I-249999J0D01*
G01*
X114824999Y-28200000D01*
G75*
G02*
X114575000Y-27950001I0J249999D01*
G01*
X114575000Y-27049999D01*
G75*
G02*
X114824999Y-26800000I249999J0D01*
G01*
X115475001Y-26800000D01*
G75*
G02*
X115725000Y-27049999I0J-249999D01*
G01*
G37*
%TD*%
%TO.C,R27*%
G36*
G01*
X99410000Y-61409999D02*
X99410000Y-62310001D01*
G75*
G02*
X99160001Y-62560000I-249999J0D01*
G01*
X98509999Y-62560000D01*
G75*
G02*
X98260000Y-62310001I0J249999D01*
G01*
X98260000Y-61409999D01*
G75*
G02*
X98509999Y-61160000I249999J0D01*
G01*
X99160001Y-61160000D01*
G75*
G02*
X99410000Y-61409999I0J-249999D01*
G01*
G37*
G36*
G01*
X97360000Y-61409999D02*
X97360000Y-62310001D01*
G75*
G02*
X97110001Y-62560000I-249999J0D01*
G01*
X96459999Y-62560000D01*
G75*
G02*
X96210000Y-62310001I0J249999D01*
G01*
X96210000Y-61409999D01*
G75*
G02*
X96459999Y-61160000I249999J0D01*
G01*
X97110001Y-61160000D01*
G75*
G02*
X97360000Y-61409999I0J-249999D01*
G01*
G37*
%TD*%
%TO.C,R31*%
G36*
G01*
X78490000Y-97458001D02*
X78490000Y-96557999D01*
G75*
G02*
X78739999Y-96308000I249999J0D01*
G01*
X79390001Y-96308000D01*
G75*
G02*
X79640000Y-96557999I0J-249999D01*
G01*
X79640000Y-97458001D01*
G75*
G02*
X79390001Y-97708000I-249999J0D01*
G01*
X78739999Y-97708000D01*
G75*
G02*
X78490000Y-97458001I0J249999D01*
G01*
G37*
G36*
G01*
X76440000Y-97458001D02*
X76440000Y-96557999D01*
G75*
G02*
X76689999Y-96308000I249999J0D01*
G01*
X77340001Y-96308000D01*
G75*
G02*
X77590000Y-96557999I0J-249999D01*
G01*
X77590000Y-97458001D01*
G75*
G02*
X77340001Y-97708000I-249999J0D01*
G01*
X76689999Y-97708000D01*
G75*
G02*
X76440000Y-97458001I0J249999D01*
G01*
G37*
%TD*%
%TO.C,R33*%
G36*
G01*
X76155000Y-112797500D02*
X76155000Y-113142500D01*
G75*
G02*
X76007500Y-113290000I-147500J0D01*
G01*
X75712500Y-113290000D01*
G75*
G02*
X75565000Y-113142500I0J147500D01*
G01*
X75565000Y-112797500D01*
G75*
G02*
X75712500Y-112650000I147500J0D01*
G01*
X76007500Y-112650000D01*
G75*
G02*
X76155000Y-112797500I0J-147500D01*
G01*
G37*
G36*
G01*
X77125000Y-112797500D02*
X77125000Y-113142500D01*
G75*
G02*
X76977500Y-113290000I-147500J0D01*
G01*
X76682500Y-113290000D01*
G75*
G02*
X76535000Y-113142500I0J147500D01*
G01*
X76535000Y-112797500D01*
G75*
G02*
X76682500Y-112650000I147500J0D01*
G01*
X76977500Y-112650000D01*
G75*
G02*
X77125000Y-112797500I0J-147500D01*
G01*
G37*
%TD*%
%TO.C,R35*%
G36*
G01*
X81890001Y-116258000D02*
X80989999Y-116258000D01*
G75*
G02*
X80740000Y-116008001I0J249999D01*
G01*
X80740000Y-115357999D01*
G75*
G02*
X80989999Y-115108000I249999J0D01*
G01*
X81890001Y-115108000D01*
G75*
G02*
X82140000Y-115357999I0J-249999D01*
G01*
X82140000Y-116008001D01*
G75*
G02*
X81890001Y-116258000I-249999J0D01*
G01*
G37*
G36*
G01*
X81890001Y-118308000D02*
X80989999Y-118308000D01*
G75*
G02*
X80740000Y-118058001I0J249999D01*
G01*
X80740000Y-117407999D01*
G75*
G02*
X80989999Y-117158000I249999J0D01*
G01*
X81890001Y-117158000D01*
G75*
G02*
X82140000Y-117407999I0J-249999D01*
G01*
X82140000Y-118058001D01*
G75*
G02*
X81890001Y-118308000I-249999J0D01*
G01*
G37*
%TD*%
%TO.C,R36*%
G36*
G01*
X84260000Y-113227500D02*
X84260000Y-113572500D01*
G75*
G02*
X84112500Y-113720000I-147500J0D01*
G01*
X83817500Y-113720000D01*
G75*
G02*
X83670000Y-113572500I0J147500D01*
G01*
X83670000Y-113227500D01*
G75*
G02*
X83817500Y-113080000I147500J0D01*
G01*
X84112500Y-113080000D01*
G75*
G02*
X84260000Y-113227500I0J-147500D01*
G01*
G37*
G36*
G01*
X85230000Y-113227500D02*
X85230000Y-113572500D01*
G75*
G02*
X85082500Y-113720000I-147500J0D01*
G01*
X84787500Y-113720000D01*
G75*
G02*
X84640000Y-113572500I0J147500D01*
G01*
X84640000Y-113227500D01*
G75*
G02*
X84787500Y-113080000I147500J0D01*
G01*
X85082500Y-113080000D01*
G75*
G02*
X85230000Y-113227500I0J-147500D01*
G01*
G37*
%TD*%
%TO.C,R38*%
G36*
G01*
X78490000Y-101858001D02*
X78490000Y-100957999D01*
G75*
G02*
X78739999Y-100708000I249999J0D01*
G01*
X79390001Y-100708000D01*
G75*
G02*
X79640000Y-100957999I0J-249999D01*
G01*
X79640000Y-101858001D01*
G75*
G02*
X79390001Y-102108000I-249999J0D01*
G01*
X78739999Y-102108000D01*
G75*
G02*
X78490000Y-101858001I0J249999D01*
G01*
G37*
G36*
G01*
X76440000Y-101858001D02*
X76440000Y-100957999D01*
G75*
G02*
X76689999Y-100708000I249999J0D01*
G01*
X77340001Y-100708000D01*
G75*
G02*
X77590000Y-100957999I0J-249999D01*
G01*
X77590000Y-101858001D01*
G75*
G02*
X77340001Y-102108000I-249999J0D01*
G01*
X76689999Y-102108000D01*
G75*
G02*
X76440000Y-101858001I0J249999D01*
G01*
G37*
%TD*%
%TO.C,R39*%
G36*
G01*
X50049999Y-29150000D02*
X50950001Y-29150000D01*
G75*
G02*
X51200000Y-29399999I0J-249999D01*
G01*
X51200000Y-30050001D01*
G75*
G02*
X50950001Y-30300000I-249999J0D01*
G01*
X50049999Y-30300000D01*
G75*
G02*
X49800000Y-30050001I0J249999D01*
G01*
X49800000Y-29399999D01*
G75*
G02*
X50049999Y-29150000I249999J0D01*
G01*
G37*
G36*
G01*
X50049999Y-27100000D02*
X50950001Y-27100000D01*
G75*
G02*
X51200000Y-27349999I0J-249999D01*
G01*
X51200000Y-28000001D01*
G75*
G02*
X50950001Y-28250000I-249999J0D01*
G01*
X50049999Y-28250000D01*
G75*
G02*
X49800000Y-28000001I0J249999D01*
G01*
X49800000Y-27349999D01*
G75*
G02*
X50049999Y-27100000I249999J0D01*
G01*
G37*
%TD*%
%TO.C,R48*%
G36*
G01*
X104799999Y-105700000D02*
X105700001Y-105700000D01*
G75*
G02*
X105950000Y-105949999I0J-249999D01*
G01*
X105950000Y-106600001D01*
G75*
G02*
X105700001Y-106850000I-249999J0D01*
G01*
X104799999Y-106850000D01*
G75*
G02*
X104550000Y-106600001I0J249999D01*
G01*
X104550000Y-105949999D01*
G75*
G02*
X104799999Y-105700000I249999J0D01*
G01*
G37*
G36*
G01*
X104799999Y-103650000D02*
X105700001Y-103650000D01*
G75*
G02*
X105950000Y-103899999I0J-249999D01*
G01*
X105950000Y-104550001D01*
G75*
G02*
X105700001Y-104800000I-249999J0D01*
G01*
X104799999Y-104800000D01*
G75*
G02*
X104550000Y-104550001I0J249999D01*
G01*
X104550000Y-103899999D01*
G75*
G02*
X104799999Y-103650000I249999J0D01*
G01*
G37*
%TD*%
%TO.C,R49*%
G36*
G01*
X125775000Y-81000001D02*
X125775000Y-80099999D01*
G75*
G02*
X126024999Y-79850000I249999J0D01*
G01*
X126675001Y-79850000D01*
G75*
G02*
X126925000Y-80099999I0J-249999D01*
G01*
X126925000Y-81000001D01*
G75*
G02*
X126675001Y-81250000I-249999J0D01*
G01*
X126024999Y-81250000D01*
G75*
G02*
X125775000Y-81000001I0J249999D01*
G01*
G37*
G36*
G01*
X127825000Y-81000001D02*
X127825000Y-80099999D01*
G75*
G02*
X128074999Y-79850000I249999J0D01*
G01*
X128725001Y-79850000D01*
G75*
G02*
X128975000Y-80099999I0J-249999D01*
G01*
X128975000Y-81000001D01*
G75*
G02*
X128725001Y-81250000I-249999J0D01*
G01*
X128074999Y-81250000D01*
G75*
G02*
X127825000Y-81000001I0J249999D01*
G01*
G37*
%TD*%
%TO.C,R50*%
G36*
G01*
X135625000Y-112349999D02*
X135625000Y-113250001D01*
G75*
G02*
X135375001Y-113500000I-249999J0D01*
G01*
X134724999Y-113500000D01*
G75*
G02*
X134475000Y-113250001I0J249999D01*
G01*
X134475000Y-112349999D01*
G75*
G02*
X134724999Y-112100000I249999J0D01*
G01*
X135375001Y-112100000D01*
G75*
G02*
X135625000Y-112349999I0J-249999D01*
G01*
G37*
G36*
G01*
X133575000Y-112349999D02*
X133575000Y-113250001D01*
G75*
G02*
X133325001Y-113500000I-249999J0D01*
G01*
X132674999Y-113500000D01*
G75*
G02*
X132425000Y-113250001I0J249999D01*
G01*
X132425000Y-112349999D01*
G75*
G02*
X132674999Y-112100000I249999J0D01*
G01*
X133325001Y-112100000D01*
G75*
G02*
X133575000Y-112349999I0J-249999D01*
G01*
G37*
%TD*%
%TO.C,R51*%
G36*
G01*
X133625000Y-114524999D02*
X133625000Y-115425001D01*
G75*
G02*
X133375001Y-115675000I-249999J0D01*
G01*
X132724999Y-115675000D01*
G75*
G02*
X132475000Y-115425001I0J249999D01*
G01*
X132475000Y-114524999D01*
G75*
G02*
X132724999Y-114275000I249999J0D01*
G01*
X133375001Y-114275000D01*
G75*
G02*
X133625000Y-114524999I0J-249999D01*
G01*
G37*
G36*
G01*
X135675000Y-114524999D02*
X135675000Y-115425001D01*
G75*
G02*
X135425001Y-115675000I-249999J0D01*
G01*
X134774999Y-115675000D01*
G75*
G02*
X134525000Y-115425001I0J249999D01*
G01*
X134525000Y-114524999D01*
G75*
G02*
X134774999Y-114275000I249999J0D01*
G01*
X135425001Y-114275000D01*
G75*
G02*
X135675000Y-114524999I0J-249999D01*
G01*
G37*
%TD*%
%TO.C,R53*%
G36*
G01*
X125325000Y-117550001D02*
X125325000Y-116649999D01*
G75*
G02*
X125574999Y-116400000I249999J0D01*
G01*
X126225001Y-116400000D01*
G75*
G02*
X126475000Y-116649999I0J-249999D01*
G01*
X126475000Y-117550001D01*
G75*
G02*
X126225001Y-117800000I-249999J0D01*
G01*
X125574999Y-117800000D01*
G75*
G02*
X125325000Y-117550001I0J249999D01*
G01*
G37*
G36*
G01*
X127375000Y-117550001D02*
X127375000Y-116649999D01*
G75*
G02*
X127624999Y-116400000I249999J0D01*
G01*
X128275001Y-116400000D01*
G75*
G02*
X128525000Y-116649999I0J-249999D01*
G01*
X128525000Y-117550001D01*
G75*
G02*
X128275001Y-117800000I-249999J0D01*
G01*
X127624999Y-117800000D01*
G75*
G02*
X127375000Y-117550001I0J249999D01*
G01*
G37*
%TD*%
%TO.C,R56*%
G36*
G01*
X52580000Y-59027500D02*
X52580000Y-59372500D01*
G75*
G02*
X52432500Y-59520000I-147500J0D01*
G01*
X52137500Y-59520000D01*
G75*
G02*
X51990000Y-59372500I0J147500D01*
G01*
X51990000Y-59027500D01*
G75*
G02*
X52137500Y-58880000I147500J0D01*
G01*
X52432500Y-58880000D01*
G75*
G02*
X52580000Y-59027500I0J-147500D01*
G01*
G37*
G36*
G01*
X51610000Y-59027500D02*
X51610000Y-59372500D01*
G75*
G02*
X51462500Y-59520000I-147500J0D01*
G01*
X51167500Y-59520000D01*
G75*
G02*
X51020000Y-59372500I0J147500D01*
G01*
X51020000Y-59027500D01*
G75*
G02*
X51167500Y-58880000I147500J0D01*
G01*
X51462500Y-58880000D01*
G75*
G02*
X51610000Y-59027500I0J-147500D01*
G01*
G37*
%TD*%
%TO.C,R57*%
G36*
G01*
X55850001Y-62250000D02*
X54949999Y-62250000D01*
G75*
G02*
X54700000Y-62000001I0J249999D01*
G01*
X54700000Y-61349999D01*
G75*
G02*
X54949999Y-61100000I249999J0D01*
G01*
X55850001Y-61100000D01*
G75*
G02*
X56100000Y-61349999I0J-249999D01*
G01*
X56100000Y-62000001D01*
G75*
G02*
X55850001Y-62250000I-249999J0D01*
G01*
G37*
G36*
G01*
X55850001Y-64300000D02*
X54949999Y-64300000D01*
G75*
G02*
X54700000Y-64050001I0J249999D01*
G01*
X54700000Y-63399999D01*
G75*
G02*
X54949999Y-63150000I249999J0D01*
G01*
X55850001Y-63150000D01*
G75*
G02*
X56100000Y-63399999I0J-249999D01*
G01*
X56100000Y-64050001D01*
G75*
G02*
X55850001Y-64300000I-249999J0D01*
G01*
G37*
%TD*%
%TO.C,R58*%
G36*
G01*
X54520000Y-56172500D02*
X54520000Y-55827500D01*
G75*
G02*
X54667500Y-55680000I147500J0D01*
G01*
X54962500Y-55680000D01*
G75*
G02*
X55110000Y-55827500I0J-147500D01*
G01*
X55110000Y-56172500D01*
G75*
G02*
X54962500Y-56320000I-147500J0D01*
G01*
X54667500Y-56320000D01*
G75*
G02*
X54520000Y-56172500I0J147500D01*
G01*
G37*
G36*
G01*
X55490000Y-56172500D02*
X55490000Y-55827500D01*
G75*
G02*
X55637500Y-55680000I147500J0D01*
G01*
X55932500Y-55680000D01*
G75*
G02*
X56080000Y-55827500I0J-147500D01*
G01*
X56080000Y-56172500D01*
G75*
G02*
X55932500Y-56320000I-147500J0D01*
G01*
X55637500Y-56320000D01*
G75*
G02*
X55490000Y-56172500I0J147500D01*
G01*
G37*
%TD*%
%TO.C,R59*%
G36*
G01*
X80050000Y-25449999D02*
X80050000Y-26350001D01*
G75*
G02*
X79800001Y-26600000I-249999J0D01*
G01*
X79149999Y-26600000D01*
G75*
G02*
X78900000Y-26350001I0J249999D01*
G01*
X78900000Y-25449999D01*
G75*
G02*
X79149999Y-25200000I249999J0D01*
G01*
X79800001Y-25200000D01*
G75*
G02*
X80050000Y-25449999I0J-249999D01*
G01*
G37*
G36*
G01*
X82100000Y-25449999D02*
X82100000Y-26350001D01*
G75*
G02*
X81850001Y-26600000I-249999J0D01*
G01*
X81199999Y-26600000D01*
G75*
G02*
X80950000Y-26350001I0J249999D01*
G01*
X80950000Y-25449999D01*
G75*
G02*
X81199999Y-25200000I249999J0D01*
G01*
X81850001Y-25200000D01*
G75*
G02*
X82100000Y-25449999I0J-249999D01*
G01*
G37*
%TD*%
%TO.C,R60*%
G36*
G01*
X83349999Y-25200000D02*
X84250001Y-25200000D01*
G75*
G02*
X84500000Y-25449999I0J-249999D01*
G01*
X84500000Y-26100001D01*
G75*
G02*
X84250001Y-26350000I-249999J0D01*
G01*
X83349999Y-26350000D01*
G75*
G02*
X83100000Y-26100001I0J249999D01*
G01*
X83100000Y-25449999D01*
G75*
G02*
X83349999Y-25200000I249999J0D01*
G01*
G37*
G36*
G01*
X83349999Y-27250000D02*
X84250001Y-27250000D01*
G75*
G02*
X84500000Y-27499999I0J-249999D01*
G01*
X84500000Y-28150001D01*
G75*
G02*
X84250001Y-28400000I-249999J0D01*
G01*
X83349999Y-28400000D01*
G75*
G02*
X83100000Y-28150001I0J249999D01*
G01*
X83100000Y-27499999D01*
G75*
G02*
X83349999Y-27250000I249999J0D01*
G01*
G37*
%TD*%
D21*
%TO.C,U5*%
X83452400Y-41749999D03*
X83452400Y-41250000D03*
X83452400Y-40750001D03*
X83452400Y-40250000D03*
X83452400Y-39750000D03*
X83452400Y-39249999D03*
X83452400Y-38750000D03*
X83452400Y-38250001D03*
D22*
X82749999Y-37547600D03*
X82250000Y-37547600D03*
X81750001Y-37547600D03*
X81250000Y-37547600D03*
X80750000Y-37547600D03*
X80249999Y-37547600D03*
X79750000Y-37547600D03*
X79250001Y-37547600D03*
D21*
X78547600Y-38250001D03*
X78547600Y-38750000D03*
X78547600Y-39249999D03*
X78547600Y-39750000D03*
X78547600Y-40250000D03*
X78547600Y-40750001D03*
X78547600Y-41250000D03*
X78547600Y-41749999D03*
D22*
X79250001Y-42452400D03*
X79750000Y-42452400D03*
X80249999Y-42452400D03*
X80750000Y-42452400D03*
X81250000Y-42452400D03*
X81750001Y-42452400D03*
X82250000Y-42452400D03*
X82749999Y-42452400D03*
D23*
X81000000Y-40000000D03*
%TD*%
D13*
%TO.C,U9*%
X106700000Y-72500000D03*
D12*
X106700000Y-66200000D03*
X104400000Y-66200000D03*
X109000000Y-66200000D03*
%TD*%
D14*
%TO.C,U18*%
X67691955Y-29610000D03*
G36*
G01*
X67313937Y-30110000D02*
X67313937Y-30110000D01*
G75*
G02*
X67433578Y-29990359I119641J0D01*
G01*
X67950332Y-29990359D01*
G75*
G02*
X68069973Y-30110000I0J-119641D01*
G01*
X68069973Y-30110000D01*
G75*
G02*
X67950332Y-30229641I-119641J0D01*
G01*
X67433578Y-30229641D01*
G75*
G02*
X67313937Y-30110000I0J119641D01*
G01*
G37*
G36*
G01*
X67313937Y-30610000D02*
X67313937Y-30610000D01*
G75*
G02*
X67433578Y-30490359I119641J0D01*
G01*
X67950332Y-30490359D01*
G75*
G02*
X68069973Y-30610000I0J-119641D01*
G01*
X68069973Y-30610000D01*
G75*
G02*
X67950332Y-30729641I-119641J0D01*
G01*
X67433578Y-30729641D01*
G75*
G02*
X67313937Y-30610000I0J119641D01*
G01*
G37*
G36*
G01*
X67313937Y-31110000D02*
X67313937Y-31110000D01*
G75*
G02*
X67433578Y-30990359I119641J0D01*
G01*
X67950332Y-30990359D01*
G75*
G02*
X68069973Y-31110000I0J-119641D01*
G01*
X68069973Y-31110000D01*
G75*
G02*
X67950332Y-31229641I-119641J0D01*
G01*
X67433578Y-31229641D01*
G75*
G02*
X67313937Y-31110000I0J119641D01*
G01*
G37*
G36*
G01*
X67313937Y-31610000D02*
X67313937Y-31610000D01*
G75*
G02*
X67433578Y-31490359I119641J0D01*
G01*
X67950332Y-31490359D01*
G75*
G02*
X68069973Y-31610000I0J-119641D01*
G01*
X68069973Y-31610000D01*
G75*
G02*
X67950332Y-31729641I-119641J0D01*
G01*
X67433578Y-31729641D01*
G75*
G02*
X67313937Y-31610000I0J119641D01*
G01*
G37*
G36*
G01*
X67313937Y-32110000D02*
X67313937Y-32110000D01*
G75*
G02*
X67433578Y-31990359I119641J0D01*
G01*
X67950332Y-31990359D01*
G75*
G02*
X68069973Y-32110000I0J-119641D01*
G01*
X68069973Y-32110000D01*
G75*
G02*
X67950332Y-32229641I-119641J0D01*
G01*
X67433578Y-32229641D01*
G75*
G02*
X67313937Y-32110000I0J119641D01*
G01*
G37*
G36*
G01*
X68200359Y-32996422D02*
X68200359Y-32479668D01*
G75*
G02*
X68320000Y-32360027I119641J0D01*
G01*
X68320000Y-32360027D01*
G75*
G02*
X68439641Y-32479668I0J-119641D01*
G01*
X68439641Y-32996422D01*
G75*
G02*
X68320000Y-33116063I-119641J0D01*
G01*
X68320000Y-33116063D01*
G75*
G02*
X68200359Y-32996422I0J119641D01*
G01*
G37*
G36*
G01*
X68700359Y-32996422D02*
X68700359Y-32479668D01*
G75*
G02*
X68820000Y-32360027I119641J0D01*
G01*
X68820000Y-32360027D01*
G75*
G02*
X68939641Y-32479668I0J-119641D01*
G01*
X68939641Y-32996422D01*
G75*
G02*
X68820000Y-33116063I-119641J0D01*
G01*
X68820000Y-33116063D01*
G75*
G02*
X68700359Y-32996422I0J119641D01*
G01*
G37*
G36*
G01*
X69200359Y-32996422D02*
X69200359Y-32479668D01*
G75*
G02*
X69320000Y-32360027I119641J0D01*
G01*
X69320000Y-32360027D01*
G75*
G02*
X69439641Y-32479668I0J-119641D01*
G01*
X69439641Y-32996422D01*
G75*
G02*
X69320000Y-33116063I-119641J0D01*
G01*
X69320000Y-33116063D01*
G75*
G02*
X69200359Y-32996422I0J119641D01*
G01*
G37*
G36*
G01*
X69700359Y-32996422D02*
X69700359Y-32479668D01*
G75*
G02*
X69820000Y-32360027I119641J0D01*
G01*
X69820000Y-32360027D01*
G75*
G02*
X69939641Y-32479668I0J-119641D01*
G01*
X69939641Y-32996422D01*
G75*
G02*
X69820000Y-33116063I-119641J0D01*
G01*
X69820000Y-33116063D01*
G75*
G02*
X69700359Y-32996422I0J119641D01*
G01*
G37*
G36*
G01*
X70200359Y-32996422D02*
X70200359Y-32479668D01*
G75*
G02*
X70320000Y-32360027I119641J0D01*
G01*
X70320000Y-32360027D01*
G75*
G02*
X70439641Y-32479668I0J-119641D01*
G01*
X70439641Y-32996422D01*
G75*
G02*
X70320000Y-33116063I-119641J0D01*
G01*
X70320000Y-33116063D01*
G75*
G02*
X70200359Y-32996422I0J119641D01*
G01*
G37*
G36*
G01*
X70700359Y-32996422D02*
X70700359Y-32479668D01*
G75*
G02*
X70820000Y-32360027I119641J0D01*
G01*
X70820000Y-32360027D01*
G75*
G02*
X70939641Y-32479668I0J-119641D01*
G01*
X70939641Y-32996422D01*
G75*
G02*
X70820000Y-33116063I-119641J0D01*
G01*
X70820000Y-33116063D01*
G75*
G02*
X70700359Y-32996422I0J119641D01*
G01*
G37*
G36*
G01*
X70700359Y-29240332D02*
X70700359Y-28723578D01*
G75*
G02*
X70820000Y-28603937I119641J0D01*
G01*
X70820000Y-28603937D01*
G75*
G02*
X70939641Y-28723578I0J-119641D01*
G01*
X70939641Y-29240332D01*
G75*
G02*
X70820000Y-29359973I-119641J0D01*
G01*
X70820000Y-29359973D01*
G75*
G02*
X70700359Y-29240332I0J119641D01*
G01*
G37*
G36*
G01*
X70200359Y-29240332D02*
X70200359Y-28723578D01*
G75*
G02*
X70320000Y-28603937I119641J0D01*
G01*
X70320000Y-28603937D01*
G75*
G02*
X70439641Y-28723578I0J-119641D01*
G01*
X70439641Y-29240332D01*
G75*
G02*
X70320000Y-29359973I-119641J0D01*
G01*
X70320000Y-29359973D01*
G75*
G02*
X70200359Y-29240332I0J119641D01*
G01*
G37*
G36*
G01*
X69700359Y-29240332D02*
X69700359Y-28723578D01*
G75*
G02*
X69820000Y-28603937I119641J0D01*
G01*
X69820000Y-28603937D01*
G75*
G02*
X69939641Y-28723578I0J-119641D01*
G01*
X69939641Y-29240332D01*
G75*
G02*
X69820000Y-29359973I-119641J0D01*
G01*
X69820000Y-29359973D01*
G75*
G02*
X69700359Y-29240332I0J119641D01*
G01*
G37*
G36*
G01*
X69200359Y-29240332D02*
X69200359Y-28723578D01*
G75*
G02*
X69320000Y-28603937I119641J0D01*
G01*
X69320000Y-28603937D01*
G75*
G02*
X69439641Y-28723578I0J-119641D01*
G01*
X69439641Y-29240332D01*
G75*
G02*
X69320000Y-29359973I-119641J0D01*
G01*
X69320000Y-29359973D01*
G75*
G02*
X69200359Y-29240332I0J119641D01*
G01*
G37*
G36*
G01*
X68700359Y-29240332D02*
X68700359Y-28723578D01*
G75*
G02*
X68820000Y-28603937I119641J0D01*
G01*
X68820000Y-28603937D01*
G75*
G02*
X68939641Y-28723578I0J-119641D01*
G01*
X68939641Y-29240332D01*
G75*
G02*
X68820000Y-29359973I-119641J0D01*
G01*
X68820000Y-29359973D01*
G75*
G02*
X68700359Y-29240332I0J119641D01*
G01*
G37*
G36*
G01*
X68200359Y-29240332D02*
X68200359Y-28723578D01*
G75*
G02*
X68320000Y-28603937I119641J0D01*
G01*
X68320000Y-28603937D01*
G75*
G02*
X68439641Y-28723578I0J-119641D01*
G01*
X68439641Y-29240332D01*
G75*
G02*
X68320000Y-29359973I-119641J0D01*
G01*
X68320000Y-29359973D01*
G75*
G02*
X68200359Y-29240332I0J119641D01*
G01*
G37*
G36*
G01*
X71070028Y-32110000D02*
X71070028Y-32110000D01*
G75*
G02*
X71189669Y-31990359I119641J0D01*
G01*
X71706423Y-31990359D01*
G75*
G02*
X71826064Y-32110000I0J-119641D01*
G01*
X71826064Y-32110000D01*
G75*
G02*
X71706423Y-32229641I-119641J0D01*
G01*
X71189669Y-32229641D01*
G75*
G02*
X71070028Y-32110000I0J119641D01*
G01*
G37*
G36*
G01*
X71070028Y-31610000D02*
X71070028Y-31610000D01*
G75*
G02*
X71189669Y-31490359I119641J0D01*
G01*
X71706423Y-31490359D01*
G75*
G02*
X71826064Y-31610000I0J-119641D01*
G01*
X71826064Y-31610000D01*
G75*
G02*
X71706423Y-31729641I-119641J0D01*
G01*
X71189669Y-31729641D01*
G75*
G02*
X71070028Y-31610000I0J119641D01*
G01*
G37*
G36*
G01*
X71070028Y-31110000D02*
X71070028Y-31110000D01*
G75*
G02*
X71189669Y-30990359I119641J0D01*
G01*
X71706423Y-30990359D01*
G75*
G02*
X71826064Y-31110000I0J-119641D01*
G01*
X71826064Y-31110000D01*
G75*
G02*
X71706423Y-31229641I-119641J0D01*
G01*
X71189669Y-31229641D01*
G75*
G02*
X71070028Y-31110000I0J119641D01*
G01*
G37*
G36*
G01*
X71070028Y-30610000D02*
X71070028Y-30610000D01*
G75*
G02*
X71189669Y-30490359I119641J0D01*
G01*
X71706423Y-30490359D01*
G75*
G02*
X71826064Y-30610000I0J-119641D01*
G01*
X71826064Y-30610000D01*
G75*
G02*
X71706423Y-30729641I-119641J0D01*
G01*
X71189669Y-30729641D01*
G75*
G02*
X71070028Y-30610000I0J119641D01*
G01*
G37*
G36*
G01*
X71070028Y-30110000D02*
X71070028Y-30110000D01*
G75*
G02*
X71189669Y-29990359I119641J0D01*
G01*
X71706423Y-29990359D01*
G75*
G02*
X71826064Y-30110000I0J-119641D01*
G01*
X71826064Y-30110000D01*
G75*
G02*
X71706423Y-30229641I-119641J0D01*
G01*
X71189669Y-30229641D01*
G75*
G02*
X71070028Y-30110000I0J119641D01*
G01*
G37*
G36*
G01*
X71070028Y-29610000D02*
X71070028Y-29610000D01*
G75*
G02*
X71189669Y-29490359I119641J0D01*
G01*
X71706423Y-29490359D01*
G75*
G02*
X71826064Y-29610000I0J-119641D01*
G01*
X71826064Y-29610000D01*
G75*
G02*
X71706423Y-29729641I-119641J0D01*
G01*
X71189669Y-29729641D01*
G75*
G02*
X71070028Y-29610000I0J119641D01*
G01*
G37*
%TD*%
%TO.C,U19*%
G36*
G01*
X85345001Y-104340001D02*
X85345001Y-104040001D01*
G75*
G02*
X85495001Y-103890001I150000J0D01*
G01*
X87145001Y-103890001D01*
G75*
G02*
X87295001Y-104040001I0J-150000D01*
G01*
X87295001Y-104340001D01*
G75*
G02*
X87145001Y-104490001I-150000J0D01*
G01*
X85495001Y-104490001D01*
G75*
G02*
X85345001Y-104340001I0J150000D01*
G01*
G37*
G36*
G01*
X85345001Y-105610001D02*
X85345001Y-105310001D01*
G75*
G02*
X85495001Y-105160001I150000J0D01*
G01*
X87145001Y-105160001D01*
G75*
G02*
X87295001Y-105310001I0J-150000D01*
G01*
X87295001Y-105610001D01*
G75*
G02*
X87145001Y-105760001I-150000J0D01*
G01*
X85495001Y-105760001D01*
G75*
G02*
X85345001Y-105610001I0J150000D01*
G01*
G37*
G36*
G01*
X85345001Y-106880001D02*
X85345001Y-106580001D01*
G75*
G02*
X85495001Y-106430001I150000J0D01*
G01*
X87145001Y-106430001D01*
G75*
G02*
X87295001Y-106580001I0J-150000D01*
G01*
X87295001Y-106880001D01*
G75*
G02*
X87145001Y-107030001I-150000J0D01*
G01*
X85495001Y-107030001D01*
G75*
G02*
X85345001Y-106880001I0J150000D01*
G01*
G37*
G36*
G01*
X85345001Y-108150001D02*
X85345001Y-107850001D01*
G75*
G02*
X85495001Y-107700001I150000J0D01*
G01*
X87145001Y-107700001D01*
G75*
G02*
X87295001Y-107850001I0J-150000D01*
G01*
X87295001Y-108150001D01*
G75*
G02*
X87145001Y-108300001I-150000J0D01*
G01*
X85495001Y-108300001D01*
G75*
G02*
X85345001Y-108150001I0J150000D01*
G01*
G37*
G36*
G01*
X90295001Y-108150001D02*
X90295001Y-107850001D01*
G75*
G02*
X90445001Y-107700001I150000J0D01*
G01*
X92095001Y-107700001D01*
G75*
G02*
X92245001Y-107850001I0J-150000D01*
G01*
X92245001Y-108150001D01*
G75*
G02*
X92095001Y-108300001I-150000J0D01*
G01*
X90445001Y-108300001D01*
G75*
G02*
X90295001Y-108150001I0J150000D01*
G01*
G37*
G36*
G01*
X90295001Y-106880001D02*
X90295001Y-106580001D01*
G75*
G02*
X90445001Y-106430001I150000J0D01*
G01*
X92095001Y-106430001D01*
G75*
G02*
X92245001Y-106580001I0J-150000D01*
G01*
X92245001Y-106880001D01*
G75*
G02*
X92095001Y-107030001I-150000J0D01*
G01*
X90445001Y-107030001D01*
G75*
G02*
X90295001Y-106880001I0J150000D01*
G01*
G37*
G36*
G01*
X90295001Y-105610001D02*
X90295001Y-105310001D01*
G75*
G02*
X90445001Y-105160001I150000J0D01*
G01*
X92095001Y-105160001D01*
G75*
G02*
X92245001Y-105310001I0J-150000D01*
G01*
X92245001Y-105610001D01*
G75*
G02*
X92095001Y-105760001I-150000J0D01*
G01*
X90445001Y-105760001D01*
G75*
G02*
X90295001Y-105610001I0J150000D01*
G01*
G37*
G36*
G01*
X90295001Y-104340001D02*
X90295001Y-104040001D01*
G75*
G02*
X90445001Y-103890001I150000J0D01*
G01*
X92095001Y-103890001D01*
G75*
G02*
X92245001Y-104040001I0J-150000D01*
G01*
X92245001Y-104340001D01*
G75*
G02*
X92095001Y-104490001I-150000J0D01*
G01*
X90445001Y-104490001D01*
G75*
G02*
X90295001Y-104340001I0J150000D01*
G01*
G37*
%TD*%
%TO.C,U25*%
G36*
G01*
X49725000Y-59625000D02*
X49725000Y-59775000D01*
G75*
G02*
X49650000Y-59850000I-75000J0D01*
G01*
X48350000Y-59850000D01*
G75*
G02*
X48275000Y-59775000I0J75000D01*
G01*
X48275000Y-59625000D01*
G75*
G02*
X48350000Y-59550000I75000J0D01*
G01*
X49650000Y-59550000D01*
G75*
G02*
X49725000Y-59625000I0J-75000D01*
G01*
G37*
G36*
G01*
X49725000Y-59125000D02*
X49725000Y-59275000D01*
G75*
G02*
X49650000Y-59350000I-75000J0D01*
G01*
X48350000Y-59350000D01*
G75*
G02*
X48275000Y-59275000I0J75000D01*
G01*
X48275000Y-59125000D01*
G75*
G02*
X48350000Y-59050000I75000J0D01*
G01*
X49650000Y-59050000D01*
G75*
G02*
X49725000Y-59125000I0J-75000D01*
G01*
G37*
G36*
G01*
X49725000Y-58625000D02*
X49725000Y-58775000D01*
G75*
G02*
X49650000Y-58850000I-75000J0D01*
G01*
X48350000Y-58850000D01*
G75*
G02*
X48275000Y-58775000I0J75000D01*
G01*
X48275000Y-58625000D01*
G75*
G02*
X48350000Y-58550000I75000J0D01*
G01*
X49650000Y-58550000D01*
G75*
G02*
X49725000Y-58625000I0J-75000D01*
G01*
G37*
G36*
G01*
X49725000Y-58125000D02*
X49725000Y-58275000D01*
G75*
G02*
X49650000Y-58350000I-75000J0D01*
G01*
X48350000Y-58350000D01*
G75*
G02*
X48275000Y-58275000I0J75000D01*
G01*
X48275000Y-58125000D01*
G75*
G02*
X48350000Y-58050000I75000J0D01*
G01*
X49650000Y-58050000D01*
G75*
G02*
X49725000Y-58125000I0J-75000D01*
G01*
G37*
G36*
G01*
X49725000Y-57625000D02*
X49725000Y-57775000D01*
G75*
G02*
X49650000Y-57850000I-75000J0D01*
G01*
X48350000Y-57850000D01*
G75*
G02*
X48275000Y-57775000I0J75000D01*
G01*
X48275000Y-57625000D01*
G75*
G02*
X48350000Y-57550000I75000J0D01*
G01*
X49650000Y-57550000D01*
G75*
G02*
X49725000Y-57625000I0J-75000D01*
G01*
G37*
G36*
G01*
X45325000Y-57625000D02*
X45325000Y-57775000D01*
G75*
G02*
X45250000Y-57850000I-75000J0D01*
G01*
X43950000Y-57850000D01*
G75*
G02*
X43875000Y-57775000I0J75000D01*
G01*
X43875000Y-57625000D01*
G75*
G02*
X43950000Y-57550000I75000J0D01*
G01*
X45250000Y-57550000D01*
G75*
G02*
X45325000Y-57625000I0J-75000D01*
G01*
G37*
G36*
G01*
X45325000Y-58125000D02*
X45325000Y-58275000D01*
G75*
G02*
X45250000Y-58350000I-75000J0D01*
G01*
X43950000Y-58350000D01*
G75*
G02*
X43875000Y-58275000I0J75000D01*
G01*
X43875000Y-58125000D01*
G75*
G02*
X43950000Y-58050000I75000J0D01*
G01*
X45250000Y-58050000D01*
G75*
G02*
X45325000Y-58125000I0J-75000D01*
G01*
G37*
G36*
G01*
X45325000Y-58625000D02*
X45325000Y-58775000D01*
G75*
G02*
X45250000Y-58850000I-75000J0D01*
G01*
X43950000Y-58850000D01*
G75*
G02*
X43875000Y-58775000I0J75000D01*
G01*
X43875000Y-58625000D01*
G75*
G02*
X43950000Y-58550000I75000J0D01*
G01*
X45250000Y-58550000D01*
G75*
G02*
X45325000Y-58625000I0J-75000D01*
G01*
G37*
G36*
G01*
X45325000Y-59125000D02*
X45325000Y-59275000D01*
G75*
G02*
X45250000Y-59350000I-75000J0D01*
G01*
X43950000Y-59350000D01*
G75*
G02*
X43875000Y-59275000I0J75000D01*
G01*
X43875000Y-59125000D01*
G75*
G02*
X43950000Y-59050000I75000J0D01*
G01*
X45250000Y-59050000D01*
G75*
G02*
X45325000Y-59125000I0J-75000D01*
G01*
G37*
G36*
G01*
X45325000Y-59625000D02*
X45325000Y-59775000D01*
G75*
G02*
X45250000Y-59850000I-75000J0D01*
G01*
X43950000Y-59850000D01*
G75*
G02*
X43875000Y-59775000I0J75000D01*
G01*
X43875000Y-59625000D01*
G75*
G02*
X43950000Y-59550000I75000J0D01*
G01*
X45250000Y-59550000D01*
G75*
G02*
X45325000Y-59625000I0J-75000D01*
G01*
G37*
%TD*%
D24*
%TO.C,U27*%
X77800000Y-32100000D03*
X80800000Y-32100000D03*
D10*
G36*
X80166500Y-28150000D02*
G01*
X80166500Y-31275000D01*
X79750000Y-31275000D01*
X79750000Y-32750000D01*
X78850000Y-32750000D01*
X78850000Y-31275000D01*
X78433500Y-31275000D01*
X78433500Y-28150000D01*
X80166500Y-28150000D01*
G37*
%TD*%
%TO.C,C20*%
G36*
G01*
X87537500Y-34650000D02*
X87062500Y-34650000D01*
G75*
G02*
X86825000Y-34412500I0J237500D01*
G01*
X86825000Y-33837500D01*
G75*
G02*
X87062500Y-33600000I237500J0D01*
G01*
X87537500Y-33600000D01*
G75*
G02*
X87775000Y-33837500I0J-237500D01*
G01*
X87775000Y-34412500D01*
G75*
G02*
X87537500Y-34650000I-237500J0D01*
G01*
G37*
G36*
G01*
X87537500Y-36400000D02*
X87062500Y-36400000D01*
G75*
G02*
X86825000Y-36162500I0J237500D01*
G01*
X86825000Y-35587500D01*
G75*
G02*
X87062500Y-35350000I237500J0D01*
G01*
X87537500Y-35350000D01*
G75*
G02*
X87775000Y-35587500I0J-237500D01*
G01*
X87775000Y-36162500D01*
G75*
G02*
X87537500Y-36400000I-237500J0D01*
G01*
G37*
%TD*%
D25*
%TO.C,F1*%
X50340000Y-75800000D03*
X55200000Y-75800000D03*
%TD*%
%TO.C,R1*%
G36*
G01*
X46227500Y-31220000D02*
X46572500Y-31220000D01*
G75*
G02*
X46720000Y-31367500I0J-147500D01*
G01*
X46720000Y-31662500D01*
G75*
G02*
X46572500Y-31810000I-147500J0D01*
G01*
X46227500Y-31810000D01*
G75*
G02*
X46080000Y-31662500I0J147500D01*
G01*
X46080000Y-31367500D01*
G75*
G02*
X46227500Y-31220000I147500J0D01*
G01*
G37*
G36*
G01*
X46227500Y-32190000D02*
X46572500Y-32190000D01*
G75*
G02*
X46720000Y-32337500I0J-147500D01*
G01*
X46720000Y-32632500D01*
G75*
G02*
X46572500Y-32780000I-147500J0D01*
G01*
X46227500Y-32780000D01*
G75*
G02*
X46080000Y-32632500I0J147500D01*
G01*
X46080000Y-32337500D01*
G75*
G02*
X46227500Y-32190000I147500J0D01*
G01*
G37*
%TD*%
%TO.C,R61*%
G36*
G01*
X46572500Y-37745000D02*
X46227500Y-37745000D01*
G75*
G02*
X46080000Y-37597500I0J147500D01*
G01*
X46080000Y-37302500D01*
G75*
G02*
X46227500Y-37155000I147500J0D01*
G01*
X46572500Y-37155000D01*
G75*
G02*
X46720000Y-37302500I0J-147500D01*
G01*
X46720000Y-37597500D01*
G75*
G02*
X46572500Y-37745000I-147500J0D01*
G01*
G37*
G36*
G01*
X46572500Y-38715000D02*
X46227500Y-38715000D01*
G75*
G02*
X46080000Y-38567500I0J147500D01*
G01*
X46080000Y-38272500D01*
G75*
G02*
X46227500Y-38125000I147500J0D01*
G01*
X46572500Y-38125000D01*
G75*
G02*
X46720000Y-38272500I0J-147500D01*
G01*
X46720000Y-38567500D01*
G75*
G02*
X46572500Y-38715000I-147500J0D01*
G01*
G37*
%TD*%
D26*
%TO.C,U14*%
X81990000Y-112025000D03*
X81990000Y-113925000D03*
X79290000Y-113925000D03*
X79290000Y-112975000D03*
X79290000Y-112025000D03*
%TD*%
%TO.C,U26*%
X56650000Y-58000000D03*
X56650000Y-59900000D03*
X53950000Y-59900000D03*
X53950000Y-58950000D03*
X53950000Y-58000000D03*
%TD*%
%TO.C,C49*%
G36*
G01*
X92625000Y-60737500D02*
X91375000Y-60737500D01*
G75*
G02*
X91125000Y-60487500I0J250000D01*
G01*
X91125000Y-59562500D01*
G75*
G02*
X91375000Y-59312500I250000J0D01*
G01*
X92625000Y-59312500D01*
G75*
G02*
X92875000Y-59562500I0J-250000D01*
G01*
X92875000Y-60487500D01*
G75*
G02*
X92625000Y-60737500I-250000J0D01*
G01*
G37*
G36*
G01*
X92625000Y-63712500D02*
X91375000Y-63712500D01*
G75*
G02*
X91125000Y-63462500I0J250000D01*
G01*
X91125000Y-62537500D01*
G75*
G02*
X91375000Y-62287500I250000J0D01*
G01*
X92625000Y-62287500D01*
G75*
G02*
X92875000Y-62537500I0J-250000D01*
G01*
X92875000Y-63462500D01*
G75*
G02*
X92625000Y-63712500I-250000J0D01*
G01*
G37*
%TD*%
%TO.C,C69*%
G36*
G01*
X92725000Y-70887500D02*
X91475000Y-70887500D01*
G75*
G02*
X91225000Y-70637500I0J250000D01*
G01*
X91225000Y-69712500D01*
G75*
G02*
X91475000Y-69462500I250000J0D01*
G01*
X92725000Y-69462500D01*
G75*
G02*
X92975000Y-69712500I0J-250000D01*
G01*
X92975000Y-70637500D01*
G75*
G02*
X92725000Y-70887500I-250000J0D01*
G01*
G37*
G36*
G01*
X92725000Y-67912500D02*
X91475000Y-67912500D01*
G75*
G02*
X91225000Y-67662500I0J250000D01*
G01*
X91225000Y-66737500D01*
G75*
G02*
X91475000Y-66487500I250000J0D01*
G01*
X92725000Y-66487500D01*
G75*
G02*
X92975000Y-66737500I0J-250000D01*
G01*
X92975000Y-67662500D01*
G75*
G02*
X92725000Y-67912500I-250000J0D01*
G01*
G37*
%TD*%
%TO.C,C70*%
G36*
G01*
X90050001Y-63700000D02*
X89149999Y-63700000D01*
G75*
G02*
X88900000Y-63450001I0J249999D01*
G01*
X88900000Y-62799999D01*
G75*
G02*
X89149999Y-62550000I249999J0D01*
G01*
X90050001Y-62550000D01*
G75*
G02*
X90300000Y-62799999I0J-249999D01*
G01*
X90300000Y-63450001D01*
G75*
G02*
X90050001Y-63700000I-249999J0D01*
G01*
G37*
G36*
G01*
X90050001Y-61650000D02*
X89149999Y-61650000D01*
G75*
G02*
X88900000Y-61400001I0J249999D01*
G01*
X88900000Y-60749999D01*
G75*
G02*
X89149999Y-60500000I249999J0D01*
G01*
X90050001Y-60500000D01*
G75*
G02*
X90300000Y-60749999I0J-249999D01*
G01*
X90300000Y-61400001D01*
G75*
G02*
X90050001Y-61650000I-249999J0D01*
G01*
G37*
%TD*%
%TO.C,R32*%
G36*
G01*
X86050000Y-62549999D02*
X86050000Y-63450001D01*
G75*
G02*
X85800001Y-63700000I-249999J0D01*
G01*
X85149999Y-63700000D01*
G75*
G02*
X84900000Y-63450001I0J249999D01*
G01*
X84900000Y-62549999D01*
G75*
G02*
X85149999Y-62300000I249999J0D01*
G01*
X85800001Y-62300000D01*
G75*
G02*
X86050000Y-62549999I0J-249999D01*
G01*
G37*
G36*
G01*
X88100000Y-62549999D02*
X88100000Y-63450001D01*
G75*
G02*
X87850001Y-63700000I-249999J0D01*
G01*
X87199999Y-63700000D01*
G75*
G02*
X86950000Y-63450001I0J249999D01*
G01*
X86950000Y-62549999D01*
G75*
G02*
X87199999Y-62300000I249999J0D01*
G01*
X87850001Y-62300000D01*
G75*
G02*
X88100000Y-62549999I0J-249999D01*
G01*
G37*
%TD*%
%TO.C,R34*%
G36*
G01*
X88075000Y-69749999D02*
X88075000Y-70650001D01*
G75*
G02*
X87825001Y-70900000I-249999J0D01*
G01*
X87174999Y-70900000D01*
G75*
G02*
X86925000Y-70650001I0J249999D01*
G01*
X86925000Y-69749999D01*
G75*
G02*
X87174999Y-69500000I249999J0D01*
G01*
X87825001Y-69500000D01*
G75*
G02*
X88075000Y-69749999I0J-249999D01*
G01*
G37*
G36*
G01*
X86025000Y-69749999D02*
X86025000Y-70650001D01*
G75*
G02*
X85775001Y-70900000I-249999J0D01*
G01*
X85124999Y-70900000D01*
G75*
G02*
X84875000Y-70650001I0J249999D01*
G01*
X84875000Y-69749999D01*
G75*
G02*
X85124999Y-69500000I249999J0D01*
G01*
X85775001Y-69500000D01*
G75*
G02*
X86025000Y-69749999I0J-249999D01*
G01*
G37*
%TD*%
%TO.C,R37*%
G36*
G01*
X79480000Y-64727500D02*
X79480000Y-65072500D01*
G75*
G02*
X79332500Y-65220000I-147500J0D01*
G01*
X79037500Y-65220000D01*
G75*
G02*
X78890000Y-65072500I0J147500D01*
G01*
X78890000Y-64727500D01*
G75*
G02*
X79037500Y-64580000I147500J0D01*
G01*
X79332500Y-64580000D01*
G75*
G02*
X79480000Y-64727500I0J-147500D01*
G01*
G37*
G36*
G01*
X78510000Y-64727500D02*
X78510000Y-65072500D01*
G75*
G02*
X78362500Y-65220000I-147500J0D01*
G01*
X78067500Y-65220000D01*
G75*
G02*
X77920000Y-65072500I0J147500D01*
G01*
X77920000Y-64727500D01*
G75*
G02*
X78067500Y-64580000I147500J0D01*
G01*
X78362500Y-64580000D01*
G75*
G02*
X78510000Y-64727500I0J-147500D01*
G01*
G37*
%TD*%
%TO.C,R62*%
G36*
G01*
X78310000Y-71927500D02*
X78310000Y-72272500D01*
G75*
G02*
X78162500Y-72420000I-147500J0D01*
G01*
X77867500Y-72420000D01*
G75*
G02*
X77720000Y-72272500I0J147500D01*
G01*
X77720000Y-71927500D01*
G75*
G02*
X77867500Y-71780000I147500J0D01*
G01*
X78162500Y-71780000D01*
G75*
G02*
X78310000Y-71927500I0J-147500D01*
G01*
G37*
G36*
G01*
X79280000Y-71927500D02*
X79280000Y-72272500D01*
G75*
G02*
X79132500Y-72420000I-147500J0D01*
G01*
X78837500Y-72420000D01*
G75*
G02*
X78690000Y-72272500I0J147500D01*
G01*
X78690000Y-71927500D01*
G75*
G02*
X78837500Y-71780000I147500J0D01*
G01*
X79132500Y-71780000D01*
G75*
G02*
X79280000Y-71927500I0J-147500D01*
G01*
G37*
%TD*%
%TO.C,R64*%
G36*
G01*
X85625000Y-72927500D02*
X85625000Y-73272500D01*
G75*
G02*
X85477500Y-73420000I-147500J0D01*
G01*
X85182500Y-73420000D01*
G75*
G02*
X85035000Y-73272500I0J147500D01*
G01*
X85035000Y-72927500D01*
G75*
G02*
X85182500Y-72780000I147500J0D01*
G01*
X85477500Y-72780000D01*
G75*
G02*
X85625000Y-72927500I0J-147500D01*
G01*
G37*
G36*
G01*
X86595000Y-72927500D02*
X86595000Y-73272500D01*
G75*
G02*
X86447500Y-73420000I-147500J0D01*
G01*
X86152500Y-73420000D01*
G75*
G02*
X86005000Y-73272500I0J147500D01*
G01*
X86005000Y-72927500D01*
G75*
G02*
X86152500Y-72780000I147500J0D01*
G01*
X86447500Y-72780000D01*
G75*
G02*
X86595000Y-72927500I0J-147500D01*
G01*
G37*
%TD*%
%TO.C,U15*%
X83520000Y-63960000D03*
X83520000Y-65860000D03*
X80820000Y-65860000D03*
X80820000Y-64910000D03*
X80820000Y-63960000D03*
%TD*%
%TO.C,U29*%
X80670000Y-71190000D03*
X80670000Y-72140000D03*
X80670000Y-73090000D03*
X83370000Y-73090000D03*
X83370000Y-71190000D03*
%TD*%
%TO.C,R63*%
G36*
G01*
X86765000Y-65677500D02*
X86765000Y-66022500D01*
G75*
G02*
X86617500Y-66170000I-147500J0D01*
G01*
X86322500Y-66170000D01*
G75*
G02*
X86175000Y-66022500I0J147500D01*
G01*
X86175000Y-65677500D01*
G75*
G02*
X86322500Y-65530000I147500J0D01*
G01*
X86617500Y-65530000D01*
G75*
G02*
X86765000Y-65677500I0J-147500D01*
G01*
G37*
G36*
G01*
X85795000Y-65677500D02*
X85795000Y-66022500D01*
G75*
G02*
X85647500Y-66170000I-147500J0D01*
G01*
X85352500Y-66170000D01*
G75*
G02*
X85205000Y-66022500I0J147500D01*
G01*
X85205000Y-65677500D01*
G75*
G02*
X85352500Y-65530000I147500J0D01*
G01*
X85647500Y-65530000D01*
G75*
G02*
X85795000Y-65677500I0J-147500D01*
G01*
G37*
%TD*%
M02*
