%TF.GenerationSoftware,KiCad,Pcbnew,5.1.6-c6e7f7d~87~ubuntu20.04.1*%
%TF.CreationDate,2020-11-09T11:07:46+00:00*%
%TF.ProjectId,FrequencyCounter,46726571-7565-46e6-9379-436f756e7465,rev?*%
%TF.SameCoordinates,Original*%
%TF.FileFunction,Legend,Top*%
%TF.FilePolarity,Positive*%
%FSLAX46Y46*%
G04 Gerber Fmt 4.6, Leading zero omitted, Abs format (unit mm)*
G04 Created by KiCad (PCBNEW 5.1.6-c6e7f7d~87~ubuntu20.04.1) date 2020-11-09 11:07:46*
%MOMM*%
%LPD*%
G01*
G04 APERTURE LIST*
%ADD10C,0.150000*%
%ADD11C,0.300000*%
%ADD12C,0.200000*%
%ADD13C,0.120000*%
%ADD14C,0.250000*%
%ADD15C,0.152400*%
%ADD16C,0.100000*%
G04 APERTURE END LIST*
D10*
X103520000Y-92272380D02*
X103710476Y-92272380D01*
X103805714Y-92320000D01*
X103900952Y-92415238D01*
X103948571Y-92605714D01*
X103948571Y-92939047D01*
X103900952Y-93129523D01*
X103805714Y-93224761D01*
X103710476Y-93272380D01*
X103520000Y-93272380D01*
X103424761Y-93224761D01*
X103329523Y-93129523D01*
X103281904Y-92939047D01*
X103281904Y-92605714D01*
X103329523Y-92415238D01*
X103424761Y-92320000D01*
X103520000Y-92272380D01*
X104377142Y-92272380D02*
X104377142Y-93081904D01*
X104424761Y-93177142D01*
X104472380Y-93224761D01*
X104567619Y-93272380D01*
X104758095Y-93272380D01*
X104853333Y-93224761D01*
X104900952Y-93177142D01*
X104948571Y-93081904D01*
X104948571Y-92272380D01*
X105281904Y-92272380D02*
X105853333Y-92272380D01*
X105567619Y-93272380D02*
X105567619Y-92272380D01*
X103632857Y-87388571D02*
X103299523Y-87388571D01*
X103299523Y-87912380D02*
X103299523Y-86912380D01*
X103775714Y-86912380D01*
X103068571Y-82632380D02*
X103068571Y-81632380D01*
X103640000Y-82632380D01*
X103640000Y-81632380D01*
X104306666Y-81632380D02*
X104497142Y-81632380D01*
X104592380Y-81680000D01*
X104687619Y-81775238D01*
X104735238Y-81965714D01*
X104735238Y-82299047D01*
X104687619Y-82489523D01*
X104592380Y-82584761D01*
X104497142Y-82632380D01*
X104306666Y-82632380D01*
X104211428Y-82584761D01*
X104116190Y-82489523D01*
X104068571Y-82299047D01*
X104068571Y-81965714D01*
X104116190Y-81775238D01*
X104211428Y-81680000D01*
X104306666Y-81632380D01*
X105020952Y-81632380D02*
X105592380Y-81632380D01*
X105306666Y-82632380D02*
X105306666Y-81632380D01*
X107259047Y-82537142D02*
X107211428Y-82584761D01*
X107068571Y-82632380D01*
X106973333Y-82632380D01*
X106830476Y-82584761D01*
X106735238Y-82489523D01*
X106687619Y-82394285D01*
X106640000Y-82203809D01*
X106640000Y-82060952D01*
X106687619Y-81870476D01*
X106735238Y-81775238D01*
X106830476Y-81680000D01*
X106973333Y-81632380D01*
X107068571Y-81632380D01*
X107211428Y-81680000D01*
X107259047Y-81727619D01*
X99770952Y-80522380D02*
X99770952Y-79522380D01*
X100247142Y-80522380D02*
X100247142Y-79522380D01*
X100818571Y-80522380D01*
X100818571Y-79522380D01*
X101151904Y-79522380D02*
X101723333Y-79522380D01*
X101437619Y-80522380D02*
X101437619Y-79522380D01*
X102056666Y-79998571D02*
X102390000Y-79998571D01*
X102532857Y-80522380D02*
X102056666Y-80522380D01*
X102056666Y-79522380D01*
X102532857Y-79522380D01*
X103532857Y-80522380D02*
X103199523Y-80046190D01*
X102961428Y-80522380D02*
X102961428Y-79522380D01*
X103342380Y-79522380D01*
X103437619Y-79570000D01*
X103485238Y-79617619D01*
X103532857Y-79712857D01*
X103532857Y-79855714D01*
X103485238Y-79950952D01*
X103437619Y-79998571D01*
X103342380Y-80046190D01*
X102961428Y-80046190D01*
X103961428Y-80522380D02*
X103961428Y-79522380D01*
X104342380Y-79522380D01*
X104437619Y-79570000D01*
X104485238Y-79617619D01*
X104532857Y-79712857D01*
X104532857Y-79855714D01*
X104485238Y-79950952D01*
X104437619Y-79998571D01*
X104342380Y-80046190D01*
X103961428Y-80046190D01*
X105151904Y-79522380D02*
X105342380Y-79522380D01*
X105437619Y-79570000D01*
X105532857Y-79665238D01*
X105580476Y-79855714D01*
X105580476Y-80189047D01*
X105532857Y-80379523D01*
X105437619Y-80474761D01*
X105342380Y-80522380D01*
X105151904Y-80522380D01*
X105056666Y-80474761D01*
X104961428Y-80379523D01*
X104913809Y-80189047D01*
X104913809Y-79855714D01*
X104961428Y-79665238D01*
X105056666Y-79570000D01*
X105151904Y-79522380D01*
X106485238Y-80522380D02*
X106009047Y-80522380D01*
X106009047Y-79522380D01*
X106770952Y-80236666D02*
X107247142Y-80236666D01*
X106675714Y-80522380D02*
X107009047Y-79522380D01*
X107342380Y-80522380D01*
X107532857Y-79522380D02*
X108104285Y-79522380D01*
X107818571Y-80522380D02*
X107818571Y-79522380D01*
X108628095Y-79522380D02*
X108818571Y-79522380D01*
X108913809Y-79570000D01*
X109009047Y-79665238D01*
X109056666Y-79855714D01*
X109056666Y-80189047D01*
X109009047Y-80379523D01*
X108913809Y-80474761D01*
X108818571Y-80522380D01*
X108628095Y-80522380D01*
X108532857Y-80474761D01*
X108437619Y-80379523D01*
X108390000Y-80189047D01*
X108390000Y-79855714D01*
X108437619Y-79665238D01*
X108532857Y-79570000D01*
X108628095Y-79522380D01*
X110056666Y-80522380D02*
X109723333Y-80046190D01*
X109485238Y-80522380D02*
X109485238Y-79522380D01*
X109866190Y-79522380D01*
X109961428Y-79570000D01*
X110009047Y-79617619D01*
X110056666Y-79712857D01*
X110056666Y-79855714D01*
X110009047Y-79950952D01*
X109961428Y-79998571D01*
X109866190Y-80046190D01*
X109485238Y-80046190D01*
X60419047Y-85852380D02*
X60419047Y-84852380D01*
X60800000Y-84852380D01*
X60895238Y-84900000D01*
X60942857Y-84947619D01*
X60990476Y-85042857D01*
X60990476Y-85185714D01*
X60942857Y-85280952D01*
X60895238Y-85328571D01*
X60800000Y-85376190D01*
X60419047Y-85376190D01*
X61609523Y-84852380D02*
X61800000Y-84852380D01*
X61895238Y-84900000D01*
X61990476Y-84995238D01*
X62038095Y-85185714D01*
X62038095Y-85519047D01*
X61990476Y-85709523D01*
X61895238Y-85804761D01*
X61800000Y-85852380D01*
X61609523Y-85852380D01*
X61514285Y-85804761D01*
X61419047Y-85709523D01*
X61371428Y-85519047D01*
X61371428Y-85185714D01*
X61419047Y-84995238D01*
X61514285Y-84900000D01*
X61609523Y-84852380D01*
X62371428Y-84852380D02*
X62609523Y-85852380D01*
X62800000Y-85138095D01*
X62990476Y-85852380D01*
X63228571Y-84852380D01*
X63609523Y-85328571D02*
X63942857Y-85328571D01*
X64085714Y-85852380D02*
X63609523Y-85852380D01*
X63609523Y-84852380D01*
X64085714Y-84852380D01*
X65085714Y-85852380D02*
X64752380Y-85376190D01*
X64514285Y-85852380D02*
X64514285Y-84852380D01*
X64895238Y-84852380D01*
X64990476Y-84900000D01*
X65038095Y-84947619D01*
X65085714Y-85042857D01*
X65085714Y-85185714D01*
X65038095Y-85280952D01*
X64990476Y-85328571D01*
X64895238Y-85376190D01*
X64514285Y-85376190D01*
X66228571Y-85804761D02*
X66371428Y-85852380D01*
X66609523Y-85852380D01*
X66704761Y-85804761D01*
X66752380Y-85757142D01*
X66800000Y-85661904D01*
X66800000Y-85566666D01*
X66752380Y-85471428D01*
X66704761Y-85423809D01*
X66609523Y-85376190D01*
X66419047Y-85328571D01*
X66323809Y-85280952D01*
X66276190Y-85233333D01*
X66228571Y-85138095D01*
X66228571Y-85042857D01*
X66276190Y-84947619D01*
X66323809Y-84900000D01*
X66419047Y-84852380D01*
X66657142Y-84852380D01*
X66800000Y-84900000D01*
X67133333Y-84852380D02*
X67371428Y-85852380D01*
X67561904Y-85138095D01*
X67752380Y-85852380D01*
X67990476Y-84852380D01*
X68371428Y-85852380D02*
X68371428Y-84852380D01*
X68704761Y-84852380D02*
X69276190Y-84852380D01*
X68990476Y-85852380D02*
X68990476Y-84852380D01*
X70180952Y-85757142D02*
X70133333Y-85804761D01*
X69990476Y-85852380D01*
X69895238Y-85852380D01*
X69752380Y-85804761D01*
X69657142Y-85709523D01*
X69609523Y-85614285D01*
X69561904Y-85423809D01*
X69561904Y-85280952D01*
X69609523Y-85090476D01*
X69657142Y-84995238D01*
X69752380Y-84900000D01*
X69895238Y-84852380D01*
X69990476Y-84852380D01*
X70133333Y-84900000D01*
X70180952Y-84947619D01*
X70609523Y-85852380D02*
X70609523Y-84852380D01*
X70609523Y-85328571D02*
X71180952Y-85328571D01*
X71180952Y-85852380D02*
X71180952Y-84852380D01*
D11*
X45228571Y-79107142D02*
X46371428Y-79107142D01*
X45800000Y-79678571D02*
X45800000Y-78535714D01*
X45128571Y-65607142D02*
X46271428Y-65607142D01*
D10*
X84300000Y-61400000D02*
X84300000Y-51900000D01*
X72300000Y-61400000D02*
X84300000Y-61400000D01*
X81000000Y-59600000D02*
X81000000Y-51800000D01*
X66400000Y-59600000D02*
X81000000Y-59600000D01*
X77500000Y-58100000D02*
X77500000Y-51900000D01*
X66300000Y-58100000D02*
X77500000Y-58100000D01*
X74400000Y-56500000D02*
X74400000Y-51800000D01*
X74100000Y-56500000D02*
X74400000Y-56500000D01*
X66400000Y-56500000D02*
X74100000Y-56500000D01*
X71000000Y-54700000D02*
X66375000Y-54700000D01*
X71000000Y-51775000D02*
X71000000Y-54700000D01*
D12*
X62721190Y-62013095D02*
X62721190Y-60713095D01*
X63464047Y-62013095D01*
X63464047Y-60713095D01*
X64021190Y-61951190D02*
X64206904Y-62013095D01*
X64516428Y-62013095D01*
X64640238Y-61951190D01*
X64702142Y-61889285D01*
X64764047Y-61765476D01*
X64764047Y-61641666D01*
X64702142Y-61517857D01*
X64640238Y-61455952D01*
X64516428Y-61394047D01*
X64268809Y-61332142D01*
X64145000Y-61270238D01*
X64083095Y-61208333D01*
X64021190Y-61084523D01*
X64021190Y-60960714D01*
X64083095Y-60836904D01*
X64145000Y-60775000D01*
X64268809Y-60713095D01*
X64578333Y-60713095D01*
X64764047Y-60775000D01*
X65259285Y-61951190D02*
X65445000Y-62013095D01*
X65754523Y-62013095D01*
X65878333Y-61951190D01*
X65940238Y-61889285D01*
X66002142Y-61765476D01*
X66002142Y-61641666D01*
X65940238Y-61517857D01*
X65878333Y-61455952D01*
X65754523Y-61394047D01*
X65506904Y-61332142D01*
X65383095Y-61270238D01*
X65321190Y-61208333D01*
X65259285Y-61084523D01*
X65259285Y-60960714D01*
X65321190Y-60836904D01*
X65383095Y-60775000D01*
X65506904Y-60713095D01*
X65816428Y-60713095D01*
X66002142Y-60775000D01*
X66249761Y-62136904D02*
X67240238Y-62136904D01*
X67983095Y-61332142D02*
X67549761Y-61332142D01*
X67549761Y-62013095D02*
X67549761Y-60713095D01*
X68168809Y-60713095D01*
X68602142Y-61641666D02*
X69221190Y-61641666D01*
X68478333Y-62013095D02*
X68911666Y-60713095D01*
X69345000Y-62013095D01*
X69778333Y-62013095D02*
X69778333Y-60713095D01*
X70521190Y-62013095D02*
X69964047Y-61270238D01*
X70521190Y-60713095D02*
X69778333Y-61455952D01*
X71078333Y-61332142D02*
X71511666Y-61332142D01*
X71697380Y-62013095D02*
X71078333Y-62013095D01*
X71078333Y-60713095D01*
X71697380Y-60713095D01*
X62679523Y-60263690D02*
X62865238Y-60325595D01*
X63174761Y-60325595D01*
X63298571Y-60263690D01*
X63360476Y-60201785D01*
X63422380Y-60077976D01*
X63422380Y-59954166D01*
X63360476Y-59830357D01*
X63298571Y-59768452D01*
X63174761Y-59706547D01*
X62927142Y-59644642D01*
X62803333Y-59582738D01*
X62741428Y-59520833D01*
X62679523Y-59397023D01*
X62679523Y-59273214D01*
X62741428Y-59149404D01*
X62803333Y-59087500D01*
X62927142Y-59025595D01*
X63236666Y-59025595D01*
X63422380Y-59087500D01*
X64722380Y-60201785D02*
X64660476Y-60263690D01*
X64474761Y-60325595D01*
X64350952Y-60325595D01*
X64165238Y-60263690D01*
X64041428Y-60139880D01*
X63979523Y-60016071D01*
X63917619Y-59768452D01*
X63917619Y-59582738D01*
X63979523Y-59335119D01*
X64041428Y-59211309D01*
X64165238Y-59087500D01*
X64350952Y-59025595D01*
X64474761Y-59025595D01*
X64660476Y-59087500D01*
X64722380Y-59149404D01*
X65279523Y-60325595D02*
X65279523Y-59025595D01*
X66022380Y-60325595D02*
X65465238Y-59582738D01*
X66022380Y-59025595D02*
X65279523Y-59768452D01*
X63360476Y-58576190D02*
X63546190Y-58638095D01*
X63855714Y-58638095D01*
X63979523Y-58576190D01*
X64041428Y-58514285D01*
X64103333Y-58390476D01*
X64103333Y-58266666D01*
X64041428Y-58142857D01*
X63979523Y-58080952D01*
X63855714Y-58019047D01*
X63608095Y-57957142D01*
X63484285Y-57895238D01*
X63422380Y-57833333D01*
X63360476Y-57709523D01*
X63360476Y-57585714D01*
X63422380Y-57461904D01*
X63484285Y-57400000D01*
X63608095Y-57338095D01*
X63917619Y-57338095D01*
X64103333Y-57400000D01*
X64660476Y-58638095D02*
X64660476Y-57338095D01*
X64970000Y-57338095D01*
X65155714Y-57400000D01*
X65279523Y-57523809D01*
X65341428Y-57647619D01*
X65403333Y-57895238D01*
X65403333Y-58080952D01*
X65341428Y-58328571D01*
X65279523Y-58452380D01*
X65155714Y-58576190D01*
X64970000Y-58638095D01*
X64660476Y-58638095D01*
X65960476Y-58638095D02*
X65960476Y-57338095D01*
X62617619Y-56888690D02*
X62803333Y-56950595D01*
X63112857Y-56950595D01*
X63236666Y-56888690D01*
X63298571Y-56826785D01*
X63360476Y-56702976D01*
X63360476Y-56579166D01*
X63298571Y-56455357D01*
X63236666Y-56393452D01*
X63112857Y-56331547D01*
X62865238Y-56269642D01*
X62741428Y-56207738D01*
X62679523Y-56145833D01*
X62617619Y-56022023D01*
X62617619Y-55898214D01*
X62679523Y-55774404D01*
X62741428Y-55712500D01*
X62865238Y-55650595D01*
X63174761Y-55650595D01*
X63360476Y-55712500D01*
X63917619Y-56950595D02*
X63917619Y-55650595D01*
X64227142Y-55650595D01*
X64412857Y-55712500D01*
X64536666Y-55836309D01*
X64598571Y-55960119D01*
X64660476Y-56207738D01*
X64660476Y-56393452D01*
X64598571Y-56641071D01*
X64536666Y-56764880D01*
X64412857Y-56888690D01*
X64227142Y-56950595D01*
X63917619Y-56950595D01*
X65465238Y-55650595D02*
X65712857Y-55650595D01*
X65836666Y-55712500D01*
X65960476Y-55836309D01*
X66022380Y-56083928D01*
X66022380Y-56517261D01*
X65960476Y-56764880D01*
X65836666Y-56888690D01*
X65712857Y-56950595D01*
X65465238Y-56950595D01*
X65341428Y-56888690D01*
X65217619Y-56764880D01*
X65155714Y-56517261D01*
X65155714Y-56083928D01*
X65217619Y-55836309D01*
X65341428Y-55712500D01*
X65465238Y-55650595D01*
X62741428Y-55263095D02*
X62741428Y-53963095D01*
X63484285Y-55263095D01*
X63484285Y-53963095D01*
X64041428Y-55201190D02*
X64227142Y-55263095D01*
X64536666Y-55263095D01*
X64660476Y-55201190D01*
X64722380Y-55139285D01*
X64784285Y-55015476D01*
X64784285Y-54891666D01*
X64722380Y-54767857D01*
X64660476Y-54705952D01*
X64536666Y-54644047D01*
X64289047Y-54582142D01*
X64165238Y-54520238D01*
X64103333Y-54458333D01*
X64041428Y-54334523D01*
X64041428Y-54210714D01*
X64103333Y-54086904D01*
X64165238Y-54025000D01*
X64289047Y-53963095D01*
X64598571Y-53963095D01*
X64784285Y-54025000D01*
X65279523Y-55201190D02*
X65465238Y-55263095D01*
X65774761Y-55263095D01*
X65898571Y-55201190D01*
X65960476Y-55139285D01*
X66022380Y-55015476D01*
X66022380Y-54891666D01*
X65960476Y-54767857D01*
X65898571Y-54705952D01*
X65774761Y-54644047D01*
X65527142Y-54582142D01*
X65403333Y-54520238D01*
X65341428Y-54458333D01*
X65279523Y-54334523D01*
X65279523Y-54210714D01*
X65341428Y-54086904D01*
X65403333Y-54025000D01*
X65527142Y-53963095D01*
X65836666Y-53963095D01*
X66022380Y-54025000D01*
X123340476Y-77313095D02*
X123340476Y-76013095D01*
X123650000Y-76013095D01*
X123835714Y-76075000D01*
X123959523Y-76198809D01*
X124021428Y-76322619D01*
X124083333Y-76570238D01*
X124083333Y-76755952D01*
X124021428Y-77003571D01*
X123959523Y-77127380D01*
X123835714Y-77251190D01*
X123650000Y-77313095D01*
X123340476Y-77313095D01*
X124640476Y-77313095D02*
X124640476Y-76013095D01*
X125197619Y-77251190D02*
X125383333Y-77313095D01*
X125692857Y-77313095D01*
X125816666Y-77251190D01*
X125878571Y-77189285D01*
X125940476Y-77065476D01*
X125940476Y-76941666D01*
X125878571Y-76817857D01*
X125816666Y-76755952D01*
X125692857Y-76694047D01*
X125445238Y-76632142D01*
X125321428Y-76570238D01*
X125259523Y-76508333D01*
X125197619Y-76384523D01*
X125197619Y-76260714D01*
X125259523Y-76136904D01*
X125321428Y-76075000D01*
X125445238Y-76013095D01*
X125754761Y-76013095D01*
X125940476Y-76075000D01*
X126497619Y-77313095D02*
X126497619Y-76013095D01*
X126992857Y-76013095D01*
X127116666Y-76075000D01*
X127178571Y-76136904D01*
X127240476Y-76260714D01*
X127240476Y-76446428D01*
X127178571Y-76570238D01*
X127116666Y-76632142D01*
X126992857Y-76694047D01*
X126497619Y-76694047D01*
X128416666Y-77313095D02*
X127797619Y-77313095D01*
X127797619Y-76013095D01*
X128788095Y-76941666D02*
X129407142Y-76941666D01*
X128664285Y-77313095D02*
X129097619Y-76013095D01*
X129530952Y-77313095D01*
X130211904Y-76694047D02*
X130211904Y-77313095D01*
X129778571Y-76013095D02*
X130211904Y-76694047D01*
X130645238Y-76013095D01*
X126058333Y-51414285D02*
X125996428Y-51476190D01*
X125810714Y-51538095D01*
X125686904Y-51538095D01*
X125501190Y-51476190D01*
X125377380Y-51352380D01*
X125315476Y-51228571D01*
X125253571Y-50980952D01*
X125253571Y-50795238D01*
X125315476Y-50547619D01*
X125377380Y-50423809D01*
X125501190Y-50300000D01*
X125686904Y-50238095D01*
X125810714Y-50238095D01*
X125996428Y-50300000D01*
X126058333Y-50361904D01*
X126615476Y-51538095D02*
X126615476Y-50238095D01*
X127110714Y-50238095D01*
X127234523Y-50300000D01*
X127296428Y-50361904D01*
X127358333Y-50485714D01*
X127358333Y-50671428D01*
X127296428Y-50795238D01*
X127234523Y-50857142D01*
X127110714Y-50919047D01*
X126615476Y-50919047D01*
X128534523Y-51538095D02*
X127915476Y-51538095D01*
X127915476Y-50238095D01*
X128967857Y-51538095D02*
X128967857Y-50238095D01*
X129277380Y-50238095D01*
X129463095Y-50300000D01*
X129586904Y-50423809D01*
X129648809Y-50547619D01*
X129710714Y-50795238D01*
X129710714Y-50980952D01*
X129648809Y-51228571D01*
X129586904Y-51352380D01*
X129463095Y-51476190D01*
X129277380Y-51538095D01*
X128967857Y-51538095D01*
X131629761Y-50238095D02*
X131629761Y-51166666D01*
X131567857Y-51352380D01*
X131444047Y-51476190D01*
X131258333Y-51538095D01*
X131134523Y-51538095D01*
X132063095Y-50238095D02*
X132805952Y-50238095D01*
X132434523Y-51538095D02*
X132434523Y-50238095D01*
X133177380Y-51166666D02*
X133796428Y-51166666D01*
X133053571Y-51538095D02*
X133486904Y-50238095D01*
X133920238Y-51538095D01*
X135034523Y-50300000D02*
X134910714Y-50238095D01*
X134725000Y-50238095D01*
X134539285Y-50300000D01*
X134415476Y-50423809D01*
X134353571Y-50547619D01*
X134291666Y-50795238D01*
X134291666Y-50980952D01*
X134353571Y-51228571D01*
X134415476Y-51352380D01*
X134539285Y-51476190D01*
X134725000Y-51538095D01*
X134848809Y-51538095D01*
X135034523Y-51476190D01*
X135096428Y-51414285D01*
X135096428Y-50980952D01*
X134848809Y-50980952D01*
D10*
X113909523Y-22627380D02*
X113433333Y-22627380D01*
X113385714Y-23103571D01*
X113433333Y-23055952D01*
X113528571Y-23008333D01*
X113766666Y-23008333D01*
X113861904Y-23055952D01*
X113909523Y-23103571D01*
X113957142Y-23198809D01*
X113957142Y-23436904D01*
X113909523Y-23532142D01*
X113861904Y-23579761D01*
X113766666Y-23627380D01*
X113528571Y-23627380D01*
X113433333Y-23579761D01*
X113385714Y-23532142D01*
X114242857Y-22627380D02*
X114576190Y-23627380D01*
X114909523Y-22627380D01*
X107734523Y-23627380D02*
X107734523Y-22627380D01*
X107972619Y-22627380D01*
X108115476Y-22675000D01*
X108210714Y-22770238D01*
X108258333Y-22865476D01*
X108305952Y-23055952D01*
X108305952Y-23198809D01*
X108258333Y-23389285D01*
X108210714Y-23484523D01*
X108115476Y-23579761D01*
X107972619Y-23627380D01*
X107734523Y-23627380D01*
X108591666Y-22627380D02*
X108925000Y-23627380D01*
X109258333Y-22627380D01*
X109591666Y-23627380D02*
X109591666Y-22627380D01*
X109829761Y-22627380D01*
X109972619Y-22675000D01*
X110067857Y-22770238D01*
X110115476Y-22865476D01*
X110163095Y-23055952D01*
X110163095Y-23198809D01*
X110115476Y-23389285D01*
X110067857Y-23484523D01*
X109972619Y-23579761D01*
X109829761Y-23627380D01*
X109591666Y-23627380D01*
X110591666Y-23627380D02*
X110591666Y-22627380D01*
X110829761Y-22627380D01*
X110972619Y-22675000D01*
X111067857Y-22770238D01*
X111115476Y-22865476D01*
X111163095Y-23055952D01*
X111163095Y-23198809D01*
X111115476Y-23389285D01*
X111067857Y-23484523D01*
X110972619Y-23579761D01*
X110829761Y-23627380D01*
X110591666Y-23627380D01*
X103333333Y-23341666D02*
X103809523Y-23341666D01*
X103238095Y-23627380D02*
X103571428Y-22627380D01*
X103904761Y-23627380D01*
X104095238Y-22627380D02*
X104428571Y-23627380D01*
X104761904Y-22627380D01*
X105095238Y-23627380D02*
X105095238Y-22627380D01*
X105333333Y-22627380D01*
X105476190Y-22675000D01*
X105571428Y-22770238D01*
X105619047Y-22865476D01*
X105666666Y-23055952D01*
X105666666Y-23198809D01*
X105619047Y-23389285D01*
X105571428Y-23484523D01*
X105476190Y-23579761D01*
X105333333Y-23627380D01*
X105095238Y-23627380D01*
X106095238Y-23627380D02*
X106095238Y-22627380D01*
X106333333Y-22627380D01*
X106476190Y-22675000D01*
X106571428Y-22770238D01*
X106619047Y-22865476D01*
X106666666Y-23055952D01*
X106666666Y-23198809D01*
X106619047Y-23389285D01*
X106571428Y-23484523D01*
X106476190Y-23579761D01*
X106333333Y-23627380D01*
X106095238Y-23627380D01*
D12*
X97330952Y-26077380D02*
X97330952Y-25077380D01*
X97569047Y-25077380D01*
X97711904Y-25125000D01*
X97807142Y-25220238D01*
X97854761Y-25315476D01*
X97902380Y-25505952D01*
X97902380Y-25648809D01*
X97854761Y-25839285D01*
X97807142Y-25934523D01*
X97711904Y-26029761D01*
X97569047Y-26077380D01*
X97330952Y-26077380D01*
X98330952Y-26077380D02*
X98330952Y-25077380D01*
X98664285Y-25077380D02*
X98997619Y-26077380D01*
X99330952Y-25077380D01*
X99664285Y-26077380D02*
X99664285Y-25077380D01*
X100140476Y-26077380D02*
X100140476Y-25077380D01*
X100378571Y-25077380D01*
X100521428Y-25125000D01*
X100616666Y-25220238D01*
X100664285Y-25315476D01*
X100711904Y-25505952D01*
X100711904Y-25648809D01*
X100664285Y-25839285D01*
X100616666Y-25934523D01*
X100521428Y-26029761D01*
X100378571Y-26077380D01*
X100140476Y-26077380D01*
X101140476Y-25553571D02*
X101473809Y-25553571D01*
X101616666Y-26077380D02*
X101140476Y-26077380D01*
X101140476Y-25077380D01*
X101616666Y-25077380D01*
X102616666Y-26077380D02*
X102283333Y-25601190D01*
X102045238Y-26077380D02*
X102045238Y-25077380D01*
X102426190Y-25077380D01*
X102521428Y-25125000D01*
X102569047Y-25172619D01*
X102616666Y-25267857D01*
X102616666Y-25410714D01*
X102569047Y-25505952D01*
X102521428Y-25553571D01*
X102426190Y-25601190D01*
X102045238Y-25601190D01*
X97640476Y-27777380D02*
X97640476Y-26777380D01*
X98021428Y-26777380D01*
X98116666Y-26825000D01*
X98164285Y-26872619D01*
X98211904Y-26967857D01*
X98211904Y-27110714D01*
X98164285Y-27205952D01*
X98116666Y-27253571D01*
X98021428Y-27301190D01*
X97640476Y-27301190D01*
X98830952Y-26777380D02*
X99021428Y-26777380D01*
X99116666Y-26825000D01*
X99211904Y-26920238D01*
X99259523Y-27110714D01*
X99259523Y-27444047D01*
X99211904Y-27634523D01*
X99116666Y-27729761D01*
X99021428Y-27777380D01*
X98830952Y-27777380D01*
X98735714Y-27729761D01*
X98640476Y-27634523D01*
X98592857Y-27444047D01*
X98592857Y-27110714D01*
X98640476Y-26920238D01*
X98735714Y-26825000D01*
X98830952Y-26777380D01*
X99592857Y-26777380D02*
X99830952Y-27777380D01*
X100021428Y-27063095D01*
X100211904Y-27777380D01*
X100450000Y-26777380D01*
X100830952Y-27253571D02*
X101164285Y-27253571D01*
X101307142Y-27777380D02*
X100830952Y-27777380D01*
X100830952Y-26777380D01*
X101307142Y-26777380D01*
X102307142Y-27777380D02*
X101973809Y-27301190D01*
X101735714Y-27777380D02*
X101735714Y-26777380D01*
X102116666Y-26777380D01*
X102211904Y-26825000D01*
X102259523Y-26872619D01*
X102307142Y-26967857D01*
X102307142Y-27110714D01*
X102259523Y-27205952D01*
X102211904Y-27253571D01*
X102116666Y-27301190D01*
X101735714Y-27301190D01*
D13*
%TO.C,C94*%
X88890000Y-69586252D02*
X88890000Y-69063748D01*
X90310000Y-69586252D02*
X90310000Y-69063748D01*
%TO.C,U6*%
X119660000Y-34300000D02*
X119660000Y-40310000D01*
X112840000Y-36550000D02*
X112840000Y-40310000D01*
X119660000Y-40310000D02*
X118400000Y-40310000D01*
X112840000Y-40310000D02*
X114100000Y-40310000D01*
D14*
%TO.C,U17*%
X58068935Y-29590000D02*
G75*
G03*
X58068935Y-29590000I-125000J0D01*
G01*
D10*
X58550001Y-28790001D02*
X58855359Y-28790001D01*
X62344641Y-28790001D02*
X62650000Y-28790001D01*
X62650000Y-32890000D02*
X62650000Y-32584641D01*
X62650000Y-29095359D02*
X62650000Y-28790001D01*
X58550001Y-32890000D02*
X58855359Y-32890000D01*
X62344641Y-32890000D02*
X62650000Y-32890000D01*
X58550001Y-32890000D02*
X58550001Y-32584641D01*
X58550001Y-29095359D02*
X58550001Y-28790001D01*
D15*
%TO.C,U2*%
X48665499Y-45908798D02*
X48665499Y-46162798D01*
X48284499Y-45908798D02*
X48665499Y-45908798D01*
X48284499Y-46162798D02*
X48284499Y-45908798D01*
X48665499Y-46162798D02*
X48284499Y-46162798D01*
X50927000Y-41842661D02*
X50927000Y-41173000D01*
X50257339Y-45427000D02*
X50927000Y-45427000D01*
X46673000Y-44757339D02*
X46673000Y-45427000D01*
X47342661Y-41173000D02*
X46673000Y-41173000D01*
X50927000Y-41173000D02*
X50257339Y-41173000D01*
X50927000Y-45427000D02*
X50927000Y-44757339D01*
X46673000Y-45427000D02*
X47342661Y-45427000D01*
X46673000Y-41173000D02*
X46673000Y-41842661D01*
D13*
%TO.C,U7*%
X58500000Y-39990000D02*
X54900000Y-39990000D01*
X58500000Y-39990000D02*
X60700000Y-39990000D01*
X58500000Y-45210000D02*
X56300000Y-45210000D01*
X58500000Y-45210000D02*
X60700000Y-45210000D01*
%TO.C,R40*%
X55888748Y-30210000D02*
X56411252Y-30210000D01*
X55888748Y-28790000D02*
X56411252Y-28790000D01*
%TO.C,C48*%
X60671267Y-38210000D02*
X60328733Y-38210000D01*
X60671267Y-37190000D02*
X60328733Y-37190000D01*
%TO.C,C47*%
X63728733Y-37190000D02*
X64071267Y-37190000D01*
X63728733Y-38210000D02*
X64071267Y-38210000D01*
%TO.C,C43*%
X64971267Y-47910000D02*
X64628733Y-47910000D01*
X64971267Y-46890000D02*
X64628733Y-46890000D01*
%TO.C,C42*%
X64971267Y-40310000D02*
X64628733Y-40310000D01*
X64971267Y-39290000D02*
X64628733Y-39290000D01*
%TO.C,C37*%
X82370000Y-44988733D02*
X82370000Y-45331267D01*
X81350000Y-44988733D02*
X81350000Y-45331267D01*
%TO.C,C28*%
X79035000Y-45478733D02*
X79035000Y-45821267D01*
X78015000Y-45478733D02*
X78015000Y-45821267D01*
%TO.C,C25*%
X77890000Y-35171267D02*
X77890000Y-34828733D01*
X78910000Y-35171267D02*
X78910000Y-34828733D01*
%TO.C,C17*%
X85190000Y-35171267D02*
X85190000Y-34828733D01*
X86210000Y-35171267D02*
X86210000Y-34828733D01*
%TO.C,C14*%
X81990000Y-35171267D02*
X81990000Y-34828733D01*
X83010000Y-35171267D02*
X83010000Y-34828733D01*
%TO.C,C1*%
X53047000Y-85797225D02*
X52547000Y-85797225D01*
X52797000Y-85547225D02*
X52797000Y-86047225D01*
X51606000Y-90953000D02*
X51038000Y-90953000D01*
X51840000Y-90913000D02*
X50804000Y-90913000D01*
X51999000Y-90873000D02*
X50645000Y-90873000D01*
X52127000Y-90833000D02*
X50517000Y-90833000D01*
X52237000Y-90793000D02*
X50407000Y-90793000D01*
X52333000Y-90753000D02*
X50311000Y-90753000D01*
X52420000Y-90713000D02*
X50224000Y-90713000D01*
X52500000Y-90673000D02*
X50144000Y-90673000D01*
X52573000Y-90633000D02*
X50071000Y-90633000D01*
X52641000Y-90593000D02*
X50003000Y-90593000D01*
X52705000Y-90553000D02*
X49939000Y-90553000D01*
X52765000Y-90513000D02*
X49879000Y-90513000D01*
X52822000Y-90473000D02*
X49822000Y-90473000D01*
X52876000Y-90433000D02*
X49768000Y-90433000D01*
X52927000Y-90393000D02*
X49717000Y-90393000D01*
X50282000Y-90353000D02*
X49669000Y-90353000D01*
X52975000Y-90353000D02*
X52362000Y-90353000D01*
X50282000Y-90313000D02*
X49623000Y-90313000D01*
X53021000Y-90313000D02*
X52362000Y-90313000D01*
X50282000Y-90273000D02*
X49579000Y-90273000D01*
X53065000Y-90273000D02*
X52362000Y-90273000D01*
X50282000Y-90233000D02*
X49537000Y-90233000D01*
X53107000Y-90233000D02*
X52362000Y-90233000D01*
X50282000Y-90193000D02*
X49496000Y-90193000D01*
X53148000Y-90193000D02*
X52362000Y-90193000D01*
X50282000Y-90153000D02*
X49458000Y-90153000D01*
X53186000Y-90153000D02*
X52362000Y-90153000D01*
X50282000Y-90113000D02*
X49421000Y-90113000D01*
X53223000Y-90113000D02*
X52362000Y-90113000D01*
X50282000Y-90073000D02*
X49385000Y-90073000D01*
X53259000Y-90073000D02*
X52362000Y-90073000D01*
X50282000Y-90033000D02*
X49351000Y-90033000D01*
X53293000Y-90033000D02*
X52362000Y-90033000D01*
X50282000Y-89993000D02*
X49318000Y-89993000D01*
X53326000Y-89993000D02*
X52362000Y-89993000D01*
X50282000Y-89953000D02*
X49287000Y-89953000D01*
X53357000Y-89953000D02*
X52362000Y-89953000D01*
X50282000Y-89913000D02*
X49257000Y-89913000D01*
X53387000Y-89913000D02*
X52362000Y-89913000D01*
X50282000Y-89873000D02*
X49227000Y-89873000D01*
X53417000Y-89873000D02*
X52362000Y-89873000D01*
X50282000Y-89833000D02*
X49200000Y-89833000D01*
X53444000Y-89833000D02*
X52362000Y-89833000D01*
X50282000Y-89793000D02*
X49173000Y-89793000D01*
X53471000Y-89793000D02*
X52362000Y-89793000D01*
X50282000Y-89753000D02*
X49147000Y-89753000D01*
X53497000Y-89753000D02*
X52362000Y-89753000D01*
X50282000Y-89713000D02*
X49122000Y-89713000D01*
X53522000Y-89713000D02*
X52362000Y-89713000D01*
X50282000Y-89673000D02*
X49098000Y-89673000D01*
X53546000Y-89673000D02*
X52362000Y-89673000D01*
X50282000Y-89633000D02*
X49075000Y-89633000D01*
X53569000Y-89633000D02*
X52362000Y-89633000D01*
X50282000Y-89593000D02*
X49054000Y-89593000D01*
X53590000Y-89593000D02*
X52362000Y-89593000D01*
X50282000Y-89553000D02*
X49032000Y-89553000D01*
X53612000Y-89553000D02*
X52362000Y-89553000D01*
X50282000Y-89513000D02*
X49012000Y-89513000D01*
X53632000Y-89513000D02*
X52362000Y-89513000D01*
X50282000Y-89473000D02*
X48993000Y-89473000D01*
X53651000Y-89473000D02*
X52362000Y-89473000D01*
X50282000Y-89433000D02*
X48974000Y-89433000D01*
X53670000Y-89433000D02*
X52362000Y-89433000D01*
X50282000Y-89393000D02*
X48957000Y-89393000D01*
X53687000Y-89393000D02*
X52362000Y-89393000D01*
X50282000Y-89353000D02*
X48940000Y-89353000D01*
X53704000Y-89353000D02*
X52362000Y-89353000D01*
X50282000Y-89313000D02*
X48924000Y-89313000D01*
X53720000Y-89313000D02*
X52362000Y-89313000D01*
X50282000Y-89273000D02*
X48908000Y-89273000D01*
X53736000Y-89273000D02*
X52362000Y-89273000D01*
X50282000Y-89233000D02*
X48894000Y-89233000D01*
X53750000Y-89233000D02*
X52362000Y-89233000D01*
X50282000Y-89193000D02*
X48880000Y-89193000D01*
X53764000Y-89193000D02*
X52362000Y-89193000D01*
X50282000Y-89153000D02*
X48867000Y-89153000D01*
X53777000Y-89153000D02*
X52362000Y-89153000D01*
X50282000Y-89113000D02*
X48854000Y-89113000D01*
X53790000Y-89113000D02*
X52362000Y-89113000D01*
X50282000Y-89073000D02*
X48842000Y-89073000D01*
X53802000Y-89073000D02*
X52362000Y-89073000D01*
X50282000Y-89032000D02*
X48831000Y-89032000D01*
X53813000Y-89032000D02*
X52362000Y-89032000D01*
X50282000Y-88992000D02*
X48821000Y-88992000D01*
X53823000Y-88992000D02*
X52362000Y-88992000D01*
X50282000Y-88952000D02*
X48811000Y-88952000D01*
X53833000Y-88952000D02*
X52362000Y-88952000D01*
X50282000Y-88912000D02*
X48802000Y-88912000D01*
X53842000Y-88912000D02*
X52362000Y-88912000D01*
X50282000Y-88872000D02*
X48794000Y-88872000D01*
X53850000Y-88872000D02*
X52362000Y-88872000D01*
X50282000Y-88832000D02*
X48786000Y-88832000D01*
X53858000Y-88832000D02*
X52362000Y-88832000D01*
X50282000Y-88792000D02*
X48779000Y-88792000D01*
X53865000Y-88792000D02*
X52362000Y-88792000D01*
X50282000Y-88752000D02*
X48772000Y-88752000D01*
X53872000Y-88752000D02*
X52362000Y-88752000D01*
X50282000Y-88712000D02*
X48766000Y-88712000D01*
X53878000Y-88712000D02*
X52362000Y-88712000D01*
X50282000Y-88672000D02*
X48761000Y-88672000D01*
X53883000Y-88672000D02*
X52362000Y-88672000D01*
X50282000Y-88632000D02*
X48757000Y-88632000D01*
X53887000Y-88632000D02*
X52362000Y-88632000D01*
X50282000Y-88592000D02*
X48753000Y-88592000D01*
X53891000Y-88592000D02*
X52362000Y-88592000D01*
X50282000Y-88552000D02*
X48749000Y-88552000D01*
X53895000Y-88552000D02*
X52362000Y-88552000D01*
X50282000Y-88512000D02*
X48746000Y-88512000D01*
X53898000Y-88512000D02*
X52362000Y-88512000D01*
X50282000Y-88472000D02*
X48744000Y-88472000D01*
X53900000Y-88472000D02*
X52362000Y-88472000D01*
X50282000Y-88432000D02*
X48743000Y-88432000D01*
X53901000Y-88432000D02*
X52362000Y-88432000D01*
X53902000Y-88392000D02*
X52362000Y-88392000D01*
X50282000Y-88392000D02*
X48742000Y-88392000D01*
X53902000Y-88352000D02*
X52362000Y-88352000D01*
X50282000Y-88352000D02*
X48742000Y-88352000D01*
X53942000Y-88352000D02*
G75*
G03*
X53942000Y-88352000I-2620000J0D01*
G01*
%TO.C,C2*%
X45412000Y-88090748D02*
X45412000Y-88613252D01*
X46832000Y-88090748D02*
X46832000Y-88613252D01*
%TO.C,C3*%
X53842000Y-82252000D02*
G75*
G03*
X53842000Y-82252000I-2620000J0D01*
G01*
X50182000Y-82252000D02*
X48642000Y-82252000D01*
X53802000Y-82252000D02*
X52262000Y-82252000D01*
X50182000Y-82292000D02*
X48642000Y-82292000D01*
X53802000Y-82292000D02*
X52262000Y-82292000D01*
X53801000Y-82332000D02*
X52262000Y-82332000D01*
X50182000Y-82332000D02*
X48643000Y-82332000D01*
X53800000Y-82372000D02*
X52262000Y-82372000D01*
X50182000Y-82372000D02*
X48644000Y-82372000D01*
X53798000Y-82412000D02*
X52262000Y-82412000D01*
X50182000Y-82412000D02*
X48646000Y-82412000D01*
X53795000Y-82452000D02*
X52262000Y-82452000D01*
X50182000Y-82452000D02*
X48649000Y-82452000D01*
X53791000Y-82492000D02*
X52262000Y-82492000D01*
X50182000Y-82492000D02*
X48653000Y-82492000D01*
X53787000Y-82532000D02*
X52262000Y-82532000D01*
X50182000Y-82532000D02*
X48657000Y-82532000D01*
X53783000Y-82572000D02*
X52262000Y-82572000D01*
X50182000Y-82572000D02*
X48661000Y-82572000D01*
X53778000Y-82612000D02*
X52262000Y-82612000D01*
X50182000Y-82612000D02*
X48666000Y-82612000D01*
X53772000Y-82652000D02*
X52262000Y-82652000D01*
X50182000Y-82652000D02*
X48672000Y-82652000D01*
X53765000Y-82692000D02*
X52262000Y-82692000D01*
X50182000Y-82692000D02*
X48679000Y-82692000D01*
X53758000Y-82732000D02*
X52262000Y-82732000D01*
X50182000Y-82732000D02*
X48686000Y-82732000D01*
X53750000Y-82772000D02*
X52262000Y-82772000D01*
X50182000Y-82772000D02*
X48694000Y-82772000D01*
X53742000Y-82812000D02*
X52262000Y-82812000D01*
X50182000Y-82812000D02*
X48702000Y-82812000D01*
X53733000Y-82852000D02*
X52262000Y-82852000D01*
X50182000Y-82852000D02*
X48711000Y-82852000D01*
X53723000Y-82892000D02*
X52262000Y-82892000D01*
X50182000Y-82892000D02*
X48721000Y-82892000D01*
X53713000Y-82932000D02*
X52262000Y-82932000D01*
X50182000Y-82932000D02*
X48731000Y-82932000D01*
X53702000Y-82973000D02*
X52262000Y-82973000D01*
X50182000Y-82973000D02*
X48742000Y-82973000D01*
X53690000Y-83013000D02*
X52262000Y-83013000D01*
X50182000Y-83013000D02*
X48754000Y-83013000D01*
X53677000Y-83053000D02*
X52262000Y-83053000D01*
X50182000Y-83053000D02*
X48767000Y-83053000D01*
X53664000Y-83093000D02*
X52262000Y-83093000D01*
X50182000Y-83093000D02*
X48780000Y-83093000D01*
X53650000Y-83133000D02*
X52262000Y-83133000D01*
X50182000Y-83133000D02*
X48794000Y-83133000D01*
X53636000Y-83173000D02*
X52262000Y-83173000D01*
X50182000Y-83173000D02*
X48808000Y-83173000D01*
X53620000Y-83213000D02*
X52262000Y-83213000D01*
X50182000Y-83213000D02*
X48824000Y-83213000D01*
X53604000Y-83253000D02*
X52262000Y-83253000D01*
X50182000Y-83253000D02*
X48840000Y-83253000D01*
X53587000Y-83293000D02*
X52262000Y-83293000D01*
X50182000Y-83293000D02*
X48857000Y-83293000D01*
X53570000Y-83333000D02*
X52262000Y-83333000D01*
X50182000Y-83333000D02*
X48874000Y-83333000D01*
X53551000Y-83373000D02*
X52262000Y-83373000D01*
X50182000Y-83373000D02*
X48893000Y-83373000D01*
X53532000Y-83413000D02*
X52262000Y-83413000D01*
X50182000Y-83413000D02*
X48912000Y-83413000D01*
X53512000Y-83453000D02*
X52262000Y-83453000D01*
X50182000Y-83453000D02*
X48932000Y-83453000D01*
X53490000Y-83493000D02*
X52262000Y-83493000D01*
X50182000Y-83493000D02*
X48954000Y-83493000D01*
X53469000Y-83533000D02*
X52262000Y-83533000D01*
X50182000Y-83533000D02*
X48975000Y-83533000D01*
X53446000Y-83573000D02*
X52262000Y-83573000D01*
X50182000Y-83573000D02*
X48998000Y-83573000D01*
X53422000Y-83613000D02*
X52262000Y-83613000D01*
X50182000Y-83613000D02*
X49022000Y-83613000D01*
X53397000Y-83653000D02*
X52262000Y-83653000D01*
X50182000Y-83653000D02*
X49047000Y-83653000D01*
X53371000Y-83693000D02*
X52262000Y-83693000D01*
X50182000Y-83693000D02*
X49073000Y-83693000D01*
X53344000Y-83733000D02*
X52262000Y-83733000D01*
X50182000Y-83733000D02*
X49100000Y-83733000D01*
X53317000Y-83773000D02*
X52262000Y-83773000D01*
X50182000Y-83773000D02*
X49127000Y-83773000D01*
X53287000Y-83813000D02*
X52262000Y-83813000D01*
X50182000Y-83813000D02*
X49157000Y-83813000D01*
X53257000Y-83853000D02*
X52262000Y-83853000D01*
X50182000Y-83853000D02*
X49187000Y-83853000D01*
X53226000Y-83893000D02*
X52262000Y-83893000D01*
X50182000Y-83893000D02*
X49218000Y-83893000D01*
X53193000Y-83933000D02*
X52262000Y-83933000D01*
X50182000Y-83933000D02*
X49251000Y-83933000D01*
X53159000Y-83973000D02*
X52262000Y-83973000D01*
X50182000Y-83973000D02*
X49285000Y-83973000D01*
X53123000Y-84013000D02*
X52262000Y-84013000D01*
X50182000Y-84013000D02*
X49321000Y-84013000D01*
X53086000Y-84053000D02*
X52262000Y-84053000D01*
X50182000Y-84053000D02*
X49358000Y-84053000D01*
X53048000Y-84093000D02*
X52262000Y-84093000D01*
X50182000Y-84093000D02*
X49396000Y-84093000D01*
X53007000Y-84133000D02*
X52262000Y-84133000D01*
X50182000Y-84133000D02*
X49437000Y-84133000D01*
X52965000Y-84173000D02*
X52262000Y-84173000D01*
X50182000Y-84173000D02*
X49479000Y-84173000D01*
X52921000Y-84213000D02*
X52262000Y-84213000D01*
X50182000Y-84213000D02*
X49523000Y-84213000D01*
X52875000Y-84253000D02*
X52262000Y-84253000D01*
X50182000Y-84253000D02*
X49569000Y-84253000D01*
X52827000Y-84293000D02*
X49617000Y-84293000D01*
X52776000Y-84333000D02*
X49668000Y-84333000D01*
X52722000Y-84373000D02*
X49722000Y-84373000D01*
X52665000Y-84413000D02*
X49779000Y-84413000D01*
X52605000Y-84453000D02*
X49839000Y-84453000D01*
X52541000Y-84493000D02*
X49903000Y-84493000D01*
X52473000Y-84533000D02*
X49971000Y-84533000D01*
X52400000Y-84573000D02*
X50044000Y-84573000D01*
X52320000Y-84613000D02*
X50124000Y-84613000D01*
X52233000Y-84653000D02*
X50211000Y-84653000D01*
X52137000Y-84693000D02*
X50307000Y-84693000D01*
X52027000Y-84733000D02*
X50417000Y-84733000D01*
X51899000Y-84773000D02*
X50545000Y-84773000D01*
X51740000Y-84813000D02*
X50704000Y-84813000D01*
X51506000Y-84853000D02*
X50938000Y-84853000D01*
X52697000Y-79447225D02*
X52697000Y-79947225D01*
X52947000Y-79697225D02*
X52447000Y-79697225D01*
%TO.C,C4*%
X45462000Y-81990748D02*
X45462000Y-82513252D01*
X46882000Y-81990748D02*
X46882000Y-82513252D01*
%TO.C,C10*%
X46390000Y-48261252D02*
X46390000Y-47738748D01*
X47810000Y-48261252D02*
X47810000Y-47738748D01*
%TO.C,C11*%
X44228733Y-46010000D02*
X44571267Y-46010000D01*
X44228733Y-44990000D02*
X44571267Y-44990000D01*
%TO.C,C18*%
X84610000Y-35171267D02*
X84610000Y-34828733D01*
X83590000Y-35171267D02*
X83590000Y-34828733D01*
%TO.C,C26*%
X85728733Y-38610000D02*
X86071267Y-38610000D01*
X85728733Y-37590000D02*
X86071267Y-37590000D01*
%TO.C,C27*%
X77310000Y-35171267D02*
X77310000Y-34828733D01*
X76290000Y-35171267D02*
X76290000Y-34828733D01*
%TO.C,C31*%
X80685000Y-45953733D02*
X80685000Y-46296267D01*
X79665000Y-45953733D02*
X79665000Y-46296267D01*
%TO.C,C35*%
X84070000Y-44978733D02*
X84070000Y-45321267D01*
X83050000Y-44978733D02*
X83050000Y-45321267D01*
%TO.C,C36*%
X100490000Y-36638748D02*
X100490000Y-37161252D01*
X101910000Y-36638748D02*
X101910000Y-37161252D01*
%TO.C,C38*%
X76271267Y-41310000D02*
X75928733Y-41310000D01*
X76271267Y-40290000D02*
X75928733Y-40290000D01*
%TO.C,C39*%
X106110000Y-37161252D02*
X106110000Y-36638748D01*
X104690000Y-37161252D02*
X104690000Y-36638748D01*
%TO.C,C40*%
X106790000Y-37602064D02*
X106790000Y-36397936D01*
X108610000Y-37602064D02*
X108610000Y-36397936D01*
%TO.C,C41*%
X109090000Y-42697936D02*
X109090000Y-43902064D01*
X110910000Y-42697936D02*
X110910000Y-43902064D01*
%TO.C,C44*%
X106990000Y-42438748D02*
X106990000Y-42961252D01*
X108410000Y-42438748D02*
X108410000Y-42961252D01*
%TO.C,C45*%
X64971267Y-40990000D02*
X64628733Y-40990000D01*
X64971267Y-42010000D02*
X64628733Y-42010000D01*
%TO.C,C46*%
X64971267Y-46210000D02*
X64628733Y-46210000D01*
X64971267Y-45190000D02*
X64628733Y-45190000D01*
%TO.C,C59*%
X103552064Y-64310000D02*
X102347936Y-64310000D01*
X103552064Y-62490000D02*
X102347936Y-62490000D01*
%TO.C,C60*%
X103361252Y-60340000D02*
X102838748Y-60340000D01*
X103361252Y-61760000D02*
X102838748Y-61760000D01*
%TO.C,C61*%
X107497936Y-62490000D02*
X108702064Y-62490000D01*
X107497936Y-64310000D02*
X108702064Y-64310000D01*
%TO.C,C62*%
X107988748Y-60290000D02*
X108511252Y-60290000D01*
X107988748Y-61710000D02*
X108511252Y-61710000D01*
%TO.C,C73*%
X80050000Y-117910064D02*
X80050000Y-116705936D01*
X78230000Y-117910064D02*
X78230000Y-116705936D01*
%TO.C,C74*%
X76030000Y-118169252D02*
X76030000Y-117646748D01*
X77450000Y-118169252D02*
X77450000Y-117646748D01*
%TO.C,C79*%
X60350000Y-35003733D02*
X60350000Y-35346267D01*
X61370000Y-35003733D02*
X61370000Y-35346267D01*
%TO.C,C81*%
X59810000Y-35028733D02*
X59810000Y-35371267D01*
X58790000Y-35028733D02*
X58790000Y-35371267D01*
%TO.C,C82*%
X62340000Y-26971267D02*
X62340000Y-26628733D01*
X63360000Y-26971267D02*
X63360000Y-26628733D01*
%TO.C,C83*%
X62910000Y-34998733D02*
X62910000Y-35341267D01*
X61890000Y-34998733D02*
X61890000Y-35341267D01*
%TO.C,C84*%
X63490000Y-35028733D02*
X63490000Y-35371267D01*
X64510000Y-35028733D02*
X64510000Y-35371267D01*
%TO.C,C85*%
X55890000Y-26602064D02*
X55890000Y-25397936D01*
X57710000Y-26602064D02*
X57710000Y-25397936D01*
%TO.C,C86*%
X53986252Y-23990000D02*
X53463748Y-23990000D01*
X53986252Y-25410000D02*
X53463748Y-25410000D01*
%TO.C,C88*%
X70410000Y-35028733D02*
X70410000Y-35371267D01*
X69390000Y-35028733D02*
X69390000Y-35371267D01*
%TO.C,C89*%
X67790000Y-35028733D02*
X67790000Y-35371267D01*
X68810000Y-35028733D02*
X68810000Y-35371267D01*
%TO.C,C90*%
X73628733Y-28990000D02*
X73971267Y-28990000D01*
X73628733Y-30010000D02*
X73971267Y-30010000D01*
%TO.C,C91*%
X70990000Y-35028733D02*
X70990000Y-35371267D01*
X72010000Y-35028733D02*
X72010000Y-35371267D01*
%TO.C,C92*%
X72590000Y-35028733D02*
X72590000Y-35371267D01*
X73610000Y-35028733D02*
X73610000Y-35371267D01*
%TO.C,C95*%
X94910000Y-107261252D02*
X94910000Y-106738748D01*
X93490000Y-107261252D02*
X93490000Y-106738748D01*
%TO.C,C105*%
X127161252Y-113660000D02*
X126638748Y-113660000D01*
X127161252Y-112240000D02*
X126638748Y-112240000D01*
%TO.C,C107*%
X127186252Y-114290000D02*
X126663748Y-114290000D01*
X127186252Y-115710000D02*
X126663748Y-115710000D01*
%TO.C,C109*%
X127161252Y-119910000D02*
X126638748Y-119910000D01*
X127161252Y-118490000D02*
X126638748Y-118490000D01*
%TO.C,C114*%
X46538748Y-55090000D02*
X47061252Y-55090000D01*
X46538748Y-56510000D02*
X47061252Y-56510000D01*
%TO.C,C115*%
X54010000Y-64102064D02*
X54010000Y-62897936D01*
X52190000Y-64102064D02*
X52190000Y-62897936D01*
%TO.C,C116*%
X56790000Y-62961252D02*
X56790000Y-62438748D01*
X58210000Y-62961252D02*
X58210000Y-62438748D01*
%TO.C,C123*%
X87561252Y-26210000D02*
X87038748Y-26210000D01*
X87561252Y-24790000D02*
X87038748Y-24790000D01*
%TO.C,C124*%
X87561252Y-28310000D02*
X87038748Y-28310000D01*
X87561252Y-26890000D02*
X87038748Y-26890000D01*
%TO.C,C125*%
X87271267Y-30310000D02*
X86928733Y-30310000D01*
X87271267Y-29290000D02*
X86928733Y-29290000D01*
%TO.C,D1*%
X39914000Y-90852000D02*
X39914000Y-92852000D01*
X39914000Y-92852000D02*
X43814000Y-92852000D01*
X39914000Y-90852000D02*
X43814000Y-90852000D01*
%TO.C,D2*%
X42772000Y-87052000D02*
X42772000Y-83152000D01*
X44772000Y-87052000D02*
X44772000Y-83152000D01*
X42772000Y-87052000D02*
X44772000Y-87052000D01*
%TO.C,D3*%
X103900000Y-25760000D02*
X106760000Y-25760000D01*
X106760000Y-25760000D02*
X106760000Y-23840000D01*
X106760000Y-23840000D02*
X103900000Y-23840000D01*
%TO.C,D4*%
X111260000Y-23840000D02*
X108400000Y-23840000D01*
X111260000Y-25760000D02*
X111260000Y-23840000D01*
X108400000Y-25760000D02*
X111260000Y-25760000D01*
%TO.C,D5*%
X115935000Y-23840000D02*
X113075000Y-23840000D01*
X115935000Y-25760000D02*
X115935000Y-23840000D01*
X113075000Y-25760000D02*
X115935000Y-25760000D01*
%TO.C,D8*%
X97055000Y-67900000D02*
X99915000Y-67900000D01*
X99915000Y-67900000D02*
X99915000Y-65980000D01*
X99915000Y-65980000D02*
X97055000Y-65980000D01*
%TO.C,D9*%
X76180000Y-95768000D02*
X79040000Y-95768000D01*
X76180000Y-93848000D02*
X76180000Y-95768000D01*
X79040000Y-93848000D02*
X76180000Y-93848000D01*
%TO.C,D10*%
X79040000Y-98248000D02*
X76180000Y-98248000D01*
X76180000Y-98248000D02*
X76180000Y-100168000D01*
X76180000Y-100168000D02*
X79040000Y-100168000D01*
%TO.C,D11*%
X53960000Y-30585000D02*
X53960000Y-27725000D01*
X52040000Y-30585000D02*
X53960000Y-30585000D01*
X52040000Y-27725000D02*
X52040000Y-30585000D01*
%TO.C,D12*%
X118740000Y-116760000D02*
X121600000Y-116760000D01*
X118740000Y-114840000D02*
X118740000Y-116760000D01*
X121600000Y-114840000D02*
X118740000Y-114840000D01*
%TO.C,D16*%
X74740000Y-26860000D02*
X77600000Y-26860000D01*
X74740000Y-24940000D02*
X74740000Y-26860000D01*
X77600000Y-24940000D02*
X74740000Y-24940000D01*
%TO.C,FB2*%
X57590000Y-78436252D02*
X57590000Y-77913748D01*
X59010000Y-78436252D02*
X59010000Y-77913748D01*
%TO.C,FB5*%
X102590000Y-36638748D02*
X102590000Y-37161252D01*
X104010000Y-36638748D02*
X104010000Y-37161252D01*
%TO.C,J2*%
X43190000Y-59510000D02*
X42690000Y-59760000D01*
X43190000Y-60010000D02*
X43190000Y-59510000D01*
X42690000Y-59760000D02*
X43190000Y-60010000D01*
%TO.C,J3*%
X42560000Y-35000000D02*
X43060000Y-35250000D01*
X43060000Y-35250000D02*
X43060000Y-34750000D01*
X43060000Y-34750000D02*
X42560000Y-35000000D01*
%TO.C,J4*%
X124720000Y-59250000D02*
X125720000Y-58750000D01*
X124720000Y-58250000D02*
X124720000Y-59250000D01*
X125720000Y-58750000D02*
X124720000Y-58250000D01*
X127420000Y-65880000D02*
X126110000Y-65880000D01*
X127420000Y-65880000D02*
X127420000Y-65880000D01*
X127420000Y-72820000D02*
X127420000Y-65880000D01*
X133920000Y-72820000D02*
X127420000Y-72820000D01*
X133920000Y-54840000D02*
X133920000Y-72820000D01*
X127420000Y-54840000D02*
X133920000Y-54840000D01*
X127420000Y-61780000D02*
X127420000Y-54840000D01*
X126110000Y-61780000D02*
X127420000Y-61780000D01*
X126110000Y-74120000D02*
X126110000Y-53540000D01*
X135230000Y-74120000D02*
X126110000Y-74120000D01*
X135230000Y-53540000D02*
X135230000Y-74120000D01*
X126110000Y-53540000D02*
X135230000Y-53540000D01*
%TO.C,J6*%
X116060000Y-113890000D02*
X116060000Y-115000000D01*
X115300000Y-113890000D02*
X116060000Y-113890000D01*
X114540000Y-115563471D02*
X114540000Y-116110000D01*
X114540000Y-113890000D02*
X114540000Y-114436529D01*
X114540000Y-116110000D02*
X110795000Y-116110000D01*
X114540000Y-113890000D02*
X110795000Y-113890000D01*
X110795000Y-115307530D02*
X110795000Y-116110000D01*
X110795000Y-113890000D02*
X110795000Y-114692470D01*
%TO.C,JP1*%
X107760000Y-117490000D02*
X107760000Y-118600000D01*
X107000000Y-117490000D02*
X107760000Y-117490000D01*
X106240000Y-119163471D02*
X106240000Y-119710000D01*
X106240000Y-117490000D02*
X106240000Y-118036529D01*
X106240000Y-119710000D02*
X105035000Y-119710000D01*
X106240000Y-117490000D02*
X105035000Y-117490000D01*
X105035000Y-118907530D02*
X105035000Y-119710000D01*
X105035000Y-117490000D02*
X105035000Y-118292470D01*
%TO.C,L1*%
X83090000Y-30713748D02*
X83090000Y-31236252D01*
X84510000Y-30713748D02*
X84510000Y-31236252D01*
%TO.C,R5*%
X48490000Y-47738748D02*
X48490000Y-48261252D01*
X49910000Y-47738748D02*
X49910000Y-48261252D01*
%TO.C,R7*%
X77010000Y-44438748D02*
X77010000Y-44961252D01*
X75590000Y-44438748D02*
X75590000Y-44961252D01*
%TO.C,R11*%
X66890000Y-41161252D02*
X66890000Y-40638748D01*
X68310000Y-41161252D02*
X68310000Y-40638748D01*
%TO.C,R12*%
X68310000Y-46561252D02*
X68310000Y-46038748D01*
X66890000Y-46561252D02*
X66890000Y-46038748D01*
%TO.C,R13*%
X74810000Y-44438748D02*
X74810000Y-44961252D01*
X73390000Y-44438748D02*
X73390000Y-44961252D01*
%TO.C,R15*%
X72610000Y-44438748D02*
X72610000Y-44961252D01*
X71190000Y-44438748D02*
X71190000Y-44961252D01*
%TO.C,R16*%
X105061252Y-28210000D02*
X104538748Y-28210000D01*
X105061252Y-26790000D02*
X104538748Y-26790000D01*
%TO.C,R17*%
X109761252Y-28210000D02*
X109238748Y-28210000D01*
X109761252Y-26790000D02*
X109238748Y-26790000D01*
%TO.C,R19*%
X114386252Y-28210000D02*
X113863748Y-28210000D01*
X114386252Y-26790000D02*
X113863748Y-26790000D01*
%TO.C,R27*%
X98071252Y-61150000D02*
X97548748Y-61150000D01*
X98071252Y-62570000D02*
X97548748Y-62570000D01*
%TO.C,R31*%
X77778748Y-96298000D02*
X78301252Y-96298000D01*
X77778748Y-97718000D02*
X78301252Y-97718000D01*
%TO.C,R35*%
X80730000Y-116969252D02*
X80730000Y-116446748D01*
X82150000Y-116969252D02*
X82150000Y-116446748D01*
%TO.C,R38*%
X77778748Y-100698000D02*
X78301252Y-100698000D01*
X77778748Y-102118000D02*
X78301252Y-102118000D01*
%TO.C,R39*%
X51210000Y-28438748D02*
X51210000Y-28961252D01*
X49790000Y-28438748D02*
X49790000Y-28961252D01*
%TO.C,R48*%
X105960000Y-104988748D02*
X105960000Y-105511252D01*
X104540000Y-104988748D02*
X104540000Y-105511252D01*
%TO.C,R49*%
X127113748Y-81260000D02*
X127636252Y-81260000D01*
X127113748Y-79840000D02*
X127636252Y-79840000D01*
%TO.C,R50*%
X134286252Y-112090000D02*
X133763748Y-112090000D01*
X134286252Y-113510000D02*
X133763748Y-113510000D01*
%TO.C,R51*%
X134336252Y-115685000D02*
X133813748Y-115685000D01*
X134336252Y-114265000D02*
X133813748Y-114265000D01*
%TO.C,R53*%
X126663748Y-117810000D02*
X127186252Y-117810000D01*
X126663748Y-116390000D02*
X127186252Y-116390000D01*
%TO.C,R57*%
X54690000Y-62961252D02*
X54690000Y-62438748D01*
X56110000Y-62961252D02*
X56110000Y-62438748D01*
%TO.C,R59*%
X80761252Y-26610000D02*
X80238748Y-26610000D01*
X80761252Y-25190000D02*
X80238748Y-25190000D01*
%TO.C,R60*%
X83090000Y-26538748D02*
X83090000Y-27061252D01*
X84510000Y-26538748D02*
X84510000Y-27061252D01*
%TO.C,SW1*%
X58420000Y-82744000D02*
X59750000Y-82744000D01*
X59750000Y-82744000D02*
X59750000Y-84074000D01*
X59750000Y-85344000D02*
X59750000Y-87944000D01*
X57090000Y-87944000D02*
X59750000Y-87944000D01*
X57090000Y-85344000D02*
X57090000Y-87944000D01*
X57090000Y-85344000D02*
X59750000Y-85344000D01*
%TO.C,TP1*%
X102546000Y-82296000D02*
G75*
G03*
X102546000Y-82296000I-1200000J0D01*
G01*
%TO.C,TP2*%
X102546000Y-87548000D02*
G75*
G03*
X102546000Y-87548000I-1200000J0D01*
G01*
%TO.C,TP3*%
X90800000Y-115000000D02*
G75*
G03*
X90800000Y-115000000I-1200000J0D01*
G01*
%TO.C,TP4*%
X102546000Y-92800000D02*
G75*
G03*
X102546000Y-92800000I-1200000J0D01*
G01*
%TO.C,TP5*%
X72200000Y-50200000D02*
G75*
G03*
X72200000Y-50200000I-1200000J0D01*
G01*
%TO.C,TP6*%
X78800000Y-50200000D02*
G75*
G03*
X78800000Y-50200000I-1200000J0D01*
G01*
%TO.C,TP7*%
X75500000Y-50200000D02*
G75*
G03*
X75500000Y-50200000I-1200000J0D01*
G01*
%TO.C,TP8*%
X82100000Y-50140000D02*
G75*
G03*
X82100000Y-50140000I-1200000J0D01*
G01*
%TO.C,TP9*%
X85400000Y-50200000D02*
G75*
G03*
X85400000Y-50200000I-1200000J0D01*
G01*
%TO.C,U1*%
X36852000Y-82891000D02*
X38362000Y-82891000D01*
X36852000Y-86592000D02*
X38362000Y-86592000D01*
X38362000Y-89862000D02*
X38362000Y-79622000D01*
X36852000Y-79622000D02*
X41493000Y-79622000D01*
X36852000Y-89862000D02*
X41493000Y-89862000D01*
X41493000Y-89862000D02*
X41493000Y-79622000D01*
X36852000Y-89862000D02*
X36852000Y-79622000D01*
D15*
%TO.C,U5*%
X81559501Y-43058800D02*
X81940501Y-43058800D01*
X81559501Y-43312800D02*
X81559501Y-43058800D01*
X81940501Y-43312800D02*
X81559501Y-43312800D01*
X81940501Y-43058800D02*
X81940501Y-43312800D01*
X77941200Y-39940501D02*
X77687200Y-39940501D01*
X77941200Y-39559500D02*
X77941200Y-39940501D01*
X77687200Y-39559500D02*
X77941200Y-39559500D01*
X77687200Y-39940501D02*
X77687200Y-39559500D01*
X82059500Y-36941200D02*
X82440500Y-36941200D01*
X82059500Y-36687200D02*
X82059500Y-36941200D01*
X82440500Y-36687200D02*
X82059500Y-36687200D01*
X82440500Y-36941200D02*
X82440500Y-36687200D01*
X83207339Y-42627000D02*
X83627000Y-42627000D01*
X78373000Y-42207339D02*
X78373000Y-42627000D01*
X78792661Y-37373000D02*
X78373000Y-37373000D01*
X83627000Y-37792661D02*
X83627000Y-37373000D01*
X83627000Y-42627000D02*
X83627000Y-42207339D01*
X78373000Y-42627000D02*
X78792661Y-42627000D01*
X78373000Y-37373000D02*
X78373000Y-37792661D01*
X83627000Y-37373000D02*
X83207339Y-37373000D01*
D13*
%TO.C,U9*%
X110110000Y-65250000D02*
X110110000Y-71260000D01*
X103290000Y-67500000D02*
X103290000Y-71260000D01*
X110110000Y-71260000D02*
X108850000Y-71260000D01*
X103290000Y-71260000D02*
X104550000Y-71260000D01*
%TO.C,U10*%
X36862000Y-108768000D02*
X36862000Y-98528000D01*
X41503000Y-108768000D02*
X41503000Y-98528000D01*
X36862000Y-108768000D02*
X41503000Y-108768000D01*
X36862000Y-98528000D02*
X41503000Y-98528000D01*
X38372000Y-108768000D02*
X38372000Y-98528000D01*
X36862000Y-105498000D02*
X38372000Y-105498000D01*
X36862000Y-101797000D02*
X38372000Y-101797000D01*
D10*
%TO.C,U18*%
X67520001Y-29115359D02*
X67520001Y-28810001D01*
X67520001Y-32910000D02*
X67520001Y-32604641D01*
X71314641Y-32910000D02*
X71620000Y-32910000D01*
X67520001Y-32910000D02*
X67825359Y-32910000D01*
X71620000Y-29115359D02*
X71620000Y-28810001D01*
X71620000Y-32910000D02*
X71620000Y-32604641D01*
X71314641Y-28810001D02*
X71620000Y-28810001D01*
X67520001Y-28810001D02*
X67825359Y-28810001D01*
D14*
X67038935Y-29610000D02*
G75*
G03*
X67038935Y-29610000I-125000J0D01*
G01*
D13*
%TO.C,U19*%
X88795001Y-103535001D02*
X85345001Y-103535001D01*
X88795001Y-103535001D02*
X90745001Y-103535001D01*
X88795001Y-108655001D02*
X86845001Y-108655001D01*
X88795001Y-108655001D02*
X90745001Y-108655001D01*
%TO.C,U25*%
X46800000Y-60310000D02*
X49725000Y-60310000D01*
X46800000Y-60310000D02*
X45300000Y-60310000D01*
X46800000Y-57090000D02*
X48300000Y-57090000D01*
X46800000Y-57090000D02*
X45300000Y-57090000D01*
%TO.C,U27*%
X81660000Y-31510000D02*
X81430000Y-31510000D01*
X76940000Y-31510000D02*
X77170000Y-31510000D01*
X76940000Y-31510000D02*
X76940000Y-28790000D01*
X76940000Y-28790000D02*
X78250000Y-28790000D01*
X77170000Y-32650000D02*
X77170000Y-31510000D01*
X81660000Y-28790000D02*
X81660000Y-31510000D01*
X80350000Y-28790000D02*
X81660000Y-28790000D01*
%TO.C,C20*%
X86790000Y-35171267D02*
X86790000Y-34828733D01*
X87810000Y-35171267D02*
X87810000Y-34828733D01*
%TO.C,U12*%
X47924000Y-93608000D02*
X47924000Y-119808000D01*
X47924000Y-119808000D02*
X74124000Y-119808000D01*
X74124000Y-119808000D02*
X74124000Y-93608000D01*
X74124000Y-93608000D02*
X47924000Y-93608000D01*
%TO.C,F1*%
X56130000Y-77760000D02*
X49410000Y-77760000D01*
X49410000Y-77760000D02*
X49410000Y-77560000D01*
X56130000Y-77760000D02*
X56130000Y-77560000D01*
X56130000Y-73840000D02*
X49410000Y-73840000D01*
X49410000Y-74040000D02*
X49410000Y-73840000D01*
X56130000Y-74040000D02*
X56130000Y-73840000D01*
%TO.C,SW2*%
X131660001Y-114380001D02*
X131660001Y-119395001D01*
X129440001Y-114380001D02*
X129440001Y-119395001D01*
X130857531Y-119395001D02*
X131660001Y-119395001D01*
X131113472Y-114380001D02*
X131660001Y-114380001D01*
X129440001Y-114380001D02*
X129986530Y-114380001D01*
X129440001Y-119395001D02*
X130242471Y-119395001D01*
X129440001Y-112860001D02*
X130550001Y-112860001D01*
X129440001Y-113620001D02*
X129440001Y-112860001D01*
%TO.C,U22*%
X131420000Y-76015000D02*
X132550000Y-76015000D01*
X131420000Y-76775000D02*
X131420000Y-76015000D01*
X134127530Y-76080000D02*
X134950000Y-76080000D01*
X133310000Y-76080000D02*
X133512470Y-76080000D01*
X133310000Y-76211529D02*
X133310000Y-76080000D01*
X133310000Y-77481529D02*
X133310000Y-77338471D01*
X133113471Y-77535000D02*
X133256529Y-77535000D01*
X131420000Y-77535000D02*
X131986529Y-77535000D01*
X134950000Y-76080000D02*
X134950000Y-85090000D01*
X131420000Y-77535000D02*
X131420000Y-85090000D01*
X132857530Y-85090000D02*
X133512470Y-85090000D01*
X134127530Y-85090000D02*
X134950000Y-85090000D01*
X131420000Y-85090000D02*
X132242470Y-85090000D01*
%TO.C,U14*%
X81540000Y-111365000D02*
X79090000Y-111365000D01*
X79740000Y-114585000D02*
X81540000Y-114585000D01*
%TO.C,U26*%
X56200000Y-57340000D02*
X53750000Y-57340000D01*
X54400000Y-60560000D02*
X56200000Y-60560000D01*
%TO.C,J1*%
X48100000Y-69500000D02*
X48100000Y-70100000D01*
X47500000Y-69800000D02*
X48100000Y-69500000D01*
X48100000Y-70100000D02*
X47500000Y-69800000D01*
X40700000Y-67150000D02*
X40700000Y-77530000D01*
X46810000Y-70850000D02*
X46810000Y-73830000D01*
X46810000Y-77530000D02*
X46810000Y-75930000D01*
X46810000Y-67150000D02*
X46810000Y-68750000D01*
X37390000Y-77530000D02*
X46810000Y-77530000D01*
X37390000Y-67150000D02*
X37390000Y-77530000D01*
X46810000Y-67150000D02*
X37390000Y-67150000D01*
%TO.C,C49*%
X91090000Y-62114564D02*
X91090000Y-60910436D01*
X92910000Y-62114564D02*
X92910000Y-60910436D01*
%TO.C,C69*%
X93010000Y-69289564D02*
X93010000Y-68085436D01*
X91190000Y-69289564D02*
X91190000Y-68085436D01*
%TO.C,C70*%
X90310000Y-62361252D02*
X90310000Y-61838748D01*
X88890000Y-62361252D02*
X88890000Y-61838748D01*
%TO.C,R32*%
X86761252Y-63710000D02*
X86238748Y-63710000D01*
X86761252Y-62290000D02*
X86238748Y-62290000D01*
%TO.C,R34*%
X86736252Y-69490000D02*
X86213748Y-69490000D01*
X86736252Y-70910000D02*
X86213748Y-70910000D01*
%TO.C,U15*%
X81270000Y-66520000D02*
X83070000Y-66520000D01*
X83070000Y-63300000D02*
X80620000Y-63300000D01*
%TO.C,U29*%
X82920000Y-70530000D02*
X80470000Y-70530000D01*
X81120000Y-73750000D02*
X82920000Y-73750000D01*
%TO.C,C94*%
D10*
X88307142Y-69967857D02*
X88354761Y-70015476D01*
X88402380Y-70158333D01*
X88402380Y-70253571D01*
X88354761Y-70396428D01*
X88259523Y-70491666D01*
X88164285Y-70539285D01*
X87973809Y-70586904D01*
X87830952Y-70586904D01*
X87640476Y-70539285D01*
X87545238Y-70491666D01*
X87450000Y-70396428D01*
X87402380Y-70253571D01*
X87402380Y-70158333D01*
X87450000Y-70015476D01*
X87497619Y-69967857D01*
X88402380Y-69491666D02*
X88402380Y-69301190D01*
X88354761Y-69205952D01*
X88307142Y-69158333D01*
X88164285Y-69063095D01*
X87973809Y-69015476D01*
X87592857Y-69015476D01*
X87497619Y-69063095D01*
X87450000Y-69110714D01*
X87402380Y-69205952D01*
X87402380Y-69396428D01*
X87450000Y-69491666D01*
X87497619Y-69539285D01*
X87592857Y-69586904D01*
X87830952Y-69586904D01*
X87926190Y-69539285D01*
X87973809Y-69491666D01*
X88021428Y-69396428D01*
X88021428Y-69205952D01*
X87973809Y-69110714D01*
X87926190Y-69063095D01*
X87830952Y-69015476D01*
X87735714Y-68158333D02*
X88402380Y-68158333D01*
X87354761Y-68396428D02*
X88069047Y-68634523D01*
X88069047Y-68015476D01*
%TO.C,U6*%
X119988095Y-37852380D02*
X119988095Y-38661904D01*
X120035714Y-38757142D01*
X120083333Y-38804761D01*
X120178571Y-38852380D01*
X120369047Y-38852380D01*
X120464285Y-38804761D01*
X120511904Y-38757142D01*
X120559523Y-38661904D01*
X120559523Y-37852380D01*
X121464285Y-37852380D02*
X121273809Y-37852380D01*
X121178571Y-37900000D01*
X121130952Y-37947619D01*
X121035714Y-38090476D01*
X120988095Y-38280952D01*
X120988095Y-38661904D01*
X121035714Y-38757142D01*
X121083333Y-38804761D01*
X121178571Y-38852380D01*
X121369047Y-38852380D01*
X121464285Y-38804761D01*
X121511904Y-38757142D01*
X121559523Y-38661904D01*
X121559523Y-38423809D01*
X121511904Y-38328571D01*
X121464285Y-38280952D01*
X121369047Y-38233333D01*
X121178571Y-38233333D01*
X121083333Y-38280952D01*
X121035714Y-38328571D01*
X120988095Y-38423809D01*
%TO.C,U17*%
X58479530Y-27136315D02*
X58479530Y-27945839D01*
X58527149Y-28041077D01*
X58574768Y-28088696D01*
X58670006Y-28136315D01*
X58860482Y-28136315D01*
X58955720Y-28088696D01*
X59003339Y-28041077D01*
X59050958Y-27945839D01*
X59050958Y-27136315D01*
X60050958Y-28136315D02*
X59479530Y-28136315D01*
X59765244Y-28136315D02*
X59765244Y-27136315D01*
X59670006Y-27279173D01*
X59574768Y-27374411D01*
X59479530Y-27422030D01*
X60384292Y-27136315D02*
X61050958Y-27136315D01*
X60622387Y-28136315D01*
%TO.C,U2*%
X45438095Y-39627380D02*
X45438095Y-40436904D01*
X45485714Y-40532142D01*
X45533333Y-40579761D01*
X45628571Y-40627380D01*
X45819047Y-40627380D01*
X45914285Y-40579761D01*
X45961904Y-40532142D01*
X46009523Y-40436904D01*
X46009523Y-39627380D01*
X46438095Y-39722619D02*
X46485714Y-39675000D01*
X46580952Y-39627380D01*
X46819047Y-39627380D01*
X46914285Y-39675000D01*
X46961904Y-39722619D01*
X47009523Y-39817857D01*
X47009523Y-39913095D01*
X46961904Y-40055952D01*
X46390476Y-40627380D01*
X47009523Y-40627380D01*
%TO.C,U7*%
X57738095Y-38602380D02*
X57738095Y-39411904D01*
X57785714Y-39507142D01*
X57833333Y-39554761D01*
X57928571Y-39602380D01*
X58119047Y-39602380D01*
X58214285Y-39554761D01*
X58261904Y-39507142D01*
X58309523Y-39411904D01*
X58309523Y-38602380D01*
X58690476Y-38602380D02*
X59357142Y-38602380D01*
X58928571Y-39602380D01*
%TO.C,C87*%
X55272142Y-31287142D02*
X55224523Y-31334761D01*
X55081666Y-31382380D01*
X54986428Y-31382380D01*
X54843571Y-31334761D01*
X54748333Y-31239523D01*
X54700714Y-31144285D01*
X54653095Y-30953809D01*
X54653095Y-30810952D01*
X54700714Y-30620476D01*
X54748333Y-30525238D01*
X54843571Y-30430000D01*
X54986428Y-30382380D01*
X55081666Y-30382380D01*
X55224523Y-30430000D01*
X55272142Y-30477619D01*
X55843571Y-30810952D02*
X55748333Y-30763333D01*
X55700714Y-30715714D01*
X55653095Y-30620476D01*
X55653095Y-30572857D01*
X55700714Y-30477619D01*
X55748333Y-30430000D01*
X55843571Y-30382380D01*
X56034047Y-30382380D01*
X56129285Y-30430000D01*
X56176904Y-30477619D01*
X56224523Y-30572857D01*
X56224523Y-30620476D01*
X56176904Y-30715714D01*
X56129285Y-30763333D01*
X56034047Y-30810952D01*
X55843571Y-30810952D01*
X55748333Y-30858571D01*
X55700714Y-30906190D01*
X55653095Y-31001428D01*
X55653095Y-31191904D01*
X55700714Y-31287142D01*
X55748333Y-31334761D01*
X55843571Y-31382380D01*
X56034047Y-31382380D01*
X56129285Y-31334761D01*
X56176904Y-31287142D01*
X56224523Y-31191904D01*
X56224523Y-31001428D01*
X56176904Y-30906190D01*
X56129285Y-30858571D01*
X56034047Y-30810952D01*
X56557857Y-30382380D02*
X57224523Y-30382380D01*
X56795952Y-31382380D01*
%TO.C,C48*%
X56757142Y-38232142D02*
X56709523Y-38279761D01*
X56566666Y-38327380D01*
X56471428Y-38327380D01*
X56328571Y-38279761D01*
X56233333Y-38184523D01*
X56185714Y-38089285D01*
X56138095Y-37898809D01*
X56138095Y-37755952D01*
X56185714Y-37565476D01*
X56233333Y-37470238D01*
X56328571Y-37375000D01*
X56471428Y-37327380D01*
X56566666Y-37327380D01*
X56709523Y-37375000D01*
X56757142Y-37422619D01*
X57614285Y-37660714D02*
X57614285Y-38327380D01*
X57376190Y-37279761D02*
X57138095Y-37994047D01*
X57757142Y-37994047D01*
X58280952Y-37755952D02*
X58185714Y-37708333D01*
X58138095Y-37660714D01*
X58090476Y-37565476D01*
X58090476Y-37517857D01*
X58138095Y-37422619D01*
X58185714Y-37375000D01*
X58280952Y-37327380D01*
X58471428Y-37327380D01*
X58566666Y-37375000D01*
X58614285Y-37422619D01*
X58661904Y-37517857D01*
X58661904Y-37565476D01*
X58614285Y-37660714D01*
X58566666Y-37708333D01*
X58471428Y-37755952D01*
X58280952Y-37755952D01*
X58185714Y-37803571D01*
X58138095Y-37851190D01*
X58090476Y-37946428D01*
X58090476Y-38136904D01*
X58138095Y-38232142D01*
X58185714Y-38279761D01*
X58280952Y-38327380D01*
X58471428Y-38327380D01*
X58566666Y-38279761D01*
X58614285Y-38232142D01*
X58661904Y-38136904D01*
X58661904Y-37946428D01*
X58614285Y-37851190D01*
X58566666Y-37803571D01*
X58471428Y-37755952D01*
%TO.C,C47*%
X66282142Y-38307142D02*
X66234523Y-38354761D01*
X66091666Y-38402380D01*
X65996428Y-38402380D01*
X65853571Y-38354761D01*
X65758333Y-38259523D01*
X65710714Y-38164285D01*
X65663095Y-37973809D01*
X65663095Y-37830952D01*
X65710714Y-37640476D01*
X65758333Y-37545238D01*
X65853571Y-37450000D01*
X65996428Y-37402380D01*
X66091666Y-37402380D01*
X66234523Y-37450000D01*
X66282142Y-37497619D01*
X67139285Y-37735714D02*
X67139285Y-38402380D01*
X66901190Y-37354761D02*
X66663095Y-38069047D01*
X67282142Y-38069047D01*
X67567857Y-37402380D02*
X68234523Y-37402380D01*
X67805952Y-38402380D01*
%TO.C,C43*%
X61082142Y-47807142D02*
X61034523Y-47854761D01*
X60891666Y-47902380D01*
X60796428Y-47902380D01*
X60653571Y-47854761D01*
X60558333Y-47759523D01*
X60510714Y-47664285D01*
X60463095Y-47473809D01*
X60463095Y-47330952D01*
X60510714Y-47140476D01*
X60558333Y-47045238D01*
X60653571Y-46950000D01*
X60796428Y-46902380D01*
X60891666Y-46902380D01*
X61034523Y-46950000D01*
X61082142Y-46997619D01*
X61939285Y-47235714D02*
X61939285Y-47902380D01*
X61701190Y-46854761D02*
X61463095Y-47569047D01*
X62082142Y-47569047D01*
X62367857Y-46902380D02*
X62986904Y-46902380D01*
X62653571Y-47283333D01*
X62796428Y-47283333D01*
X62891666Y-47330952D01*
X62939285Y-47378571D01*
X62986904Y-47473809D01*
X62986904Y-47711904D01*
X62939285Y-47807142D01*
X62891666Y-47854761D01*
X62796428Y-47902380D01*
X62510714Y-47902380D01*
X62415476Y-47854761D01*
X62367857Y-47807142D01*
%TO.C,C42*%
X61007142Y-39507142D02*
X60959523Y-39554761D01*
X60816666Y-39602380D01*
X60721428Y-39602380D01*
X60578571Y-39554761D01*
X60483333Y-39459523D01*
X60435714Y-39364285D01*
X60388095Y-39173809D01*
X60388095Y-39030952D01*
X60435714Y-38840476D01*
X60483333Y-38745238D01*
X60578571Y-38650000D01*
X60721428Y-38602380D01*
X60816666Y-38602380D01*
X60959523Y-38650000D01*
X61007142Y-38697619D01*
X61864285Y-38935714D02*
X61864285Y-39602380D01*
X61626190Y-38554761D02*
X61388095Y-39269047D01*
X62007142Y-39269047D01*
X62340476Y-38697619D02*
X62388095Y-38650000D01*
X62483333Y-38602380D01*
X62721428Y-38602380D01*
X62816666Y-38650000D01*
X62864285Y-38697619D01*
X62911904Y-38792857D01*
X62911904Y-38888095D01*
X62864285Y-39030952D01*
X62292857Y-39602380D01*
X62911904Y-39602380D01*
%TO.C,C37*%
X81682142Y-47957142D02*
X81634523Y-48004761D01*
X81491666Y-48052380D01*
X81396428Y-48052380D01*
X81253571Y-48004761D01*
X81158333Y-47909523D01*
X81110714Y-47814285D01*
X81063095Y-47623809D01*
X81063095Y-47480952D01*
X81110714Y-47290476D01*
X81158333Y-47195238D01*
X81253571Y-47100000D01*
X81396428Y-47052380D01*
X81491666Y-47052380D01*
X81634523Y-47100000D01*
X81682142Y-47147619D01*
X82015476Y-47052380D02*
X82634523Y-47052380D01*
X82301190Y-47433333D01*
X82444047Y-47433333D01*
X82539285Y-47480952D01*
X82586904Y-47528571D01*
X82634523Y-47623809D01*
X82634523Y-47861904D01*
X82586904Y-47957142D01*
X82539285Y-48004761D01*
X82444047Y-48052380D01*
X82158333Y-48052380D01*
X82063095Y-48004761D01*
X82015476Y-47957142D01*
X82967857Y-47052380D02*
X83634523Y-47052380D01*
X83205952Y-48052380D01*
%TO.C,C28*%
X77282142Y-48407142D02*
X77234523Y-48454761D01*
X77091666Y-48502380D01*
X76996428Y-48502380D01*
X76853571Y-48454761D01*
X76758333Y-48359523D01*
X76710714Y-48264285D01*
X76663095Y-48073809D01*
X76663095Y-47930952D01*
X76710714Y-47740476D01*
X76758333Y-47645238D01*
X76853571Y-47550000D01*
X76996428Y-47502380D01*
X77091666Y-47502380D01*
X77234523Y-47550000D01*
X77282142Y-47597619D01*
X77663095Y-47597619D02*
X77710714Y-47550000D01*
X77805952Y-47502380D01*
X78044047Y-47502380D01*
X78139285Y-47550000D01*
X78186904Y-47597619D01*
X78234523Y-47692857D01*
X78234523Y-47788095D01*
X78186904Y-47930952D01*
X77615476Y-48502380D01*
X78234523Y-48502380D01*
X78805952Y-47930952D02*
X78710714Y-47883333D01*
X78663095Y-47835714D01*
X78615476Y-47740476D01*
X78615476Y-47692857D01*
X78663095Y-47597619D01*
X78710714Y-47550000D01*
X78805952Y-47502380D01*
X78996428Y-47502380D01*
X79091666Y-47550000D01*
X79139285Y-47597619D01*
X79186904Y-47692857D01*
X79186904Y-47740476D01*
X79139285Y-47835714D01*
X79091666Y-47883333D01*
X78996428Y-47930952D01*
X78805952Y-47930952D01*
X78710714Y-47978571D01*
X78663095Y-48026190D01*
X78615476Y-48121428D01*
X78615476Y-48311904D01*
X78663095Y-48407142D01*
X78710714Y-48454761D01*
X78805952Y-48502380D01*
X78996428Y-48502380D01*
X79091666Y-48454761D01*
X79139285Y-48407142D01*
X79186904Y-48311904D01*
X79186904Y-48121428D01*
X79139285Y-48026190D01*
X79091666Y-47978571D01*
X78996428Y-47930952D01*
%TO.C,C25*%
D16*
X74410714Y-36460714D02*
X74372619Y-36498809D01*
X74258333Y-36536904D01*
X74182142Y-36536904D01*
X74067857Y-36498809D01*
X73991666Y-36422619D01*
X73953571Y-36346428D01*
X73915476Y-36194047D01*
X73915476Y-36079761D01*
X73953571Y-35927380D01*
X73991666Y-35851190D01*
X74067857Y-35775000D01*
X74182142Y-35736904D01*
X74258333Y-35736904D01*
X74372619Y-35775000D01*
X74410714Y-35813095D01*
X74715476Y-35813095D02*
X74753571Y-35775000D01*
X74829761Y-35736904D01*
X75020238Y-35736904D01*
X75096428Y-35775000D01*
X75134523Y-35813095D01*
X75172619Y-35889285D01*
X75172619Y-35965476D01*
X75134523Y-36079761D01*
X74677380Y-36536904D01*
X75172619Y-36536904D01*
X75896428Y-35736904D02*
X75515476Y-35736904D01*
X75477380Y-36117857D01*
X75515476Y-36079761D01*
X75591666Y-36041666D01*
X75782142Y-36041666D01*
X75858333Y-36079761D01*
X75896428Y-36117857D01*
X75934523Y-36194047D01*
X75934523Y-36384523D01*
X75896428Y-36460714D01*
X75858333Y-36498809D01*
X75782142Y-36536904D01*
X75591666Y-36536904D01*
X75515476Y-36498809D01*
X75477380Y-36460714D01*
%TO.C,C17*%
D10*
X88857142Y-35932142D02*
X88809523Y-35979761D01*
X88666666Y-36027380D01*
X88571428Y-36027380D01*
X88428571Y-35979761D01*
X88333333Y-35884523D01*
X88285714Y-35789285D01*
X88238095Y-35598809D01*
X88238095Y-35455952D01*
X88285714Y-35265476D01*
X88333333Y-35170238D01*
X88428571Y-35075000D01*
X88571428Y-35027380D01*
X88666666Y-35027380D01*
X88809523Y-35075000D01*
X88857142Y-35122619D01*
X89809523Y-36027380D02*
X89238095Y-36027380D01*
X89523809Y-36027380D02*
X89523809Y-35027380D01*
X89428571Y-35170238D01*
X89333333Y-35265476D01*
X89238095Y-35313095D01*
X90142857Y-35027380D02*
X90809523Y-35027380D01*
X90380952Y-36027380D01*
%TO.C,C14*%
X88857142Y-33582142D02*
X88809523Y-33629761D01*
X88666666Y-33677380D01*
X88571428Y-33677380D01*
X88428571Y-33629761D01*
X88333333Y-33534523D01*
X88285714Y-33439285D01*
X88238095Y-33248809D01*
X88238095Y-33105952D01*
X88285714Y-32915476D01*
X88333333Y-32820238D01*
X88428571Y-32725000D01*
X88571428Y-32677380D01*
X88666666Y-32677380D01*
X88809523Y-32725000D01*
X88857142Y-32772619D01*
X89809523Y-33677380D02*
X89238095Y-33677380D01*
X89523809Y-33677380D02*
X89523809Y-32677380D01*
X89428571Y-32820238D01*
X89333333Y-32915476D01*
X89238095Y-32963095D01*
X90666666Y-33010714D02*
X90666666Y-33677380D01*
X90428571Y-32629761D02*
X90190476Y-33344047D01*
X90809523Y-33344047D01*
%TO.C,C1*%
X54951333Y-87733142D02*
X54903714Y-87780761D01*
X54760857Y-87828380D01*
X54665619Y-87828380D01*
X54522761Y-87780761D01*
X54427523Y-87685523D01*
X54379904Y-87590285D01*
X54332285Y-87399809D01*
X54332285Y-87256952D01*
X54379904Y-87066476D01*
X54427523Y-86971238D01*
X54522761Y-86876000D01*
X54665619Y-86828380D01*
X54760857Y-86828380D01*
X54903714Y-86876000D01*
X54951333Y-86923619D01*
X55903714Y-87828380D02*
X55332285Y-87828380D01*
X55618000Y-87828380D02*
X55618000Y-86828380D01*
X55522761Y-86971238D01*
X55427523Y-87066476D01*
X55332285Y-87114095D01*
%TO.C,C2*%
X45833333Y-91289142D02*
X45785714Y-91336761D01*
X45642857Y-91384380D01*
X45547619Y-91384380D01*
X45404761Y-91336761D01*
X45309523Y-91241523D01*
X45261904Y-91146285D01*
X45214285Y-90955809D01*
X45214285Y-90812952D01*
X45261904Y-90622476D01*
X45309523Y-90527238D01*
X45404761Y-90432000D01*
X45547619Y-90384380D01*
X45642857Y-90384380D01*
X45785714Y-90432000D01*
X45833333Y-90479619D01*
X46214285Y-90479619D02*
X46261904Y-90432000D01*
X46357142Y-90384380D01*
X46595238Y-90384380D01*
X46690476Y-90432000D01*
X46738095Y-90479619D01*
X46785714Y-90574857D01*
X46785714Y-90670095D01*
X46738095Y-90812952D01*
X46166666Y-91384380D01*
X46785714Y-91384380D01*
%TO.C,C3*%
X54697333Y-82145142D02*
X54649714Y-82192761D01*
X54506857Y-82240380D01*
X54411619Y-82240380D01*
X54268761Y-82192761D01*
X54173523Y-82097523D01*
X54125904Y-82002285D01*
X54078285Y-81811809D01*
X54078285Y-81668952D01*
X54125904Y-81478476D01*
X54173523Y-81383238D01*
X54268761Y-81288000D01*
X54411619Y-81240380D01*
X54506857Y-81240380D01*
X54649714Y-81288000D01*
X54697333Y-81335619D01*
X55030666Y-81240380D02*
X55649714Y-81240380D01*
X55316380Y-81621333D01*
X55459238Y-81621333D01*
X55554476Y-81668952D01*
X55602095Y-81716571D01*
X55649714Y-81811809D01*
X55649714Y-82049904D01*
X55602095Y-82145142D01*
X55554476Y-82192761D01*
X55459238Y-82240380D01*
X55173523Y-82240380D01*
X55078285Y-82192761D01*
X55030666Y-82145142D01*
%TO.C,C4*%
X44029333Y-80621142D02*
X43981714Y-80668761D01*
X43838857Y-80716380D01*
X43743619Y-80716380D01*
X43600761Y-80668761D01*
X43505523Y-80573523D01*
X43457904Y-80478285D01*
X43410285Y-80287809D01*
X43410285Y-80144952D01*
X43457904Y-79954476D01*
X43505523Y-79859238D01*
X43600761Y-79764000D01*
X43743619Y-79716380D01*
X43838857Y-79716380D01*
X43981714Y-79764000D01*
X44029333Y-79811619D01*
X44886476Y-80049714D02*
X44886476Y-80716380D01*
X44648380Y-79668761D02*
X44410285Y-80383047D01*
X45029333Y-80383047D01*
%TO.C,C5*%
X44118333Y-34162142D02*
X44070714Y-34209761D01*
X43927857Y-34257380D01*
X43832619Y-34257380D01*
X43689761Y-34209761D01*
X43594523Y-34114523D01*
X43546904Y-34019285D01*
X43499285Y-33828809D01*
X43499285Y-33685952D01*
X43546904Y-33495476D01*
X43594523Y-33400238D01*
X43689761Y-33305000D01*
X43832619Y-33257380D01*
X43927857Y-33257380D01*
X44070714Y-33305000D01*
X44118333Y-33352619D01*
X45023095Y-33257380D02*
X44546904Y-33257380D01*
X44499285Y-33733571D01*
X44546904Y-33685952D01*
X44642142Y-33638333D01*
X44880238Y-33638333D01*
X44975476Y-33685952D01*
X45023095Y-33733571D01*
X45070714Y-33828809D01*
X45070714Y-34066904D01*
X45023095Y-34162142D01*
X44975476Y-34209761D01*
X44880238Y-34257380D01*
X44642142Y-34257380D01*
X44546904Y-34209761D01*
X44499285Y-34162142D01*
%TO.C,C10*%
X43882142Y-49407142D02*
X43834523Y-49454761D01*
X43691666Y-49502380D01*
X43596428Y-49502380D01*
X43453571Y-49454761D01*
X43358333Y-49359523D01*
X43310714Y-49264285D01*
X43263095Y-49073809D01*
X43263095Y-48930952D01*
X43310714Y-48740476D01*
X43358333Y-48645238D01*
X43453571Y-48550000D01*
X43596428Y-48502380D01*
X43691666Y-48502380D01*
X43834523Y-48550000D01*
X43882142Y-48597619D01*
X44834523Y-49502380D02*
X44263095Y-49502380D01*
X44548809Y-49502380D02*
X44548809Y-48502380D01*
X44453571Y-48645238D01*
X44358333Y-48740476D01*
X44263095Y-48788095D01*
X45453571Y-48502380D02*
X45548809Y-48502380D01*
X45644047Y-48550000D01*
X45691666Y-48597619D01*
X45739285Y-48692857D01*
X45786904Y-48883333D01*
X45786904Y-49121428D01*
X45739285Y-49311904D01*
X45691666Y-49407142D01*
X45644047Y-49454761D01*
X45548809Y-49502380D01*
X45453571Y-49502380D01*
X45358333Y-49454761D01*
X45310714Y-49407142D01*
X45263095Y-49311904D01*
X45215476Y-49121428D01*
X45215476Y-48883333D01*
X45263095Y-48692857D01*
X45310714Y-48597619D01*
X45358333Y-48550000D01*
X45453571Y-48502380D01*
%TO.C,C11*%
X43757142Y-44427142D02*
X43709523Y-44474761D01*
X43566666Y-44522380D01*
X43471428Y-44522380D01*
X43328571Y-44474761D01*
X43233333Y-44379523D01*
X43185714Y-44284285D01*
X43138095Y-44093809D01*
X43138095Y-43950952D01*
X43185714Y-43760476D01*
X43233333Y-43665238D01*
X43328571Y-43570000D01*
X43471428Y-43522380D01*
X43566666Y-43522380D01*
X43709523Y-43570000D01*
X43757142Y-43617619D01*
X44709523Y-44522380D02*
X44138095Y-44522380D01*
X44423809Y-44522380D02*
X44423809Y-43522380D01*
X44328571Y-43665238D01*
X44233333Y-43760476D01*
X44138095Y-43808095D01*
X45661904Y-44522380D02*
X45090476Y-44522380D01*
X45376190Y-44522380D02*
X45376190Y-43522380D01*
X45280952Y-43665238D01*
X45185714Y-43760476D01*
X45090476Y-43808095D01*
%TO.C,C18*%
X88857142Y-34757142D02*
X88809523Y-34804761D01*
X88666666Y-34852380D01*
X88571428Y-34852380D01*
X88428571Y-34804761D01*
X88333333Y-34709523D01*
X88285714Y-34614285D01*
X88238095Y-34423809D01*
X88238095Y-34280952D01*
X88285714Y-34090476D01*
X88333333Y-33995238D01*
X88428571Y-33900000D01*
X88571428Y-33852380D01*
X88666666Y-33852380D01*
X88809523Y-33900000D01*
X88857142Y-33947619D01*
X89809523Y-34852380D02*
X89238095Y-34852380D01*
X89523809Y-34852380D02*
X89523809Y-33852380D01*
X89428571Y-33995238D01*
X89333333Y-34090476D01*
X89238095Y-34138095D01*
X90380952Y-34280952D02*
X90285714Y-34233333D01*
X90238095Y-34185714D01*
X90190476Y-34090476D01*
X90190476Y-34042857D01*
X90238095Y-33947619D01*
X90285714Y-33900000D01*
X90380952Y-33852380D01*
X90571428Y-33852380D01*
X90666666Y-33900000D01*
X90714285Y-33947619D01*
X90761904Y-34042857D01*
X90761904Y-34090476D01*
X90714285Y-34185714D01*
X90666666Y-34233333D01*
X90571428Y-34280952D01*
X90380952Y-34280952D01*
X90285714Y-34328571D01*
X90238095Y-34376190D01*
X90190476Y-34471428D01*
X90190476Y-34661904D01*
X90238095Y-34757142D01*
X90285714Y-34804761D01*
X90380952Y-34852380D01*
X90571428Y-34852380D01*
X90666666Y-34804761D01*
X90714285Y-34757142D01*
X90761904Y-34661904D01*
X90761904Y-34471428D01*
X90714285Y-34376190D01*
X90666666Y-34328571D01*
X90571428Y-34280952D01*
%TO.C,C26*%
X88332142Y-38532142D02*
X88284523Y-38579761D01*
X88141666Y-38627380D01*
X88046428Y-38627380D01*
X87903571Y-38579761D01*
X87808333Y-38484523D01*
X87760714Y-38389285D01*
X87713095Y-38198809D01*
X87713095Y-38055952D01*
X87760714Y-37865476D01*
X87808333Y-37770238D01*
X87903571Y-37675000D01*
X88046428Y-37627380D01*
X88141666Y-37627380D01*
X88284523Y-37675000D01*
X88332142Y-37722619D01*
X88713095Y-37722619D02*
X88760714Y-37675000D01*
X88855952Y-37627380D01*
X89094047Y-37627380D01*
X89189285Y-37675000D01*
X89236904Y-37722619D01*
X89284523Y-37817857D01*
X89284523Y-37913095D01*
X89236904Y-38055952D01*
X88665476Y-38627380D01*
X89284523Y-38627380D01*
X90141666Y-37627380D02*
X89951190Y-37627380D01*
X89855952Y-37675000D01*
X89808333Y-37722619D01*
X89713095Y-37865476D01*
X89665476Y-38055952D01*
X89665476Y-38436904D01*
X89713095Y-38532142D01*
X89760714Y-38579761D01*
X89855952Y-38627380D01*
X90046428Y-38627380D01*
X90141666Y-38579761D01*
X90189285Y-38532142D01*
X90236904Y-38436904D01*
X90236904Y-38198809D01*
X90189285Y-38103571D01*
X90141666Y-38055952D01*
X90046428Y-38008333D01*
X89855952Y-38008333D01*
X89760714Y-38055952D01*
X89713095Y-38103571D01*
X89665476Y-38198809D01*
%TO.C,C27*%
D16*
X74410714Y-35535714D02*
X74372619Y-35573809D01*
X74258333Y-35611904D01*
X74182142Y-35611904D01*
X74067857Y-35573809D01*
X73991666Y-35497619D01*
X73953571Y-35421428D01*
X73915476Y-35269047D01*
X73915476Y-35154761D01*
X73953571Y-35002380D01*
X73991666Y-34926190D01*
X74067857Y-34850000D01*
X74182142Y-34811904D01*
X74258333Y-34811904D01*
X74372619Y-34850000D01*
X74410714Y-34888095D01*
X74715476Y-34888095D02*
X74753571Y-34850000D01*
X74829761Y-34811904D01*
X75020238Y-34811904D01*
X75096428Y-34850000D01*
X75134523Y-34888095D01*
X75172619Y-34964285D01*
X75172619Y-35040476D01*
X75134523Y-35154761D01*
X74677380Y-35611904D01*
X75172619Y-35611904D01*
X75439285Y-34811904D02*
X75972619Y-34811904D01*
X75629761Y-35611904D01*
%TO.C,C31*%
X79700000Y-44225000D02*
X79666666Y-44258333D01*
X79566666Y-44291666D01*
X79500000Y-44291666D01*
X79400000Y-44258333D01*
X79333333Y-44191666D01*
X79300000Y-44125000D01*
X79266666Y-43991666D01*
X79266666Y-43891666D01*
X79300000Y-43758333D01*
X79333333Y-43691666D01*
X79400000Y-43625000D01*
X79500000Y-43591666D01*
X79566666Y-43591666D01*
X79666666Y-43625000D01*
X79700000Y-43658333D01*
X79933333Y-43591666D02*
X80366666Y-43591666D01*
X80133333Y-43858333D01*
X80233333Y-43858333D01*
X80300000Y-43891666D01*
X80333333Y-43925000D01*
X80366666Y-43991666D01*
X80366666Y-44158333D01*
X80333333Y-44225000D01*
X80300000Y-44258333D01*
X80233333Y-44291666D01*
X80033333Y-44291666D01*
X79966666Y-44258333D01*
X79933333Y-44225000D01*
X81033333Y-44291666D02*
X80633333Y-44291666D01*
X80833333Y-44291666D02*
X80833333Y-43591666D01*
X80766666Y-43691666D01*
X80700000Y-43758333D01*
X80633333Y-43791666D01*
%TO.C,C35*%
D10*
X85032142Y-44857142D02*
X84984523Y-44904761D01*
X84841666Y-44952380D01*
X84746428Y-44952380D01*
X84603571Y-44904761D01*
X84508333Y-44809523D01*
X84460714Y-44714285D01*
X84413095Y-44523809D01*
X84413095Y-44380952D01*
X84460714Y-44190476D01*
X84508333Y-44095238D01*
X84603571Y-44000000D01*
X84746428Y-43952380D01*
X84841666Y-43952380D01*
X84984523Y-44000000D01*
X85032142Y-44047619D01*
X85365476Y-43952380D02*
X85984523Y-43952380D01*
X85651190Y-44333333D01*
X85794047Y-44333333D01*
X85889285Y-44380952D01*
X85936904Y-44428571D01*
X85984523Y-44523809D01*
X85984523Y-44761904D01*
X85936904Y-44857142D01*
X85889285Y-44904761D01*
X85794047Y-44952380D01*
X85508333Y-44952380D01*
X85413095Y-44904761D01*
X85365476Y-44857142D01*
X86889285Y-43952380D02*
X86413095Y-43952380D01*
X86365476Y-44428571D01*
X86413095Y-44380952D01*
X86508333Y-44333333D01*
X86746428Y-44333333D01*
X86841666Y-44380952D01*
X86889285Y-44428571D01*
X86936904Y-44523809D01*
X86936904Y-44761904D01*
X86889285Y-44857142D01*
X86841666Y-44904761D01*
X86746428Y-44952380D01*
X86508333Y-44952380D01*
X86413095Y-44904761D01*
X86365476Y-44857142D01*
%TO.C,C36*%
X100557142Y-34757142D02*
X100509523Y-34804761D01*
X100366666Y-34852380D01*
X100271428Y-34852380D01*
X100128571Y-34804761D01*
X100033333Y-34709523D01*
X99985714Y-34614285D01*
X99938095Y-34423809D01*
X99938095Y-34280952D01*
X99985714Y-34090476D01*
X100033333Y-33995238D01*
X100128571Y-33900000D01*
X100271428Y-33852380D01*
X100366666Y-33852380D01*
X100509523Y-33900000D01*
X100557142Y-33947619D01*
X100890476Y-33852380D02*
X101509523Y-33852380D01*
X101176190Y-34233333D01*
X101319047Y-34233333D01*
X101414285Y-34280952D01*
X101461904Y-34328571D01*
X101509523Y-34423809D01*
X101509523Y-34661904D01*
X101461904Y-34757142D01*
X101414285Y-34804761D01*
X101319047Y-34852380D01*
X101033333Y-34852380D01*
X100938095Y-34804761D01*
X100890476Y-34757142D01*
X102366666Y-33852380D02*
X102176190Y-33852380D01*
X102080952Y-33900000D01*
X102033333Y-33947619D01*
X101938095Y-34090476D01*
X101890476Y-34280952D01*
X101890476Y-34661904D01*
X101938095Y-34757142D01*
X101985714Y-34804761D01*
X102080952Y-34852380D01*
X102271428Y-34852380D01*
X102366666Y-34804761D01*
X102414285Y-34757142D01*
X102461904Y-34661904D01*
X102461904Y-34423809D01*
X102414285Y-34328571D01*
X102366666Y-34280952D01*
X102271428Y-34233333D01*
X102080952Y-34233333D01*
X101985714Y-34280952D01*
X101938095Y-34328571D01*
X101890476Y-34423809D01*
%TO.C,C38*%
X72357142Y-41007142D02*
X72309523Y-41054761D01*
X72166666Y-41102380D01*
X72071428Y-41102380D01*
X71928571Y-41054761D01*
X71833333Y-40959523D01*
X71785714Y-40864285D01*
X71738095Y-40673809D01*
X71738095Y-40530952D01*
X71785714Y-40340476D01*
X71833333Y-40245238D01*
X71928571Y-40150000D01*
X72071428Y-40102380D01*
X72166666Y-40102380D01*
X72309523Y-40150000D01*
X72357142Y-40197619D01*
X72690476Y-40102380D02*
X73309523Y-40102380D01*
X72976190Y-40483333D01*
X73119047Y-40483333D01*
X73214285Y-40530952D01*
X73261904Y-40578571D01*
X73309523Y-40673809D01*
X73309523Y-40911904D01*
X73261904Y-41007142D01*
X73214285Y-41054761D01*
X73119047Y-41102380D01*
X72833333Y-41102380D01*
X72738095Y-41054761D01*
X72690476Y-41007142D01*
X73880952Y-40530952D02*
X73785714Y-40483333D01*
X73738095Y-40435714D01*
X73690476Y-40340476D01*
X73690476Y-40292857D01*
X73738095Y-40197619D01*
X73785714Y-40150000D01*
X73880952Y-40102380D01*
X74071428Y-40102380D01*
X74166666Y-40150000D01*
X74214285Y-40197619D01*
X74261904Y-40292857D01*
X74261904Y-40340476D01*
X74214285Y-40435714D01*
X74166666Y-40483333D01*
X74071428Y-40530952D01*
X73880952Y-40530952D01*
X73785714Y-40578571D01*
X73738095Y-40626190D01*
X73690476Y-40721428D01*
X73690476Y-40911904D01*
X73738095Y-41007142D01*
X73785714Y-41054761D01*
X73880952Y-41102380D01*
X74071428Y-41102380D01*
X74166666Y-41054761D01*
X74214285Y-41007142D01*
X74261904Y-40911904D01*
X74261904Y-40721428D01*
X74214285Y-40626190D01*
X74166666Y-40578571D01*
X74071428Y-40530952D01*
%TO.C,C39*%
X104657142Y-34757142D02*
X104609523Y-34804761D01*
X104466666Y-34852380D01*
X104371428Y-34852380D01*
X104228571Y-34804761D01*
X104133333Y-34709523D01*
X104085714Y-34614285D01*
X104038095Y-34423809D01*
X104038095Y-34280952D01*
X104085714Y-34090476D01*
X104133333Y-33995238D01*
X104228571Y-33900000D01*
X104371428Y-33852380D01*
X104466666Y-33852380D01*
X104609523Y-33900000D01*
X104657142Y-33947619D01*
X104990476Y-33852380D02*
X105609523Y-33852380D01*
X105276190Y-34233333D01*
X105419047Y-34233333D01*
X105514285Y-34280952D01*
X105561904Y-34328571D01*
X105609523Y-34423809D01*
X105609523Y-34661904D01*
X105561904Y-34757142D01*
X105514285Y-34804761D01*
X105419047Y-34852380D01*
X105133333Y-34852380D01*
X105038095Y-34804761D01*
X104990476Y-34757142D01*
X106085714Y-34852380D02*
X106276190Y-34852380D01*
X106371428Y-34804761D01*
X106419047Y-34757142D01*
X106514285Y-34614285D01*
X106561904Y-34423809D01*
X106561904Y-34042857D01*
X106514285Y-33947619D01*
X106466666Y-33900000D01*
X106371428Y-33852380D01*
X106180952Y-33852380D01*
X106085714Y-33900000D01*
X106038095Y-33947619D01*
X105990476Y-34042857D01*
X105990476Y-34280952D01*
X106038095Y-34376190D01*
X106085714Y-34423809D01*
X106180952Y-34471428D01*
X106371428Y-34471428D01*
X106466666Y-34423809D01*
X106514285Y-34376190D01*
X106561904Y-34280952D01*
%TO.C,C40*%
X106857142Y-40557142D02*
X106809523Y-40604761D01*
X106666666Y-40652380D01*
X106571428Y-40652380D01*
X106428571Y-40604761D01*
X106333333Y-40509523D01*
X106285714Y-40414285D01*
X106238095Y-40223809D01*
X106238095Y-40080952D01*
X106285714Y-39890476D01*
X106333333Y-39795238D01*
X106428571Y-39700000D01*
X106571428Y-39652380D01*
X106666666Y-39652380D01*
X106809523Y-39700000D01*
X106857142Y-39747619D01*
X107714285Y-39985714D02*
X107714285Y-40652380D01*
X107476190Y-39604761D02*
X107238095Y-40319047D01*
X107857142Y-40319047D01*
X108428571Y-39652380D02*
X108523809Y-39652380D01*
X108619047Y-39700000D01*
X108666666Y-39747619D01*
X108714285Y-39842857D01*
X108761904Y-40033333D01*
X108761904Y-40271428D01*
X108714285Y-40461904D01*
X108666666Y-40557142D01*
X108619047Y-40604761D01*
X108523809Y-40652380D01*
X108428571Y-40652380D01*
X108333333Y-40604761D01*
X108285714Y-40557142D01*
X108238095Y-40461904D01*
X108190476Y-40271428D01*
X108190476Y-40033333D01*
X108238095Y-39842857D01*
X108285714Y-39747619D01*
X108333333Y-39700000D01*
X108428571Y-39652380D01*
%TO.C,C41*%
X109257142Y-46857142D02*
X109209523Y-46904761D01*
X109066666Y-46952380D01*
X108971428Y-46952380D01*
X108828571Y-46904761D01*
X108733333Y-46809523D01*
X108685714Y-46714285D01*
X108638095Y-46523809D01*
X108638095Y-46380952D01*
X108685714Y-46190476D01*
X108733333Y-46095238D01*
X108828571Y-46000000D01*
X108971428Y-45952380D01*
X109066666Y-45952380D01*
X109209523Y-46000000D01*
X109257142Y-46047619D01*
X110114285Y-46285714D02*
X110114285Y-46952380D01*
X109876190Y-45904761D02*
X109638095Y-46619047D01*
X110257142Y-46619047D01*
X111161904Y-46952380D02*
X110590476Y-46952380D01*
X110876190Y-46952380D02*
X110876190Y-45952380D01*
X110780952Y-46095238D01*
X110685714Y-46190476D01*
X110590476Y-46238095D01*
%TO.C,C44*%
X106457142Y-45757142D02*
X106409523Y-45804761D01*
X106266666Y-45852380D01*
X106171428Y-45852380D01*
X106028571Y-45804761D01*
X105933333Y-45709523D01*
X105885714Y-45614285D01*
X105838095Y-45423809D01*
X105838095Y-45280952D01*
X105885714Y-45090476D01*
X105933333Y-44995238D01*
X106028571Y-44900000D01*
X106171428Y-44852380D01*
X106266666Y-44852380D01*
X106409523Y-44900000D01*
X106457142Y-44947619D01*
X107314285Y-45185714D02*
X107314285Y-45852380D01*
X107076190Y-44804761D02*
X106838095Y-45519047D01*
X107457142Y-45519047D01*
X108266666Y-45185714D02*
X108266666Y-45852380D01*
X108028571Y-44804761D02*
X107790476Y-45519047D01*
X108409523Y-45519047D01*
%TO.C,C45*%
X63982142Y-43307142D02*
X63934523Y-43354761D01*
X63791666Y-43402380D01*
X63696428Y-43402380D01*
X63553571Y-43354761D01*
X63458333Y-43259523D01*
X63410714Y-43164285D01*
X63363095Y-42973809D01*
X63363095Y-42830952D01*
X63410714Y-42640476D01*
X63458333Y-42545238D01*
X63553571Y-42450000D01*
X63696428Y-42402380D01*
X63791666Y-42402380D01*
X63934523Y-42450000D01*
X63982142Y-42497619D01*
X64839285Y-42735714D02*
X64839285Y-43402380D01*
X64601190Y-42354761D02*
X64363095Y-43069047D01*
X64982142Y-43069047D01*
X65839285Y-42402380D02*
X65363095Y-42402380D01*
X65315476Y-42878571D01*
X65363095Y-42830952D01*
X65458333Y-42783333D01*
X65696428Y-42783333D01*
X65791666Y-42830952D01*
X65839285Y-42878571D01*
X65886904Y-42973809D01*
X65886904Y-43211904D01*
X65839285Y-43307142D01*
X65791666Y-43354761D01*
X65696428Y-43402380D01*
X65458333Y-43402380D01*
X65363095Y-43354761D01*
X65315476Y-43307142D01*
%TO.C,C46*%
X61082142Y-46382142D02*
X61034523Y-46429761D01*
X60891666Y-46477380D01*
X60796428Y-46477380D01*
X60653571Y-46429761D01*
X60558333Y-46334523D01*
X60510714Y-46239285D01*
X60463095Y-46048809D01*
X60463095Y-45905952D01*
X60510714Y-45715476D01*
X60558333Y-45620238D01*
X60653571Y-45525000D01*
X60796428Y-45477380D01*
X60891666Y-45477380D01*
X61034523Y-45525000D01*
X61082142Y-45572619D01*
X61939285Y-45810714D02*
X61939285Y-46477380D01*
X61701190Y-45429761D02*
X61463095Y-46144047D01*
X62082142Y-46144047D01*
X62891666Y-45477380D02*
X62701190Y-45477380D01*
X62605952Y-45525000D01*
X62558333Y-45572619D01*
X62463095Y-45715476D01*
X62415476Y-45905952D01*
X62415476Y-46286904D01*
X62463095Y-46382142D01*
X62510714Y-46429761D01*
X62605952Y-46477380D01*
X62796428Y-46477380D01*
X62891666Y-46429761D01*
X62939285Y-46382142D01*
X62986904Y-46286904D01*
X62986904Y-46048809D01*
X62939285Y-45953571D01*
X62891666Y-45905952D01*
X62796428Y-45858333D01*
X62605952Y-45858333D01*
X62510714Y-45905952D01*
X62463095Y-45953571D01*
X62415476Y-46048809D01*
%TO.C,C59*%
X102532142Y-59857142D02*
X102484523Y-59904761D01*
X102341666Y-59952380D01*
X102246428Y-59952380D01*
X102103571Y-59904761D01*
X102008333Y-59809523D01*
X101960714Y-59714285D01*
X101913095Y-59523809D01*
X101913095Y-59380952D01*
X101960714Y-59190476D01*
X102008333Y-59095238D01*
X102103571Y-59000000D01*
X102246428Y-58952380D01*
X102341666Y-58952380D01*
X102484523Y-59000000D01*
X102532142Y-59047619D01*
X103436904Y-58952380D02*
X102960714Y-58952380D01*
X102913095Y-59428571D01*
X102960714Y-59380952D01*
X103055952Y-59333333D01*
X103294047Y-59333333D01*
X103389285Y-59380952D01*
X103436904Y-59428571D01*
X103484523Y-59523809D01*
X103484523Y-59761904D01*
X103436904Y-59857142D01*
X103389285Y-59904761D01*
X103294047Y-59952380D01*
X103055952Y-59952380D01*
X102960714Y-59904761D01*
X102913095Y-59857142D01*
X103960714Y-59952380D02*
X104151190Y-59952380D01*
X104246428Y-59904761D01*
X104294047Y-59857142D01*
X104389285Y-59714285D01*
X104436904Y-59523809D01*
X104436904Y-59142857D01*
X104389285Y-59047619D01*
X104341666Y-59000000D01*
X104246428Y-58952380D01*
X104055952Y-58952380D01*
X103960714Y-59000000D01*
X103913095Y-59047619D01*
X103865476Y-59142857D01*
X103865476Y-59380952D01*
X103913095Y-59476190D01*
X103960714Y-59523809D01*
X104055952Y-59571428D01*
X104246428Y-59571428D01*
X104341666Y-59523809D01*
X104389285Y-59476190D01*
X104436904Y-59380952D01*
%TO.C,C60*%
X102532142Y-58432142D02*
X102484523Y-58479761D01*
X102341666Y-58527380D01*
X102246428Y-58527380D01*
X102103571Y-58479761D01*
X102008333Y-58384523D01*
X101960714Y-58289285D01*
X101913095Y-58098809D01*
X101913095Y-57955952D01*
X101960714Y-57765476D01*
X102008333Y-57670238D01*
X102103571Y-57575000D01*
X102246428Y-57527380D01*
X102341666Y-57527380D01*
X102484523Y-57575000D01*
X102532142Y-57622619D01*
X103389285Y-57527380D02*
X103198809Y-57527380D01*
X103103571Y-57575000D01*
X103055952Y-57622619D01*
X102960714Y-57765476D01*
X102913095Y-57955952D01*
X102913095Y-58336904D01*
X102960714Y-58432142D01*
X103008333Y-58479761D01*
X103103571Y-58527380D01*
X103294047Y-58527380D01*
X103389285Y-58479761D01*
X103436904Y-58432142D01*
X103484523Y-58336904D01*
X103484523Y-58098809D01*
X103436904Y-58003571D01*
X103389285Y-57955952D01*
X103294047Y-57908333D01*
X103103571Y-57908333D01*
X103008333Y-57955952D01*
X102960714Y-58003571D01*
X102913095Y-58098809D01*
X104103571Y-57527380D02*
X104198809Y-57527380D01*
X104294047Y-57575000D01*
X104341666Y-57622619D01*
X104389285Y-57717857D01*
X104436904Y-57908333D01*
X104436904Y-58146428D01*
X104389285Y-58336904D01*
X104341666Y-58432142D01*
X104294047Y-58479761D01*
X104198809Y-58527380D01*
X104103571Y-58527380D01*
X104008333Y-58479761D01*
X103960714Y-58432142D01*
X103913095Y-58336904D01*
X103865476Y-58146428D01*
X103865476Y-57908333D01*
X103913095Y-57717857D01*
X103960714Y-57622619D01*
X104008333Y-57575000D01*
X104103571Y-57527380D01*
%TO.C,C61*%
X111257142Y-64257142D02*
X111209523Y-64304761D01*
X111066666Y-64352380D01*
X110971428Y-64352380D01*
X110828571Y-64304761D01*
X110733333Y-64209523D01*
X110685714Y-64114285D01*
X110638095Y-63923809D01*
X110638095Y-63780952D01*
X110685714Y-63590476D01*
X110733333Y-63495238D01*
X110828571Y-63400000D01*
X110971428Y-63352380D01*
X111066666Y-63352380D01*
X111209523Y-63400000D01*
X111257142Y-63447619D01*
X112114285Y-63352380D02*
X111923809Y-63352380D01*
X111828571Y-63400000D01*
X111780952Y-63447619D01*
X111685714Y-63590476D01*
X111638095Y-63780952D01*
X111638095Y-64161904D01*
X111685714Y-64257142D01*
X111733333Y-64304761D01*
X111828571Y-64352380D01*
X112019047Y-64352380D01*
X112114285Y-64304761D01*
X112161904Y-64257142D01*
X112209523Y-64161904D01*
X112209523Y-63923809D01*
X112161904Y-63828571D01*
X112114285Y-63780952D01*
X112019047Y-63733333D01*
X111828571Y-63733333D01*
X111733333Y-63780952D01*
X111685714Y-63828571D01*
X111638095Y-63923809D01*
X113161904Y-64352380D02*
X112590476Y-64352380D01*
X112876190Y-64352380D02*
X112876190Y-63352380D01*
X112780952Y-63495238D01*
X112685714Y-63590476D01*
X112590476Y-63638095D01*
%TO.C,C62*%
X107607142Y-59707142D02*
X107559523Y-59754761D01*
X107416666Y-59802380D01*
X107321428Y-59802380D01*
X107178571Y-59754761D01*
X107083333Y-59659523D01*
X107035714Y-59564285D01*
X106988095Y-59373809D01*
X106988095Y-59230952D01*
X107035714Y-59040476D01*
X107083333Y-58945238D01*
X107178571Y-58850000D01*
X107321428Y-58802380D01*
X107416666Y-58802380D01*
X107559523Y-58850000D01*
X107607142Y-58897619D01*
X108464285Y-58802380D02*
X108273809Y-58802380D01*
X108178571Y-58850000D01*
X108130952Y-58897619D01*
X108035714Y-59040476D01*
X107988095Y-59230952D01*
X107988095Y-59611904D01*
X108035714Y-59707142D01*
X108083333Y-59754761D01*
X108178571Y-59802380D01*
X108369047Y-59802380D01*
X108464285Y-59754761D01*
X108511904Y-59707142D01*
X108559523Y-59611904D01*
X108559523Y-59373809D01*
X108511904Y-59278571D01*
X108464285Y-59230952D01*
X108369047Y-59183333D01*
X108178571Y-59183333D01*
X108083333Y-59230952D01*
X108035714Y-59278571D01*
X107988095Y-59373809D01*
X108940476Y-58897619D02*
X108988095Y-58850000D01*
X109083333Y-58802380D01*
X109321428Y-58802380D01*
X109416666Y-58850000D01*
X109464285Y-58897619D01*
X109511904Y-58992857D01*
X109511904Y-59088095D01*
X109464285Y-59230952D01*
X108892857Y-59802380D01*
X109511904Y-59802380D01*
%TO.C,C73*%
X77677142Y-117950857D02*
X77724761Y-117998476D01*
X77772380Y-118141333D01*
X77772380Y-118236571D01*
X77724761Y-118379428D01*
X77629523Y-118474666D01*
X77534285Y-118522285D01*
X77343809Y-118569904D01*
X77200952Y-118569904D01*
X77010476Y-118522285D01*
X76915238Y-118474666D01*
X76820000Y-118379428D01*
X76772380Y-118236571D01*
X76772380Y-118141333D01*
X76820000Y-117998476D01*
X76867619Y-117950857D01*
X76772380Y-117617523D02*
X76772380Y-116950857D01*
X77772380Y-117379428D01*
X76772380Y-116665142D02*
X76772380Y-116046095D01*
X77153333Y-116379428D01*
X77153333Y-116236571D01*
X77200952Y-116141333D01*
X77248571Y-116093714D01*
X77343809Y-116046095D01*
X77581904Y-116046095D01*
X77677142Y-116093714D01*
X77724761Y-116141333D01*
X77772380Y-116236571D01*
X77772380Y-116522285D01*
X77724761Y-116617523D01*
X77677142Y-116665142D01*
%TO.C,C74*%
X75697142Y-120865142D02*
X75649523Y-120912761D01*
X75506666Y-120960380D01*
X75411428Y-120960380D01*
X75268571Y-120912761D01*
X75173333Y-120817523D01*
X75125714Y-120722285D01*
X75078095Y-120531809D01*
X75078095Y-120388952D01*
X75125714Y-120198476D01*
X75173333Y-120103238D01*
X75268571Y-120008000D01*
X75411428Y-119960380D01*
X75506666Y-119960380D01*
X75649523Y-120008000D01*
X75697142Y-120055619D01*
X76030476Y-119960380D02*
X76697142Y-119960380D01*
X76268571Y-120960380D01*
X77506666Y-120293714D02*
X77506666Y-120960380D01*
X77268571Y-119912761D02*
X77030476Y-120627047D01*
X77649523Y-120627047D01*
%TO.C,C79*%
D16*
X56935714Y-35210714D02*
X56897619Y-35248809D01*
X56783333Y-35286904D01*
X56707142Y-35286904D01*
X56592857Y-35248809D01*
X56516666Y-35172619D01*
X56478571Y-35096428D01*
X56440476Y-34944047D01*
X56440476Y-34829761D01*
X56478571Y-34677380D01*
X56516666Y-34601190D01*
X56592857Y-34525000D01*
X56707142Y-34486904D01*
X56783333Y-34486904D01*
X56897619Y-34525000D01*
X56935714Y-34563095D01*
X57202380Y-34486904D02*
X57735714Y-34486904D01*
X57392857Y-35286904D01*
X58078571Y-35286904D02*
X58230952Y-35286904D01*
X58307142Y-35248809D01*
X58345238Y-35210714D01*
X58421428Y-35096428D01*
X58459523Y-34944047D01*
X58459523Y-34639285D01*
X58421428Y-34563095D01*
X58383333Y-34525000D01*
X58307142Y-34486904D01*
X58154761Y-34486904D01*
X58078571Y-34525000D01*
X58040476Y-34563095D01*
X58002380Y-34639285D01*
X58002380Y-34829761D01*
X58040476Y-34905952D01*
X58078571Y-34944047D01*
X58154761Y-34982142D01*
X58307142Y-34982142D01*
X58383333Y-34944047D01*
X58421428Y-34905952D01*
X58459523Y-34829761D01*
%TO.C,C81*%
X56935714Y-34285714D02*
X56897619Y-34323809D01*
X56783333Y-34361904D01*
X56707142Y-34361904D01*
X56592857Y-34323809D01*
X56516666Y-34247619D01*
X56478571Y-34171428D01*
X56440476Y-34019047D01*
X56440476Y-33904761D01*
X56478571Y-33752380D01*
X56516666Y-33676190D01*
X56592857Y-33600000D01*
X56707142Y-33561904D01*
X56783333Y-33561904D01*
X56897619Y-33600000D01*
X56935714Y-33638095D01*
X57392857Y-33904761D02*
X57316666Y-33866666D01*
X57278571Y-33828571D01*
X57240476Y-33752380D01*
X57240476Y-33714285D01*
X57278571Y-33638095D01*
X57316666Y-33600000D01*
X57392857Y-33561904D01*
X57545238Y-33561904D01*
X57621428Y-33600000D01*
X57659523Y-33638095D01*
X57697619Y-33714285D01*
X57697619Y-33752380D01*
X57659523Y-33828571D01*
X57621428Y-33866666D01*
X57545238Y-33904761D01*
X57392857Y-33904761D01*
X57316666Y-33942857D01*
X57278571Y-33980952D01*
X57240476Y-34057142D01*
X57240476Y-34209523D01*
X57278571Y-34285714D01*
X57316666Y-34323809D01*
X57392857Y-34361904D01*
X57545238Y-34361904D01*
X57621428Y-34323809D01*
X57659523Y-34285714D01*
X57697619Y-34209523D01*
X57697619Y-34057142D01*
X57659523Y-33980952D01*
X57621428Y-33942857D01*
X57545238Y-33904761D01*
X58459523Y-34361904D02*
X58002380Y-34361904D01*
X58230952Y-34361904D02*
X58230952Y-33561904D01*
X58154761Y-33676190D01*
X58078571Y-33752380D01*
X58002380Y-33790476D01*
%TO.C,C82*%
D10*
X62107142Y-24882142D02*
X62059523Y-24929761D01*
X61916666Y-24977380D01*
X61821428Y-24977380D01*
X61678571Y-24929761D01*
X61583333Y-24834523D01*
X61535714Y-24739285D01*
X61488095Y-24548809D01*
X61488095Y-24405952D01*
X61535714Y-24215476D01*
X61583333Y-24120238D01*
X61678571Y-24025000D01*
X61821428Y-23977380D01*
X61916666Y-23977380D01*
X62059523Y-24025000D01*
X62107142Y-24072619D01*
X62678571Y-24405952D02*
X62583333Y-24358333D01*
X62535714Y-24310714D01*
X62488095Y-24215476D01*
X62488095Y-24167857D01*
X62535714Y-24072619D01*
X62583333Y-24025000D01*
X62678571Y-23977380D01*
X62869047Y-23977380D01*
X62964285Y-24025000D01*
X63011904Y-24072619D01*
X63059523Y-24167857D01*
X63059523Y-24215476D01*
X63011904Y-24310714D01*
X62964285Y-24358333D01*
X62869047Y-24405952D01*
X62678571Y-24405952D01*
X62583333Y-24453571D01*
X62535714Y-24501190D01*
X62488095Y-24596428D01*
X62488095Y-24786904D01*
X62535714Y-24882142D01*
X62583333Y-24929761D01*
X62678571Y-24977380D01*
X62869047Y-24977380D01*
X62964285Y-24929761D01*
X63011904Y-24882142D01*
X63059523Y-24786904D01*
X63059523Y-24596428D01*
X63011904Y-24501190D01*
X62964285Y-24453571D01*
X62869047Y-24405952D01*
X63440476Y-24072619D02*
X63488095Y-24025000D01*
X63583333Y-23977380D01*
X63821428Y-23977380D01*
X63916666Y-24025000D01*
X63964285Y-24072619D01*
X64011904Y-24167857D01*
X64011904Y-24263095D01*
X63964285Y-24405952D01*
X63392857Y-24977380D01*
X64011904Y-24977380D01*
%TO.C,C83*%
D16*
X56935714Y-36135714D02*
X56897619Y-36173809D01*
X56783333Y-36211904D01*
X56707142Y-36211904D01*
X56592857Y-36173809D01*
X56516666Y-36097619D01*
X56478571Y-36021428D01*
X56440476Y-35869047D01*
X56440476Y-35754761D01*
X56478571Y-35602380D01*
X56516666Y-35526190D01*
X56592857Y-35450000D01*
X56707142Y-35411904D01*
X56783333Y-35411904D01*
X56897619Y-35450000D01*
X56935714Y-35488095D01*
X57392857Y-35754761D02*
X57316666Y-35716666D01*
X57278571Y-35678571D01*
X57240476Y-35602380D01*
X57240476Y-35564285D01*
X57278571Y-35488095D01*
X57316666Y-35450000D01*
X57392857Y-35411904D01*
X57545238Y-35411904D01*
X57621428Y-35450000D01*
X57659523Y-35488095D01*
X57697619Y-35564285D01*
X57697619Y-35602380D01*
X57659523Y-35678571D01*
X57621428Y-35716666D01*
X57545238Y-35754761D01*
X57392857Y-35754761D01*
X57316666Y-35792857D01*
X57278571Y-35830952D01*
X57240476Y-35907142D01*
X57240476Y-36059523D01*
X57278571Y-36135714D01*
X57316666Y-36173809D01*
X57392857Y-36211904D01*
X57545238Y-36211904D01*
X57621428Y-36173809D01*
X57659523Y-36135714D01*
X57697619Y-36059523D01*
X57697619Y-35907142D01*
X57659523Y-35830952D01*
X57621428Y-35792857D01*
X57545238Y-35754761D01*
X57964285Y-35411904D02*
X58459523Y-35411904D01*
X58192857Y-35716666D01*
X58307142Y-35716666D01*
X58383333Y-35754761D01*
X58421428Y-35792857D01*
X58459523Y-35869047D01*
X58459523Y-36059523D01*
X58421428Y-36135714D01*
X58383333Y-36173809D01*
X58307142Y-36211904D01*
X58078571Y-36211904D01*
X58002380Y-36173809D01*
X57964285Y-36135714D01*
%TO.C,C84*%
X56935714Y-37060714D02*
X56897619Y-37098809D01*
X56783333Y-37136904D01*
X56707142Y-37136904D01*
X56592857Y-37098809D01*
X56516666Y-37022619D01*
X56478571Y-36946428D01*
X56440476Y-36794047D01*
X56440476Y-36679761D01*
X56478571Y-36527380D01*
X56516666Y-36451190D01*
X56592857Y-36375000D01*
X56707142Y-36336904D01*
X56783333Y-36336904D01*
X56897619Y-36375000D01*
X56935714Y-36413095D01*
X57392857Y-36679761D02*
X57316666Y-36641666D01*
X57278571Y-36603571D01*
X57240476Y-36527380D01*
X57240476Y-36489285D01*
X57278571Y-36413095D01*
X57316666Y-36375000D01*
X57392857Y-36336904D01*
X57545238Y-36336904D01*
X57621428Y-36375000D01*
X57659523Y-36413095D01*
X57697619Y-36489285D01*
X57697619Y-36527380D01*
X57659523Y-36603571D01*
X57621428Y-36641666D01*
X57545238Y-36679761D01*
X57392857Y-36679761D01*
X57316666Y-36717857D01*
X57278571Y-36755952D01*
X57240476Y-36832142D01*
X57240476Y-36984523D01*
X57278571Y-37060714D01*
X57316666Y-37098809D01*
X57392857Y-37136904D01*
X57545238Y-37136904D01*
X57621428Y-37098809D01*
X57659523Y-37060714D01*
X57697619Y-36984523D01*
X57697619Y-36832142D01*
X57659523Y-36755952D01*
X57621428Y-36717857D01*
X57545238Y-36679761D01*
X58383333Y-36603571D02*
X58383333Y-37136904D01*
X58192857Y-36298809D02*
X58002380Y-36870238D01*
X58497619Y-36870238D01*
%TO.C,C85*%
D10*
X56032142Y-23307142D02*
X55984523Y-23354761D01*
X55841666Y-23402380D01*
X55746428Y-23402380D01*
X55603571Y-23354761D01*
X55508333Y-23259523D01*
X55460714Y-23164285D01*
X55413095Y-22973809D01*
X55413095Y-22830952D01*
X55460714Y-22640476D01*
X55508333Y-22545238D01*
X55603571Y-22450000D01*
X55746428Y-22402380D01*
X55841666Y-22402380D01*
X55984523Y-22450000D01*
X56032142Y-22497619D01*
X56603571Y-22830952D02*
X56508333Y-22783333D01*
X56460714Y-22735714D01*
X56413095Y-22640476D01*
X56413095Y-22592857D01*
X56460714Y-22497619D01*
X56508333Y-22450000D01*
X56603571Y-22402380D01*
X56794047Y-22402380D01*
X56889285Y-22450000D01*
X56936904Y-22497619D01*
X56984523Y-22592857D01*
X56984523Y-22640476D01*
X56936904Y-22735714D01*
X56889285Y-22783333D01*
X56794047Y-22830952D01*
X56603571Y-22830952D01*
X56508333Y-22878571D01*
X56460714Y-22926190D01*
X56413095Y-23021428D01*
X56413095Y-23211904D01*
X56460714Y-23307142D01*
X56508333Y-23354761D01*
X56603571Y-23402380D01*
X56794047Y-23402380D01*
X56889285Y-23354761D01*
X56936904Y-23307142D01*
X56984523Y-23211904D01*
X56984523Y-23021428D01*
X56936904Y-22926190D01*
X56889285Y-22878571D01*
X56794047Y-22830952D01*
X57889285Y-22402380D02*
X57413095Y-22402380D01*
X57365476Y-22878571D01*
X57413095Y-22830952D01*
X57508333Y-22783333D01*
X57746428Y-22783333D01*
X57841666Y-22830952D01*
X57889285Y-22878571D01*
X57936904Y-22973809D01*
X57936904Y-23211904D01*
X57889285Y-23307142D01*
X57841666Y-23354761D01*
X57746428Y-23402380D01*
X57508333Y-23402380D01*
X57413095Y-23354761D01*
X57365476Y-23307142D01*
%TO.C,C86*%
X52982142Y-23532142D02*
X52934523Y-23579761D01*
X52791666Y-23627380D01*
X52696428Y-23627380D01*
X52553571Y-23579761D01*
X52458333Y-23484523D01*
X52410714Y-23389285D01*
X52363095Y-23198809D01*
X52363095Y-23055952D01*
X52410714Y-22865476D01*
X52458333Y-22770238D01*
X52553571Y-22675000D01*
X52696428Y-22627380D01*
X52791666Y-22627380D01*
X52934523Y-22675000D01*
X52982142Y-22722619D01*
X53553571Y-23055952D02*
X53458333Y-23008333D01*
X53410714Y-22960714D01*
X53363095Y-22865476D01*
X53363095Y-22817857D01*
X53410714Y-22722619D01*
X53458333Y-22675000D01*
X53553571Y-22627380D01*
X53744047Y-22627380D01*
X53839285Y-22675000D01*
X53886904Y-22722619D01*
X53934523Y-22817857D01*
X53934523Y-22865476D01*
X53886904Y-22960714D01*
X53839285Y-23008333D01*
X53744047Y-23055952D01*
X53553571Y-23055952D01*
X53458333Y-23103571D01*
X53410714Y-23151190D01*
X53363095Y-23246428D01*
X53363095Y-23436904D01*
X53410714Y-23532142D01*
X53458333Y-23579761D01*
X53553571Y-23627380D01*
X53744047Y-23627380D01*
X53839285Y-23579761D01*
X53886904Y-23532142D01*
X53934523Y-23436904D01*
X53934523Y-23246428D01*
X53886904Y-23151190D01*
X53839285Y-23103571D01*
X53744047Y-23055952D01*
X54791666Y-22627380D02*
X54601190Y-22627380D01*
X54505952Y-22675000D01*
X54458333Y-22722619D01*
X54363095Y-22865476D01*
X54315476Y-23055952D01*
X54315476Y-23436904D01*
X54363095Y-23532142D01*
X54410714Y-23579761D01*
X54505952Y-23627380D01*
X54696428Y-23627380D01*
X54791666Y-23579761D01*
X54839285Y-23532142D01*
X54886904Y-23436904D01*
X54886904Y-23198809D01*
X54839285Y-23103571D01*
X54791666Y-23055952D01*
X54696428Y-23008333D01*
X54505952Y-23008333D01*
X54410714Y-23055952D01*
X54363095Y-23103571D01*
X54315476Y-23198809D01*
%TO.C,C88*%
D16*
X65935714Y-35210714D02*
X65897619Y-35248809D01*
X65783333Y-35286904D01*
X65707142Y-35286904D01*
X65592857Y-35248809D01*
X65516666Y-35172619D01*
X65478571Y-35096428D01*
X65440476Y-34944047D01*
X65440476Y-34829761D01*
X65478571Y-34677380D01*
X65516666Y-34601190D01*
X65592857Y-34525000D01*
X65707142Y-34486904D01*
X65783333Y-34486904D01*
X65897619Y-34525000D01*
X65935714Y-34563095D01*
X66392857Y-34829761D02*
X66316666Y-34791666D01*
X66278571Y-34753571D01*
X66240476Y-34677380D01*
X66240476Y-34639285D01*
X66278571Y-34563095D01*
X66316666Y-34525000D01*
X66392857Y-34486904D01*
X66545238Y-34486904D01*
X66621428Y-34525000D01*
X66659523Y-34563095D01*
X66697619Y-34639285D01*
X66697619Y-34677380D01*
X66659523Y-34753571D01*
X66621428Y-34791666D01*
X66545238Y-34829761D01*
X66392857Y-34829761D01*
X66316666Y-34867857D01*
X66278571Y-34905952D01*
X66240476Y-34982142D01*
X66240476Y-35134523D01*
X66278571Y-35210714D01*
X66316666Y-35248809D01*
X66392857Y-35286904D01*
X66545238Y-35286904D01*
X66621428Y-35248809D01*
X66659523Y-35210714D01*
X66697619Y-35134523D01*
X66697619Y-34982142D01*
X66659523Y-34905952D01*
X66621428Y-34867857D01*
X66545238Y-34829761D01*
X67154761Y-34829761D02*
X67078571Y-34791666D01*
X67040476Y-34753571D01*
X67002380Y-34677380D01*
X67002380Y-34639285D01*
X67040476Y-34563095D01*
X67078571Y-34525000D01*
X67154761Y-34486904D01*
X67307142Y-34486904D01*
X67383333Y-34525000D01*
X67421428Y-34563095D01*
X67459523Y-34639285D01*
X67459523Y-34677380D01*
X67421428Y-34753571D01*
X67383333Y-34791666D01*
X67307142Y-34829761D01*
X67154761Y-34829761D01*
X67078571Y-34867857D01*
X67040476Y-34905952D01*
X67002380Y-34982142D01*
X67002380Y-35134523D01*
X67040476Y-35210714D01*
X67078571Y-35248809D01*
X67154761Y-35286904D01*
X67307142Y-35286904D01*
X67383333Y-35248809D01*
X67421428Y-35210714D01*
X67459523Y-35134523D01*
X67459523Y-34982142D01*
X67421428Y-34905952D01*
X67383333Y-34867857D01*
X67307142Y-34829761D01*
%TO.C,C89*%
X65935714Y-34285714D02*
X65897619Y-34323809D01*
X65783333Y-34361904D01*
X65707142Y-34361904D01*
X65592857Y-34323809D01*
X65516666Y-34247619D01*
X65478571Y-34171428D01*
X65440476Y-34019047D01*
X65440476Y-33904761D01*
X65478571Y-33752380D01*
X65516666Y-33676190D01*
X65592857Y-33600000D01*
X65707142Y-33561904D01*
X65783333Y-33561904D01*
X65897619Y-33600000D01*
X65935714Y-33638095D01*
X66392857Y-33904761D02*
X66316666Y-33866666D01*
X66278571Y-33828571D01*
X66240476Y-33752380D01*
X66240476Y-33714285D01*
X66278571Y-33638095D01*
X66316666Y-33600000D01*
X66392857Y-33561904D01*
X66545238Y-33561904D01*
X66621428Y-33600000D01*
X66659523Y-33638095D01*
X66697619Y-33714285D01*
X66697619Y-33752380D01*
X66659523Y-33828571D01*
X66621428Y-33866666D01*
X66545238Y-33904761D01*
X66392857Y-33904761D01*
X66316666Y-33942857D01*
X66278571Y-33980952D01*
X66240476Y-34057142D01*
X66240476Y-34209523D01*
X66278571Y-34285714D01*
X66316666Y-34323809D01*
X66392857Y-34361904D01*
X66545238Y-34361904D01*
X66621428Y-34323809D01*
X66659523Y-34285714D01*
X66697619Y-34209523D01*
X66697619Y-34057142D01*
X66659523Y-33980952D01*
X66621428Y-33942857D01*
X66545238Y-33904761D01*
X67078571Y-34361904D02*
X67230952Y-34361904D01*
X67307142Y-34323809D01*
X67345238Y-34285714D01*
X67421428Y-34171428D01*
X67459523Y-34019047D01*
X67459523Y-33714285D01*
X67421428Y-33638095D01*
X67383333Y-33600000D01*
X67307142Y-33561904D01*
X67154761Y-33561904D01*
X67078571Y-33600000D01*
X67040476Y-33638095D01*
X67002380Y-33714285D01*
X67002380Y-33904761D01*
X67040476Y-33980952D01*
X67078571Y-34019047D01*
X67154761Y-34057142D01*
X67307142Y-34057142D01*
X67383333Y-34019047D01*
X67421428Y-33980952D01*
X67459523Y-33904761D01*
%TO.C,C90*%
D10*
X73157142Y-28427142D02*
X73109523Y-28474761D01*
X72966666Y-28522380D01*
X72871428Y-28522380D01*
X72728571Y-28474761D01*
X72633333Y-28379523D01*
X72585714Y-28284285D01*
X72538095Y-28093809D01*
X72538095Y-27950952D01*
X72585714Y-27760476D01*
X72633333Y-27665238D01*
X72728571Y-27570000D01*
X72871428Y-27522380D01*
X72966666Y-27522380D01*
X73109523Y-27570000D01*
X73157142Y-27617619D01*
X73633333Y-28522380D02*
X73823809Y-28522380D01*
X73919047Y-28474761D01*
X73966666Y-28427142D01*
X74061904Y-28284285D01*
X74109523Y-28093809D01*
X74109523Y-27712857D01*
X74061904Y-27617619D01*
X74014285Y-27570000D01*
X73919047Y-27522380D01*
X73728571Y-27522380D01*
X73633333Y-27570000D01*
X73585714Y-27617619D01*
X73538095Y-27712857D01*
X73538095Y-27950952D01*
X73585714Y-28046190D01*
X73633333Y-28093809D01*
X73728571Y-28141428D01*
X73919047Y-28141428D01*
X74014285Y-28093809D01*
X74061904Y-28046190D01*
X74109523Y-27950952D01*
X74728571Y-27522380D02*
X74823809Y-27522380D01*
X74919047Y-27570000D01*
X74966666Y-27617619D01*
X75014285Y-27712857D01*
X75061904Y-27903333D01*
X75061904Y-28141428D01*
X75014285Y-28331904D01*
X74966666Y-28427142D01*
X74919047Y-28474761D01*
X74823809Y-28522380D01*
X74728571Y-28522380D01*
X74633333Y-28474761D01*
X74585714Y-28427142D01*
X74538095Y-28331904D01*
X74490476Y-28141428D01*
X74490476Y-27903333D01*
X74538095Y-27712857D01*
X74585714Y-27617619D01*
X74633333Y-27570000D01*
X74728571Y-27522380D01*
%TO.C,C91*%
D16*
X65935714Y-36135714D02*
X65897619Y-36173809D01*
X65783333Y-36211904D01*
X65707142Y-36211904D01*
X65592857Y-36173809D01*
X65516666Y-36097619D01*
X65478571Y-36021428D01*
X65440476Y-35869047D01*
X65440476Y-35754761D01*
X65478571Y-35602380D01*
X65516666Y-35526190D01*
X65592857Y-35450000D01*
X65707142Y-35411904D01*
X65783333Y-35411904D01*
X65897619Y-35450000D01*
X65935714Y-35488095D01*
X66316666Y-36211904D02*
X66469047Y-36211904D01*
X66545238Y-36173809D01*
X66583333Y-36135714D01*
X66659523Y-36021428D01*
X66697619Y-35869047D01*
X66697619Y-35564285D01*
X66659523Y-35488095D01*
X66621428Y-35450000D01*
X66545238Y-35411904D01*
X66392857Y-35411904D01*
X66316666Y-35450000D01*
X66278571Y-35488095D01*
X66240476Y-35564285D01*
X66240476Y-35754761D01*
X66278571Y-35830952D01*
X66316666Y-35869047D01*
X66392857Y-35907142D01*
X66545238Y-35907142D01*
X66621428Y-35869047D01*
X66659523Y-35830952D01*
X66697619Y-35754761D01*
X67459523Y-36211904D02*
X67002380Y-36211904D01*
X67230952Y-36211904D02*
X67230952Y-35411904D01*
X67154761Y-35526190D01*
X67078571Y-35602380D01*
X67002380Y-35640476D01*
%TO.C,C92*%
X65910714Y-37060714D02*
X65872619Y-37098809D01*
X65758333Y-37136904D01*
X65682142Y-37136904D01*
X65567857Y-37098809D01*
X65491666Y-37022619D01*
X65453571Y-36946428D01*
X65415476Y-36794047D01*
X65415476Y-36679761D01*
X65453571Y-36527380D01*
X65491666Y-36451190D01*
X65567857Y-36375000D01*
X65682142Y-36336904D01*
X65758333Y-36336904D01*
X65872619Y-36375000D01*
X65910714Y-36413095D01*
X66291666Y-37136904D02*
X66444047Y-37136904D01*
X66520238Y-37098809D01*
X66558333Y-37060714D01*
X66634523Y-36946428D01*
X66672619Y-36794047D01*
X66672619Y-36489285D01*
X66634523Y-36413095D01*
X66596428Y-36375000D01*
X66520238Y-36336904D01*
X66367857Y-36336904D01*
X66291666Y-36375000D01*
X66253571Y-36413095D01*
X66215476Y-36489285D01*
X66215476Y-36679761D01*
X66253571Y-36755952D01*
X66291666Y-36794047D01*
X66367857Y-36832142D01*
X66520238Y-36832142D01*
X66596428Y-36794047D01*
X66634523Y-36755952D01*
X66672619Y-36679761D01*
X66977380Y-36413095D02*
X67015476Y-36375000D01*
X67091666Y-36336904D01*
X67282142Y-36336904D01*
X67358333Y-36375000D01*
X67396428Y-36413095D01*
X67434523Y-36489285D01*
X67434523Y-36565476D01*
X67396428Y-36679761D01*
X66939285Y-37136904D01*
X67434523Y-37136904D01*
%TO.C,C95*%
D10*
X93457142Y-104757142D02*
X93409523Y-104804761D01*
X93266666Y-104852380D01*
X93171428Y-104852380D01*
X93028571Y-104804761D01*
X92933333Y-104709523D01*
X92885714Y-104614285D01*
X92838095Y-104423809D01*
X92838095Y-104280952D01*
X92885714Y-104090476D01*
X92933333Y-103995238D01*
X93028571Y-103900000D01*
X93171428Y-103852380D01*
X93266666Y-103852380D01*
X93409523Y-103900000D01*
X93457142Y-103947619D01*
X93933333Y-104852380D02*
X94123809Y-104852380D01*
X94219047Y-104804761D01*
X94266666Y-104757142D01*
X94361904Y-104614285D01*
X94409523Y-104423809D01*
X94409523Y-104042857D01*
X94361904Y-103947619D01*
X94314285Y-103900000D01*
X94219047Y-103852380D01*
X94028571Y-103852380D01*
X93933333Y-103900000D01*
X93885714Y-103947619D01*
X93838095Y-104042857D01*
X93838095Y-104280952D01*
X93885714Y-104376190D01*
X93933333Y-104423809D01*
X94028571Y-104471428D01*
X94219047Y-104471428D01*
X94314285Y-104423809D01*
X94361904Y-104376190D01*
X94409523Y-104280952D01*
X95314285Y-103852380D02*
X94838095Y-103852380D01*
X94790476Y-104328571D01*
X94838095Y-104280952D01*
X94933333Y-104233333D01*
X95171428Y-104233333D01*
X95266666Y-104280952D01*
X95314285Y-104328571D01*
X95361904Y-104423809D01*
X95361904Y-104661904D01*
X95314285Y-104757142D01*
X95266666Y-104804761D01*
X95171428Y-104852380D01*
X94933333Y-104852380D01*
X94838095Y-104804761D01*
X94790476Y-104757142D01*
%TO.C,C105*%
X121855952Y-113307142D02*
X121808333Y-113354761D01*
X121665476Y-113402380D01*
X121570238Y-113402380D01*
X121427380Y-113354761D01*
X121332142Y-113259523D01*
X121284523Y-113164285D01*
X121236904Y-112973809D01*
X121236904Y-112830952D01*
X121284523Y-112640476D01*
X121332142Y-112545238D01*
X121427380Y-112450000D01*
X121570238Y-112402380D01*
X121665476Y-112402380D01*
X121808333Y-112450000D01*
X121855952Y-112497619D01*
X122808333Y-113402380D02*
X122236904Y-113402380D01*
X122522619Y-113402380D02*
X122522619Y-112402380D01*
X122427380Y-112545238D01*
X122332142Y-112640476D01*
X122236904Y-112688095D01*
X123427380Y-112402380D02*
X123522619Y-112402380D01*
X123617857Y-112450000D01*
X123665476Y-112497619D01*
X123713095Y-112592857D01*
X123760714Y-112783333D01*
X123760714Y-113021428D01*
X123713095Y-113211904D01*
X123665476Y-113307142D01*
X123617857Y-113354761D01*
X123522619Y-113402380D01*
X123427380Y-113402380D01*
X123332142Y-113354761D01*
X123284523Y-113307142D01*
X123236904Y-113211904D01*
X123189285Y-113021428D01*
X123189285Y-112783333D01*
X123236904Y-112592857D01*
X123284523Y-112497619D01*
X123332142Y-112450000D01*
X123427380Y-112402380D01*
X124665476Y-112402380D02*
X124189285Y-112402380D01*
X124141666Y-112878571D01*
X124189285Y-112830952D01*
X124284523Y-112783333D01*
X124522619Y-112783333D01*
X124617857Y-112830952D01*
X124665476Y-112878571D01*
X124713095Y-112973809D01*
X124713095Y-113211904D01*
X124665476Y-113307142D01*
X124617857Y-113354761D01*
X124522619Y-113402380D01*
X124284523Y-113402380D01*
X124189285Y-113354761D01*
X124141666Y-113307142D01*
%TO.C,C107*%
X121855952Y-115407142D02*
X121808333Y-115454761D01*
X121665476Y-115502380D01*
X121570238Y-115502380D01*
X121427380Y-115454761D01*
X121332142Y-115359523D01*
X121284523Y-115264285D01*
X121236904Y-115073809D01*
X121236904Y-114930952D01*
X121284523Y-114740476D01*
X121332142Y-114645238D01*
X121427380Y-114550000D01*
X121570238Y-114502380D01*
X121665476Y-114502380D01*
X121808333Y-114550000D01*
X121855952Y-114597619D01*
X122808333Y-115502380D02*
X122236904Y-115502380D01*
X122522619Y-115502380D02*
X122522619Y-114502380D01*
X122427380Y-114645238D01*
X122332142Y-114740476D01*
X122236904Y-114788095D01*
X123427380Y-114502380D02*
X123522619Y-114502380D01*
X123617857Y-114550000D01*
X123665476Y-114597619D01*
X123713095Y-114692857D01*
X123760714Y-114883333D01*
X123760714Y-115121428D01*
X123713095Y-115311904D01*
X123665476Y-115407142D01*
X123617857Y-115454761D01*
X123522619Y-115502380D01*
X123427380Y-115502380D01*
X123332142Y-115454761D01*
X123284523Y-115407142D01*
X123236904Y-115311904D01*
X123189285Y-115121428D01*
X123189285Y-114883333D01*
X123236904Y-114692857D01*
X123284523Y-114597619D01*
X123332142Y-114550000D01*
X123427380Y-114502380D01*
X124094047Y-114502380D02*
X124760714Y-114502380D01*
X124332142Y-115502380D01*
%TO.C,C109*%
X121830952Y-119482142D02*
X121783333Y-119529761D01*
X121640476Y-119577380D01*
X121545238Y-119577380D01*
X121402380Y-119529761D01*
X121307142Y-119434523D01*
X121259523Y-119339285D01*
X121211904Y-119148809D01*
X121211904Y-119005952D01*
X121259523Y-118815476D01*
X121307142Y-118720238D01*
X121402380Y-118625000D01*
X121545238Y-118577380D01*
X121640476Y-118577380D01*
X121783333Y-118625000D01*
X121830952Y-118672619D01*
X122783333Y-119577380D02*
X122211904Y-119577380D01*
X122497619Y-119577380D02*
X122497619Y-118577380D01*
X122402380Y-118720238D01*
X122307142Y-118815476D01*
X122211904Y-118863095D01*
X123402380Y-118577380D02*
X123497619Y-118577380D01*
X123592857Y-118625000D01*
X123640476Y-118672619D01*
X123688095Y-118767857D01*
X123735714Y-118958333D01*
X123735714Y-119196428D01*
X123688095Y-119386904D01*
X123640476Y-119482142D01*
X123592857Y-119529761D01*
X123497619Y-119577380D01*
X123402380Y-119577380D01*
X123307142Y-119529761D01*
X123259523Y-119482142D01*
X123211904Y-119386904D01*
X123164285Y-119196428D01*
X123164285Y-118958333D01*
X123211904Y-118767857D01*
X123259523Y-118672619D01*
X123307142Y-118625000D01*
X123402380Y-118577380D01*
X124211904Y-119577380D02*
X124402380Y-119577380D01*
X124497619Y-119529761D01*
X124545238Y-119482142D01*
X124640476Y-119339285D01*
X124688095Y-119148809D01*
X124688095Y-118767857D01*
X124640476Y-118672619D01*
X124592857Y-118625000D01*
X124497619Y-118577380D01*
X124307142Y-118577380D01*
X124211904Y-118625000D01*
X124164285Y-118672619D01*
X124116666Y-118767857D01*
X124116666Y-119005952D01*
X124164285Y-119101190D01*
X124211904Y-119148809D01*
X124307142Y-119196428D01*
X124497619Y-119196428D01*
X124592857Y-119148809D01*
X124640476Y-119101190D01*
X124688095Y-119005952D01*
%TO.C,C114*%
X45680952Y-54507142D02*
X45633333Y-54554761D01*
X45490476Y-54602380D01*
X45395238Y-54602380D01*
X45252380Y-54554761D01*
X45157142Y-54459523D01*
X45109523Y-54364285D01*
X45061904Y-54173809D01*
X45061904Y-54030952D01*
X45109523Y-53840476D01*
X45157142Y-53745238D01*
X45252380Y-53650000D01*
X45395238Y-53602380D01*
X45490476Y-53602380D01*
X45633333Y-53650000D01*
X45680952Y-53697619D01*
X46633333Y-54602380D02*
X46061904Y-54602380D01*
X46347619Y-54602380D02*
X46347619Y-53602380D01*
X46252380Y-53745238D01*
X46157142Y-53840476D01*
X46061904Y-53888095D01*
X47585714Y-54602380D02*
X47014285Y-54602380D01*
X47300000Y-54602380D02*
X47300000Y-53602380D01*
X47204761Y-53745238D01*
X47109523Y-53840476D01*
X47014285Y-53888095D01*
X48442857Y-53935714D02*
X48442857Y-54602380D01*
X48204761Y-53554761D02*
X47966666Y-54269047D01*
X48585714Y-54269047D01*
%TO.C,C115*%
X51280952Y-67057142D02*
X51233333Y-67104761D01*
X51090476Y-67152380D01*
X50995238Y-67152380D01*
X50852380Y-67104761D01*
X50757142Y-67009523D01*
X50709523Y-66914285D01*
X50661904Y-66723809D01*
X50661904Y-66580952D01*
X50709523Y-66390476D01*
X50757142Y-66295238D01*
X50852380Y-66200000D01*
X50995238Y-66152380D01*
X51090476Y-66152380D01*
X51233333Y-66200000D01*
X51280952Y-66247619D01*
X52233333Y-67152380D02*
X51661904Y-67152380D01*
X51947619Y-67152380D02*
X51947619Y-66152380D01*
X51852380Y-66295238D01*
X51757142Y-66390476D01*
X51661904Y-66438095D01*
X53185714Y-67152380D02*
X52614285Y-67152380D01*
X52900000Y-67152380D02*
X52900000Y-66152380D01*
X52804761Y-66295238D01*
X52709523Y-66390476D01*
X52614285Y-66438095D01*
X54090476Y-66152380D02*
X53614285Y-66152380D01*
X53566666Y-66628571D01*
X53614285Y-66580952D01*
X53709523Y-66533333D01*
X53947619Y-66533333D01*
X54042857Y-66580952D01*
X54090476Y-66628571D01*
X54138095Y-66723809D01*
X54138095Y-66961904D01*
X54090476Y-67057142D01*
X54042857Y-67104761D01*
X53947619Y-67152380D01*
X53709523Y-67152380D01*
X53614285Y-67104761D01*
X53566666Y-67057142D01*
%TO.C,C116*%
X59305952Y-63307142D02*
X59258333Y-63354761D01*
X59115476Y-63402380D01*
X59020238Y-63402380D01*
X58877380Y-63354761D01*
X58782142Y-63259523D01*
X58734523Y-63164285D01*
X58686904Y-62973809D01*
X58686904Y-62830952D01*
X58734523Y-62640476D01*
X58782142Y-62545238D01*
X58877380Y-62450000D01*
X59020238Y-62402380D01*
X59115476Y-62402380D01*
X59258333Y-62450000D01*
X59305952Y-62497619D01*
X60258333Y-63402380D02*
X59686904Y-63402380D01*
X59972619Y-63402380D02*
X59972619Y-62402380D01*
X59877380Y-62545238D01*
X59782142Y-62640476D01*
X59686904Y-62688095D01*
X61210714Y-63402380D02*
X60639285Y-63402380D01*
X60925000Y-63402380D02*
X60925000Y-62402380D01*
X60829761Y-62545238D01*
X60734523Y-62640476D01*
X60639285Y-62688095D01*
X62067857Y-62402380D02*
X61877380Y-62402380D01*
X61782142Y-62450000D01*
X61734523Y-62497619D01*
X61639285Y-62640476D01*
X61591666Y-62830952D01*
X61591666Y-63211904D01*
X61639285Y-63307142D01*
X61686904Y-63354761D01*
X61782142Y-63402380D01*
X61972619Y-63402380D01*
X62067857Y-63354761D01*
X62115476Y-63307142D01*
X62163095Y-63211904D01*
X62163095Y-62973809D01*
X62115476Y-62878571D01*
X62067857Y-62830952D01*
X61972619Y-62783333D01*
X61782142Y-62783333D01*
X61686904Y-62830952D01*
X61639285Y-62878571D01*
X61591666Y-62973809D01*
%TO.C,C122*%
D16*
X80110714Y-35445238D02*
X80148809Y-35483333D01*
X80186904Y-35597619D01*
X80186904Y-35673809D01*
X80148809Y-35788095D01*
X80072619Y-35864285D01*
X79996428Y-35902380D01*
X79844047Y-35940476D01*
X79729761Y-35940476D01*
X79577380Y-35902380D01*
X79501190Y-35864285D01*
X79425000Y-35788095D01*
X79386904Y-35673809D01*
X79386904Y-35597619D01*
X79425000Y-35483333D01*
X79463095Y-35445238D01*
X80186904Y-34683333D02*
X80186904Y-35140476D01*
X80186904Y-34911904D02*
X79386904Y-34911904D01*
X79501190Y-34988095D01*
X79577380Y-35064285D01*
X79615476Y-35140476D01*
X79463095Y-34378571D02*
X79425000Y-34340476D01*
X79386904Y-34264285D01*
X79386904Y-34073809D01*
X79425000Y-33997619D01*
X79463095Y-33959523D01*
X79539285Y-33921428D01*
X79615476Y-33921428D01*
X79729761Y-33959523D01*
X80186904Y-34416666D01*
X80186904Y-33921428D01*
X79463095Y-33616666D02*
X79425000Y-33578571D01*
X79386904Y-33502380D01*
X79386904Y-33311904D01*
X79425000Y-33235714D01*
X79463095Y-33197619D01*
X79539285Y-33159523D01*
X79615476Y-33159523D01*
X79729761Y-33197619D01*
X80186904Y-33654761D01*
X80186904Y-33159523D01*
%TO.C,C123*%
D10*
X89905952Y-25957142D02*
X89858333Y-26004761D01*
X89715476Y-26052380D01*
X89620238Y-26052380D01*
X89477380Y-26004761D01*
X89382142Y-25909523D01*
X89334523Y-25814285D01*
X89286904Y-25623809D01*
X89286904Y-25480952D01*
X89334523Y-25290476D01*
X89382142Y-25195238D01*
X89477380Y-25100000D01*
X89620238Y-25052380D01*
X89715476Y-25052380D01*
X89858333Y-25100000D01*
X89905952Y-25147619D01*
X90858333Y-26052380D02*
X90286904Y-26052380D01*
X90572619Y-26052380D02*
X90572619Y-25052380D01*
X90477380Y-25195238D01*
X90382142Y-25290476D01*
X90286904Y-25338095D01*
X91239285Y-25147619D02*
X91286904Y-25100000D01*
X91382142Y-25052380D01*
X91620238Y-25052380D01*
X91715476Y-25100000D01*
X91763095Y-25147619D01*
X91810714Y-25242857D01*
X91810714Y-25338095D01*
X91763095Y-25480952D01*
X91191666Y-26052380D01*
X91810714Y-26052380D01*
X92144047Y-25052380D02*
X92763095Y-25052380D01*
X92429761Y-25433333D01*
X92572619Y-25433333D01*
X92667857Y-25480952D01*
X92715476Y-25528571D01*
X92763095Y-25623809D01*
X92763095Y-25861904D01*
X92715476Y-25957142D01*
X92667857Y-26004761D01*
X92572619Y-26052380D01*
X92286904Y-26052380D01*
X92191666Y-26004761D01*
X92144047Y-25957142D01*
%TO.C,C124*%
X89930952Y-27982142D02*
X89883333Y-28029761D01*
X89740476Y-28077380D01*
X89645238Y-28077380D01*
X89502380Y-28029761D01*
X89407142Y-27934523D01*
X89359523Y-27839285D01*
X89311904Y-27648809D01*
X89311904Y-27505952D01*
X89359523Y-27315476D01*
X89407142Y-27220238D01*
X89502380Y-27125000D01*
X89645238Y-27077380D01*
X89740476Y-27077380D01*
X89883333Y-27125000D01*
X89930952Y-27172619D01*
X90883333Y-28077380D02*
X90311904Y-28077380D01*
X90597619Y-28077380D02*
X90597619Y-27077380D01*
X90502380Y-27220238D01*
X90407142Y-27315476D01*
X90311904Y-27363095D01*
X91264285Y-27172619D02*
X91311904Y-27125000D01*
X91407142Y-27077380D01*
X91645238Y-27077380D01*
X91740476Y-27125000D01*
X91788095Y-27172619D01*
X91835714Y-27267857D01*
X91835714Y-27363095D01*
X91788095Y-27505952D01*
X91216666Y-28077380D01*
X91835714Y-28077380D01*
X92692857Y-27410714D02*
X92692857Y-28077380D01*
X92454761Y-27029761D02*
X92216666Y-27744047D01*
X92835714Y-27744047D01*
%TO.C,C125*%
X89530952Y-30182142D02*
X89483333Y-30229761D01*
X89340476Y-30277380D01*
X89245238Y-30277380D01*
X89102380Y-30229761D01*
X89007142Y-30134523D01*
X88959523Y-30039285D01*
X88911904Y-29848809D01*
X88911904Y-29705952D01*
X88959523Y-29515476D01*
X89007142Y-29420238D01*
X89102380Y-29325000D01*
X89245238Y-29277380D01*
X89340476Y-29277380D01*
X89483333Y-29325000D01*
X89530952Y-29372619D01*
X90483333Y-30277380D02*
X89911904Y-30277380D01*
X90197619Y-30277380D02*
X90197619Y-29277380D01*
X90102380Y-29420238D01*
X90007142Y-29515476D01*
X89911904Y-29563095D01*
X90864285Y-29372619D02*
X90911904Y-29325000D01*
X91007142Y-29277380D01*
X91245238Y-29277380D01*
X91340476Y-29325000D01*
X91388095Y-29372619D01*
X91435714Y-29467857D01*
X91435714Y-29563095D01*
X91388095Y-29705952D01*
X90816666Y-30277380D01*
X91435714Y-30277380D01*
X92340476Y-29277380D02*
X91864285Y-29277380D01*
X91816666Y-29753571D01*
X91864285Y-29705952D01*
X91959523Y-29658333D01*
X92197619Y-29658333D01*
X92292857Y-29705952D01*
X92340476Y-29753571D01*
X92388095Y-29848809D01*
X92388095Y-30086904D01*
X92340476Y-30182142D01*
X92292857Y-30229761D01*
X92197619Y-30277380D01*
X91959523Y-30277380D01*
X91864285Y-30229761D01*
X91816666Y-30182142D01*
%TO.C,D1*%
X42695904Y-90368380D02*
X42695904Y-89368380D01*
X42934000Y-89368380D01*
X43076857Y-89416000D01*
X43172095Y-89511238D01*
X43219714Y-89606476D01*
X43267333Y-89796952D01*
X43267333Y-89939809D01*
X43219714Y-90130285D01*
X43172095Y-90225523D01*
X43076857Y-90320761D01*
X42934000Y-90368380D01*
X42695904Y-90368380D01*
X44219714Y-90368380D02*
X43648285Y-90368380D01*
X43934000Y-90368380D02*
X43934000Y-89368380D01*
X43838761Y-89511238D01*
X43743523Y-89606476D01*
X43648285Y-89654095D01*
%TO.C,D2*%
X42949904Y-82240380D02*
X42949904Y-81240380D01*
X43188000Y-81240380D01*
X43330857Y-81288000D01*
X43426095Y-81383238D01*
X43473714Y-81478476D01*
X43521333Y-81668952D01*
X43521333Y-81811809D01*
X43473714Y-82002285D01*
X43426095Y-82097523D01*
X43330857Y-82192761D01*
X43188000Y-82240380D01*
X42949904Y-82240380D01*
X43902285Y-81335619D02*
X43949904Y-81288000D01*
X44045142Y-81240380D01*
X44283238Y-81240380D01*
X44378476Y-81288000D01*
X44426095Y-81335619D01*
X44473714Y-81430857D01*
X44473714Y-81526095D01*
X44426095Y-81668952D01*
X43854666Y-82240380D01*
X44473714Y-82240380D01*
%TO.C,D8*%
X97316904Y-69042380D02*
X97316904Y-68042380D01*
X97555000Y-68042380D01*
X97697857Y-68090000D01*
X97793095Y-68185238D01*
X97840714Y-68280476D01*
X97888333Y-68470952D01*
X97888333Y-68613809D01*
X97840714Y-68804285D01*
X97793095Y-68899523D01*
X97697857Y-68994761D01*
X97555000Y-69042380D01*
X97316904Y-69042380D01*
X98459761Y-68470952D02*
X98364523Y-68423333D01*
X98316904Y-68375714D01*
X98269285Y-68280476D01*
X98269285Y-68232857D01*
X98316904Y-68137619D01*
X98364523Y-68090000D01*
X98459761Y-68042380D01*
X98650238Y-68042380D01*
X98745476Y-68090000D01*
X98793095Y-68137619D01*
X98840714Y-68232857D01*
X98840714Y-68280476D01*
X98793095Y-68375714D01*
X98745476Y-68423333D01*
X98650238Y-68470952D01*
X98459761Y-68470952D01*
X98364523Y-68518571D01*
X98316904Y-68566190D01*
X98269285Y-68661428D01*
X98269285Y-68851904D01*
X98316904Y-68947142D01*
X98364523Y-68994761D01*
X98459761Y-69042380D01*
X98650238Y-69042380D01*
X98745476Y-68994761D01*
X98793095Y-68947142D01*
X98840714Y-68851904D01*
X98840714Y-68661428D01*
X98793095Y-68566190D01*
X98745476Y-68518571D01*
X98650238Y-68470952D01*
%TO.C,D9*%
X80261904Y-95352380D02*
X80261904Y-94352380D01*
X80500000Y-94352380D01*
X80642857Y-94400000D01*
X80738095Y-94495238D01*
X80785714Y-94590476D01*
X80833333Y-94780952D01*
X80833333Y-94923809D01*
X80785714Y-95114285D01*
X80738095Y-95209523D01*
X80642857Y-95304761D01*
X80500000Y-95352380D01*
X80261904Y-95352380D01*
X81309523Y-95352380D02*
X81500000Y-95352380D01*
X81595238Y-95304761D01*
X81642857Y-95257142D01*
X81738095Y-95114285D01*
X81785714Y-94923809D01*
X81785714Y-94542857D01*
X81738095Y-94447619D01*
X81690476Y-94400000D01*
X81595238Y-94352380D01*
X81404761Y-94352380D01*
X81309523Y-94400000D01*
X81261904Y-94447619D01*
X81214285Y-94542857D01*
X81214285Y-94780952D01*
X81261904Y-94876190D01*
X81309523Y-94923809D01*
X81404761Y-94971428D01*
X81595238Y-94971428D01*
X81690476Y-94923809D01*
X81738095Y-94876190D01*
X81785714Y-94780952D01*
%TO.C,D10*%
X80285714Y-99752380D02*
X80285714Y-98752380D01*
X80523809Y-98752380D01*
X80666666Y-98800000D01*
X80761904Y-98895238D01*
X80809523Y-98990476D01*
X80857142Y-99180952D01*
X80857142Y-99323809D01*
X80809523Y-99514285D01*
X80761904Y-99609523D01*
X80666666Y-99704761D01*
X80523809Y-99752380D01*
X80285714Y-99752380D01*
X81809523Y-99752380D02*
X81238095Y-99752380D01*
X81523809Y-99752380D02*
X81523809Y-98752380D01*
X81428571Y-98895238D01*
X81333333Y-98990476D01*
X81238095Y-99038095D01*
X82428571Y-98752380D02*
X82523809Y-98752380D01*
X82619047Y-98800000D01*
X82666666Y-98847619D01*
X82714285Y-98942857D01*
X82761904Y-99133333D01*
X82761904Y-99371428D01*
X82714285Y-99561904D01*
X82666666Y-99657142D01*
X82619047Y-99704761D01*
X82523809Y-99752380D01*
X82428571Y-99752380D01*
X82333333Y-99704761D01*
X82285714Y-99657142D01*
X82238095Y-99561904D01*
X82190476Y-99371428D01*
X82190476Y-99133333D01*
X82238095Y-98942857D01*
X82285714Y-98847619D01*
X82333333Y-98800000D01*
X82428571Y-98752380D01*
%TO.C,D11*%
X51910714Y-26777380D02*
X51910714Y-25777380D01*
X52148809Y-25777380D01*
X52291666Y-25825000D01*
X52386904Y-25920238D01*
X52434523Y-26015476D01*
X52482142Y-26205952D01*
X52482142Y-26348809D01*
X52434523Y-26539285D01*
X52386904Y-26634523D01*
X52291666Y-26729761D01*
X52148809Y-26777380D01*
X51910714Y-26777380D01*
X53434523Y-26777380D02*
X52863095Y-26777380D01*
X53148809Y-26777380D02*
X53148809Y-25777380D01*
X53053571Y-25920238D01*
X52958333Y-26015476D01*
X52863095Y-26063095D01*
X54386904Y-26777380D02*
X53815476Y-26777380D01*
X54101190Y-26777380D02*
X54101190Y-25777380D01*
X54005952Y-25920238D01*
X53910714Y-26015476D01*
X53815476Y-26063095D01*
%TO.C,D12*%
X119385714Y-114602380D02*
X119385714Y-113602380D01*
X119623809Y-113602380D01*
X119766666Y-113650000D01*
X119861904Y-113745238D01*
X119909523Y-113840476D01*
X119957142Y-114030952D01*
X119957142Y-114173809D01*
X119909523Y-114364285D01*
X119861904Y-114459523D01*
X119766666Y-114554761D01*
X119623809Y-114602380D01*
X119385714Y-114602380D01*
X120909523Y-114602380D02*
X120338095Y-114602380D01*
X120623809Y-114602380D02*
X120623809Y-113602380D01*
X120528571Y-113745238D01*
X120433333Y-113840476D01*
X120338095Y-113888095D01*
X121290476Y-113697619D02*
X121338095Y-113650000D01*
X121433333Y-113602380D01*
X121671428Y-113602380D01*
X121766666Y-113650000D01*
X121814285Y-113697619D01*
X121861904Y-113792857D01*
X121861904Y-113888095D01*
X121814285Y-114030952D01*
X121242857Y-114602380D01*
X121861904Y-114602380D01*
%TO.C,D16*%
X75385714Y-24702380D02*
X75385714Y-23702380D01*
X75623809Y-23702380D01*
X75766666Y-23750000D01*
X75861904Y-23845238D01*
X75909523Y-23940476D01*
X75957142Y-24130952D01*
X75957142Y-24273809D01*
X75909523Y-24464285D01*
X75861904Y-24559523D01*
X75766666Y-24654761D01*
X75623809Y-24702380D01*
X75385714Y-24702380D01*
X76909523Y-24702380D02*
X76338095Y-24702380D01*
X76623809Y-24702380D02*
X76623809Y-23702380D01*
X76528571Y-23845238D01*
X76433333Y-23940476D01*
X76338095Y-23988095D01*
X77766666Y-23702380D02*
X77576190Y-23702380D01*
X77480952Y-23750000D01*
X77433333Y-23797619D01*
X77338095Y-23940476D01*
X77290476Y-24130952D01*
X77290476Y-24511904D01*
X77338095Y-24607142D01*
X77385714Y-24654761D01*
X77480952Y-24702380D01*
X77671428Y-24702380D01*
X77766666Y-24654761D01*
X77814285Y-24607142D01*
X77861904Y-24511904D01*
X77861904Y-24273809D01*
X77814285Y-24178571D01*
X77766666Y-24130952D01*
X77671428Y-24083333D01*
X77480952Y-24083333D01*
X77385714Y-24130952D01*
X77338095Y-24178571D01*
X77290476Y-24273809D01*
%TO.C,FB2*%
X59866666Y-78228571D02*
X59533333Y-78228571D01*
X59533333Y-78752380D02*
X59533333Y-77752380D01*
X60009523Y-77752380D01*
X60723809Y-78228571D02*
X60866666Y-78276190D01*
X60914285Y-78323809D01*
X60961904Y-78419047D01*
X60961904Y-78561904D01*
X60914285Y-78657142D01*
X60866666Y-78704761D01*
X60771428Y-78752380D01*
X60390476Y-78752380D01*
X60390476Y-77752380D01*
X60723809Y-77752380D01*
X60819047Y-77800000D01*
X60866666Y-77847619D01*
X60914285Y-77942857D01*
X60914285Y-78038095D01*
X60866666Y-78133333D01*
X60819047Y-78180952D01*
X60723809Y-78228571D01*
X60390476Y-78228571D01*
X61342857Y-77847619D02*
X61390476Y-77800000D01*
X61485714Y-77752380D01*
X61723809Y-77752380D01*
X61819047Y-77800000D01*
X61866666Y-77847619D01*
X61914285Y-77942857D01*
X61914285Y-78038095D01*
X61866666Y-78180952D01*
X61295238Y-78752380D01*
X61914285Y-78752380D01*
%TO.C,FB5*%
X102366666Y-39428571D02*
X102033333Y-39428571D01*
X102033333Y-39952380D02*
X102033333Y-38952380D01*
X102509523Y-38952380D01*
X103223809Y-39428571D02*
X103366666Y-39476190D01*
X103414285Y-39523809D01*
X103461904Y-39619047D01*
X103461904Y-39761904D01*
X103414285Y-39857142D01*
X103366666Y-39904761D01*
X103271428Y-39952380D01*
X102890476Y-39952380D01*
X102890476Y-38952380D01*
X103223809Y-38952380D01*
X103319047Y-39000000D01*
X103366666Y-39047619D01*
X103414285Y-39142857D01*
X103414285Y-39238095D01*
X103366666Y-39333333D01*
X103319047Y-39380952D01*
X103223809Y-39428571D01*
X102890476Y-39428571D01*
X104366666Y-38952380D02*
X103890476Y-38952380D01*
X103842857Y-39428571D01*
X103890476Y-39380952D01*
X103985714Y-39333333D01*
X104223809Y-39333333D01*
X104319047Y-39380952D01*
X104366666Y-39428571D01*
X104414285Y-39523809D01*
X104414285Y-39761904D01*
X104366666Y-39857142D01*
X104319047Y-39904761D01*
X104223809Y-39952380D01*
X103985714Y-39952380D01*
X103890476Y-39904761D01*
X103842857Y-39857142D01*
%TO.C,J2*%
X42892380Y-63093333D02*
X43606666Y-63093333D01*
X43749523Y-63140952D01*
X43844761Y-63236190D01*
X43892380Y-63379047D01*
X43892380Y-63474285D01*
X42987619Y-62664761D02*
X42940000Y-62617142D01*
X42892380Y-62521904D01*
X42892380Y-62283809D01*
X42940000Y-62188571D01*
X42987619Y-62140952D01*
X43082857Y-62093333D01*
X43178095Y-62093333D01*
X43320952Y-62140952D01*
X43892380Y-62712380D01*
X43892380Y-62093333D01*
%TO.C,J3*%
X42762380Y-38333333D02*
X43476666Y-38333333D01*
X43619523Y-38380952D01*
X43714761Y-38476190D01*
X43762380Y-38619047D01*
X43762380Y-38714285D01*
X42762380Y-37952380D02*
X42762380Y-37333333D01*
X43143333Y-37666666D01*
X43143333Y-37523809D01*
X43190952Y-37428571D01*
X43238571Y-37380952D01*
X43333809Y-37333333D01*
X43571904Y-37333333D01*
X43667142Y-37380952D01*
X43714761Y-37428571D01*
X43762380Y-37523809D01*
X43762380Y-37809523D01*
X43714761Y-37904761D01*
X43667142Y-37952380D01*
%TO.C,J4*%
X130336666Y-52102380D02*
X130336666Y-52816666D01*
X130289047Y-52959523D01*
X130193809Y-53054761D01*
X130050952Y-53102380D01*
X129955714Y-53102380D01*
X131241428Y-52435714D02*
X131241428Y-53102380D01*
X131003333Y-52054761D02*
X130765238Y-52769047D01*
X131384285Y-52769047D01*
%TO.C,J6*%
X116447380Y-115333333D02*
X117161666Y-115333333D01*
X117304523Y-115380952D01*
X117399761Y-115476190D01*
X117447380Y-115619047D01*
X117447380Y-115714285D01*
X116447380Y-114428571D02*
X116447380Y-114619047D01*
X116495000Y-114714285D01*
X116542619Y-114761904D01*
X116685476Y-114857142D01*
X116875952Y-114904761D01*
X117256904Y-114904761D01*
X117352142Y-114857142D01*
X117399761Y-114809523D01*
X117447380Y-114714285D01*
X117447380Y-114523809D01*
X117399761Y-114428571D01*
X117352142Y-114380952D01*
X117256904Y-114333333D01*
X117018809Y-114333333D01*
X116923571Y-114380952D01*
X116875952Y-114428571D01*
X116828333Y-114523809D01*
X116828333Y-114714285D01*
X116875952Y-114809523D01*
X116923571Y-114857142D01*
X117018809Y-114904761D01*
%TO.C,JP1*%
X108147380Y-119433333D02*
X108861666Y-119433333D01*
X109004523Y-119480952D01*
X109099761Y-119576190D01*
X109147380Y-119719047D01*
X109147380Y-119814285D01*
X109147380Y-118957142D02*
X108147380Y-118957142D01*
X108147380Y-118576190D01*
X108195000Y-118480952D01*
X108242619Y-118433333D01*
X108337857Y-118385714D01*
X108480714Y-118385714D01*
X108575952Y-118433333D01*
X108623571Y-118480952D01*
X108671190Y-118576190D01*
X108671190Y-118957142D01*
X109147380Y-117433333D02*
X109147380Y-118004761D01*
X109147380Y-117719047D02*
X108147380Y-117719047D01*
X108290238Y-117814285D01*
X108385476Y-117909523D01*
X108433095Y-118004761D01*
%TO.C,L1*%
X85458333Y-32102380D02*
X84982142Y-32102380D01*
X84982142Y-31102380D01*
X86315476Y-32102380D02*
X85744047Y-32102380D01*
X86029761Y-32102380D02*
X86029761Y-31102380D01*
X85934523Y-31245238D01*
X85839285Y-31340476D01*
X85744047Y-31388095D01*
%TO.C,R5*%
X49033333Y-51152380D02*
X48700000Y-50676190D01*
X48461904Y-51152380D02*
X48461904Y-50152380D01*
X48842857Y-50152380D01*
X48938095Y-50200000D01*
X48985714Y-50247619D01*
X49033333Y-50342857D01*
X49033333Y-50485714D01*
X48985714Y-50580952D01*
X48938095Y-50628571D01*
X48842857Y-50676190D01*
X48461904Y-50676190D01*
X49938095Y-50152380D02*
X49461904Y-50152380D01*
X49414285Y-50628571D01*
X49461904Y-50580952D01*
X49557142Y-50533333D01*
X49795238Y-50533333D01*
X49890476Y-50580952D01*
X49938095Y-50628571D01*
X49985714Y-50723809D01*
X49985714Y-50961904D01*
X49938095Y-51057142D01*
X49890476Y-51104761D01*
X49795238Y-51152380D01*
X49557142Y-51152380D01*
X49461904Y-51104761D01*
X49414285Y-51057142D01*
%TO.C,R7*%
X76158333Y-42702380D02*
X75825000Y-42226190D01*
X75586904Y-42702380D02*
X75586904Y-41702380D01*
X75967857Y-41702380D01*
X76063095Y-41750000D01*
X76110714Y-41797619D01*
X76158333Y-41892857D01*
X76158333Y-42035714D01*
X76110714Y-42130952D01*
X76063095Y-42178571D01*
X75967857Y-42226190D01*
X75586904Y-42226190D01*
X76491666Y-41702380D02*
X77158333Y-41702380D01*
X76729761Y-42702380D01*
%TO.C,R8*%
X71133333Y-38427380D02*
X70800000Y-37951190D01*
X70561904Y-38427380D02*
X70561904Y-37427380D01*
X70942857Y-37427380D01*
X71038095Y-37475000D01*
X71085714Y-37522619D01*
X71133333Y-37617857D01*
X71133333Y-37760714D01*
X71085714Y-37855952D01*
X71038095Y-37903571D01*
X70942857Y-37951190D01*
X70561904Y-37951190D01*
X71704761Y-37855952D02*
X71609523Y-37808333D01*
X71561904Y-37760714D01*
X71514285Y-37665476D01*
X71514285Y-37617857D01*
X71561904Y-37522619D01*
X71609523Y-37475000D01*
X71704761Y-37427380D01*
X71895238Y-37427380D01*
X71990476Y-37475000D01*
X72038095Y-37522619D01*
X72085714Y-37617857D01*
X72085714Y-37665476D01*
X72038095Y-37760714D01*
X71990476Y-37808333D01*
X71895238Y-37855952D01*
X71704761Y-37855952D01*
X71609523Y-37903571D01*
X71561904Y-37951190D01*
X71514285Y-38046428D01*
X71514285Y-38236904D01*
X71561904Y-38332142D01*
X71609523Y-38379761D01*
X71704761Y-38427380D01*
X71895238Y-38427380D01*
X71990476Y-38379761D01*
X72038095Y-38332142D01*
X72085714Y-38236904D01*
X72085714Y-38046428D01*
X72038095Y-37951190D01*
X71990476Y-37903571D01*
X71895238Y-37855952D01*
%TO.C,R9*%
X71133333Y-39627380D02*
X70800000Y-39151190D01*
X70561904Y-39627380D02*
X70561904Y-38627380D01*
X70942857Y-38627380D01*
X71038095Y-38675000D01*
X71085714Y-38722619D01*
X71133333Y-38817857D01*
X71133333Y-38960714D01*
X71085714Y-39055952D01*
X71038095Y-39103571D01*
X70942857Y-39151190D01*
X70561904Y-39151190D01*
X71609523Y-39627380D02*
X71800000Y-39627380D01*
X71895238Y-39579761D01*
X71942857Y-39532142D01*
X72038095Y-39389285D01*
X72085714Y-39198809D01*
X72085714Y-38817857D01*
X72038095Y-38722619D01*
X71990476Y-38675000D01*
X71895238Y-38627380D01*
X71704761Y-38627380D01*
X71609523Y-38675000D01*
X71561904Y-38722619D01*
X71514285Y-38817857D01*
X71514285Y-39055952D01*
X71561904Y-39151190D01*
X71609523Y-39198809D01*
X71704761Y-39246428D01*
X71895238Y-39246428D01*
X71990476Y-39198809D01*
X72038095Y-39151190D01*
X72085714Y-39055952D01*
%TO.C,R11*%
X66857142Y-43902380D02*
X66523809Y-43426190D01*
X66285714Y-43902380D02*
X66285714Y-42902380D01*
X66666666Y-42902380D01*
X66761904Y-42950000D01*
X66809523Y-42997619D01*
X66857142Y-43092857D01*
X66857142Y-43235714D01*
X66809523Y-43330952D01*
X66761904Y-43378571D01*
X66666666Y-43426190D01*
X66285714Y-43426190D01*
X67809523Y-43902380D02*
X67238095Y-43902380D01*
X67523809Y-43902380D02*
X67523809Y-42902380D01*
X67428571Y-43045238D01*
X67333333Y-43140476D01*
X67238095Y-43188095D01*
X68761904Y-43902380D02*
X68190476Y-43902380D01*
X68476190Y-43902380D02*
X68476190Y-42902380D01*
X68380952Y-43045238D01*
X68285714Y-43140476D01*
X68190476Y-43188095D01*
%TO.C,R12*%
X66857142Y-49302380D02*
X66523809Y-48826190D01*
X66285714Y-49302380D02*
X66285714Y-48302380D01*
X66666666Y-48302380D01*
X66761904Y-48350000D01*
X66809523Y-48397619D01*
X66857142Y-48492857D01*
X66857142Y-48635714D01*
X66809523Y-48730952D01*
X66761904Y-48778571D01*
X66666666Y-48826190D01*
X66285714Y-48826190D01*
X67809523Y-49302380D02*
X67238095Y-49302380D01*
X67523809Y-49302380D02*
X67523809Y-48302380D01*
X67428571Y-48445238D01*
X67333333Y-48540476D01*
X67238095Y-48588095D01*
X68190476Y-48397619D02*
X68238095Y-48350000D01*
X68333333Y-48302380D01*
X68571428Y-48302380D01*
X68666666Y-48350000D01*
X68714285Y-48397619D01*
X68761904Y-48492857D01*
X68761904Y-48588095D01*
X68714285Y-48730952D01*
X68142857Y-49302380D01*
X68761904Y-49302380D01*
%TO.C,R13*%
X73257142Y-42702380D02*
X72923809Y-42226190D01*
X72685714Y-42702380D02*
X72685714Y-41702380D01*
X73066666Y-41702380D01*
X73161904Y-41750000D01*
X73209523Y-41797619D01*
X73257142Y-41892857D01*
X73257142Y-42035714D01*
X73209523Y-42130952D01*
X73161904Y-42178571D01*
X73066666Y-42226190D01*
X72685714Y-42226190D01*
X74209523Y-42702380D02*
X73638095Y-42702380D01*
X73923809Y-42702380D02*
X73923809Y-41702380D01*
X73828571Y-41845238D01*
X73733333Y-41940476D01*
X73638095Y-41988095D01*
X74542857Y-41702380D02*
X75161904Y-41702380D01*
X74828571Y-42083333D01*
X74971428Y-42083333D01*
X75066666Y-42130952D01*
X75114285Y-42178571D01*
X75161904Y-42273809D01*
X75161904Y-42511904D01*
X75114285Y-42607142D01*
X75066666Y-42654761D01*
X74971428Y-42702380D01*
X74685714Y-42702380D01*
X74590476Y-42654761D01*
X74542857Y-42607142D01*
%TO.C,R15*%
X70332142Y-42702380D02*
X69998809Y-42226190D01*
X69760714Y-42702380D02*
X69760714Y-41702380D01*
X70141666Y-41702380D01*
X70236904Y-41750000D01*
X70284523Y-41797619D01*
X70332142Y-41892857D01*
X70332142Y-42035714D01*
X70284523Y-42130952D01*
X70236904Y-42178571D01*
X70141666Y-42226190D01*
X69760714Y-42226190D01*
X71284523Y-42702380D02*
X70713095Y-42702380D01*
X70998809Y-42702380D02*
X70998809Y-41702380D01*
X70903571Y-41845238D01*
X70808333Y-41940476D01*
X70713095Y-41988095D01*
X72189285Y-41702380D02*
X71713095Y-41702380D01*
X71665476Y-42178571D01*
X71713095Y-42130952D01*
X71808333Y-42083333D01*
X72046428Y-42083333D01*
X72141666Y-42130952D01*
X72189285Y-42178571D01*
X72236904Y-42273809D01*
X72236904Y-42511904D01*
X72189285Y-42607142D01*
X72141666Y-42654761D01*
X72046428Y-42702380D01*
X71808333Y-42702380D01*
X71713095Y-42654761D01*
X71665476Y-42607142D01*
%TO.C,R16*%
X104157142Y-29602380D02*
X103823809Y-29126190D01*
X103585714Y-29602380D02*
X103585714Y-28602380D01*
X103966666Y-28602380D01*
X104061904Y-28650000D01*
X104109523Y-28697619D01*
X104157142Y-28792857D01*
X104157142Y-28935714D01*
X104109523Y-29030952D01*
X104061904Y-29078571D01*
X103966666Y-29126190D01*
X103585714Y-29126190D01*
X105109523Y-29602380D02*
X104538095Y-29602380D01*
X104823809Y-29602380D02*
X104823809Y-28602380D01*
X104728571Y-28745238D01*
X104633333Y-28840476D01*
X104538095Y-28888095D01*
X105966666Y-28602380D02*
X105776190Y-28602380D01*
X105680952Y-28650000D01*
X105633333Y-28697619D01*
X105538095Y-28840476D01*
X105490476Y-29030952D01*
X105490476Y-29411904D01*
X105538095Y-29507142D01*
X105585714Y-29554761D01*
X105680952Y-29602380D01*
X105871428Y-29602380D01*
X105966666Y-29554761D01*
X106014285Y-29507142D01*
X106061904Y-29411904D01*
X106061904Y-29173809D01*
X106014285Y-29078571D01*
X105966666Y-29030952D01*
X105871428Y-28983333D01*
X105680952Y-28983333D01*
X105585714Y-29030952D01*
X105538095Y-29078571D01*
X105490476Y-29173809D01*
%TO.C,R17*%
X108857142Y-29602380D02*
X108523809Y-29126190D01*
X108285714Y-29602380D02*
X108285714Y-28602380D01*
X108666666Y-28602380D01*
X108761904Y-28650000D01*
X108809523Y-28697619D01*
X108857142Y-28792857D01*
X108857142Y-28935714D01*
X108809523Y-29030952D01*
X108761904Y-29078571D01*
X108666666Y-29126190D01*
X108285714Y-29126190D01*
X109809523Y-29602380D02*
X109238095Y-29602380D01*
X109523809Y-29602380D02*
X109523809Y-28602380D01*
X109428571Y-28745238D01*
X109333333Y-28840476D01*
X109238095Y-28888095D01*
X110142857Y-28602380D02*
X110809523Y-28602380D01*
X110380952Y-29602380D01*
%TO.C,R19*%
X113482142Y-29602380D02*
X113148809Y-29126190D01*
X112910714Y-29602380D02*
X112910714Y-28602380D01*
X113291666Y-28602380D01*
X113386904Y-28650000D01*
X113434523Y-28697619D01*
X113482142Y-28792857D01*
X113482142Y-28935714D01*
X113434523Y-29030952D01*
X113386904Y-29078571D01*
X113291666Y-29126190D01*
X112910714Y-29126190D01*
X114434523Y-29602380D02*
X113863095Y-29602380D01*
X114148809Y-29602380D02*
X114148809Y-28602380D01*
X114053571Y-28745238D01*
X113958333Y-28840476D01*
X113863095Y-28888095D01*
X114910714Y-29602380D02*
X115101190Y-29602380D01*
X115196428Y-29554761D01*
X115244047Y-29507142D01*
X115339285Y-29364285D01*
X115386904Y-29173809D01*
X115386904Y-28792857D01*
X115339285Y-28697619D01*
X115291666Y-28650000D01*
X115196428Y-28602380D01*
X115005952Y-28602380D01*
X114910714Y-28650000D01*
X114863095Y-28697619D01*
X114815476Y-28792857D01*
X114815476Y-29030952D01*
X114863095Y-29126190D01*
X114910714Y-29173809D01*
X115005952Y-29221428D01*
X115196428Y-29221428D01*
X115291666Y-29173809D01*
X115339285Y-29126190D01*
X115386904Y-29030952D01*
%TO.C,R27*%
X97167142Y-63962380D02*
X96833809Y-63486190D01*
X96595714Y-63962380D02*
X96595714Y-62962380D01*
X96976666Y-62962380D01*
X97071904Y-63010000D01*
X97119523Y-63057619D01*
X97167142Y-63152857D01*
X97167142Y-63295714D01*
X97119523Y-63390952D01*
X97071904Y-63438571D01*
X96976666Y-63486190D01*
X96595714Y-63486190D01*
X97548095Y-63057619D02*
X97595714Y-63010000D01*
X97690952Y-62962380D01*
X97929047Y-62962380D01*
X98024285Y-63010000D01*
X98071904Y-63057619D01*
X98119523Y-63152857D01*
X98119523Y-63248095D01*
X98071904Y-63390952D01*
X97500476Y-63962380D01*
X98119523Y-63962380D01*
X98452857Y-62962380D02*
X99119523Y-62962380D01*
X98690952Y-63962380D01*
%TO.C,R31*%
X80857142Y-97652380D02*
X80523809Y-97176190D01*
X80285714Y-97652380D02*
X80285714Y-96652380D01*
X80666666Y-96652380D01*
X80761904Y-96700000D01*
X80809523Y-96747619D01*
X80857142Y-96842857D01*
X80857142Y-96985714D01*
X80809523Y-97080952D01*
X80761904Y-97128571D01*
X80666666Y-97176190D01*
X80285714Y-97176190D01*
X81190476Y-96652380D02*
X81809523Y-96652380D01*
X81476190Y-97033333D01*
X81619047Y-97033333D01*
X81714285Y-97080952D01*
X81761904Y-97128571D01*
X81809523Y-97223809D01*
X81809523Y-97461904D01*
X81761904Y-97557142D01*
X81714285Y-97604761D01*
X81619047Y-97652380D01*
X81333333Y-97652380D01*
X81238095Y-97604761D01*
X81190476Y-97557142D01*
X82761904Y-97652380D02*
X82190476Y-97652380D01*
X82476190Y-97652380D02*
X82476190Y-96652380D01*
X82380952Y-96795238D01*
X82285714Y-96890476D01*
X82190476Y-96938095D01*
%TO.C,R33*%
X76065670Y-114836594D02*
X75732337Y-114360404D01*
X75494242Y-114836594D02*
X75494242Y-113836594D01*
X75875194Y-113836594D01*
X75970432Y-113884214D01*
X76018051Y-113931833D01*
X76065670Y-114027071D01*
X76065670Y-114169928D01*
X76018051Y-114265166D01*
X75970432Y-114312785D01*
X75875194Y-114360404D01*
X75494242Y-114360404D01*
X76399004Y-113836594D02*
X77018051Y-113836594D01*
X76684718Y-114217547D01*
X76827575Y-114217547D01*
X76922813Y-114265166D01*
X76970432Y-114312785D01*
X77018051Y-114408023D01*
X77018051Y-114646118D01*
X76970432Y-114741356D01*
X76922813Y-114788975D01*
X76827575Y-114836594D01*
X76541861Y-114836594D01*
X76446623Y-114788975D01*
X76399004Y-114741356D01*
X77351385Y-113836594D02*
X77970432Y-113836594D01*
X77637099Y-114217547D01*
X77779956Y-114217547D01*
X77875194Y-114265166D01*
X77922813Y-114312785D01*
X77970432Y-114408023D01*
X77970432Y-114646118D01*
X77922813Y-114741356D01*
X77875194Y-114788975D01*
X77779956Y-114836594D01*
X77494242Y-114836594D01*
X77399004Y-114788975D01*
X77351385Y-114741356D01*
%TO.C,R35*%
X81197142Y-119760380D02*
X80863809Y-119284190D01*
X80625714Y-119760380D02*
X80625714Y-118760380D01*
X81006666Y-118760380D01*
X81101904Y-118808000D01*
X81149523Y-118855619D01*
X81197142Y-118950857D01*
X81197142Y-119093714D01*
X81149523Y-119188952D01*
X81101904Y-119236571D01*
X81006666Y-119284190D01*
X80625714Y-119284190D01*
X81530476Y-118760380D02*
X82149523Y-118760380D01*
X81816190Y-119141333D01*
X81959047Y-119141333D01*
X82054285Y-119188952D01*
X82101904Y-119236571D01*
X82149523Y-119331809D01*
X82149523Y-119569904D01*
X82101904Y-119665142D01*
X82054285Y-119712761D01*
X81959047Y-119760380D01*
X81673333Y-119760380D01*
X81578095Y-119712761D01*
X81530476Y-119665142D01*
X83054285Y-118760380D02*
X82578095Y-118760380D01*
X82530476Y-119236571D01*
X82578095Y-119188952D01*
X82673333Y-119141333D01*
X82911428Y-119141333D01*
X83006666Y-119188952D01*
X83054285Y-119236571D01*
X83101904Y-119331809D01*
X83101904Y-119569904D01*
X83054285Y-119665142D01*
X83006666Y-119712761D01*
X82911428Y-119760380D01*
X82673333Y-119760380D01*
X82578095Y-119712761D01*
X82530476Y-119665142D01*
%TO.C,R36*%
X83807142Y-115022380D02*
X83473809Y-114546190D01*
X83235714Y-115022380D02*
X83235714Y-114022380D01*
X83616666Y-114022380D01*
X83711904Y-114070000D01*
X83759523Y-114117619D01*
X83807142Y-114212857D01*
X83807142Y-114355714D01*
X83759523Y-114450952D01*
X83711904Y-114498571D01*
X83616666Y-114546190D01*
X83235714Y-114546190D01*
X84140476Y-114022380D02*
X84759523Y-114022380D01*
X84426190Y-114403333D01*
X84569047Y-114403333D01*
X84664285Y-114450952D01*
X84711904Y-114498571D01*
X84759523Y-114593809D01*
X84759523Y-114831904D01*
X84711904Y-114927142D01*
X84664285Y-114974761D01*
X84569047Y-115022380D01*
X84283333Y-115022380D01*
X84188095Y-114974761D01*
X84140476Y-114927142D01*
X85616666Y-114022380D02*
X85426190Y-114022380D01*
X85330952Y-114070000D01*
X85283333Y-114117619D01*
X85188095Y-114260476D01*
X85140476Y-114450952D01*
X85140476Y-114831904D01*
X85188095Y-114927142D01*
X85235714Y-114974761D01*
X85330952Y-115022380D01*
X85521428Y-115022380D01*
X85616666Y-114974761D01*
X85664285Y-114927142D01*
X85711904Y-114831904D01*
X85711904Y-114593809D01*
X85664285Y-114498571D01*
X85616666Y-114450952D01*
X85521428Y-114403333D01*
X85330952Y-114403333D01*
X85235714Y-114450952D01*
X85188095Y-114498571D01*
X85140476Y-114593809D01*
%TO.C,R38*%
X80757142Y-101952380D02*
X80423809Y-101476190D01*
X80185714Y-101952380D02*
X80185714Y-100952380D01*
X80566666Y-100952380D01*
X80661904Y-101000000D01*
X80709523Y-101047619D01*
X80757142Y-101142857D01*
X80757142Y-101285714D01*
X80709523Y-101380952D01*
X80661904Y-101428571D01*
X80566666Y-101476190D01*
X80185714Y-101476190D01*
X81090476Y-100952380D02*
X81709523Y-100952380D01*
X81376190Y-101333333D01*
X81519047Y-101333333D01*
X81614285Y-101380952D01*
X81661904Y-101428571D01*
X81709523Y-101523809D01*
X81709523Y-101761904D01*
X81661904Y-101857142D01*
X81614285Y-101904761D01*
X81519047Y-101952380D01*
X81233333Y-101952380D01*
X81138095Y-101904761D01*
X81090476Y-101857142D01*
X82280952Y-101380952D02*
X82185714Y-101333333D01*
X82138095Y-101285714D01*
X82090476Y-101190476D01*
X82090476Y-101142857D01*
X82138095Y-101047619D01*
X82185714Y-101000000D01*
X82280952Y-100952380D01*
X82471428Y-100952380D01*
X82566666Y-101000000D01*
X82614285Y-101047619D01*
X82661904Y-101142857D01*
X82661904Y-101190476D01*
X82614285Y-101285714D01*
X82566666Y-101333333D01*
X82471428Y-101380952D01*
X82280952Y-101380952D01*
X82185714Y-101428571D01*
X82138095Y-101476190D01*
X82090476Y-101571428D01*
X82090476Y-101761904D01*
X82138095Y-101857142D01*
X82185714Y-101904761D01*
X82280952Y-101952380D01*
X82471428Y-101952380D01*
X82566666Y-101904761D01*
X82614285Y-101857142D01*
X82661904Y-101761904D01*
X82661904Y-101571428D01*
X82614285Y-101476190D01*
X82566666Y-101428571D01*
X82471428Y-101380952D01*
%TO.C,R39*%
X49632142Y-26802380D02*
X49298809Y-26326190D01*
X49060714Y-26802380D02*
X49060714Y-25802380D01*
X49441666Y-25802380D01*
X49536904Y-25850000D01*
X49584523Y-25897619D01*
X49632142Y-25992857D01*
X49632142Y-26135714D01*
X49584523Y-26230952D01*
X49536904Y-26278571D01*
X49441666Y-26326190D01*
X49060714Y-26326190D01*
X49965476Y-25802380D02*
X50584523Y-25802380D01*
X50251190Y-26183333D01*
X50394047Y-26183333D01*
X50489285Y-26230952D01*
X50536904Y-26278571D01*
X50584523Y-26373809D01*
X50584523Y-26611904D01*
X50536904Y-26707142D01*
X50489285Y-26754761D01*
X50394047Y-26802380D01*
X50108333Y-26802380D01*
X50013095Y-26754761D01*
X49965476Y-26707142D01*
X51060714Y-26802380D02*
X51251190Y-26802380D01*
X51346428Y-26754761D01*
X51394047Y-26707142D01*
X51489285Y-26564285D01*
X51536904Y-26373809D01*
X51536904Y-25992857D01*
X51489285Y-25897619D01*
X51441666Y-25850000D01*
X51346428Y-25802380D01*
X51155952Y-25802380D01*
X51060714Y-25850000D01*
X51013095Y-25897619D01*
X50965476Y-25992857D01*
X50965476Y-26230952D01*
X51013095Y-26326190D01*
X51060714Y-26373809D01*
X51155952Y-26421428D01*
X51346428Y-26421428D01*
X51441666Y-26373809D01*
X51489285Y-26326190D01*
X51536904Y-26230952D01*
%TO.C,R49*%
X126732142Y-79352380D02*
X126398809Y-78876190D01*
X126160714Y-79352380D02*
X126160714Y-78352380D01*
X126541666Y-78352380D01*
X126636904Y-78400000D01*
X126684523Y-78447619D01*
X126732142Y-78542857D01*
X126732142Y-78685714D01*
X126684523Y-78780952D01*
X126636904Y-78828571D01*
X126541666Y-78876190D01*
X126160714Y-78876190D01*
X127589285Y-78685714D02*
X127589285Y-79352380D01*
X127351190Y-78304761D02*
X127113095Y-79019047D01*
X127732142Y-79019047D01*
X128160714Y-79352380D02*
X128351190Y-79352380D01*
X128446428Y-79304761D01*
X128494047Y-79257142D01*
X128589285Y-79114285D01*
X128636904Y-78923809D01*
X128636904Y-78542857D01*
X128589285Y-78447619D01*
X128541666Y-78400000D01*
X128446428Y-78352380D01*
X128255952Y-78352380D01*
X128160714Y-78400000D01*
X128113095Y-78447619D01*
X128065476Y-78542857D01*
X128065476Y-78780952D01*
X128113095Y-78876190D01*
X128160714Y-78923809D01*
X128255952Y-78971428D01*
X128446428Y-78971428D01*
X128541666Y-78923809D01*
X128589285Y-78876190D01*
X128636904Y-78780952D01*
%TO.C,R50*%
X133282142Y-117152380D02*
X132948809Y-116676190D01*
X132710714Y-117152380D02*
X132710714Y-116152380D01*
X133091666Y-116152380D01*
X133186904Y-116200000D01*
X133234523Y-116247619D01*
X133282142Y-116342857D01*
X133282142Y-116485714D01*
X133234523Y-116580952D01*
X133186904Y-116628571D01*
X133091666Y-116676190D01*
X132710714Y-116676190D01*
X134186904Y-116152380D02*
X133710714Y-116152380D01*
X133663095Y-116628571D01*
X133710714Y-116580952D01*
X133805952Y-116533333D01*
X134044047Y-116533333D01*
X134139285Y-116580952D01*
X134186904Y-116628571D01*
X134234523Y-116723809D01*
X134234523Y-116961904D01*
X134186904Y-117057142D01*
X134139285Y-117104761D01*
X134044047Y-117152380D01*
X133805952Y-117152380D01*
X133710714Y-117104761D01*
X133663095Y-117057142D01*
X134853571Y-116152380D02*
X134948809Y-116152380D01*
X135044047Y-116200000D01*
X135091666Y-116247619D01*
X135139285Y-116342857D01*
X135186904Y-116533333D01*
X135186904Y-116771428D01*
X135139285Y-116961904D01*
X135091666Y-117057142D01*
X135044047Y-117104761D01*
X134948809Y-117152380D01*
X134853571Y-117152380D01*
X134758333Y-117104761D01*
X134710714Y-117057142D01*
X134663095Y-116961904D01*
X134615476Y-116771428D01*
X134615476Y-116533333D01*
X134663095Y-116342857D01*
X134710714Y-116247619D01*
X134758333Y-116200000D01*
X134853571Y-116152380D01*
%TO.C,R51*%
X133332142Y-118427380D02*
X132998809Y-117951190D01*
X132760714Y-118427380D02*
X132760714Y-117427380D01*
X133141666Y-117427380D01*
X133236904Y-117475000D01*
X133284523Y-117522619D01*
X133332142Y-117617857D01*
X133332142Y-117760714D01*
X133284523Y-117855952D01*
X133236904Y-117903571D01*
X133141666Y-117951190D01*
X132760714Y-117951190D01*
X134236904Y-117427380D02*
X133760714Y-117427380D01*
X133713095Y-117903571D01*
X133760714Y-117855952D01*
X133855952Y-117808333D01*
X134094047Y-117808333D01*
X134189285Y-117855952D01*
X134236904Y-117903571D01*
X134284523Y-117998809D01*
X134284523Y-118236904D01*
X134236904Y-118332142D01*
X134189285Y-118379761D01*
X134094047Y-118427380D01*
X133855952Y-118427380D01*
X133760714Y-118379761D01*
X133713095Y-118332142D01*
X135236904Y-118427380D02*
X134665476Y-118427380D01*
X134951190Y-118427380D02*
X134951190Y-117427380D01*
X134855952Y-117570238D01*
X134760714Y-117665476D01*
X134665476Y-117713095D01*
%TO.C,R53*%
X122832142Y-117602380D02*
X122498809Y-117126190D01*
X122260714Y-117602380D02*
X122260714Y-116602380D01*
X122641666Y-116602380D01*
X122736904Y-116650000D01*
X122784523Y-116697619D01*
X122832142Y-116792857D01*
X122832142Y-116935714D01*
X122784523Y-117030952D01*
X122736904Y-117078571D01*
X122641666Y-117126190D01*
X122260714Y-117126190D01*
X123736904Y-116602380D02*
X123260714Y-116602380D01*
X123213095Y-117078571D01*
X123260714Y-117030952D01*
X123355952Y-116983333D01*
X123594047Y-116983333D01*
X123689285Y-117030952D01*
X123736904Y-117078571D01*
X123784523Y-117173809D01*
X123784523Y-117411904D01*
X123736904Y-117507142D01*
X123689285Y-117554761D01*
X123594047Y-117602380D01*
X123355952Y-117602380D01*
X123260714Y-117554761D01*
X123213095Y-117507142D01*
X124117857Y-116602380D02*
X124736904Y-116602380D01*
X124403571Y-116983333D01*
X124546428Y-116983333D01*
X124641666Y-117030952D01*
X124689285Y-117078571D01*
X124736904Y-117173809D01*
X124736904Y-117411904D01*
X124689285Y-117507142D01*
X124641666Y-117554761D01*
X124546428Y-117602380D01*
X124260714Y-117602380D01*
X124165476Y-117554761D01*
X124117857Y-117507142D01*
%TO.C,R56*%
X51157142Y-60822380D02*
X50823809Y-60346190D01*
X50585714Y-60822380D02*
X50585714Y-59822380D01*
X50966666Y-59822380D01*
X51061904Y-59870000D01*
X51109523Y-59917619D01*
X51157142Y-60012857D01*
X51157142Y-60155714D01*
X51109523Y-60250952D01*
X51061904Y-60298571D01*
X50966666Y-60346190D01*
X50585714Y-60346190D01*
X52061904Y-59822380D02*
X51585714Y-59822380D01*
X51538095Y-60298571D01*
X51585714Y-60250952D01*
X51680952Y-60203333D01*
X51919047Y-60203333D01*
X52014285Y-60250952D01*
X52061904Y-60298571D01*
X52109523Y-60393809D01*
X52109523Y-60631904D01*
X52061904Y-60727142D01*
X52014285Y-60774761D01*
X51919047Y-60822380D01*
X51680952Y-60822380D01*
X51585714Y-60774761D01*
X51538095Y-60727142D01*
X52966666Y-59822380D02*
X52776190Y-59822380D01*
X52680952Y-59870000D01*
X52633333Y-59917619D01*
X52538095Y-60060476D01*
X52490476Y-60250952D01*
X52490476Y-60631904D01*
X52538095Y-60727142D01*
X52585714Y-60774761D01*
X52680952Y-60822380D01*
X52871428Y-60822380D01*
X52966666Y-60774761D01*
X53014285Y-60727142D01*
X53061904Y-60631904D01*
X53061904Y-60393809D01*
X53014285Y-60298571D01*
X52966666Y-60250952D01*
X52871428Y-60203333D01*
X52680952Y-60203333D01*
X52585714Y-60250952D01*
X52538095Y-60298571D01*
X52490476Y-60393809D01*
%TO.C,R57*%
X54957142Y-65752380D02*
X54623809Y-65276190D01*
X54385714Y-65752380D02*
X54385714Y-64752380D01*
X54766666Y-64752380D01*
X54861904Y-64800000D01*
X54909523Y-64847619D01*
X54957142Y-64942857D01*
X54957142Y-65085714D01*
X54909523Y-65180952D01*
X54861904Y-65228571D01*
X54766666Y-65276190D01*
X54385714Y-65276190D01*
X55861904Y-64752380D02*
X55385714Y-64752380D01*
X55338095Y-65228571D01*
X55385714Y-65180952D01*
X55480952Y-65133333D01*
X55719047Y-65133333D01*
X55814285Y-65180952D01*
X55861904Y-65228571D01*
X55909523Y-65323809D01*
X55909523Y-65561904D01*
X55861904Y-65657142D01*
X55814285Y-65704761D01*
X55719047Y-65752380D01*
X55480952Y-65752380D01*
X55385714Y-65704761D01*
X55338095Y-65657142D01*
X56242857Y-64752380D02*
X56909523Y-64752380D01*
X56480952Y-65752380D01*
%TO.C,R58*%
X54657142Y-55282380D02*
X54323809Y-54806190D01*
X54085714Y-55282380D02*
X54085714Y-54282380D01*
X54466666Y-54282380D01*
X54561904Y-54330000D01*
X54609523Y-54377619D01*
X54657142Y-54472857D01*
X54657142Y-54615714D01*
X54609523Y-54710952D01*
X54561904Y-54758571D01*
X54466666Y-54806190D01*
X54085714Y-54806190D01*
X55561904Y-54282380D02*
X55085714Y-54282380D01*
X55038095Y-54758571D01*
X55085714Y-54710952D01*
X55180952Y-54663333D01*
X55419047Y-54663333D01*
X55514285Y-54710952D01*
X55561904Y-54758571D01*
X55609523Y-54853809D01*
X55609523Y-55091904D01*
X55561904Y-55187142D01*
X55514285Y-55234761D01*
X55419047Y-55282380D01*
X55180952Y-55282380D01*
X55085714Y-55234761D01*
X55038095Y-55187142D01*
X56180952Y-54710952D02*
X56085714Y-54663333D01*
X56038095Y-54615714D01*
X55990476Y-54520476D01*
X55990476Y-54472857D01*
X56038095Y-54377619D01*
X56085714Y-54330000D01*
X56180952Y-54282380D01*
X56371428Y-54282380D01*
X56466666Y-54330000D01*
X56514285Y-54377619D01*
X56561904Y-54472857D01*
X56561904Y-54520476D01*
X56514285Y-54615714D01*
X56466666Y-54663333D01*
X56371428Y-54710952D01*
X56180952Y-54710952D01*
X56085714Y-54758571D01*
X56038095Y-54806190D01*
X55990476Y-54901428D01*
X55990476Y-55091904D01*
X56038095Y-55187142D01*
X56085714Y-55234761D01*
X56180952Y-55282380D01*
X56371428Y-55282380D01*
X56466666Y-55234761D01*
X56514285Y-55187142D01*
X56561904Y-55091904D01*
X56561904Y-54901428D01*
X56514285Y-54806190D01*
X56466666Y-54758571D01*
X56371428Y-54710952D01*
%TO.C,R59*%
X79707142Y-24752380D02*
X79373809Y-24276190D01*
X79135714Y-24752380D02*
X79135714Y-23752380D01*
X79516666Y-23752380D01*
X79611904Y-23800000D01*
X79659523Y-23847619D01*
X79707142Y-23942857D01*
X79707142Y-24085714D01*
X79659523Y-24180952D01*
X79611904Y-24228571D01*
X79516666Y-24276190D01*
X79135714Y-24276190D01*
X80611904Y-23752380D02*
X80135714Y-23752380D01*
X80088095Y-24228571D01*
X80135714Y-24180952D01*
X80230952Y-24133333D01*
X80469047Y-24133333D01*
X80564285Y-24180952D01*
X80611904Y-24228571D01*
X80659523Y-24323809D01*
X80659523Y-24561904D01*
X80611904Y-24657142D01*
X80564285Y-24704761D01*
X80469047Y-24752380D01*
X80230952Y-24752380D01*
X80135714Y-24704761D01*
X80088095Y-24657142D01*
X81135714Y-24752380D02*
X81326190Y-24752380D01*
X81421428Y-24704761D01*
X81469047Y-24657142D01*
X81564285Y-24514285D01*
X81611904Y-24323809D01*
X81611904Y-23942857D01*
X81564285Y-23847619D01*
X81516666Y-23800000D01*
X81421428Y-23752380D01*
X81230952Y-23752380D01*
X81135714Y-23800000D01*
X81088095Y-23847619D01*
X81040476Y-23942857D01*
X81040476Y-24180952D01*
X81088095Y-24276190D01*
X81135714Y-24323809D01*
X81230952Y-24371428D01*
X81421428Y-24371428D01*
X81516666Y-24323809D01*
X81564285Y-24276190D01*
X81611904Y-24180952D01*
%TO.C,R60*%
X83232142Y-24752380D02*
X82898809Y-24276190D01*
X82660714Y-24752380D02*
X82660714Y-23752380D01*
X83041666Y-23752380D01*
X83136904Y-23800000D01*
X83184523Y-23847619D01*
X83232142Y-23942857D01*
X83232142Y-24085714D01*
X83184523Y-24180952D01*
X83136904Y-24228571D01*
X83041666Y-24276190D01*
X82660714Y-24276190D01*
X84089285Y-23752380D02*
X83898809Y-23752380D01*
X83803571Y-23800000D01*
X83755952Y-23847619D01*
X83660714Y-23990476D01*
X83613095Y-24180952D01*
X83613095Y-24561904D01*
X83660714Y-24657142D01*
X83708333Y-24704761D01*
X83803571Y-24752380D01*
X83994047Y-24752380D01*
X84089285Y-24704761D01*
X84136904Y-24657142D01*
X84184523Y-24561904D01*
X84184523Y-24323809D01*
X84136904Y-24228571D01*
X84089285Y-24180952D01*
X83994047Y-24133333D01*
X83803571Y-24133333D01*
X83708333Y-24180952D01*
X83660714Y-24228571D01*
X83613095Y-24323809D01*
X84803571Y-23752380D02*
X84898809Y-23752380D01*
X84994047Y-23800000D01*
X85041666Y-23847619D01*
X85089285Y-23942857D01*
X85136904Y-24133333D01*
X85136904Y-24371428D01*
X85089285Y-24561904D01*
X85041666Y-24657142D01*
X84994047Y-24704761D01*
X84898809Y-24752380D01*
X84803571Y-24752380D01*
X84708333Y-24704761D01*
X84660714Y-24657142D01*
X84613095Y-24561904D01*
X84565476Y-24371428D01*
X84565476Y-24133333D01*
X84613095Y-23942857D01*
X84660714Y-23847619D01*
X84708333Y-23800000D01*
X84803571Y-23752380D01*
%TO.C,SW1*%
X57086666Y-81708761D02*
X57229523Y-81756380D01*
X57467619Y-81756380D01*
X57562857Y-81708761D01*
X57610476Y-81661142D01*
X57658095Y-81565904D01*
X57658095Y-81470666D01*
X57610476Y-81375428D01*
X57562857Y-81327809D01*
X57467619Y-81280190D01*
X57277142Y-81232571D01*
X57181904Y-81184952D01*
X57134285Y-81137333D01*
X57086666Y-81042095D01*
X57086666Y-80946857D01*
X57134285Y-80851619D01*
X57181904Y-80804000D01*
X57277142Y-80756380D01*
X57515238Y-80756380D01*
X57658095Y-80804000D01*
X57991428Y-80756380D02*
X58229523Y-81756380D01*
X58420000Y-81042095D01*
X58610476Y-81756380D01*
X58848571Y-80756380D01*
X59753333Y-81756380D02*
X59181904Y-81756380D01*
X59467619Y-81756380D02*
X59467619Y-80756380D01*
X59372380Y-80899238D01*
X59277142Y-80994476D01*
X59181904Y-81042095D01*
%TO.C,TP1*%
X100084095Y-83746380D02*
X100655523Y-83746380D01*
X100369809Y-84746380D02*
X100369809Y-83746380D01*
X100988857Y-84746380D02*
X100988857Y-83746380D01*
X101369809Y-83746380D01*
X101465047Y-83794000D01*
X101512666Y-83841619D01*
X101560285Y-83936857D01*
X101560285Y-84079714D01*
X101512666Y-84174952D01*
X101465047Y-84222571D01*
X101369809Y-84270190D01*
X100988857Y-84270190D01*
X102512666Y-84746380D02*
X101941238Y-84746380D01*
X102226952Y-84746380D02*
X102226952Y-83746380D01*
X102131714Y-83889238D01*
X102036476Y-83984476D01*
X101941238Y-84032095D01*
%TO.C,TP2*%
X100084095Y-88998380D02*
X100655523Y-88998380D01*
X100369809Y-89998380D02*
X100369809Y-88998380D01*
X100988857Y-89998380D02*
X100988857Y-88998380D01*
X101369809Y-88998380D01*
X101465047Y-89046000D01*
X101512666Y-89093619D01*
X101560285Y-89188857D01*
X101560285Y-89331714D01*
X101512666Y-89426952D01*
X101465047Y-89474571D01*
X101369809Y-89522190D01*
X100988857Y-89522190D01*
X101941238Y-89093619D02*
X101988857Y-89046000D01*
X102084095Y-88998380D01*
X102322190Y-88998380D01*
X102417428Y-89046000D01*
X102465047Y-89093619D01*
X102512666Y-89188857D01*
X102512666Y-89284095D01*
X102465047Y-89426952D01*
X101893619Y-89998380D01*
X102512666Y-89998380D01*
%TO.C,TP3*%
X88338095Y-112454380D02*
X88909523Y-112454380D01*
X88623809Y-113454380D02*
X88623809Y-112454380D01*
X89242857Y-113454380D02*
X89242857Y-112454380D01*
X89623809Y-112454380D01*
X89719047Y-112502000D01*
X89766666Y-112549619D01*
X89814285Y-112644857D01*
X89814285Y-112787714D01*
X89766666Y-112882952D01*
X89719047Y-112930571D01*
X89623809Y-112978190D01*
X89242857Y-112978190D01*
X90147619Y-112454380D02*
X90766666Y-112454380D01*
X90433333Y-112835333D01*
X90576190Y-112835333D01*
X90671428Y-112882952D01*
X90719047Y-112930571D01*
X90766666Y-113025809D01*
X90766666Y-113263904D01*
X90719047Y-113359142D01*
X90671428Y-113406761D01*
X90576190Y-113454380D01*
X90290476Y-113454380D01*
X90195238Y-113406761D01*
X90147619Y-113359142D01*
%TO.C,TP4*%
X100084095Y-94250380D02*
X100655523Y-94250380D01*
X100369809Y-95250380D02*
X100369809Y-94250380D01*
X100988857Y-95250380D02*
X100988857Y-94250380D01*
X101369809Y-94250380D01*
X101465047Y-94298000D01*
X101512666Y-94345619D01*
X101560285Y-94440857D01*
X101560285Y-94583714D01*
X101512666Y-94678952D01*
X101465047Y-94726571D01*
X101369809Y-94774190D01*
X100988857Y-94774190D01*
X102417428Y-94583714D02*
X102417428Y-95250380D01*
X102179333Y-94202761D02*
X101941238Y-94917047D01*
X102560285Y-94917047D01*
%TO.C,TP5*%
X68238095Y-51854380D02*
X68809523Y-51854380D01*
X68523809Y-52854380D02*
X68523809Y-51854380D01*
X69142857Y-52854380D02*
X69142857Y-51854380D01*
X69523809Y-51854380D01*
X69619047Y-51902000D01*
X69666666Y-51949619D01*
X69714285Y-52044857D01*
X69714285Y-52187714D01*
X69666666Y-52282952D01*
X69619047Y-52330571D01*
X69523809Y-52378190D01*
X69142857Y-52378190D01*
X70619047Y-51854380D02*
X70142857Y-51854380D01*
X70095238Y-52330571D01*
X70142857Y-52282952D01*
X70238095Y-52235333D01*
X70476190Y-52235333D01*
X70571428Y-52282952D01*
X70619047Y-52330571D01*
X70666666Y-52425809D01*
X70666666Y-52663904D01*
X70619047Y-52759142D01*
X70571428Y-52806761D01*
X70476190Y-52854380D01*
X70238095Y-52854380D01*
X70142857Y-52806761D01*
X70095238Y-52759142D01*
%TO.C,TP6*%
X74738095Y-51854380D02*
X75309523Y-51854380D01*
X75023809Y-52854380D02*
X75023809Y-51854380D01*
X75642857Y-52854380D02*
X75642857Y-51854380D01*
X76023809Y-51854380D01*
X76119047Y-51902000D01*
X76166666Y-51949619D01*
X76214285Y-52044857D01*
X76214285Y-52187714D01*
X76166666Y-52282952D01*
X76119047Y-52330571D01*
X76023809Y-52378190D01*
X75642857Y-52378190D01*
X77071428Y-51854380D02*
X76880952Y-51854380D01*
X76785714Y-51902000D01*
X76738095Y-51949619D01*
X76642857Y-52092476D01*
X76595238Y-52282952D01*
X76595238Y-52663904D01*
X76642857Y-52759142D01*
X76690476Y-52806761D01*
X76785714Y-52854380D01*
X76976190Y-52854380D01*
X77071428Y-52806761D01*
X77119047Y-52759142D01*
X77166666Y-52663904D01*
X77166666Y-52425809D01*
X77119047Y-52330571D01*
X77071428Y-52282952D01*
X76976190Y-52235333D01*
X76785714Y-52235333D01*
X76690476Y-52282952D01*
X76642857Y-52330571D01*
X76595238Y-52425809D01*
%TO.C,TP7*%
X71538095Y-51854380D02*
X72109523Y-51854380D01*
X71823809Y-52854380D02*
X71823809Y-51854380D01*
X72442857Y-52854380D02*
X72442857Y-51854380D01*
X72823809Y-51854380D01*
X72919047Y-51902000D01*
X72966666Y-51949619D01*
X73014285Y-52044857D01*
X73014285Y-52187714D01*
X72966666Y-52282952D01*
X72919047Y-52330571D01*
X72823809Y-52378190D01*
X72442857Y-52378190D01*
X73347619Y-51854380D02*
X74014285Y-51854380D01*
X73585714Y-52854380D01*
%TO.C,TP8*%
X78238095Y-51794380D02*
X78809523Y-51794380D01*
X78523809Y-52794380D02*
X78523809Y-51794380D01*
X79142857Y-52794380D02*
X79142857Y-51794380D01*
X79523809Y-51794380D01*
X79619047Y-51842000D01*
X79666666Y-51889619D01*
X79714285Y-51984857D01*
X79714285Y-52127714D01*
X79666666Y-52222952D01*
X79619047Y-52270571D01*
X79523809Y-52318190D01*
X79142857Y-52318190D01*
X80285714Y-52222952D02*
X80190476Y-52175333D01*
X80142857Y-52127714D01*
X80095238Y-52032476D01*
X80095238Y-51984857D01*
X80142857Y-51889619D01*
X80190476Y-51842000D01*
X80285714Y-51794380D01*
X80476190Y-51794380D01*
X80571428Y-51842000D01*
X80619047Y-51889619D01*
X80666666Y-51984857D01*
X80666666Y-52032476D01*
X80619047Y-52127714D01*
X80571428Y-52175333D01*
X80476190Y-52222952D01*
X80285714Y-52222952D01*
X80190476Y-52270571D01*
X80142857Y-52318190D01*
X80095238Y-52413428D01*
X80095238Y-52603904D01*
X80142857Y-52699142D01*
X80190476Y-52746761D01*
X80285714Y-52794380D01*
X80476190Y-52794380D01*
X80571428Y-52746761D01*
X80619047Y-52699142D01*
X80666666Y-52603904D01*
X80666666Y-52413428D01*
X80619047Y-52318190D01*
X80571428Y-52270571D01*
X80476190Y-52222952D01*
%TO.C,TP9*%
X81538095Y-51852380D02*
X82109523Y-51852380D01*
X81823809Y-52852380D02*
X81823809Y-51852380D01*
X82442857Y-52852380D02*
X82442857Y-51852380D01*
X82823809Y-51852380D01*
X82919047Y-51900000D01*
X82966666Y-51947619D01*
X83014285Y-52042857D01*
X83014285Y-52185714D01*
X82966666Y-52280952D01*
X82919047Y-52328571D01*
X82823809Y-52376190D01*
X82442857Y-52376190D01*
X83490476Y-52852380D02*
X83680952Y-52852380D01*
X83776190Y-52804761D01*
X83823809Y-52757142D01*
X83919047Y-52614285D01*
X83966666Y-52423809D01*
X83966666Y-52042857D01*
X83919047Y-51947619D01*
X83871428Y-51900000D01*
X83776190Y-51852380D01*
X83585714Y-51852380D01*
X83490476Y-51900000D01*
X83442857Y-51947619D01*
X83395238Y-52042857D01*
X83395238Y-52280952D01*
X83442857Y-52376190D01*
X83490476Y-52423809D01*
X83585714Y-52471428D01*
X83776190Y-52471428D01*
X83871428Y-52423809D01*
X83919047Y-52376190D01*
X83966666Y-52280952D01*
%TO.C,U1*%
X38838095Y-78052380D02*
X38838095Y-78861904D01*
X38885714Y-78957142D01*
X38933333Y-79004761D01*
X39028571Y-79052380D01*
X39219047Y-79052380D01*
X39314285Y-79004761D01*
X39361904Y-78957142D01*
X39409523Y-78861904D01*
X39409523Y-78052380D01*
X40409523Y-79052380D02*
X39838095Y-79052380D01*
X40123809Y-79052380D02*
X40123809Y-78052380D01*
X40028571Y-78195238D01*
X39933333Y-78290476D01*
X39838095Y-78338095D01*
%TO.C,U5*%
X76138095Y-37977380D02*
X76138095Y-38786904D01*
X76185714Y-38882142D01*
X76233333Y-38929761D01*
X76328571Y-38977380D01*
X76519047Y-38977380D01*
X76614285Y-38929761D01*
X76661904Y-38882142D01*
X76709523Y-38786904D01*
X76709523Y-37977380D01*
X77661904Y-37977380D02*
X77185714Y-37977380D01*
X77138095Y-38453571D01*
X77185714Y-38405952D01*
X77280952Y-38358333D01*
X77519047Y-38358333D01*
X77614285Y-38405952D01*
X77661904Y-38453571D01*
X77709523Y-38548809D01*
X77709523Y-38786904D01*
X77661904Y-38882142D01*
X77614285Y-38929761D01*
X77519047Y-38977380D01*
X77280952Y-38977380D01*
X77185714Y-38929761D01*
X77138095Y-38882142D01*
%TO.C,U9*%
X110438095Y-68802380D02*
X110438095Y-69611904D01*
X110485714Y-69707142D01*
X110533333Y-69754761D01*
X110628571Y-69802380D01*
X110819047Y-69802380D01*
X110914285Y-69754761D01*
X110961904Y-69707142D01*
X111009523Y-69611904D01*
X111009523Y-68802380D01*
X111533333Y-69802380D02*
X111723809Y-69802380D01*
X111819047Y-69754761D01*
X111866666Y-69707142D01*
X111961904Y-69564285D01*
X112009523Y-69373809D01*
X112009523Y-68992857D01*
X111961904Y-68897619D01*
X111914285Y-68850000D01*
X111819047Y-68802380D01*
X111628571Y-68802380D01*
X111533333Y-68850000D01*
X111485714Y-68897619D01*
X111438095Y-68992857D01*
X111438095Y-69230952D01*
X111485714Y-69326190D01*
X111533333Y-69373809D01*
X111628571Y-69421428D01*
X111819047Y-69421428D01*
X111914285Y-69373809D01*
X111961904Y-69326190D01*
X112009523Y-69230952D01*
%TO.C,U10*%
X38261904Y-96852380D02*
X38261904Y-97661904D01*
X38309523Y-97757142D01*
X38357142Y-97804761D01*
X38452380Y-97852380D01*
X38642857Y-97852380D01*
X38738095Y-97804761D01*
X38785714Y-97757142D01*
X38833333Y-97661904D01*
X38833333Y-96852380D01*
X39833333Y-97852380D02*
X39261904Y-97852380D01*
X39547619Y-97852380D02*
X39547619Y-96852380D01*
X39452380Y-96995238D01*
X39357142Y-97090476D01*
X39261904Y-97138095D01*
X40452380Y-96852380D02*
X40547619Y-96852380D01*
X40642857Y-96900000D01*
X40690476Y-96947619D01*
X40738095Y-97042857D01*
X40785714Y-97233333D01*
X40785714Y-97471428D01*
X40738095Y-97661904D01*
X40690476Y-97757142D01*
X40642857Y-97804761D01*
X40547619Y-97852380D01*
X40452380Y-97852380D01*
X40357142Y-97804761D01*
X40309523Y-97757142D01*
X40261904Y-97661904D01*
X40214285Y-97471428D01*
X40214285Y-97233333D01*
X40261904Y-97042857D01*
X40309523Y-96947619D01*
X40357142Y-96900000D01*
X40452380Y-96852380D01*
%TO.C,U18*%
X67449530Y-27156315D02*
X67449530Y-27965839D01*
X67497149Y-28061077D01*
X67544768Y-28108696D01*
X67640006Y-28156315D01*
X67830482Y-28156315D01*
X67925720Y-28108696D01*
X67973339Y-28061077D01*
X68020958Y-27965839D01*
X68020958Y-27156315D01*
X69020958Y-28156315D02*
X68449530Y-28156315D01*
X68735244Y-28156315D02*
X68735244Y-27156315D01*
X68640006Y-27299173D01*
X68544768Y-27394411D01*
X68449530Y-27442030D01*
X69592387Y-27584887D02*
X69497149Y-27537268D01*
X69449530Y-27489649D01*
X69401911Y-27394411D01*
X69401911Y-27346792D01*
X69449530Y-27251554D01*
X69497149Y-27203935D01*
X69592387Y-27156315D01*
X69782863Y-27156315D01*
X69878101Y-27203935D01*
X69925720Y-27251554D01*
X69973339Y-27346792D01*
X69973339Y-27394411D01*
X69925720Y-27489649D01*
X69878101Y-27537268D01*
X69782863Y-27584887D01*
X69592387Y-27584887D01*
X69497149Y-27632506D01*
X69449530Y-27680125D01*
X69401911Y-27775363D01*
X69401911Y-27965839D01*
X69449530Y-28061077D01*
X69497149Y-28108696D01*
X69592387Y-28156315D01*
X69782863Y-28156315D01*
X69878101Y-28108696D01*
X69925720Y-28061077D01*
X69973339Y-27965839D01*
X69973339Y-27775363D01*
X69925720Y-27680125D01*
X69878101Y-27632506D01*
X69782863Y-27584887D01*
%TO.C,U19*%
X87556905Y-102147381D02*
X87556905Y-102956905D01*
X87604524Y-103052143D01*
X87652143Y-103099762D01*
X87747381Y-103147381D01*
X87937858Y-103147381D01*
X88033096Y-103099762D01*
X88080715Y-103052143D01*
X88128334Y-102956905D01*
X88128334Y-102147381D01*
X89128334Y-103147381D02*
X88556905Y-103147381D01*
X88842620Y-103147381D02*
X88842620Y-102147381D01*
X88747381Y-102290239D01*
X88652143Y-102385477D01*
X88556905Y-102433096D01*
X89604524Y-103147381D02*
X89795001Y-103147381D01*
X89890239Y-103099762D01*
X89937858Y-103052143D01*
X90033096Y-102909286D01*
X90080715Y-102718810D01*
X90080715Y-102337858D01*
X90033096Y-102242620D01*
X89985477Y-102195001D01*
X89890239Y-102147381D01*
X89699762Y-102147381D01*
X89604524Y-102195001D01*
X89556905Y-102242620D01*
X89509286Y-102337858D01*
X89509286Y-102575953D01*
X89556905Y-102671191D01*
X89604524Y-102718810D01*
X89699762Y-102766429D01*
X89890239Y-102766429D01*
X89985477Y-102718810D01*
X90033096Y-102671191D01*
X90080715Y-102575953D01*
%TO.C,U25*%
X45561904Y-60602380D02*
X45561904Y-61411904D01*
X45609523Y-61507142D01*
X45657142Y-61554761D01*
X45752380Y-61602380D01*
X45942857Y-61602380D01*
X46038095Y-61554761D01*
X46085714Y-61507142D01*
X46133333Y-61411904D01*
X46133333Y-60602380D01*
X46561904Y-60697619D02*
X46609523Y-60650000D01*
X46704761Y-60602380D01*
X46942857Y-60602380D01*
X47038095Y-60650000D01*
X47085714Y-60697619D01*
X47133333Y-60792857D01*
X47133333Y-60888095D01*
X47085714Y-61030952D01*
X46514285Y-61602380D01*
X47133333Y-61602380D01*
X48038095Y-60602380D02*
X47561904Y-60602380D01*
X47514285Y-61078571D01*
X47561904Y-61030952D01*
X47657142Y-60983333D01*
X47895238Y-60983333D01*
X47990476Y-61030952D01*
X48038095Y-61078571D01*
X48085714Y-61173809D01*
X48085714Y-61411904D01*
X48038095Y-61507142D01*
X47990476Y-61554761D01*
X47895238Y-61602380D01*
X47657142Y-61602380D01*
X47561904Y-61554761D01*
X47514285Y-61507142D01*
%TO.C,U27*%
X78036904Y-27002380D02*
X78036904Y-27811904D01*
X78084523Y-27907142D01*
X78132142Y-27954761D01*
X78227380Y-28002380D01*
X78417857Y-28002380D01*
X78513095Y-27954761D01*
X78560714Y-27907142D01*
X78608333Y-27811904D01*
X78608333Y-27002380D01*
X79036904Y-27097619D02*
X79084523Y-27050000D01*
X79179761Y-27002380D01*
X79417857Y-27002380D01*
X79513095Y-27050000D01*
X79560714Y-27097619D01*
X79608333Y-27192857D01*
X79608333Y-27288095D01*
X79560714Y-27430952D01*
X78989285Y-28002380D01*
X79608333Y-28002380D01*
X79941666Y-27002380D02*
X80608333Y-27002380D01*
X80179761Y-28002380D01*
%TO.C,C20*%
X88857142Y-37107142D02*
X88809523Y-37154761D01*
X88666666Y-37202380D01*
X88571428Y-37202380D01*
X88428571Y-37154761D01*
X88333333Y-37059523D01*
X88285714Y-36964285D01*
X88238095Y-36773809D01*
X88238095Y-36630952D01*
X88285714Y-36440476D01*
X88333333Y-36345238D01*
X88428571Y-36250000D01*
X88571428Y-36202380D01*
X88666666Y-36202380D01*
X88809523Y-36250000D01*
X88857142Y-36297619D01*
X89238095Y-36297619D02*
X89285714Y-36250000D01*
X89380952Y-36202380D01*
X89619047Y-36202380D01*
X89714285Y-36250000D01*
X89761904Y-36297619D01*
X89809523Y-36392857D01*
X89809523Y-36488095D01*
X89761904Y-36630952D01*
X89190476Y-37202380D01*
X89809523Y-37202380D01*
X90428571Y-36202380D02*
X90523809Y-36202380D01*
X90619047Y-36250000D01*
X90666666Y-36297619D01*
X90714285Y-36392857D01*
X90761904Y-36583333D01*
X90761904Y-36821428D01*
X90714285Y-37011904D01*
X90666666Y-37107142D01*
X90619047Y-37154761D01*
X90523809Y-37202380D01*
X90428571Y-37202380D01*
X90333333Y-37154761D01*
X90285714Y-37107142D01*
X90238095Y-37011904D01*
X90190476Y-36821428D01*
X90190476Y-36583333D01*
X90238095Y-36392857D01*
X90285714Y-36297619D01*
X90333333Y-36250000D01*
X90428571Y-36202380D01*
%TO.C,U12*%
X50285904Y-91660380D02*
X50285904Y-92469904D01*
X50333523Y-92565142D01*
X50381142Y-92612761D01*
X50476380Y-92660380D01*
X50666857Y-92660380D01*
X50762095Y-92612761D01*
X50809714Y-92565142D01*
X50857333Y-92469904D01*
X50857333Y-91660380D01*
X51857333Y-92660380D02*
X51285904Y-92660380D01*
X51571619Y-92660380D02*
X51571619Y-91660380D01*
X51476380Y-91803238D01*
X51381142Y-91898476D01*
X51285904Y-91946095D01*
X52238285Y-91755619D02*
X52285904Y-91708000D01*
X52381142Y-91660380D01*
X52619238Y-91660380D01*
X52714476Y-91708000D01*
X52762095Y-91755619D01*
X52809714Y-91850857D01*
X52809714Y-91946095D01*
X52762095Y-92088952D01*
X52190666Y-92660380D01*
X52809714Y-92660380D01*
X71976380Y-98184190D02*
X72785904Y-98184190D01*
X72881142Y-98136571D01*
X72928761Y-98088952D01*
X72976380Y-97993714D01*
X72976380Y-97803238D01*
X72928761Y-97708000D01*
X72881142Y-97660380D01*
X72785904Y-97612761D01*
X71976380Y-97612761D01*
X72976380Y-97136571D02*
X72309714Y-97136571D01*
X71976380Y-97136571D02*
X72024000Y-97184190D01*
X72071619Y-97136571D01*
X72024000Y-97088952D01*
X71976380Y-97136571D01*
X72071619Y-97136571D01*
X72309714Y-96660380D02*
X72976380Y-96660380D01*
X72404952Y-96660380D02*
X72357333Y-96612761D01*
X72309714Y-96517523D01*
X72309714Y-96374666D01*
X72357333Y-96279428D01*
X72452571Y-96231809D01*
X72976380Y-96231809D01*
X72024000Y-107469904D02*
X71976380Y-107565142D01*
X71976380Y-107708000D01*
X72024000Y-107850857D01*
X72119238Y-107946095D01*
X72214476Y-107993714D01*
X72404952Y-108041333D01*
X72547809Y-108041333D01*
X72738285Y-107993714D01*
X72833523Y-107946095D01*
X72928761Y-107850857D01*
X72976380Y-107708000D01*
X72976380Y-107612761D01*
X72928761Y-107469904D01*
X72881142Y-107422285D01*
X72547809Y-107422285D01*
X72547809Y-107612761D01*
X72976380Y-106993714D02*
X71976380Y-106993714D01*
X72976380Y-106422285D01*
X71976380Y-106422285D01*
X72976380Y-105946095D02*
X71976380Y-105946095D01*
X71976380Y-105708000D01*
X72024000Y-105565142D01*
X72119238Y-105469904D01*
X72214476Y-105422285D01*
X72404952Y-105374666D01*
X72547809Y-105374666D01*
X72738285Y-105422285D01*
X72833523Y-105469904D01*
X72928761Y-105565142D01*
X72976380Y-105708000D01*
X72976380Y-105946095D01*
X72976380Y-116327047D02*
X72500190Y-116660380D01*
X72976380Y-116898476D02*
X71976380Y-116898476D01*
X71976380Y-116517523D01*
X72024000Y-116422285D01*
X72071619Y-116374666D01*
X72166857Y-116327047D01*
X72309714Y-116327047D01*
X72404952Y-116374666D01*
X72452571Y-116422285D01*
X72500190Y-116517523D01*
X72500190Y-116898476D01*
X72452571Y-115565142D02*
X72452571Y-115898476D01*
X72976380Y-115898476D02*
X71976380Y-115898476D01*
X71976380Y-115422285D01*
X48976380Y-116898476D02*
X49785904Y-116898476D01*
X49881142Y-116850857D01*
X49928761Y-116803238D01*
X49976380Y-116708000D01*
X49976380Y-116517523D01*
X49928761Y-116422285D01*
X49881142Y-116374666D01*
X49785904Y-116327047D01*
X48976380Y-116327047D01*
X49928761Y-115898476D02*
X49976380Y-115803238D01*
X49976380Y-115612761D01*
X49928761Y-115517523D01*
X49833523Y-115469904D01*
X49785904Y-115469904D01*
X49690666Y-115517523D01*
X49643047Y-115612761D01*
X49643047Y-115755619D01*
X49595428Y-115850857D01*
X49500190Y-115898476D01*
X49452571Y-115898476D01*
X49357333Y-115850857D01*
X49309714Y-115755619D01*
X49309714Y-115612761D01*
X49357333Y-115517523D01*
X48976380Y-98517523D02*
X49785904Y-98517523D01*
X49881142Y-98469904D01*
X49928761Y-98422285D01*
X49976380Y-98327047D01*
X49976380Y-98136571D01*
X49928761Y-98041333D01*
X49881142Y-97993714D01*
X49785904Y-97946095D01*
X48976380Y-97946095D01*
X49976380Y-97469904D02*
X49309714Y-97469904D01*
X49500190Y-97469904D02*
X49404952Y-97422285D01*
X49357333Y-97374666D01*
X49309714Y-97279428D01*
X49309714Y-97184190D01*
X49928761Y-96469904D02*
X49976380Y-96565142D01*
X49976380Y-96755619D01*
X49928761Y-96850857D01*
X49833523Y-96898476D01*
X49452571Y-96898476D01*
X49357333Y-96850857D01*
X49309714Y-96755619D01*
X49309714Y-96565142D01*
X49357333Y-96469904D01*
X49452571Y-96422285D01*
X49547809Y-96422285D01*
X49643047Y-96898476D01*
X49309714Y-96136571D02*
X49309714Y-95755619D01*
X49976380Y-95993714D02*
X49119238Y-95993714D01*
X49024000Y-95946095D01*
X48976380Y-95850857D01*
X48976380Y-95755619D01*
%TO.C,F1*%
X57266666Y-75228571D02*
X56933333Y-75228571D01*
X56933333Y-75752380D02*
X56933333Y-74752380D01*
X57409523Y-74752380D01*
X58314285Y-75752380D02*
X57742857Y-75752380D01*
X58028571Y-75752380D02*
X58028571Y-74752380D01*
X57933333Y-74895238D01*
X57838095Y-74990476D01*
X57742857Y-75038095D01*
%TO.C,SW2*%
X129216667Y-111484762D02*
X129359524Y-111532381D01*
X129597620Y-111532381D01*
X129692858Y-111484762D01*
X129740477Y-111437143D01*
X129788096Y-111341905D01*
X129788096Y-111246667D01*
X129740477Y-111151429D01*
X129692858Y-111103810D01*
X129597620Y-111056191D01*
X129407143Y-111008572D01*
X129311905Y-110960953D01*
X129264286Y-110913334D01*
X129216667Y-110818096D01*
X129216667Y-110722858D01*
X129264286Y-110627620D01*
X129311905Y-110580001D01*
X129407143Y-110532381D01*
X129645239Y-110532381D01*
X129788096Y-110580001D01*
X130121429Y-110532381D02*
X130359524Y-111532381D01*
X130550001Y-110818096D01*
X130740477Y-111532381D01*
X130978572Y-110532381D01*
X131311905Y-110627620D02*
X131359524Y-110580001D01*
X131454762Y-110532381D01*
X131692858Y-110532381D01*
X131788096Y-110580001D01*
X131835715Y-110627620D01*
X131883334Y-110722858D01*
X131883334Y-110818096D01*
X131835715Y-110960953D01*
X131264286Y-111532381D01*
X131883334Y-111532381D01*
%TO.C,U22*%
X131946904Y-74532380D02*
X131946904Y-75341904D01*
X131994523Y-75437142D01*
X132042142Y-75484761D01*
X132137380Y-75532380D01*
X132327857Y-75532380D01*
X132423095Y-75484761D01*
X132470714Y-75437142D01*
X132518333Y-75341904D01*
X132518333Y-74532380D01*
X132946904Y-74627619D02*
X132994523Y-74580000D01*
X133089761Y-74532380D01*
X133327857Y-74532380D01*
X133423095Y-74580000D01*
X133470714Y-74627619D01*
X133518333Y-74722857D01*
X133518333Y-74818095D01*
X133470714Y-74960952D01*
X132899285Y-75532380D01*
X133518333Y-75532380D01*
X133899285Y-74627619D02*
X133946904Y-74580000D01*
X134042142Y-74532380D01*
X134280238Y-74532380D01*
X134375476Y-74580000D01*
X134423095Y-74627619D01*
X134470714Y-74722857D01*
X134470714Y-74818095D01*
X134423095Y-74960952D01*
X133851666Y-75532380D01*
X134470714Y-75532380D01*
%TO.C,U14*%
X79401904Y-109527380D02*
X79401904Y-110336904D01*
X79449523Y-110432142D01*
X79497142Y-110479761D01*
X79592380Y-110527380D01*
X79782857Y-110527380D01*
X79878095Y-110479761D01*
X79925714Y-110432142D01*
X79973333Y-110336904D01*
X79973333Y-109527380D01*
X80973333Y-110527380D02*
X80401904Y-110527380D01*
X80687619Y-110527380D02*
X80687619Y-109527380D01*
X80592380Y-109670238D01*
X80497142Y-109765476D01*
X80401904Y-109813095D01*
X81830476Y-109860714D02*
X81830476Y-110527380D01*
X81592380Y-109479761D02*
X81354285Y-110194047D01*
X81973333Y-110194047D01*
%TO.C,U26*%
X57911904Y-56827380D02*
X57911904Y-57636904D01*
X57959523Y-57732142D01*
X58007142Y-57779761D01*
X58102380Y-57827380D01*
X58292857Y-57827380D01*
X58388095Y-57779761D01*
X58435714Y-57732142D01*
X58483333Y-57636904D01*
X58483333Y-56827380D01*
X58911904Y-56922619D02*
X58959523Y-56875000D01*
X59054761Y-56827380D01*
X59292857Y-56827380D01*
X59388095Y-56875000D01*
X59435714Y-56922619D01*
X59483333Y-57017857D01*
X59483333Y-57113095D01*
X59435714Y-57255952D01*
X58864285Y-57827380D01*
X59483333Y-57827380D01*
X60340476Y-56827380D02*
X60150000Y-56827380D01*
X60054761Y-56875000D01*
X60007142Y-56922619D01*
X59911904Y-57065476D01*
X59864285Y-57255952D01*
X59864285Y-57636904D01*
X59911904Y-57732142D01*
X59959523Y-57779761D01*
X60054761Y-57827380D01*
X60245238Y-57827380D01*
X60340476Y-57779761D01*
X60388095Y-57732142D01*
X60435714Y-57636904D01*
X60435714Y-57398809D01*
X60388095Y-57303571D01*
X60340476Y-57255952D01*
X60245238Y-57208333D01*
X60054761Y-57208333D01*
X59959523Y-57255952D01*
X59911904Y-57303571D01*
X59864285Y-57398809D01*
%TO.C,J1*%
X47952380Y-72673333D02*
X48666666Y-72673333D01*
X48809523Y-72720952D01*
X48904761Y-72816190D01*
X48952380Y-72959047D01*
X48952380Y-73054285D01*
X48952380Y-71673333D02*
X48952380Y-72244761D01*
X48952380Y-71959047D02*
X47952380Y-71959047D01*
X48095238Y-72054285D01*
X48190476Y-72149523D01*
X48238095Y-72244761D01*
X48161904Y-69052380D02*
X48161904Y-68052380D01*
X48542857Y-68052380D01*
X48638095Y-68100000D01*
X48685714Y-68147619D01*
X48733333Y-68242857D01*
X48733333Y-68385714D01*
X48685714Y-68480952D01*
X48638095Y-68528571D01*
X48542857Y-68576190D01*
X48161904Y-68576190D01*
X49304761Y-69052380D02*
X49209523Y-69004761D01*
X49161904Y-68957142D01*
X49114285Y-68861904D01*
X49114285Y-68576190D01*
X49161904Y-68480952D01*
X49209523Y-68433333D01*
X49304761Y-68385714D01*
X49447619Y-68385714D01*
X49542857Y-68433333D01*
X49590476Y-68480952D01*
X49638095Y-68576190D01*
X49638095Y-68861904D01*
X49590476Y-68957142D01*
X49542857Y-69004761D01*
X49447619Y-69052380D01*
X49304761Y-69052380D01*
X49971428Y-68385714D02*
X50161904Y-69052380D01*
X50352380Y-68576190D01*
X50542857Y-69052380D01*
X50733333Y-68385714D01*
X51495238Y-69004761D02*
X51400000Y-69052380D01*
X51209523Y-69052380D01*
X51114285Y-69004761D01*
X51066666Y-68909523D01*
X51066666Y-68528571D01*
X51114285Y-68433333D01*
X51209523Y-68385714D01*
X51400000Y-68385714D01*
X51495238Y-68433333D01*
X51542857Y-68528571D01*
X51542857Y-68623809D01*
X51066666Y-68719047D01*
X51971428Y-69052380D02*
X51971428Y-68385714D01*
X51971428Y-68576190D02*
X52019047Y-68480952D01*
X52066666Y-68433333D01*
X52161904Y-68385714D01*
X52257142Y-68385714D01*
X53352380Y-69052380D02*
X53352380Y-68385714D01*
X53352380Y-68052380D02*
X53304761Y-68100000D01*
X53352380Y-68147619D01*
X53400000Y-68100000D01*
X53352380Y-68052380D01*
X53352380Y-68147619D01*
X53828571Y-68385714D02*
X53828571Y-69052380D01*
X53828571Y-68480952D02*
X53876190Y-68433333D01*
X53971428Y-68385714D01*
X54114285Y-68385714D01*
X54209523Y-68433333D01*
X54257142Y-68528571D01*
X54257142Y-69052380D01*
X54733333Y-68385714D02*
X54733333Y-69385714D01*
X54733333Y-68433333D02*
X54828571Y-68385714D01*
X55019047Y-68385714D01*
X55114285Y-68433333D01*
X55161904Y-68480952D01*
X55209523Y-68576190D01*
X55209523Y-68861904D01*
X55161904Y-68957142D01*
X55114285Y-69004761D01*
X55019047Y-69052380D01*
X54828571Y-69052380D01*
X54733333Y-69004761D01*
X56066666Y-68385714D02*
X56066666Y-69052380D01*
X55638095Y-68385714D02*
X55638095Y-68909523D01*
X55685714Y-69004761D01*
X55780952Y-69052380D01*
X55923809Y-69052380D01*
X56019047Y-69004761D01*
X56066666Y-68957142D01*
X56400000Y-68385714D02*
X56780952Y-68385714D01*
X56542857Y-68052380D02*
X56542857Y-68909523D01*
X56590476Y-69004761D01*
X56685714Y-69052380D01*
X56780952Y-69052380D01*
%TO.C,C49*%
X90537142Y-62155357D02*
X90584761Y-62202976D01*
X90632380Y-62345833D01*
X90632380Y-62441071D01*
X90584761Y-62583928D01*
X90489523Y-62679166D01*
X90394285Y-62726785D01*
X90203809Y-62774404D01*
X90060952Y-62774404D01*
X89870476Y-62726785D01*
X89775238Y-62679166D01*
X89680000Y-62583928D01*
X89632380Y-62441071D01*
X89632380Y-62345833D01*
X89680000Y-62202976D01*
X89727619Y-62155357D01*
X89965714Y-61298214D02*
X90632380Y-61298214D01*
X89584761Y-61536309D02*
X90299047Y-61774404D01*
X90299047Y-61155357D01*
X90632380Y-60726785D02*
X90632380Y-60536309D01*
X90584761Y-60441071D01*
X90537142Y-60393452D01*
X90394285Y-60298214D01*
X90203809Y-60250595D01*
X89822857Y-60250595D01*
X89727619Y-60298214D01*
X89680000Y-60345833D01*
X89632380Y-60441071D01*
X89632380Y-60631547D01*
X89680000Y-60726785D01*
X89727619Y-60774404D01*
X89822857Y-60822023D01*
X90060952Y-60822023D01*
X90156190Y-60774404D01*
X90203809Y-60726785D01*
X90251428Y-60631547D01*
X90251428Y-60441071D01*
X90203809Y-60345833D01*
X90156190Y-60298214D01*
X90060952Y-60250595D01*
%TO.C,C69*%
X90637142Y-69330357D02*
X90684761Y-69377976D01*
X90732380Y-69520833D01*
X90732380Y-69616071D01*
X90684761Y-69758928D01*
X90589523Y-69854166D01*
X90494285Y-69901785D01*
X90303809Y-69949404D01*
X90160952Y-69949404D01*
X89970476Y-69901785D01*
X89875238Y-69854166D01*
X89780000Y-69758928D01*
X89732380Y-69616071D01*
X89732380Y-69520833D01*
X89780000Y-69377976D01*
X89827619Y-69330357D01*
X89732380Y-68473214D02*
X89732380Y-68663690D01*
X89780000Y-68758928D01*
X89827619Y-68806547D01*
X89970476Y-68901785D01*
X90160952Y-68949404D01*
X90541904Y-68949404D01*
X90637142Y-68901785D01*
X90684761Y-68854166D01*
X90732380Y-68758928D01*
X90732380Y-68568452D01*
X90684761Y-68473214D01*
X90637142Y-68425595D01*
X90541904Y-68377976D01*
X90303809Y-68377976D01*
X90208571Y-68425595D01*
X90160952Y-68473214D01*
X90113333Y-68568452D01*
X90113333Y-68758928D01*
X90160952Y-68854166D01*
X90208571Y-68901785D01*
X90303809Y-68949404D01*
X90732380Y-67901785D02*
X90732380Y-67711309D01*
X90684761Y-67616071D01*
X90637142Y-67568452D01*
X90494285Y-67473214D01*
X90303809Y-67425595D01*
X89922857Y-67425595D01*
X89827619Y-67473214D01*
X89780000Y-67520833D01*
X89732380Y-67616071D01*
X89732380Y-67806547D01*
X89780000Y-67901785D01*
X89827619Y-67949404D01*
X89922857Y-67997023D01*
X90160952Y-67997023D01*
X90256190Y-67949404D01*
X90303809Y-67901785D01*
X90351428Y-67806547D01*
X90351428Y-67616071D01*
X90303809Y-67520833D01*
X90256190Y-67473214D01*
X90160952Y-67425595D01*
%TO.C,C70*%
X88307142Y-62742857D02*
X88354761Y-62790476D01*
X88402380Y-62933333D01*
X88402380Y-63028571D01*
X88354761Y-63171428D01*
X88259523Y-63266666D01*
X88164285Y-63314285D01*
X87973809Y-63361904D01*
X87830952Y-63361904D01*
X87640476Y-63314285D01*
X87545238Y-63266666D01*
X87450000Y-63171428D01*
X87402380Y-63028571D01*
X87402380Y-62933333D01*
X87450000Y-62790476D01*
X87497619Y-62742857D01*
X87402380Y-62409523D02*
X87402380Y-61742857D01*
X88402380Y-62171428D01*
X87402380Y-61171428D02*
X87402380Y-61076190D01*
X87450000Y-60980952D01*
X87497619Y-60933333D01*
X87592857Y-60885714D01*
X87783333Y-60838095D01*
X88021428Y-60838095D01*
X88211904Y-60885714D01*
X88307142Y-60933333D01*
X88354761Y-60980952D01*
X88402380Y-61076190D01*
X88402380Y-61171428D01*
X88354761Y-61266666D01*
X88307142Y-61314285D01*
X88211904Y-61361904D01*
X88021428Y-61409523D01*
X87783333Y-61409523D01*
X87592857Y-61361904D01*
X87497619Y-61314285D01*
X87450000Y-61266666D01*
X87402380Y-61171428D01*
%TO.C,R32*%
X85857142Y-65102380D02*
X85523809Y-64626190D01*
X85285714Y-65102380D02*
X85285714Y-64102380D01*
X85666666Y-64102380D01*
X85761904Y-64150000D01*
X85809523Y-64197619D01*
X85857142Y-64292857D01*
X85857142Y-64435714D01*
X85809523Y-64530952D01*
X85761904Y-64578571D01*
X85666666Y-64626190D01*
X85285714Y-64626190D01*
X86190476Y-64102380D02*
X86809523Y-64102380D01*
X86476190Y-64483333D01*
X86619047Y-64483333D01*
X86714285Y-64530952D01*
X86761904Y-64578571D01*
X86809523Y-64673809D01*
X86809523Y-64911904D01*
X86761904Y-65007142D01*
X86714285Y-65054761D01*
X86619047Y-65102380D01*
X86333333Y-65102380D01*
X86238095Y-65054761D01*
X86190476Y-65007142D01*
X87190476Y-64197619D02*
X87238095Y-64150000D01*
X87333333Y-64102380D01*
X87571428Y-64102380D01*
X87666666Y-64150000D01*
X87714285Y-64197619D01*
X87761904Y-64292857D01*
X87761904Y-64388095D01*
X87714285Y-64530952D01*
X87142857Y-65102380D01*
X87761904Y-65102380D01*
%TO.C,R34*%
X85832142Y-72302380D02*
X85498809Y-71826190D01*
X85260714Y-72302380D02*
X85260714Y-71302380D01*
X85641666Y-71302380D01*
X85736904Y-71350000D01*
X85784523Y-71397619D01*
X85832142Y-71492857D01*
X85832142Y-71635714D01*
X85784523Y-71730952D01*
X85736904Y-71778571D01*
X85641666Y-71826190D01*
X85260714Y-71826190D01*
X86165476Y-71302380D02*
X86784523Y-71302380D01*
X86451190Y-71683333D01*
X86594047Y-71683333D01*
X86689285Y-71730952D01*
X86736904Y-71778571D01*
X86784523Y-71873809D01*
X86784523Y-72111904D01*
X86736904Y-72207142D01*
X86689285Y-72254761D01*
X86594047Y-72302380D01*
X86308333Y-72302380D01*
X86213095Y-72254761D01*
X86165476Y-72207142D01*
X87641666Y-71635714D02*
X87641666Y-72302380D01*
X87403571Y-71254761D02*
X87165476Y-71969047D01*
X87784523Y-71969047D01*
%TO.C,R37*%
X78057142Y-66522380D02*
X77723809Y-66046190D01*
X77485714Y-66522380D02*
X77485714Y-65522380D01*
X77866666Y-65522380D01*
X77961904Y-65570000D01*
X78009523Y-65617619D01*
X78057142Y-65712857D01*
X78057142Y-65855714D01*
X78009523Y-65950952D01*
X77961904Y-65998571D01*
X77866666Y-66046190D01*
X77485714Y-66046190D01*
X78390476Y-65522380D02*
X79009523Y-65522380D01*
X78676190Y-65903333D01*
X78819047Y-65903333D01*
X78914285Y-65950952D01*
X78961904Y-65998571D01*
X79009523Y-66093809D01*
X79009523Y-66331904D01*
X78961904Y-66427142D01*
X78914285Y-66474761D01*
X78819047Y-66522380D01*
X78533333Y-66522380D01*
X78438095Y-66474761D01*
X78390476Y-66427142D01*
X79342857Y-65522380D02*
X80009523Y-65522380D01*
X79580952Y-66522380D01*
%TO.C,R62*%
X77857142Y-73722380D02*
X77523809Y-73246190D01*
X77285714Y-73722380D02*
X77285714Y-72722380D01*
X77666666Y-72722380D01*
X77761904Y-72770000D01*
X77809523Y-72817619D01*
X77857142Y-72912857D01*
X77857142Y-73055714D01*
X77809523Y-73150952D01*
X77761904Y-73198571D01*
X77666666Y-73246190D01*
X77285714Y-73246190D01*
X78714285Y-72722380D02*
X78523809Y-72722380D01*
X78428571Y-72770000D01*
X78380952Y-72817619D01*
X78285714Y-72960476D01*
X78238095Y-73150952D01*
X78238095Y-73531904D01*
X78285714Y-73627142D01*
X78333333Y-73674761D01*
X78428571Y-73722380D01*
X78619047Y-73722380D01*
X78714285Y-73674761D01*
X78761904Y-73627142D01*
X78809523Y-73531904D01*
X78809523Y-73293809D01*
X78761904Y-73198571D01*
X78714285Y-73150952D01*
X78619047Y-73103333D01*
X78428571Y-73103333D01*
X78333333Y-73150952D01*
X78285714Y-73198571D01*
X78238095Y-73293809D01*
X79190476Y-72817619D02*
X79238095Y-72770000D01*
X79333333Y-72722380D01*
X79571428Y-72722380D01*
X79666666Y-72770000D01*
X79714285Y-72817619D01*
X79761904Y-72912857D01*
X79761904Y-73008095D01*
X79714285Y-73150952D01*
X79142857Y-73722380D01*
X79761904Y-73722380D01*
%TO.C,R64*%
X85172142Y-74722380D02*
X84838809Y-74246190D01*
X84600714Y-74722380D02*
X84600714Y-73722380D01*
X84981666Y-73722380D01*
X85076904Y-73770000D01*
X85124523Y-73817619D01*
X85172142Y-73912857D01*
X85172142Y-74055714D01*
X85124523Y-74150952D01*
X85076904Y-74198571D01*
X84981666Y-74246190D01*
X84600714Y-74246190D01*
X86029285Y-73722380D02*
X85838809Y-73722380D01*
X85743571Y-73770000D01*
X85695952Y-73817619D01*
X85600714Y-73960476D01*
X85553095Y-74150952D01*
X85553095Y-74531904D01*
X85600714Y-74627142D01*
X85648333Y-74674761D01*
X85743571Y-74722380D01*
X85934047Y-74722380D01*
X86029285Y-74674761D01*
X86076904Y-74627142D01*
X86124523Y-74531904D01*
X86124523Y-74293809D01*
X86076904Y-74198571D01*
X86029285Y-74150952D01*
X85934047Y-74103333D01*
X85743571Y-74103333D01*
X85648333Y-74150952D01*
X85600714Y-74198571D01*
X85553095Y-74293809D01*
X86981666Y-74055714D02*
X86981666Y-74722380D01*
X86743571Y-73674761D02*
X86505476Y-74389047D01*
X87124523Y-74389047D01*
%TO.C,U15*%
X80931904Y-61462380D02*
X80931904Y-62271904D01*
X80979523Y-62367142D01*
X81027142Y-62414761D01*
X81122380Y-62462380D01*
X81312857Y-62462380D01*
X81408095Y-62414761D01*
X81455714Y-62367142D01*
X81503333Y-62271904D01*
X81503333Y-61462380D01*
X82503333Y-62462380D02*
X81931904Y-62462380D01*
X82217619Y-62462380D02*
X82217619Y-61462380D01*
X82122380Y-61605238D01*
X82027142Y-61700476D01*
X81931904Y-61748095D01*
X83408095Y-61462380D02*
X82931904Y-61462380D01*
X82884285Y-61938571D01*
X82931904Y-61890952D01*
X83027142Y-61843333D01*
X83265238Y-61843333D01*
X83360476Y-61890952D01*
X83408095Y-61938571D01*
X83455714Y-62033809D01*
X83455714Y-62271904D01*
X83408095Y-62367142D01*
X83360476Y-62414761D01*
X83265238Y-62462380D01*
X83027142Y-62462380D01*
X82931904Y-62414761D01*
X82884285Y-62367142D01*
%TO.C,U29*%
X80781904Y-68692380D02*
X80781904Y-69501904D01*
X80829523Y-69597142D01*
X80877142Y-69644761D01*
X80972380Y-69692380D01*
X81162857Y-69692380D01*
X81258095Y-69644761D01*
X81305714Y-69597142D01*
X81353333Y-69501904D01*
X81353333Y-68692380D01*
X81781904Y-68787619D02*
X81829523Y-68740000D01*
X81924761Y-68692380D01*
X82162857Y-68692380D01*
X82258095Y-68740000D01*
X82305714Y-68787619D01*
X82353333Y-68882857D01*
X82353333Y-68978095D01*
X82305714Y-69120952D01*
X81734285Y-69692380D01*
X82353333Y-69692380D01*
X82829523Y-69692380D02*
X83020000Y-69692380D01*
X83115238Y-69644761D01*
X83162857Y-69597142D01*
X83258095Y-69454285D01*
X83305714Y-69263809D01*
X83305714Y-68882857D01*
X83258095Y-68787619D01*
X83210476Y-68740000D01*
X83115238Y-68692380D01*
X82924761Y-68692380D01*
X82829523Y-68740000D01*
X82781904Y-68787619D01*
X82734285Y-68882857D01*
X82734285Y-69120952D01*
X82781904Y-69216190D01*
X82829523Y-69263809D01*
X82924761Y-69311428D01*
X83115238Y-69311428D01*
X83210476Y-69263809D01*
X83258095Y-69216190D01*
X83305714Y-69120952D01*
%TO.C,R63*%
X85342142Y-67472380D02*
X85008809Y-66996190D01*
X84770714Y-67472380D02*
X84770714Y-66472380D01*
X85151666Y-66472380D01*
X85246904Y-66520000D01*
X85294523Y-66567619D01*
X85342142Y-66662857D01*
X85342142Y-66805714D01*
X85294523Y-66900952D01*
X85246904Y-66948571D01*
X85151666Y-66996190D01*
X84770714Y-66996190D01*
X86199285Y-66472380D02*
X86008809Y-66472380D01*
X85913571Y-66520000D01*
X85865952Y-66567619D01*
X85770714Y-66710476D01*
X85723095Y-66900952D01*
X85723095Y-67281904D01*
X85770714Y-67377142D01*
X85818333Y-67424761D01*
X85913571Y-67472380D01*
X86104047Y-67472380D01*
X86199285Y-67424761D01*
X86246904Y-67377142D01*
X86294523Y-67281904D01*
X86294523Y-67043809D01*
X86246904Y-66948571D01*
X86199285Y-66900952D01*
X86104047Y-66853333D01*
X85913571Y-66853333D01*
X85818333Y-66900952D01*
X85770714Y-66948571D01*
X85723095Y-67043809D01*
X86627857Y-66472380D02*
X87246904Y-66472380D01*
X86913571Y-66853333D01*
X87056428Y-66853333D01*
X87151666Y-66900952D01*
X87199285Y-66948571D01*
X87246904Y-67043809D01*
X87246904Y-67281904D01*
X87199285Y-67377142D01*
X87151666Y-67424761D01*
X87056428Y-67472380D01*
X86770714Y-67472380D01*
X86675476Y-67424761D01*
X86627857Y-67377142D01*
%TD*%
M02*
