M48
; DRILL file {KiCad 5.1.6-c6e7f7d~87~ubuntu20.04.1} date Mon Nov  9 11:08:02 2020
; FORMAT={-:-/ absolute / inch / decimal}
; #@! TF.CreationDate,2020-11-09T11:08:02+00:00
; #@! TF.GenerationSoftware,Kicad,Pcbnew,5.1.6-c6e7f7d~87~ubuntu20.04.1
FMAT,2
INCH
T1C0.0118
T2C0.0157
T3C0.0256
T4C0.0315
T5C0.0394
T6C0.0433
T7C0.0472
T8C0.0354
%
G90
G05
T1
X1.49Y-4.03
X1.49Y-4.08
X1.49Y-4.13
X1.499Y-1.314
X1.499Y-1.4419
X1.5079Y-2.689
X1.5079Y-2.7205
X1.5079Y-2.748
X1.5079Y-2.7756
X1.5079Y-2.8071
X1.5433Y-2.689
X1.5433Y-2.7205
X1.5433Y-2.748
X1.5433Y-2.7756
X1.5522Y-1.314
X1.5522Y-1.4419
X1.6043Y-1.4419
X1.6063Y-1.314
X1.6331Y-2.2752
X1.6693Y-1.4341
X1.6713Y-1.3219
X1.7094Y-4.0806
X1.71Y-4.04
X1.71Y-4.12
X1.7224Y-1.3356
X1.7224Y-1.4222
X1.749Y-1.7175
X1.7594Y-4.0806
X1.76Y-4.04
X1.76Y-4.12
X1.7825Y-1.3307
X1.7835Y-1.2789
X1.7835Y-1.4348
X1.7835Y-1.4744
X1.7904Y-1.8514
X1.802Y-2.1394
X1.8094Y-4.0806
X1.81Y-4.04
X1.81Y-4.12
X1.811Y-2.0472
X1.8246Y-1.3621
X1.8406Y-0.8957
X1.8701Y-2.0472
X1.8701Y-1.4984
X1.8701Y-1.3622
X1.872Y-2.3142
X1.8744Y-1.2789
X1.8744Y-1.4151
X1.91Y-1.18
X1.91Y-1.68
X1.91Y-1.72
X1.9153Y-1.4984
X1.9157Y-1.3622
X1.9162Y-1.4118
X1.9191Y-1.2756
X1.9193Y-0.8957
X1.9213Y-1.5659
X1.9291Y-2.2291
X1.94Y-1.68
X1.94Y-1.72
X1.9488Y-2.0472
X1.9488Y-2.1654
X1.9604Y-1.4984
X1.9613Y-1.4118
X1.9613Y-1.3622
X1.9638Y-1.2756
X1.9843Y-2.365
X1.9882Y-1.0896
X1.9922Y-1.6656
X2.0056Y-1.4987
X2.0063Y-1.4119
X2.0069Y-1.3622
X2.0085Y-1.2756
X2.0276Y-2.0472
X2.0276Y-2.1654
X2.0331Y-2.5563
X2.0376Y-1.526
X2.0388Y-1.571
X2.0443Y-1.6526
X2.049Y-4.2161
X2.049Y-4.2161
X2.0502Y-1.75
X2.0525Y-1.3622
X2.0532Y-1.2756
X2.0537Y-1.7022
X2.0547Y-1.4233
X2.09Y-1.17
X2.0944Y-1.4529
X2.0978Y-1.2744
X2.0981Y-1.3614
X2.0982Y-3.9434
X2.1033Y-1.7175
X2.1039Y-2.387
X2.1063Y-2.0472
X2.1063Y-2.1654
X2.1193Y-1.4959
X2.12Y-4.54
X2.1254Y-1.5452
X2.1254Y-1.5952
X2.13Y-1.683
X2.1358Y-1.248
X2.1423Y-1.351
X2.1803Y-1.3263
X2.1811Y-1.1614
X2.1811Y-2.4281
X2.185Y-2.0472
X2.185Y-2.1654
X2.19Y-1.21
X2.2087Y-1.0197
X2.2087Y-1.0512
X2.2121Y-1.1919
X2.2175Y-1.31
X2.2362Y-1.0827
X2.25Y-1.3051
X2.2559Y-1.0197
X2.2559Y-1.0512
X2.26Y-1.68
X2.2638Y-2.0472
X2.2638Y-2.1654
X2.2776Y-1.2421
X2.299Y-4.3066
X2.3012Y-2.3002
X2.314Y-2.4281
X2.3307Y-1.003
X2.3425Y-2.0472
X2.3425Y-2.1654
X2.36Y-1.18
X2.36Y-1.24
X2.41Y-1.18
X2.41Y-1.24
X2.4134Y-1.002
X2.4213Y-2.0472
X2.4213Y-2.1654
X2.46Y-1.55
X2.4813Y-1.4843
X2.4911Y-1.9803
X2.5Y-2.0472
X2.5Y-2.1654
X2.5207Y-2.0098
X2.5463Y-1.9154
X2.5522Y-2.0364
X2.5591Y-1.1555
X2.5591Y-2.7323
X2.564Y-1.312
X2.5659Y-1.1171
X2.5768Y-1.9449
X2.5856Y-1.5669
X2.5856Y-1.7992
X2.5856Y-2.061
X2.5876Y-1.2254
X2.6043Y-1.3126
X2.6102Y-1.9754
X2.624Y-1.2333
X2.6308Y-1.3574
X2.6331Y-2.328
X2.6335Y-2.2083
X2.6407Y-2.003
X2.6457Y-1.1378
X2.6614Y-1.6506
X2.6614Y-1.7825
X2.6654Y-1.5167
X2.6769Y-3.9789
X2.6988Y-1.1043
X2.71Y-1.19
X2.71Y-1.24
X2.7165Y-2.0472
X2.7232Y-2.3283
X2.7525Y-0.9803
X2.7559Y-1.5945
X2.76Y-1.19
X2.76Y-1.24
X2.7748Y-2.4524
X2.7953Y-1.9764
X2.8108Y-3.9602
X2.8336Y-1.1563
X2.8346Y-2.0472
X2.8346Y-2.185
X2.8701Y-1.2244
X2.8878Y-1.302
X2.8937Y-2.0472
X2.8937Y-2.185
X2.9Y-1.09
X2.9091Y-1.2091
X2.9252Y-1.9764
X2.9331Y-2.4094
X2.9449Y-1.3543
X2.9606Y-1.6055
X2.9685Y-2.8661
X2.9689Y-1.2091
X2.97Y-3.73
X2.97Y-3.91
X2.9724Y-2.0472
X2.9724Y-2.185
X2.9736Y-3.8197
X2.9768Y-1.3122
X3.0039Y-1.0866
X3.0039Y-1.1299
X3.0039Y-1.1732
X3.0039Y-2.4606
X3.0197Y-1.4764
X3.0231Y-1.4129
X3.03Y-4.54
X3.0305Y-1.6063
X3.0315Y-4.0591
X3.0551Y-1.9724
X3.063Y-1.0748
X3.0906Y-2.1063
X3.1063Y-1.0748
X3.126Y-2.5945
X3.126Y-2.622
X3.126Y-2.6496
X3.127Y-3.064
X3.1299Y-2.1654
X3.1299Y-2.2244
X3.1398Y-1.4163
X3.15Y-1.54
X3.1713Y-1.6004
X3.1718Y-1.7117
X3.18Y-1.54
X3.1866Y-1.974
X3.1929Y-1.0797
X3.1929Y-1.1299
X3.1978Y-1.7087
X3.1998Y-1.4297
X3.2057Y-1.6004
X3.2063Y-4.5505
X3.2096Y-1.0197
X3.21Y-1.54
X3.2283Y-1.2913
X3.2382Y-1.6004
X3.2441Y-1.1575
X3.2441Y-1.2047
X3.247Y-1.1053
X3.248Y-1.3435
X3.2539Y-1.4124
X3.2907Y-1.7026
X3.2913Y-4.4216
X3.3031Y-1.7362
X3.3031Y-3.7087
X3.3071Y-3.3465
X3.3228Y-1.6703
X3.3268Y-1.626
X3.3307Y-2.5512
X3.3317Y-1.5522
X3.3504Y-2.3819
X3.3504Y-3.0709
X3.3535Y-3.4051
X3.3642Y-2.3252
X3.3661Y-2.6378
X3.374Y-2.6732
X3.378Y-2.5433
X3.39Y-4.36
X3.3976Y-2.8307
X3.4055Y-2.6339
X3.4055Y-2.6732
X3.437Y-2.6732
X3.4449Y-2.5512
X3.4449Y-2.8661
X3.4449Y-2.9252
X3.4449Y-3.0669
X3.4449Y-3.1969
X3.4567Y-2.6339
X3.4727Y-3.2758
X3.4734Y-1.2441
X3.5276Y-1.4134
X3.5315Y-2.6339
X3.5472Y-3.2992
X3.5551Y-2.5472
X3.5827Y-2.874
X3.5933Y-4.202
X3.6024Y-2.5394
X3.6063Y-1.2992
X3.6467Y-1.6998
X3.6757Y-3.8125
X3.6921Y-3.8665
X3.7039Y-3.924
X3.7244Y-3.9921
X3.7647Y-3.8091
X3.7736Y-1.6693
X3.7862Y-2.5083
X3.7972Y-3.3484
X3.7982Y-2.9183
X3.8228Y-2.5768
X3.8543Y-1.2992
X3.9173Y-4.6378
X3.9213Y-4.0157
X3.9419Y-2.4587
X3.9518Y-2.3169
X3.9528Y-2.5768
X3.9577Y-2.3514
X3.9604Y-2.9596
X3.972Y-4.0841
X3.9764Y-3.815
X3.9852Y-2.561
X3.9872Y-2.3169
X3.99Y-3.24
X3.99Y-3.45
X3.9906Y-3.6535
X3.9921Y-3.9699
X4.01Y-2.75
X4.0157Y-3.8543
X4.0285Y-3.8937
X4.0423Y-2.6781
X4.0433Y-2.3199
X4.0581Y-4.3976
X4.0827Y-1.937
X4.0925Y-2.7303
X4.0972Y-4.1835
X4.1073Y-3.7943
X4.1073Y-4.3248
X4.1079Y-3.0752
X4.1142Y-1.2992
X4.1339Y-3.2874
X4.1339Y-3.3858
X4.1348Y-2.7283
X4.1348Y-4.2953
X4.1417Y-4.4793
X4.1437Y-4.1024
X4.1437Y-4.1913
X4.1604Y-2.9606
X4.1663Y-1.0827
X4.17Y-2.28
X4.1722Y-2.7283
X4.185Y-4.0039
X4.187Y-4.2156
X4.189Y-3.8799
X4.2Y-3.7
X4.2008Y-2.3071
X4.2008Y-2.6063
X4.2087Y-4.123
X4.2098Y-4.1579
X4.2192Y-4.0033
X4.2195Y-4.4803
X4.2215Y-2.4016
X4.2224Y-2.6358
X4.2323Y-3.3661
X4.2323Y-3.5827
X4.2331Y-4.1902
X4.2402Y-1.6407
X4.2503Y-4.008
X4.2618Y-4.0874
X4.2618Y-4.3297
X4.2654Y-2.9689
X4.27Y-2.27
X4.2707Y-2.7362
X4.2864Y-3.8799
X4.2864Y-4.2008
X4.2913Y-3.1496
X4.2933Y-3.8041
X4.3012Y-4.4823
X4.3022Y-4.003
X4.3063Y-4.2402
X4.311Y-3.4252
X4.3258Y-3.7707
X4.3386Y-3.873
X4.3494Y-4.6417
X4.3504Y-2.6772
X4.3504Y-3.0906
X4.3504Y-3.2677
X4.3514Y-1.0827
X4.3571Y-4.2701
X4.3701Y-2.3031
X4.3701Y-3.6024
X4.3701Y-3.6614
X4.3907Y-4.4656
X4.3927Y-4.0945
X4.3963Y-4.1258
X4.3976Y-4.1594
X4.3976Y-4.3268
X4.3986Y-2.4803
X4.4006Y-3.9951
X4.4016Y-3.8612
X4.4075Y-2.687
X4.4134Y-2.7421
X4.4177Y-4.0638
X4.4262Y-2.4547
X4.435Y-4.1624
X4.497Y-1.5315
X4.5079Y-3.0118
X4.5079Y-3.189
X4.5108Y-3.8396
X4.5335Y-1.0827
X4.5344Y-3.6447
X4.5344Y-3.6831
X4.5344Y-3.7283
X4.561Y-4.2136
X4.563Y-4.0837
X4.5669Y-2.8346
X4.6193Y-3.976
X4.6486Y-4.0768
X4.6526Y-1.2943
X4.6526Y-1.3228
X4.6526Y-2.5955
X4.6644Y-4.4823
X4.6895Y-1.2943
X4.6895Y-1.3228
X4.7047Y-2.8543
X4.7244Y-3.0512
X4.7264Y-1.2933
X4.7264Y-1.3228
X4.7441Y-3.3465
X4.7441Y-3.4055
X4.7835Y-2.8543
X4.8219Y-2.2598
X4.8238Y-3.5551
X4.8258Y-2.3937
X4.8406Y-3.0669
X4.8504Y-4.4291
X4.8622Y-2.8543
X4.8789Y-3.6634
X4.9016Y-3.2087
X4.9016Y-3.2677
X4.9016Y-3.3268
X4.9547Y-4.6112
X4.9606Y-2.6575
X4.9843Y-3.6457
X5.0079Y-3.6654
X5.0276Y-3.6417
X5.0472Y-3.9154
X5.0571Y-3.2657
X5.0669Y-3.6457
X5.0906Y-3.6654
X5.095Y-3.4395
X5.1102Y-3.6457
X5.1171Y-3.4173
X5.3189Y-4.5266
T2
X3.6575Y-2.5472
T3
X4.3894Y-4.5276
X4.4394Y-4.5276
X4.4894Y-4.5276
X4.5394Y-4.5276
X4.1626Y-4.6693
X4.2126Y-4.6693
X5.1398Y-4.4732
X5.1398Y-4.5232
X5.1398Y-4.5732
X5.1398Y-4.6232
X5.1398Y-4.6732
X5.2185Y-3.0226
X5.2185Y-3.0726
X5.2185Y-3.1226
X5.2185Y-3.1726
X5.2185Y-3.2226
X5.2185Y-3.2726
X5.2185Y-3.3226
X5.2685Y-3.0226
X5.2685Y-3.0726
X5.2685Y-3.1226
X5.2685Y-3.1726
X5.2685Y-3.2226
X5.2685Y-3.2726
X5.2685Y-3.3226
T4
X2.0206Y-3.4391
X2.0206Y-3.5178
X2.0166Y-3.1989
X2.0166Y-3.2776
T5
X2.0285Y-3.8271
X2.0285Y-4.5771
X2.7785Y-3.8271
X2.7785Y-4.2021
X2.7785Y-4.5771
X2.3Y-3.31
X2.3Y-3.41
X5.0945Y-2.313
X5.0945Y-2.413
X5.0945Y-2.513
X5.0945Y-2.613
X5.0945Y-2.713
X5.1945Y-2.313
X5.1945Y-2.413
X5.1945Y-2.513
X5.1945Y-2.613
X5.1945Y-2.713
T6
X1.58Y-3.9806
X1.58Y-4.0806
X1.58Y-4.1806
X1.5796Y-3.2363
X1.5796Y-3.3363
X1.5796Y-3.4363
T7
X1.7913Y-2.748
X1.7913Y-2.948
T8
X5.1378Y-4.1417
X5.1378Y-4.315
T0
M30
